<?xml version="1.0" encoding="UTF-8" standalone="no"?>
<!-- Created with Inkscape (http://www.inkscape.org/) -->

<svg
   xmlns:osb="http://www.openswatchbook.org/uri/2009/osb"
   xmlns:dc="http://purl.org/dc/elements/1.1/"
   xmlns:cc="http://creativecommons.org/ns#"
   xmlns:rdf="http://www.w3.org/1999/02/22-rdf-syntax-ns#"
   xmlns:svg="http://www.w3.org/2000/svg"
   xmlns="http://www.w3.org/2000/svg"
   xmlns:sodipodi="http://sodipodi.sourceforge.net/DTD/sodipodi-0.dtd"
   xmlns:inkscape="http://www.inkscape.org/namespaces/inkscape"
   width="100"
   height="150"
   id="svg2"
   version="1.1"
   inkscape:version="0.48.0 r9654"
   sodipodi:docname="whatknotghost.svg">
  <defs
     id="defs4">
    <inkscape:path-effect
       effect="spiro"
       id="path-effect5334"
       is_visible="true" />
    <inkscape:path-effect
       effect="spiro"
       id="path-effect5330"
       is_visible="true" />
    <inkscape:path-effect
       effect="spiro"
       id="path-effect5326"
       is_visible="true" />
    <inkscape:path-effect
       effect="spiro"
       id="path-effect5322"
       is_visible="true" />
    <inkscape:path-effect
       effect="spiro"
       id="path-effect5318"
       is_visible="true" />
    <inkscape:path-effect
       effect="spiro"
       id="path-effect5310"
       is_visible="true" />
    <inkscape:path-effect
       effect="spiro"
       id="path-effect5293"
       is_visible="true" />
    <inkscape:path-effect
       effect="spiro"
       id="path-effect5277"
       is_visible="true" />
    <linearGradient
       id="linearGradient5227"
       osb:paint="solid">
      <stop
         style="stop-color:#0000ff;stop-opacity:1;"
         offset="0"
         id="stop5229" />
    </linearGradient>
    <linearGradient
       id="linearGradient3765">
      <stop
         style="stop-color:#0000ff;stop-opacity:0.6964286;"
         offset="0"
         id="stop3767" />
      <stop
         id="stop3777"
         offset="0.40972221"
         style="stop-color:#0000ff;stop-opacity:0.6785714;" />
      <stop
         style="stop-color:#2000d6;stop-opacity:0.60714287;"
         offset="0.4197222"
         id="stop5344" />
      <stop
         style="stop-color:#3b4447;stop-opacity:0.72916669;"
         offset="0.48707831"
         id="stop3779" />
      <stop
         id="stop3775"
         offset="0.73404062"
         style="stop-color:#0034b6;stop-opacity:0.53571427;" />
      <stop
         style="stop-color:#0000ff;stop-opacity:0.48958334;"
         offset="0.8290261"
         id="stop5346" />
      <stop
         style="stop-color:#0000ff;stop-opacity:0.1875;"
         offset="1"
         id="stop3769" />
    </linearGradient>
  </defs>
  <sodipodi:namedview
     id="base"
     pagecolor="#ffffff"
     bordercolor="#666666"
     borderopacity="1.0"
     inkscape:pageopacity="0.0"
     inkscape:pageshadow="2"
     inkscape:zoom="0.49497475"
     inkscape:cx="-70.714286"
     inkscape:cy="274.5618"
     inkscape:document-units="px"
     inkscape:current-layer="layer1"
     showgrid="false"
     inkscape:window-width="1366"
     inkscape:window-height="706"
     inkscape:window-x="-8"
     inkscape:window-y="-8"
     inkscape:window-maximized="1" />
  <metadata
     id="metadata7">
    <rdf:RDF>
      <cc:Work
         rdf:about="">
        <dc:format>image/svg+xml</dc:format>
        <dc:type
           rdf:resource="http://purl.org/dc/dcmitype/StillImage" />
        <dc:title></dc:title>
      </cc:Work>
    </rdf:RDF>
  </metadata>
  <g
     inkscape:label="Layer 1"
     inkscape:groupmode="layer"
     id="layer1"
     transform="translate(0,-902.36218)">
    <path
       style="opacity:0.42920353;fill:#0000ff;fill-opacity:0.58201055;stroke:#0000ff;stroke-width:0.19850582;stroke-opacity:0.55026455"
       d="m 54.037422,934.66109 c -7.98325,2.02417 -13.48689,9.04803 -18.72114,15.27907 -4.17005,4.31753 -10.558747,6.3259 -13.077186,12.31809 -2.283159,7.12041 1.875496,14.96041 7.763446,18.41305 5.85121,4.4324 7.2828,13.10507 5.5408,20.1571 -1.80629,7.9728 -5.18613,15.5243 -5.94853,23.7631 -0.425798,4.017 -0.634433,8.3728 0.91809,12.1265 2.53264,2.9468 6.64339,2.3477 9.973,3.2878 4.54781,0.8798 9.76341,2.7016 11.75026,7.6075 0.66399,1.1803 2.07862,1.0675 2.95185,0.3032 2.97825,-0.7825 6.09635,0.2291 9.08059,-0.6237 1.3217,0.048 1.83808,-1.249 1.78376,-2.4602 0.36565,-2.9842 1.33235,-6.0689 3.72812,-7.8775 2.93032,-2.8659 7.20161,-3.7974 9.84091,-6.9858 0.68964,-3.2718 -2.52294,-5.1103 -4.47016,-6.8929 -2.05006,-2.2799 -2.14849,-5.7508 -1.36351,-8.6008 -0.23967,-1.8887 -2.65712,-2.5744 -3.79109,-1.1248 -3.49058,2.4175 -3.62773,7.646 -2.2816,11.4272 0.72736,4.2138 0.65298,9.6315 -3.03213,12.2925 -4.96449,3.0634 -11.48042,-0.3451 -13.76494,-5.5648 -3.93449,-7.423 -1.22234,-17.4781 5.16172,-22.3067 5.46441,-5.195 12.80623,-7.1361 19.82829,-8.4326 5.43661,-2.79152 7.63355,-9.42691 8.62619,-15.35738 1.8692,-7.17362 5.43686,-14.45063 3.84138,-22.08688 -1.87561,-6.30204 -8.39327,-9.60774 -14.2627,-9.47228 -6.73417,-0.96311 -11.68345,-7.22114 -13.67583,-13.81614 -1.32566,-2.55472 -3.31637,-5.54924 -6.39959,-5.37263 z"
       id="path5303"
       inkscape:connector-curvature="0" />
    <path
       style="opacity:0.34070794;fill:#0000ff;fill-opacity:0.58201055;stroke:#0000ff;stroke-width:0.16438691;stroke-opacity:0.55026455"
       d="m 48.924792,904.89291 c 0.719,1.7171 0.48941,4.47768 -1.45415,4.9594 -5.92688,2.89061 -12.82906,2.95366 -18.270314,7.13809 -2.045855,1.1737 -3.240405,4.07006 -2.351288,6.52653 1.020781,2.55332 3.755992,3.18686 5.929182,3.86346 4.06184,1.34458 8.26334,2.42736 12.02649,4.66975 1.72024,1.1006 2.84548,3.50488 2.05373,5.67644 -0.8638,2.79098 -3.58668,3.84593 -5.92535,4.41708 -3.45342,0.84077 -6.91185,1.77458 -10.1128,3.50421 -4.083229,2.0853 -7.914614,5.89132 -8.668358,11.08903 -0.991211,5.97907 1.609711,12.34768 6.115235,15.64363 6.328473,5.5366 14.451673,6.96974 21.853083,9.82325 3.84741,1.53617 7.87809,3.50922 10.38665,7.28555 1.58452,3.80313 -0.50786,8.31437 -3.53472,10.30392 -6.98482,6.71275 -14.24041,13.71305 -18.29017,23.19825 -2.31481,5.8838 -1.91389,13.5462 2.31302,18.2322 3.22679,3.6566 8.31419,4.3741 12.56508,2.9023 3.53795,-1.0415 7.32812,-3.0122 10.98182,-1.445 1.59231,0.6367 2.84457,2.7859 4.70849,2.0927 1.46608,-0.3746 1.94878,-2.287 1.39721,-3.7076 -0.77773,-2.3308 -3.16714,-3.2269 -5.21371,-3.0929 -5.68264,-0.416 -10.85702,2.812 -16.36032,3.7331 -3.14753,0.2916 -6.86951,-1.4576 -7.67103,-5.1904 -1.13001,-4.5073 0.8747,-9.0333 2.97727,-12.7594 5.1879,-9.2078 13.40862,-15.3463 20.95486,-21.8656 3.53598,-3.12106 7.22555,-6.78677 8.37003,-11.87601 0.60412,-4.12097 -1.72415,-7.76348 -3.80968,-10.86958 -1.58818,-2.98812 0.0786,-6.73595 2.44189,-8.4955 1.41256,-1.10927 3.08995,-1.84622 4.09772,-3.51023 2.54433,-3.49085 3.08029,-8.65211 1.18867,-12.65858 -1.71608,-4.58727 -4.38762,-9.21999 -3.70333,-14.41966 0.40511,-3.63635 1.6145,-7.66784 -0.23654,-11.06423 -2.10621,-3.99826 -6.50044,-5.37622 -10.3843,-5.61395 -4.98037,-0.25598 -9.97211,-0.1135 -14.94697,-0.54274 -5.18174,-0.32175 -10.38169,-0.84713 -15.43572,-2.22842 -0.9354,-1.35558 0.55112,-2.96348 1.76866,-3.07973 4.47275,-2.63535 9.45457,-3.78942 14.25666,-5.40094 1.72043,1.12585 3.53189,-1.46048 3.15489,-3.31582 -0.0998,-1.93746 -1.42627,-3.79939 -3.19316,-4.01816 l 0.0213,0.0956 z"
       id="path5306"
       inkscape:connector-curvature="0" />
    <path
       style="opacity:0.58407078;fill:#9fcdc6;fill-opacity:1;stroke:#0000ff;stroke-width:0.23516741;stroke-opacity:0.55026455"
       d="m 41.398962,903.64589 c -5.9727,0.35018 -9.87599,9.03148 -6.65234,14.66544 1.96029,3.51735 6.68119,4.66641 9.7222,2.32934 1.77434,-1.7097 2.00098,-5.3924 -0.15259,-6.84245 -1.34467,-1.4187 -3.61325,-2.59718 -3.43175,-5.03526 0.82984,-2.23461 3.42567,-2.15051 5.2043,-1.74392 3.22486,0.73134 6.6299,3.09632 7.37701,6.91832 0.20892,3.63224 -2.21521,6.44483 -3.87527,9.26541 -1.87074,2.76319 -3.28409,6.00255 -3.52665,9.50082 -0.9808,4.14671 -4.18392,7.09027 -7.64142,8.55733 -6.53077,3.14938 -13.785409,2.27127 -20.672432,3.26894 -2.300069,0.35206 -4.810807,1.87268 -5.220368,4.67135 -0.677742,3.2331 -0.0282,6.93407 -1.967798,9.72913 -1.6425901,2.95136 -4.3688291,4.789 -6.6687021,6.97558 -1.322535,2.31152 0.225516,5.66648 2.576122,6.08313 4.7605771,2.30282 10.5115781,2.15107 14.5318131,6.2218 2.351362,2.49541 2.040732,6.68137 0.703177,9.68746 -0.993512,3.90384 0.71532,8.25988 3.777926,10.32501 3.211257,2.54748 7.312612,2.64138 10.823022,4.37158 2.04936,1.1369 3.81805,3.822 2.89553,6.4549 -0.94515,3.2051 -4.08718,4.8325 -6.9178,4.8256 -3.68517,1.2322 -5.798116,6.8234 -3.386248,10.4225 2.555568,4.8455 7.283588,7.4897 10.155148,12.051 2.87935,3.8219 5.85692,8.306 10.4512,9.4663 4.33277,0.9223 8.49015,-1.5689 11.89569,-4.3251 4.90867,-3.7374 9.70685,-7.6605 14.49303,-11.5894 5.55266,-4.9627 10.92878,-10.8089 13.49389,-18.4094 1.16226,-5.3977 -2.32093,-11.3556 -7.16735,-12.37097 -2.22066,-0.91994 -4.87666,-2.57618 -5.03129,-5.5555 -0.0397,-3.42098 2.68526,-5.77859 5.17879,-7.11898 3.80684,-3.41042 3.48111,-9.88377 7.23139,-13.36015 2.73239,-2.76155 6.71459,-4.35158 8.14371,-8.45568 1.08765,-3.67683 -1.43267,-7.45638 -4.40295,-8.78892 -2.5158,-1.11359 -5.29439,-1.19719 -7.78686,-2.41971 -2.77167,-1.11718 -5.56606,-3.47804 -5.88226,-7.00905 -0.473,-3.2833 0.017,-7.20708 -2.33725,-9.72291 -2.98544,-3.18429 -7.35285,-3.08522 -11.13387,-3.98748 -4.68172,-1.4347 -8.94898,-4.45454 -13.84166,-5.01397 -1.27709,-0.49415 -1.71828,-2.46609 -0.78326,-3.56971 1.47204,-3.23531 4.27646,-6.11021 3.96791,-10.03758 -0.52654,-3.36238 -3.35294,-5.32798 -5.69528,-7.06408 -2.5298,-1.56833 -5.22414,-3.20416 -8.16158,-3.38028 -0.095,0.003 -0.18992,0.007 -0.28488,0.01 z"
       id="path5349"
       inkscape:connector-curvature="0" />
    <path
       sodipodi:type="arc"
       style="opacity:0.34070794;fill:#0000ff;fill-opacity:0.58201055;stroke:#0000ff;stroke-opacity:0.55026455"
       id="path5392"
       sodipodi:cx="-716.19818"
       sodipodi:cy="504.8595"
       sodipodi:rx="33.335033"
       sodipodi:ry="14.142136"
       d="m -682.86315,504.8595 a 33.335033,14.142136 0 1 1 -66.67006,0 33.335033,14.142136 0 1 1 66.67006,0 z"
       transform="matrix(0.13606008,0,0,0.15289085,141.11287,878.7312)" />
    <path
       d="m -682.86315,504.8595 a 33.335033,14.142136 0 1 1 -66.67006,0 33.335033,14.142136 0 1 1 66.67006,0 z"
       sodipodi:ry="14.142136"
       sodipodi:rx="33.335033"
       sodipodi:cy="504.8595"
       sodipodi:cx="-716.19818"
       id="path5394"
       style="opacity:0.34070794;fill:#0000ff;fill-opacity:0.58201055;stroke:#0000ff;stroke-opacity:0.55026455"
       sodipodi:type="arc"
       transform="matrix(0.13606008,0,0,0.15289085,152.93283,878.11343)" />
    <path
       transform="matrix(0.08737352,0,0,0.08945825,117.23896,911.06464)"
       sodipodi:type="arc"
       style="opacity:0.34070794;fill:#0000ff;fill-opacity:0.58201055;stroke:#0000ff;stroke-opacity:0.55026455"
       id="path5396"
       sodipodi:cx="-716.19818"
       sodipodi:cy="504.8595"
       sodipodi:rx="33.335033"
       sodipodi:ry="14.142136"
       d="m -682.86315,504.8595 a 33.335033,14.142136 0 1 1 -66.67006,0 33.335033,14.142136 0 1 1 66.67006,0 z" />
    <path
       d="m -682.86315,504.8595 a 33.335033,14.142136 0 1 1 -66.67006,0 33.335033,14.142136 0 1 1 66.67006,0 z"
       sodipodi:ry="14.142136"
       sodipodi:rx="33.335033"
       sodipodi:cy="504.8595"
       sodipodi:cx="-716.19818"
       id="path5398"
       style="opacity:0.34070794;fill:#0000ff;fill-opacity:0.58201055;stroke:#0000ff;stroke-opacity:0.55026455"
       sodipodi:type="arc"
       transform="matrix(0.08737352,0,0,0.08945825,105.96875,911.37353)" />
    <path
       style="opacity:0.34070794;fill:#0000ff;fill-opacity:0.58201055;stroke:#0000ff;stroke-width:0.04792536;stroke-opacity:0.55026455"
       d="m 45.503412,967.83853 c -0.62698,0.16142 0.32933,0.3445 0.80087,0.43956 1.79535,0.49991 4.41212,0.9579 7.17251,0.78235 1.92942,-0.13343 3.56241,-0.51188 4.33707,-0.98652 -0.90502,-0.059 -1.16917,0.25123 -1.71793,0.37436 -1.36687,0.43946 -4.01378,0.66078 -5.92567,0.32192 -1.70044,-0.25744 -2.78123,-0.72777 -4.60502,-0.93853 l -0.0613,0.007 -6.3e-4,5e-5 z"
       id="path5400"
       inkscape:connector-curvature="0" />
    <path
       style="opacity:0.34070794;fill:#0000ff;fill-opacity:0.58201055;stroke:#0000ff;stroke-width:0.02771282;stroke-opacity:0.55026455"
       d="m 49.259862,955.67362 c -0.3667,0.0219 -0.55241,0.70044 -0.67258,1.23079 -0.32785,1.45195 -0.74554,2.83188 -1.22054,4.1451 -0.43417,1.31077 -0.77424,2.86486 -0.60474,4.40995 0.17567,1.04462 0.80901,1.59049 1.38281,1.60836 0.93857,0.14371 1.90015,-0.0346 2.79214,-0.58559 0.51443,-0.34525 1.05764,-0.92132 1.24641,-1.901 0.0643,-0.36683 0.0662,-0.91852 -0.15142,-1.11512 -0.23467,-0.0796 -0.34663,0.41271 -0.45504,0.69342 -0.16473,0.52169 -0.40025,1.02326 -0.74343,1.15266 -0.36525,0.17551 -0.73216,-0.0814 -1.06644,-0.32024 -0.38705,-0.15275 -0.76168,0.1561 -1.13325,0.28313 -0.30192,0.0218 -0.69047,-0.30877 -0.68361,-0.92678 0.028,-0.99831 0.42929,-1.76795 0.65676,-2.63485 0.53756,-1.61464 0.91555,-3.37795 1.24861,-5.15506 -0.0529,-0.49065 -0.30775,-0.91931 -0.59568,-0.88477 z"
       id="path5406"
       inkscape:connector-curvature="0" />
  </g>
</svg>
