<?xml version="1.0" encoding="UTF-8" standalone="no"?>
<!-- Created with Inkscape (http://www.inkscape.org/) -->

<svg
   xmlns:dc="http://purl.org/dc/elements/1.1/"
   xmlns:cc="http://creativecommons.org/ns#"
   xmlns:rdf="http://www.w3.org/1999/02/22-rdf-syntax-ns#"
   xmlns:svg="http://www.w3.org/2000/svg"
   xmlns="http://www.w3.org/2000/svg"
   xmlns:xlink="http://www.w3.org/1999/xlink"
   xmlns:sodipodi="http://sodipodi.sourceforge.net/DTD/sodipodi-0.dtd"
   xmlns:inkscape="http://www.inkscape.org/namespaces/inkscape"
   width="180"
   height="100"
   id="svg16283"
   version="1.1"
   inkscape:version="0.48.2 r9819"
   sodipodi:docname="terrain_object_boulder_03.svg">
  <defs
     id="defs16285">
    <radialGradient
       inkscape:collect="always"
       xlink:href="#linearGradient8140-6-5"
       id="radialGradient8290-5-1"
       gradientUnits="userSpaceOnUse"
       gradientTransform="matrix(0.99999999,1.3440004,-0.39509957,0.29397281,325.03692,769.54094)"
       cx="-123.337"
       cy="833.29272"
       fx="-123.337"
       fy="833.29272"
       r="42.062538" />
    <linearGradient
       id="linearGradient8140-6-5">
      <stop
         style="stop-color:#b3b3b3;stop-opacity:1;"
         offset="0"
         id="stop8142-6-1" />
      <stop
         id="stop8178-6-7"
         offset="0.5"
         style="stop-color:#5c5c5c;stop-opacity:1;" />
      <stop
         style="stop-color:#919191;stop-opacity:1;"
         offset="1"
         id="stop8144-6-1" />
    </linearGradient>
    <radialGradient
       inkscape:collect="always"
       xlink:href="#linearGradient8132-7-9"
       id="radialGradient8292-6-7"
       gradientUnits="userSpaceOnUse"
       gradientTransform="matrix(1.42123,0.28136105,-0.09048397,0.45705879,120.02848,490.72851)"
       cx="-110.38249"
       cy="846.80328"
       fx="-110.38249"
       fy="846.80328"
       r="47.397221" />
    <linearGradient
       id="linearGradient8132-7-9">
      <stop
         style="stop-color:#e6e6e6;stop-opacity:1;"
         offset="0"
         id="stop8134-1-4" />
      <stop
         id="stop8172-4-9"
         offset="0.5"
         style="stop-color:#aaaaaa;stop-opacity:1;" />
      <stop
         style="stop-color:#bfbfbf;stop-opacity:1;"
         offset="0.75"
         id="stop8174-0-8" />
      <stop
         style="stop-color:#939393;stop-opacity:1;"
         offset="1"
         id="stop8136-6-0" />
    </linearGradient>
    <radialGradient
       inkscape:collect="always"
       xlink:href="#linearGradient8188-2-1"
       id="radialGradient8294-1-0"
       gradientUnits="userSpaceOnUse"
       gradientTransform="matrix(0.90618047,0.32675473,-0.27189745,0.7540462,225.86088,216.75006)"
       cx="-29.370529"
       cy="851.37988"
       fx="-29.370529"
       fy="851.37988"
       r="29.222767" />
    <linearGradient
       id="linearGradient8188-2-1">
      <stop
         style="stop-color:#373737;stop-opacity:1;"
         offset="0"
         id="stop8190-1-8" />
      <stop
         style="stop-color:#7c7c7c;stop-opacity:1;"
         offset="1"
         id="stop8192-4-5" />
    </linearGradient>
    <radialGradient
       inkscape:collect="always"
       xlink:href="#linearGradient8180-5-8"
       id="radialGradient8296-9-0"
       gradientUnits="userSpaceOnUse"
       gradientTransform="matrix(1.0948777,1.0938403,-0.28560904,0.28587991,242.26087,709.23354)"
       cx="-102.81017"
       cy="815.49377"
       fx="-102.81017"
       fy="815.49377"
       r="40.992847" />
    <linearGradient
       id="linearGradient8180-5-8">
      <stop
         id="stop8182-23-9"
         offset="0"
         style="stop-color:#b3b3b3;stop-opacity:1;" />
      <stop
         style="stop-color:#5c5c5c;stop-opacity:1;"
         offset="0.40049928"
         id="stop8184-4-2" />
      <stop
         id="stop8186-15-8"
         offset="1"
         style="stop-color:#919191;stop-opacity:1;" />
    </linearGradient>
    <radialGradient
       inkscape:collect="always"
       xlink:href="#linearGradient8148-3-8"
       id="radialGradient8298-2-0"
       gradientUnits="userSpaceOnUse"
       gradientTransform="matrix(1.2513715,0.27650839,-0.12509169,0.56611725,116.96818,379.19143)"
       cx="-44.534359"
       cy="845.56787"
       fx="-44.534359"
       fy="845.56787"
       r="15.093598" />
    <linearGradient
       id="linearGradient8148-3-8">
      <stop
         style="stop-color:#4d4d4d;stop-opacity:1;"
         offset="0"
         id="stop8150-1-5" />
      <stop
         style="stop-color:#919191;stop-opacity:1;"
         offset="1"
         id="stop8152-6-1" />
    </linearGradient>
    <radialGradient
       r="48.429268"
       fy="789.90845"
       fx="-84.111702"
       cy="789.90845"
       cx="-84.111702"
       gradientTransform="matrix(1.4612806,0.30556561,-0.08754173,0.41864341,107.69655,510.84635)"
       gradientUnits="userSpaceOnUse"
       id="radialGradient16673"
       xlink:href="#linearGradient8132-7-9"
       inkscape:collect="always" />
  </defs>
  <sodipodi:namedview
     id="base"
     pagecolor="#ffffff"
     bordercolor="#666666"
     borderopacity="1.0"
     inkscape:pageopacity="0.0"
     inkscape:pageshadow="2"
     inkscape:zoom="3.23125"
     inkscape:cx="6.0348161"
     inkscape:cy="80"
     inkscape:document-units="px"
     inkscape:current-layer="layer1"
     showgrid="false"
     inkscape:window-width="1366"
     inkscape:window-height="706"
     inkscape:window-x="-8"
     inkscape:window-y="-8"
     inkscape:window-maximized="1" />
  <metadata
     id="metadata16288">
    <rdf:RDF>
      <cc:Work
         rdf:about="">
        <dc:format>image/svg+xml</dc:format>
        <dc:type
           rdf:resource="http://purl.org/dc/dcmitype/StillImage" />
        <dc:title />
      </cc:Work>
    </rdf:RDF>
  </metadata>
  <g
     inkscape:label="Layer 1"
     inkscape:groupmode="layer"
     id="layer1"
     transform="translate(0,-952.36218)">
    <g
       style="stroke:none"
       transform="matrix(1.3067941,0,0,1.2513849,175.51694,-57.027087)"
       id="g8197-8-7"
       inkscape:export-filename="C:\Users\nine\Desktop\Gourdian\concept art\g3225.png"
       inkscape:export-xdpi="71.998878"
       inkscape:export-ydpi="71.998878">
      <path
         style="fill:#808080;stroke:none"
         d="m 40.34375,856.46875 c -7.367241,0.86115 -13.292827,7.08385 -21.025568,6.05786 -10.6677858,-0.0117 -21.2479008,-2.09228 -31.908474,-1.84939 -5.651827,2.20365 -8.751634,8.40955 -14.600798,10.45462 -3.504213,0.72142 -3.075555,4.44111 -4.86983,4.52134 -6.393113,3.42549 -3.068863,15.13762 -11.887563,13.82875 -4.19231,0.42549 -10.750702,4.70494 -11.019218,5.54404 -3.584965,2.3046 -3.980999,9.29334 -5.316348,12.32852 4.437183,4.4524 12.683346,1.04827 16.020575,7.45831 3.837587,4.22634 8.517826,8.17484 14.434574,8.71217 4.979633,1.72299 9.918308,3.45287 15.231105,4.18165 5.025473,1.21442 9.8828871,2.88053 15.06552703,1.56426 4.22286777,2.13923 8.39439837,5.05719 13.03839597,6.73814 4.600446,0.89746 8.757376,-1.51686 13.087125,-3.21839 4.317597,-1.55509 8.34612,-2.85079 11.532957,-5.71653 5.977423,1.98447 8.509537,-6.50382 13.819706,-6.39502 5.665209,-1.45634 11.246916,-5.56433 17.420676,-6.95423 1.981233,-2.04595 3.774605,-3.40588 6.353538,-4.42946 1.058967,-5.16805 -3.595156,-10.01953 -0.474452,-15.15335 0.234712,-3.77269 3.506374,-8.7438 -0.704571,-11.22593 -2.949376,-2.79814 -5.653513,-5.95642 -8.75657,-8.52888 -1.425019,-2.56871 -6.16119,-6.59182 -9.815787,-8.54348 -6.818925,1.36715 -6.329942,-8.11899 -12.774714,-8.3576 -0.78017,-0.71388 -1.775886,-1.17764 -2.850286,-1.0174 z"
         id="path7284-5-2-3"
         inkscape:connector-curvature="0"
         transform="translate(-73.247172,-49.673712)" />
      <path
         inkscape:connector-curvature="0"
         id="path7284-7-6"
         d="m -134.31109,856.58308 c 3.0561,5.41354 10.4877,2.14067 14.03817,5.69114 3.46157,3.46158 6.89482,7.62093 11.38229,9.86466 2.69599,1.34799 8.80042,1.59163 10.623478,3.41469 0.630858,0.63086 14.935346,2.91475 17.452853,4.17351 2.508017,1.25401 7.942905,-1.54234 9.864657,0.37941 2.601357,2.60135 6.247686,3.69295 10.244066,5.69114 7.366617,3.68331 11.683492,-7.66641 10.244066,-9.10583 -5.960313,-5.96031 -14.7125,-6.40773 -22.385182,-10.24407 -3.047755,-1.52388 -11.901135,1.75762 -14.417574,-0.75882 -8.203619,-8.20362 -14.979724,-8.8178 -26.179284,-14.41757 -2.29479,-1.1474 -7.42928,0.15892 -9.10583,-1.51764 -0.52311,-0.52311 -5.59389,-5.409 -6.44997,-4.55292 -3.65679,3.65679 -1.55655,7.62711 -5.31174,11.3823 z"
         style="fill:url(#radialGradient8290-5-1);fill-opacity:1;stroke:none" />
      <path
         inkscape:connector-curvature="0"
         id="path7286-7-1"
         d="m -128.24053,844.44196 c 10.90672,-7.14579 23.72766,-8.24489 40.976264,0.37941 6.293992,3.147 14.463595,1.56366 19.349902,6.44997 3.921381,3.92138 12.06412,-2.05104 15.555804,4.93233 2.106738,4.21347 7.343827,2.195 12.141116,3.79409 0.832513,0.27751 8.405446,6.01213 6.449967,7.96761 -5.38627,5.38627 -13.859132,6.27094 -16.314624,8.72643 -0.208481,0.20848 -0.774075,-1.33556 -1.138229,-1.51764 -1.152059,-0.57603 -2.949377,-1.43174 -3.794099,-2.27646 -3.980429,-3.98043 -13.732597,-3.10912 -17.452853,-6.82938 -2.503449,-2.50345 -11.364051,4.57116 -14.417574,1.51764 -4.094882,-4.09488 -10.919249,-6.74574 -15.176394,-11.00288 -0.79656,-0.79657 -3.37694,-0.34167 -4.17351,-1.13823 -6.39642,-6.39643 -16.96258,-2.59757 -22.00577,-11.00289 z"
         style="fill:url(#radialGradient8292-6-7);fill-opacity:1;stroke:none" />
      <path
         inkscape:connector-curvature="0"
         id="path7288-1-6"
         d="m -33.767477,867.96537 c 1.508778,3.56373 -13.262434,4.1566 -15.935214,6.82938 -1.278387,1.27839 -5.365435,10.94919 -5.311738,11.00288 0.885707,0.88571 12.549989,-5.31173 15.176394,-5.31173 2.011304,0 1.821705,-2.23879 3.414689,-3.03528 1.276379,-0.63819 3.734919,0.21929 4.173509,0 2.65613,-1.32807 5.489035,-3.59199 7.967606,-6.07056 1.39144,-1.39144 4.359415,0.1935 5.311738,-0.75882 3.81015,-3.81015 10.6481392,-4.56525 15.9352142,-7.20879 1.1649319,-0.58246 0.76743,-2.09106 1.8970492,-2.65587 1.34544365,-0.67272 2.12021617,0.15625 3.0352789,-0.75882 2.6407453,-2.64074 -2.46399733,-10.05652 -1.1382296,-11.38229 0.4248698,-0.42487 2.8920114,-13.0432 2.655869,-13.27935 -3.71424455,-3.71424 -6.6955866,-6.69558 -10.6234759,-10.62347 -1.6877985,-1.6878 -13.7059848,8.39424 -14.7969838,9.48524 -2.124622,2.12463 -9.317429,1.72924 -11.761706,4.17351 -1.234282,1.23429 -1.66528,3.18292 -2.655869,4.17351 -2.037628,2.03763 4.652945,8.06763 5.691148,9.10584 1.129164,1.12916 -1.898995,4.55486 -2.276459,4.93233 -1.237137,1.23713 -0.75882,9.63944 -0.75882,11.38229 z"
         style="fill:url(#radialGradient8294-1-0);fill-opacity:1;stroke:none" />
      <path
         inkscape:connector-curvature="0"
         id="path7290-2-8"
         d="m -29.973378,852.78898 c -3.893757,-3.72648 -20.393479,-5.97591 -28.076329,-13.65876 -1.113694,-1.11369 -4.982935,-0.40471 -6.449968,-1.13823 -2.062943,-1.03147 -3.626396,-3.14113 -5.691148,-4.17351 -3.760179,-1.88008 -8.431438,-1.74955 -11.761705,-3.41468 -6.324131,-3.16207 -14.850272,1.08494 -19.729312,-3.7941 -5.95566,-5.95566 -10.72278,12.42122 -10.24407,12.89993 1.3273,1.3273 17.803119,1.88248 20.867545,3.41469 1.978461,0.98923 2.3947,3.66352 4.932328,4.93233 2.006738,1.00337 6.721209,-1.2464 8.347017,0.37941 4.112431,4.11243 23.260957,8.21579 31.111608,12.14111 2.919568,1.45979 11.473156,8.681 14.417575,7.20879 4.092859,-2.04643 0.456771,-11.76417 2.276459,-14.79698 z"
         style="fill:url(#radialGradient8296-9-0);fill-opacity:1;stroke:none" />
      <path
         inkscape:connector-curvature="0"
         id="path7292-6-0"
         d="m -32.629247,838.3714 c -3.214356,-0.75295 -30.78817,-3.47066 -26.55869,0.75882 1.236271,1.23627 2.437085,3.19591 3.414689,4.17351 4.229992,4.22999 17.71949,5.19897 21.626361,9.10584 0.273145,0.27314 2.683262,2.07306 3.035279,1.89705 4.264729,-2.13237 -0.907968,-12.88686 -1.517639,-15.93522 z"
         style="fill:url(#radialGradient8298-2-0);fill-opacity:1;stroke:none" />
      <path
         inkscape:connector-curvature="0"
         id="path7294-0-8"
         d="m -104.71712,825.09206 c 10.123028,4.07519 20.448732,11.38229 31.111609,11.38229 6.025842,0 9.952191,0.9923 14.796984,3.41469 1.915423,0.95771 5.549265,-0.30023 7.588197,0.37941 3.786717,1.26224 10.983949,0.76829 14.038164,-0.75882 2.248846,-1.12442 4.857277,1.74487 6.829378,0.75882 5.307053,-2.65352 9.278877,-5.10537 13.658754,-9.48524 0.900728,-0.90073 9.922579,-6.01264 8.7264271,-7.20879 -2.5295541,-2.52956 -6.2365931,-5.96387 -9.4852461,-7.5882 -1.045286,-0.52264 -2.720656,0.15731 -3.794099,-0.37941 -2.807466,-1.40373 -2.458368,-3.97601 -4.173508,-5.69115 -1.473973,-1.47397 -4.131979,-1.47611 -5.311738,-2.65587 -2.747893,-2.74789 -14.011779,4.16692 -17.073443,4.93233 -7.92987,1.98247 -35.881981,-2.73684 -39.079215,-1.13823 -3.948087,1.97405 -7.324462,7.07692 -12.141115,9.48525 -1.955079,0.97754 -4.643109,1.93281 -5.691149,4.55292 z"
         style="fill:url(#radialGradient16673);fill-opacity:1;stroke:none" />
    </g>
  </g>
</svg>
