<?xml version="1.0" encoding="UTF-8" standalone="no"?>
<!-- Created with Inkscape (http://www.inkscape.org/) -->

<svg
   xmlns:dc="http://purl.org/dc/elements/1.1/"
   xmlns:cc="http://creativecommons.org/ns#"
   xmlns:rdf="http://www.w3.org/1999/02/22-rdf-syntax-ns#"
   xmlns:svg="http://www.w3.org/2000/svg"
   xmlns="http://www.w3.org/2000/svg"
   xmlns:xlink="http://www.w3.org/1999/xlink"
   xmlns:sodipodi="http://sodipodi.sourceforge.net/DTD/sodipodi-0.dtd"
   xmlns:inkscape="http://www.inkscape.org/namespaces/inkscape"
   width="180"
   height="100"
   id="svg16283"
   version="1.1"
   inkscape:version="0.48.2 r9819"
   sodipodi:docname="terrain_object_boulder_02.svg">
<g>
  <defs
     id="defs16285">
    <radialGradient
       inkscape:collect="always"
       xlink:href="#linearGradient8140-5-5"
       id="radialGradient8488-6-6"
       gradientUnits="userSpaceOnUse"
       gradientTransform="matrix(1.0605148,1.5935575,-0.88368302,0.58809234,745.86286,405.75857)"
       cx="-37.659004"
       cy="841.46002"
       fx="-37.659004"
       fy="841.46002"
       r="18.809097" />
    <linearGradient
       id="linearGradient8140-5-5">
      <stop
         style="stop-color:#b3b3b3;stop-opacity:1;"
         offset="0"
         id="stop8142-129-7" />
      <stop
         id="stop8178-5-1"
         offset="0.5"
         style="stop-color:#5c5c5c;stop-opacity:1;" />
      <stop
         style="stop-color:#919191;stop-opacity:1;"
         offset="1"
         id="stop8144-61-0" />
    </linearGradient>
    <radialGradient
       inkscape:collect="always"
       xlink:href="#linearGradient8132-13-8"
       id="radialGradient8490-54-2"
       gradientUnits="userSpaceOnUse"
       gradientTransform="matrix(1.4393588,0.25698507,-0.08821818,0.49410502,73.643999,424.67136)"
       cx="-5.398531"
       cy="801.59662"
       fx="-5.398531"
       fy="801.59662"
       r="28.287428" />
    <linearGradient
       id="linearGradient8132-13-8">
      <stop
         style="stop-color:#e6e6e6;stop-opacity:1;"
         offset="0"
         id="stop8134-85-3" />
      <stop
         id="stop8172-09-5"
         offset="0.5"
         style="stop-color:#aaaaaa;stop-opacity:1;" />
      <stop
         style="stop-color:#bfbfbf;stop-opacity:1;"
         offset="0.75"
         id="stop8174-2-5" />
      <stop
         style="stop-color:#939393;stop-opacity:1;"
         offset="1"
         id="stop8136-1-6" />
    </linearGradient>
    <radialGradient
       inkscape:collect="always"
       xlink:href="#linearGradient8188-3-4"
       id="radialGradient8492-3-1"
       gradientUnits="userSpaceOnUse"
       gradientTransform="matrix(0.85164145,0.37089655,-0.49733628,1.1419685,420.60747,-129.86554)"
       cx="19.956381"
       cy="842.40045"
       fx="19.956381"
       fy="842.40045"
       r="15.344299" />
    <linearGradient
       id="linearGradient8188-3-4">
      <stop
         style="stop-color:#373737;stop-opacity:1;"
         offset="0"
         id="stop8190-52-9" />
      <stop
         style="stop-color:#7c7c7c;stop-opacity:1;"
         offset="1"
         id="stop8192-90-3" />
    </linearGradient>
    <radialGradient
       inkscape:collect="always"
       xlink:href="#linearGradient8180-8-3"
       id="radialGradient8494-4-8"
       gradientUnits="userSpaceOnUse"
       gradientTransform="matrix(1.7925704,0.94498785,-0.38832021,0.73661407,334.71053,238.71585)"
       cx="-20.765841"
       cy="823.44641"
       fx="-20.765841"
       fy="823.44641"
       r="24.892818" />
    <linearGradient
       id="linearGradient8180-8-3">
      <stop
         id="stop8182-5-2"
         offset="0"
         style="stop-color:#b3b3b3;stop-opacity:1;" />
      <stop
         style="stop-color:#5c5c5c;stop-opacity:1;"
         offset="0.40049928"
         id="stop8184-73-3" />
      <stop
         id="stop8186-3-3"
         offset="1"
         style="stop-color:#919191;stop-opacity:1;" />
    </linearGradient>
    <radialGradient
       inkscape:collect="always"
       xlink:href="#linearGradient8132-13-8"
       id="radialGradient8496-0-7"
       gradientUnits="userSpaceOnUse"
       gradientTransform="matrix(1.0589829,0.0589844,-0.06365231,1.1427884,55.052706,-120.05508)"
       cx="-29.767099"
       cy="837.31348"
       fx="-29.767099"
       fy="837.31348"
       r="19.297365" />
    <radialGradient
       inkscape:collect="always"
       xlink:href="#linearGradient8188-3-4"
       id="radialGradient8498-3-3"
       gradientUnits="userSpaceOnUse"
       gradientTransform="matrix(1.6475679,1.2951359,-0.97805675,1.2442054,841.35057,-190.52132)"
       cx="-16.129766"
       cy="852.82074"
       fx="-16.129766"
       fy="852.82074"
       r="12.303893" />
  </defs>
  <sodipodi:namedview
     id="base"
     pagecolor="#ffffff"
     bordercolor="#666666"
     borderopacity="1.0"
     inkscape:pageopacity="0.0"
     inkscape:pageshadow="2"
     inkscape:zoom="3.23125"
     inkscape:cx="6.0348161"
     inkscape:cy="80"
     inkscape:document-units="px"
     inkscape:current-layer="layer1"
     showgrid="false"
     inkscape:window-width="1366"
     inkscape:window-height="706"
     inkscape:window-x="-8"
     inkscape:window-y="-8"
     inkscape:window-maximized="1" />
  <metadata
     id="metadata16288">
    <rdf:RDF>
      <cc:Work
         rdf:about="">
        <dc:format>image/svg+xml</dc:format>
        <dc:type
           rdf:resource="http://purl.org/dc/dcmitype/StillImage" />
        <dc:title />
      </cc:Work>
    </rdf:RDF>
  </metadata>
  <g
     inkscape:label="Layer 1"
     inkscape:groupmode="layer"
     id="layer1"
     transform="translate(0,-952.36218)">
    <g
       id="g8472-03-0"
       transform="matrix(2.003591,0,0,1.7686396,99.928315,-571.76979)"
       inkscape:export-filename="C:\Users\nine\Desktop\Gourdian\concept art\g3225.png"
       inkscape:export-xdpi="71.998878"
       inkscape:export-ydpi="71.998878">
      <g
         style="fill:#666666;stroke:none"
         id="g8302-0-2-1"
         transform="translate(-0.7358875,42.44089)">
        <path
           inkscape:connector-curvature="0"
           id="path8218-7-1-4"
           d="m -12.520525,867.58596 c -3.343402,-11.1483 -0.702099,-26.66625 -12.899935,-30.7322 -0.880129,-0.29337 -2.694043,-1.30884 -3.794099,-0.75882 -1.893626,0.94682 -4.111655,1.29701 -6.070557,2.27646 -4.104227,2.05212 -4.107641,7.45646 -5.691148,10.62348 -2.652977,5.30595 -10.951036,10.72717 -7.208787,18.21167 3.581119,7.16224 7.107449,0.32874 13.279345,3.41469 3.341602,1.6708 6.752765,3.7941 10.623475,3.7941 0.785796,0 2.74605,-2.18628 3.794099,-1.13823 0.449726,0.44973 3.735749,1.92622 4.552918,1.51764 1.944079,-0.97204 2.795028,-4.73015 3.414689,-7.20879 z"
           style="fill:#666666;fill-opacity:1;stroke:none" />
        <path
           inkscape:connector-curvature="0"
           id="path8230-5-1-8"
           d="m -25.04105,825.85088 c 1.500208,-3.22487 14.255408,-3.63194 15.5558037,-4.93233 0.1259376,-0.12594 1.5686685,-1.46661 1.8970493,-1.13823 0.4796054,0.47961 3.7490952,3.08028 5.3117379,1.51764 5.1096932,-5.10969 17.8848411,0.97481 22.7645911,3.41469 2.944751,1.47237 8.196478,0.45774 9.864656,3.7941 1.914294,3.82858 -11.947117,7.58819 -13.658754,7.58819 -1.682004,0 -3.323163,2.27646 -6.070558,2.27646 -0.06838,0 -5.314549,-2.27927 -5.6911479,-2.65587 -0.8852897,-0.88529 -4.4264483,0.88529 -5.31173795,0 C -2.8134415,833.2815 -19.110001,830.59572 -25.04105,825.85088 z"
           style="fill:#666666;fill-opacity:1;stroke:none" />
        <path
           inkscape:connector-curvature="0"
           id="path8232-9-0-7"
           d="m 29.214559,828.50675 c -0.98861,1.33057 -14.2161,5.48967 -17.832263,9.10583 -2.1788635,2.17887 5.947775,8.22424 6.070557,8.34702 0.477019,0.47702 -0.948658,2.65614 -1.138229,3.03528 -0.243583,0.48716 2.187005,6.36051 3.414688,7.5882 1.713429,1.71342 0.394523,7.60331 1.89705,9.10583 0.57362,0.57362 5.210375,-4.83096 6.070557,-5.69115 1.518517,-1.51851 6.194599,-2.02109 7.967607,-3.79409 1.341893,-1.3419 3.535275,-1.63823 4.932328,-3.03528 0.887977,-0.88798 -4.242126,-17.14206 -4.552918,-17.45286 -2.654483,-2.65448 -3.834868,-3.46565 -6.829377,-7.20878 z"
           style="fill:#666666;fill-opacity:1;stroke:none" />
        <path
           inkscape:connector-curvature="0"
           id="path8226-0-8-8"
           d="m -26.17928,830.78321 c 1.104084,-2.79326 -0.573023,-2.84167 0.75882,-4.17351 1.232898,-1.2329 12.080058,1.48711 13.658755,2.27646 9.671087,4.83554 22.262653,3.92845 27.317509,14.03816 0.552921,1.10584 2.034353,0.65402 2.655869,1.89705 0.607056,1.21411 -0.607056,3.33881 0,4.55292 1.543641,3.08728 5.346796,13.58864 4.173508,15.93521 -1.744712,3.48943 -22.19900904,-0.19324 -24.2822303,-2.27646 -3.8635773,-3.86357 -6.6530721,-4.75602 -9.8646557,-7.9676 -2.886112,-2.88612 1.60105,-12.81653 -1.13823,-15.55581 -3.344849,-3.34485 -9.698292,-4.25011 -13.279345,-8.72642 z"
           style="fill:#666666;fill-opacity:1;stroke:none" />
        <path
           inkscape:connector-curvature="0"
           id="path8224-5-18-9"
           d="m -35.664526,837.99199 c 3.444163,-1.20963 8.22755,-8.02734 11.382295,-6.44996 0.469857,0.23492 1.49945,2.07765 2.655869,2.65586 2.497123,1.24857 4.186543,0.39245 6.070558,2.27646 1.01176,1.01176 3.920569,0.12647 4.932328,1.13823 2.4281545,2.42816 -1.007372,14.16902 2.2764592,17.45286 1.0067197,1.00672 10.9214247,9.94611 10.2440661,10.62347 -2.3242578,2.32426 -7.2686972,1.57755 -9.4852463,3.7941 -1.0778631,1.07786 -6.930631,5.58989 -7.588197,4.93233 -1.539628,-1.53963 0,-12.75698 0,-15.1764 0,-9.19011 -9.623596,-23.41985 -20.488132,-21.24695 z"
           style="fill:#666666;fill-opacity:1;stroke:none" />
        <path
           style="fill:#666666;fill-opacity:1;stroke:none"
           d="m -11.002886,838.3714 c 1.7921194,4.47529 -8.180225,1.56347 -10.244066,5.69115 -0.276789,0.55358 1.962649,3.48029 2.276459,3.7941 1.454405,1.4544 0.442645,5.37497 1.89705,6.82938 3.465942,3.46594 -6.450735,31.49178 7.9676065,17.07344 1.5697062,-1.56971 2.7112573,-1.54533 4.9323281,-2.65587 2.432561,-1.21628 4.69002991,-1.65475 6.4499675,-3.41469 0.9374641,-0.93746 -9.2662312,-11.54269 -10.6234759,-12.89993 -2.0224322,-2.02244 5.6801635,-17.75199 -2.6558692,-14.41758 z"
           id="path8263-1-7-8"
           inkscape:connector-curvature="0" />
      </g>
      <g
         transform="translate(-0.7358875,42.44089)"
         style="stroke:none"
         id="g8302-2-9">
        <path
           inkscape:connector-curvature="0"
           id="path8218-8-7"
           d="m -12.520525,867.58596 c -3.343402,-11.1483 -0.702099,-26.66625 -12.899935,-30.7322 -0.880129,-0.29337 -2.694043,-1.30884 -3.794099,-0.75882 -1.893626,0.94682 -4.111655,1.29701 -6.070557,2.27646 -4.104227,2.05212 -4.107641,7.45646 -5.691148,10.62348 -2.652977,5.30595 -10.951036,10.72717 -7.208787,18.21167 3.581119,7.16224 7.107449,0.32874 13.279345,3.41469 3.341602,1.6708 6.752765,3.7941 10.623475,3.7941 0.785796,0 2.74605,-2.18628 3.794099,-1.13823 0.449726,0.44973 3.735749,1.92622 4.552918,1.51764 1.944079,-0.97204 2.795028,-4.73015 3.414689,-7.20879 z"
           style="fill:url(#radialGradient8488-6-6);fill-opacity:1;stroke:none" />
        <path
           inkscape:connector-curvature="0"
           id="path8230-9-9"
           d="m -25.04105,825.85088 c 1.500208,-3.22487 14.255408,-3.63194 15.5558037,-4.93233 0.1259376,-0.12594 1.5686685,-1.46661 1.8970493,-1.13823 0.4796054,0.47961 3.7490952,3.08028 5.3117379,1.51764 5.1096932,-5.10969 17.8848411,0.97481 22.7645911,3.41469 2.944751,1.47237 8.196478,0.45774 9.864656,3.7941 1.914294,3.82858 -11.947117,7.58819 -13.658754,7.58819 -1.682004,0 -3.323163,2.27646 -6.070558,2.27646 -0.06838,0 -5.314549,-2.27927 -5.6911479,-2.65587 -0.8852897,-0.88529 -4.4264483,0.88529 -5.31173795,0 C -2.8134415,833.2815 -19.110001,830.59572 -25.04105,825.85088 z"
           style="fill:url(#radialGradient8490-54-2);fill-opacity:1;stroke:none" />
        <path
           inkscape:connector-curvature="0"
           id="path8232-2-1"
           d="m 29.214559,828.50675 c -0.98861,1.33057 -14.2161,5.48967 -17.832263,9.10583 -2.1788635,2.17887 5.947775,8.22424 6.070557,8.34702 0.477019,0.47702 -0.948658,2.65614 -1.138229,3.03528 -0.243583,0.48716 2.187005,6.36051 3.414688,7.5882 1.713429,1.71342 0.394523,7.60331 1.89705,9.10583 0.57362,0.57362 5.210375,-4.83096 6.070557,-5.69115 1.518517,-1.51851 6.194599,-2.02109 7.967607,-3.79409 1.341893,-1.3419 3.535275,-1.63823 4.932328,-3.03528 0.887977,-0.88798 -4.242126,-17.14206 -4.552918,-17.45286 -2.654483,-2.65448 -3.834868,-3.46565 -6.829377,-7.20878 z"
           style="fill:url(#radialGradient8492-3-1);fill-opacity:1;stroke:none" />
        <path
           inkscape:connector-curvature="0"
           id="path8226-3-9"
           d="m -26.17928,830.78321 c 1.104084,-2.79326 -0.573023,-2.84167 0.75882,-4.17351 1.232898,-1.2329 12.080058,1.48711 13.658755,2.27646 9.671087,4.83554 22.262653,3.92845 27.317509,14.03816 0.552921,1.10584 2.034353,0.65402 2.655869,1.89705 0.607056,1.21411 -0.607056,3.33881 0,4.55292 1.543641,3.08728 5.346796,13.58864 4.173508,15.93521 -1.744712,3.48943 -22.19900904,-0.19324 -24.2822303,-2.27646 -3.8635773,-3.86357 -6.6530721,-4.75602 -9.8646557,-7.9676 -2.886112,-2.88612 1.60105,-12.81653 -1.13823,-15.55581 -3.344849,-3.34485 -9.698292,-4.25011 -13.279345,-8.72642 z"
           style="fill:url(#radialGradient8494-4-8);fill-opacity:1;stroke:none" />
        <path
           inkscape:connector-curvature="0"
           id="path8224-0-5"
           d="m -35.664526,837.99199 c 3.444163,-1.20963 8.22755,-8.02734 11.382295,-6.44996 0.469857,0.23492 1.49945,2.07765 2.655869,2.65586 2.497123,1.24857 4.186543,0.39245 6.070558,2.27646 1.01176,1.01176 3.920569,0.12647 4.932328,1.13823 2.4281545,2.42816 -1.007372,14.16902 2.2764592,17.45286 1.0067197,1.00672 10.9214247,9.94611 10.2440661,10.62347 -2.3242578,2.32426 -7.2686972,1.57755 -9.4852463,3.7941 -1.0778631,1.07786 -6.930631,5.58989 -7.588197,4.93233 -1.539628,-1.53963 0,-12.75698 0,-15.1764 0,-9.19011 -9.623596,-23.41985 -20.488132,-21.24695 z"
           style="fill:url(#radialGradient8496-0-7);fill-opacity:1;stroke:none" />
        <path
           style="fill:url(#radialGradient8498-3-3);fill-opacity:1;stroke:none"
           d="m -11.002886,838.3714 c 1.7921194,4.47529 -8.180225,1.56347 -10.244066,5.69115 -0.276789,0.55358 1.962649,3.48029 2.276459,3.7941 1.454405,1.4544 0.442645,5.37497 1.89705,6.82938 3.465942,3.46594 -6.450735,31.49178 7.9676065,17.07344 1.5697062,-1.56971 2.7112573,-1.54533 4.9323281,-2.65587 2.432561,-1.21628 4.69002991,-1.65475 6.4499675,-3.41469 0.9374641,-0.93746 -9.2662312,-11.54269 -10.6234759,-12.89993 -2.0224322,-2.02244 5.6801635,-17.75199 -2.6558692,-14.41758 z"
           id="path8263-28-8"
           inkscape:connector-curvature="0" />
      </g>
    </g>
  </g>
</g>
</svg>
