<?xml version="1.0" encoding="UTF-8" standalone="no"?>
<!-- Created with Inkscape (http://www.inkscape.org/) -->
<svg xmlns:dc="http://purl.org/dc/elements/1.1/" xmlns:cc="http://creativecommons.org/ns#" xmlns:rdf="http://www.w3.org/1999/02/22-rdf-syntax-ns#" xmlns:svg="http://www.w3.org/2000/svg" xmlns="http://www.w3.org/2000/svg" xmlns:sodipodi="http://sodipodi.sourceforge.net/DTD/sodipodi-0.dtd" xmlns:inkscape="http://www.inkscape.org/namespaces/inkscape" width="744.09448819" height="1052.3622047" id="svg4864" version="1.1" inkscape:version="0.48.0 r9654" sodipodi:docname="New document 34">
  <defs id="defs4866">
    <inkscape:path-effect effect="spiro" id="path-effect4609" is_visible="true"/>
  </defs>
  <sodipodi:namedview id="base" pagecolor="#ffffff" bordercolor="#666666" borderopacity="1.0" inkscape:pageopacity="0.0" inkscape:pageshadow="2" inkscape:zoom="0.175" inkscape:cx="375" inkscape:cy="520" inkscape:document-units="px" inkscape:current-layer="layer1" showgrid="false" inkscape:window-width="469" inkscape:window-height="403" inkscape:window-x="50" inkscape:window-y="50" inkscape:window-maximized="0"/>
  <metadata id="metadata4869">
    <rdf:RDF>
      <cc:Work rdf:about="">
        <dc:format>image/svg+xml</dc:format>
        <dc:type rdf:resource="http://purl.org/dc/dcmitype/StillImage"/>
        <dc:title/>
      </cc:Work>
    </rdf:RDF>
  </metadata>
  <g inkscape:label="Layer 1" inkscape:groupmode="layer" id="layer1">
    <g transform="matrix(1.9991626,0,0,2.6771994,275.02449,127.4175)" id="g4826">
      <path inkscape:connector-curvature="0" id="path4615-1-4-7" d="m -58.962799,-38.875 c -1.35743,0.379692 -2.599663,1.052388 -3.940299,1.47609 -1.111706,0.402575 -2.113386,1.133702 -2.58756,2.169205 -1.132205,2.013587 -1.077883,4.371897 -0.763333,6.563757 0.350241,2.349234 1.377097,4.564241 1.719753,6.915948 -0.0056,0.91135 -0.830303,1.792463 -1.857147,1.71875 -1.40385,-0.243845 -2.409495,-1.270649 -3.59171,-1.931075 -2.580061,-1.738958 -5.001439,-3.666835 -7.562905,-5.42909 -1.026575,-0.726972 -2.04105,-1.476571 -3.162295,-2.077335 -0.994966,-0.335942 -2.41571,0.0665 -2.633771,1.125 -0.429326,2.029683 0.601764,3.974406 1.109429,5.906138 0.845327,2.560825 1.533859,5.266528 1.060996,7.953214 -0.328195,1.548489 -0.759489,3.195161 -2.035361,4.328148 -1.231102,0.7821263 -2.805357,0.5556246 -4.203879,0.4461831 -2.117164,-0.2317678 -4.168633,-0.8743011 -6.31022,-0.9340111 -1.038606,-0.104372 -2.082573,0.04831 -3.093658,0.251205 -1.634671,0.375048 -3.111588,1.2117111 -4.272461,2.3356841 -0.94697,0.81447 -1.66348,1.8690063 -2.11585,2.9854891 -0.35932,1.0333353 -0.70472,2.1173031 -0.46514,3.207476 0.16191,1.6856577 1.51429,2.9654047 2.49754,4.3017238 1.16796,1.2469044 2.057991,2.6799486 2.982396,4.0827946 0.595096,1.1586317 1.333364,2.3278105 1.40722,3.6359554 -0.07956,1.425536 -1.510139,2.322109 -2.793998,2.843679 -2.909228,1.212581 -6.145018,1.455412 -9.118558,2.497929 -1.68534,0.541291 -3.42374,1.511063 -4.02514,3.158392 -0.39421,1.08192 -0.12775,2.247882 0.0412,3.345409 0.52401,2.008176 1.45962,3.901365 2.40008,5.767019 1.06357,2.012976 2.29429,4.119131 4.42587,5.319165 1.13665,0.735243 2.5809,1.205473 3.97184,0.974657 0.91061,-0.232902 1.49945,-1.023774 1.55326,-1.875 0.1512,-1.417364 -0.63251,-2.722002 -1.11254,-4.025604 -0.39221,-0.969785 -0.9511,-1.940041 -1.02674,-2.979336 0.11284,-1.435334 1.48567,-2.389882 2.814604,-2.90131 2.895122,-1.305102 6.175222,-1.880957 8.813,-3.65625 1.859611,-1.243182 3.005898,-3.302858 3.131323,-5.410812 0.148376,-1.076612 0.0852,-2.172475 0.279074,-3.245438 0.404534,-0.9195063 1.871299,-0.9815305 2.532472,-0.28125 1.664014,1.344048 3.505698,2.574034 4.781957,4.265316 0.872634,1.269164 0.832348,2.866634 0.384287,4.265934 -0.228557,1.388556 -0.692666,2.847023 -0.08453,4.212211 0.470277,0.990293 1.839192,1.201938 2.887129,1.069039 3.290513,-0.367495 6.571035,-0.806448 9.85976,-1.1875 0.933108,0.08744 2.06048,0.635694 2.025978,1.625 -0.196905,1.531189 -1.833858,2.403983 -2.262342,3.84375 0.09027,1.935509 1.732174,3.445287 3.477929,4.3125 1.939517,0.999558 4.241393,1.271457 6.425193,1.046138 2.362302,-0.213531 4.636801,-0.872196 6.85171,-1.63624 2.997564,-1.035995 5.935385,-2.289613 8.574257,-3.977325 1.21603,-0.854922 2.435872,-1.743493 3.273905,-2.945953 1.352205,-1.738425 2.108738,-3.783643 3.165353,-5.674727 1.206245,-2.291465 2.41249,-4.582929 3.618735,-6.874393 1.024642,-1.175213 3.381696,-0.344825 3.410396,1.125 0.698091,3.17498 0.60539,6.433931 0.742859,9.65625 0.09955,3.125054 0.154127,6.251495 0.303897,9.375 -0.545455,0.426751 -0.413869,1.591842 0.371428,1.6875 0.884106,-0.288175 0.743547,-1.401458 0.719987,-2.111873 0.03731,-0.901348 0.199479,-1.800388 0.239195,-2.706324 0.341355,-3.86978 0.466262,-7.758689 0.236167,-11.637526 -0.09561,-2.113975 -0.205989,-4.236026 -0.521337,-6.331606 -0.26258,-1.283956 -1.12685,-2.5523479 -2.531134,-2.962671 -1.224455,-0.5085875 -2.667192,-0.100319 -3.612995,0.71875 -0.739181,0.4544952 -1.912372,0.5402282 -2.431173,-0.25 -0.56466,-0.8670854 0.0558,-1.8663192 0.250818,-2.7499441 0.267496,-1.1454119 -0.769432,-2.0596436 -1.432638,-2.9063059 -2.522509,-2.81588479 -5.39306,-5.3592856 -7.765607,-8.2893295 -0.78517,-1.0955882 -1.680555,-2.2526395 -1.813607,-3.5973395 -0.126384,-1.199467 0.375412,-2.527267 1.547199,-3.149508 1.389541,-0.96547 3.11737,-1.420982 4.800308,-1.728519 3.623362,-0.567996 7.303325,-0.728292 10.930423,-1.266554 1.9195,-0.443899 4.156284,-0.608567 5.534533,-2.086575 1.023517,-0.963663 1.135042,-2.62793 0.171972,-3.663425 -1.210984,-1.388171 -3.140968,-1.878278 -4.810261,-2.614827 -1.047928,-0.469676 -1.93324,-1.304403 -2.179364,-2.385173 -0.651964,-2.086201 -0.333635,-4.277039 -0.641559,-6.40625 0.04927,-0.754153 0.0054,-1.756067 -0.877924,-2.09375 -1.206612,-0.549254 -2.464981,0.198849 -3.471456,0.779378 -3.04791,1.676912 -5.939697,3.606024 -9.123374,5.064372 -1.734255,0.62325 -3.660772,0.498218 -5.442942,0.123784 -1.586549,-0.239122 -3.240466,-0.88151 -4.07209,-2.229582 -1.68299,-2.228643 -1.869028,-5.122776 -3.586292,-7.331702 -0.486196,-0.525017 -1.184223,-1.107601 -1.992212,-0.9375 z" inkscape:transform-center-y="-1.3409451" inkscape:transform-center-x="2.7777213" style="fill:#e9baaf;fill-opacity:0.85714285;fill-rule:nonzero;stroke:#df94a3;stroke-width:0.49838373;stroke-miterlimit:4;stroke-opacity:1"/>
      <path inkscape:connector-curvature="0" id="path4615-2-1" d="m 49.613238,26.497905 c 0.209679,-3.124768 0.405096,-6.426632 -0.957097,-9.33607 -0.701888,-1.575262 -1.580201,-3.130467 -2.926861,-4.229173 -1.978237,-1.300891 -4.45536,-1.610193 -6.744068,-1.174962 -2.592459,0.458473 -5.157988,1.111388 -7.761934,1.483811 -1.658882,0.285292 -3.229907,-0.888446 -3.742753,-2.450962 -0.872,-2.4416611 -0.918133,-5.0831405 -1.291532,-7.631804 -0.264282,-1.5814209 -0.183629,-3.37407319 -1.224869,-4.6848863 -1.357456,-2.0296194 -3.738397,-2.8677138 -5.891495,-3.7130847 -2.605207,-1.0587168 -5.419852,-2.1473732 -7.216923,-4.4462112 -1.225824,-1.7586908 -1.675342,-3.9399448 -1.656756,-6.0660528 -0.2657387,-3.674305 0.233095,-7.364567 -0.131632,-11.033591 -0.375395,-2.200285 -1.1984846,-4.472002 -2.9590989,-5.916307 -1.5480154,-1.140528 -3.7893375,-1.033899 -5.2862741,0.146122 -3.2032718,1.95783 -5.9221783,4.597536 -9.0246099,6.704368 -2.9626951,2.063159 -6.2341171,3.635702 -9.6569401,4.738108 -2.04977,0.727719 -4.165655,1.281679 -6.187242,2.078992 -1.274556,1.014297 -0.984818,3.396455 0.691647,3.786249 1.626536,0.580013 3.411844,0.877286 4.739552,2.084031 1.729911,1.254837 2.819924,3.1886371 3.497453,5.1982653 0.909034,2.4079748 1.176262,4.9950879 1.728949,7.49824054 0.213544,2.17172636 -0.03268,4.50133836 -1.362145,6.29591296 -1.793905,3.1850633 -4.735813,5.4056972 -7.281235,7.9250412 -1.626777,1.485352 -3.277149,2.953307 -4.701241,4.645701 -1.086047,1.761054 -0.622324,3.920974 -0.318508,5.839713 0.274692,2.194427 0.502824,4.480736 1.599819,6.43637 1.198957,1.839925 3.168502,3.09204 5.260953,3.615823 1.990314,0.617143 4.15156,0.691501 6.167214,0.157456 1.358574,-0.418152 2.602189,-1.331332 3.318713,-2.598198 2.6141211,-4.21613 4.2686571,-8.944094 6.7474232,-13.233412 1.5096256,-2.479183 2.95371595,-5.286285 5.6427755,-6.63194 1.5644897,-0.759994 3.449703,-0.885285 5.0350622,-0.108228 2.2510175,1.048721 3.9827711,3.224265 4.4568741,5.707888 0.483844,2.016899 0.471803,4.126091 0.350307,6.185096 -0.354841,3.625431 -0.893745,7.232758 -1.164241,10.865475 -0.111255,1.973459 -0.05159,4.190014 1.23383,5.798166 1.845903,1.41792 4.332783,1.203687 6.405859,0.482908 1.969276,-0.630407 3.83966,-1.763081 5.076518,-3.47253 1.367059,-1.318449 1.919995,-3.218121 2.82409,-4.850242 1.368838,-3.048473 2.224419,-6.312241 3.616258,-9.346212 0.822869,-1.674619 2.352941,-2.819158 3.9568,-3.656781 2.683869,-1.496867 5.500248,-2.935702 8.572788,-3.344868 1.673398,-0.247763 3.339485,0.476834 4.400399,1.786486 1.319184,1.77282 1.794184,4.065733 1.844539,6.24931 -0.0581,0.808385 -0.07889,1.670942 0.236421,2.428923 l 0.08322,-0.212942 z" inkscape:transform-center-y="-6.5473667" inkscape:transform-center-x="-4.2768234" style="fill:#efb6ba;fill-opacity:0.89417988;fill-rule:nonzero;stroke:#df94a3;stroke-width:0.52947021;stroke-miterlimit:4;stroke-opacity:1"/>
      <path inkscape:connector-curvature="0" id="path4615-1-4-1-4-4" d="m -2.7701761,-19.222428 c -3.2811296,-1.270514 -6.7728052,-1.949578 -10.1697639,-2.891104 -1.798331,-0.501015 -3.617094,-0.940692 -5.408813,-1.460133 -0.885645,-0.393932 -1.545678,-1.091889 -2.22146,-1.731986 -0.72289,-1.146593 -1.445775,-2.293184 -2.168666,-3.43978 -0.416616,-1.106943 -0.810606,-2.220729 -1.181254,-3.341585 -0.623937,-0.85209 -2.259376,-0.414247 -2.426399,0.560188 -0.579058,2.509069 -1.231975,5.078799 -0.839394,7.657619 0.101209,0.956302 0.285846,1.904339 0.349753,2.864761 0.348579,0.788597 -0.104272,1.965777 -1.142691,1.98221 -1.06839,0.06148 -1.883975,-0.673837 -2.750431,-1.134482 -1.787842,-0.989249 -3.545854,-2.022802 -5.298392,-3.064479 -0.871444,-0.390542 -2.056626,0.08442 -2.279113,0.972373 -0.238339,1.198933 -0.185452,2.503889 -0.95756,3.553139 -0.76709,0.672102 -2.01347,0.516987 -2.732371,-0.136127 -1.507342,-1.05434 -3.109626,-2.035347 -4.8936,-2.635585 -1.716797,-0.388164 -3.466431,-0.663964 -5.22833,-0.803887 -0.944798,0.04673 -2.019549,-0.479637 -2.855689,0.117508 -0.869572,0.703086 0.259303,1.668357 1.121224,1.676875 2.0574,0.338328 4.183402,0.507734 6.135311,1.23952 0.766283,0.365959 1.454738,0.946597 1.728769,1.722854 0.305042,0.739943 0.280989,1.586627 0.06839,2.347791 -0.440702,1.525155 -1.456154,2.829771 -2.254962,4.20537 -1.970937,3.1493598 -4.046067,6.2409608 -6.114208,9.3360098 -0.508136,1.07366704 -0.462008,2.46822604 0.463382,3.338589 0.736289,0.465648 1.756367,-0.18763 2.440931,0.368843 0.517516,0.699806 0.289829,1.640249 0.475516,2.436306 0.361845,1.209984 0.549218,2.467633 0.679313,3.71854 0.100923,0.915097 -0.06667,1.8467522 -0.633758,2.6180742 -0.614439,0.861581 -1.39007,1.677967 -1.574418,2.733309 -0.294074,1.060524 0.19363,2.162352 0.820852,3.040043 0.426427,0.717705 1.212387,1.377032 2.156537,1.28367 1.045501,-0.121391 1.585503,-1.114916 1.765993,-1.978659 0.278115,-0.822391 0.453106,-1.680651 0.85063,-2.462033 0.355092,-0.870405 0.730184,-1.815825 0.4647,-2.754791 -0.194655,-1.7021882 -1.237316,-3.1646032 -1.781121,-4.7728612 -0.521157,-1.301654 -0.986192,-2.653937 -0.964798,-4.05795 0.08634,-0.96249196 0.631997,-1.84422796 1.412879,-2.47233796 1.077972,-0.68571604 2.289053,-1.18684004 3.287812,-1.98238804 0.813535,-0.509409 1.817253,-0.601119 2.755149,-0.370056 0.864552,0.04928 1.581306,0.821429 1.155449,1.606391 -0.24966,0.76684804 -0.693285,1.47624004 -0.776422,2.28484904 -0.229313,0.93686696 -0.405788,1.90100896 -0.393294,2.85952096 0.206162,1.352333 0.978879,2.546714 1.759134,3.677487 0.821792,1.213758 2.06623,2.116005 3.397549,2.8157442 0.626204,0.472403 1.528349,0.634449 2.241401,0.247479 0.943994,-0.6128612 0.272833,-1.7199962 -0.24802,-2.3773012 -1.278341,-1.788141 -3.119024,-3.266706 -3.912764,-5.329289 -0.292932,-0.811508 -0.270185,-1.718593 -0.04189,-2.54143696 0.530826,-1.32036004 1.561064,-2.39326004 2.336171,-3.59145904 0.564085,-0.78875 0.932666,-1.747481 0.803597,-2.704168 -0.03292,-0.857473 -1.151534,-1.163486 -1.022397,-2.044477 0.04063,-1.041489 1.517509,-0.734413 1.733862,0.068 0.313391,0.813908 0.590838,1.658432 0.688851,2.523635 0.06437,0.816844 -0.356256,1.560133 -0.697581,2.281897 -0.598567,0.93688 -1.320402,1.82354 -1.773361,2.83078404 -0.319839,0.778457 -0.301869,1.62762296 0.05619,2.39092596 0.500625,1.007013 1.411953,1.758382 2.259492,2.513466 1.375695,1.0929 2.89174,2.028773 4.289189,3.09623 0.727815,0.632881 1.505958,1.220521 2.050677,2.008821 0.569469,0.7460522 1.045342,1.6316572 2.053408,1.9417452 0.739564,0.376013 1.617582,0.443109 2.428098,0.247262 0.785058,-0.159072 1.537054,-0.535748 2.09834,-1.071799 0.656007,-0.56918 0.941853,-1.3699752 1.076141,-2.1712272 0.470247,-2.094156 0.706871,-4.231894 1.264647,-6.308908 0.06735,-0.821381 0.844944,-1.47535796 1.712133,-1.55692096 0.871738,-0.08132 1.711674,0.24782296 2.578934,0.30794696 1.837644,0.313632 3.672295,0.691531 5.5427474,0.793017 1.1471438,0.164044 2.4566928,0.287281 3.2374218,1.186488 0.7248941,1.117563 0.7396181,2.450409 0.9529362,3.701767 0.3575213,2.502115 0.626485,5.0141842 0.8060893,7.5326062 -0.5367144,0.583417 1.121885,0.863743 0.6790981,0.138065 -0.1784266,-3.784542 -0.2451077,-7.5779302 -0.6127854,-11.3514842 -0.086442,-0.90769 -0.4520978,-1.801402 -1.2197252,-2.40258896 -1.0726029,-0.781687 -2.6735621,-0.813167 -3.4774418,-1.92990904 -0.5803308,-1.007804 -0.9419682,-2.129442 -1.6593614,-3.074096 -1.145593,-1.513135 -2.585805,-2.810072 -3.810677,-4.267204 -0.582118,-0.604666 -1.244843,-1.275645 -1.196614,-2.1451568 -0.04153,-0.945074 0.592653,-1.820856 1.493961,-2.233148 0.859297,-0.402803 1.820139,-0.576222 2.737205,-0.834206 2.6678781,-0.590719 5.3293938,-1.23559 7.9091994,-2.10302 0.858657,-0.423826 1.3111201,-1.370272 1.1492232,-2.24289 -0.064194,-0.441614 -0.3075034,-0.850422 -0.748784,-1.056814 z" inkscape:transform-center-y="-1.1921526" inkscape:transform-center-x="-3.8447163" style="fill:#e9a7af;fill-opacity:0.85714285;fill-rule:nonzero;stroke:#df8fa3;stroke-width:0.31184441;stroke-miterlimit:4;stroke-opacity:1"/>
      <path sodipodi:nodetypes="cccccccccccccccccccccccccccccccccccccccccccccccccccccccccccccccccccccccccccccccccccccccccccccccccccccccccccccccccccccccccccccccccccccccccccccccccc" inkscape:connector-curvature="0" inkscape:original-d="m -72.078255,-0.1414671 c -0.827988,0.17025786 -3.487587,1.6759033 -3.903578,2.3465399 -0.547647,0.9593729 0.195621,6.3732151 -0.343912,7.3366836 -0.327066,0.4974726 1.391335,-2.47844 1.329529,-3.1032583 0.296901,-1.1490015 0.974938,0.4129928 1.191463,-2.0224126 0.449959,-0.5749062 2.895994,-0.6607259 3.46837,-2.1156139 0.808504,0.3840456 1.079355,1.2434379 1.320945,1.9876453 0.807712,2.5297602 1.616189,5.0632469 2.602282,7.5393951 0.575335,1.163462 1.193509,2.331402 1.40508,3.607459 0.06164,0.864592 -0.03009,1.740356 0.206257,2.589012 0.264742,0.976129 1.378616,1.269909 2.303203,1.515519 1.05955,0.27605 1.764022,1.181698 1.988826,2.141294 0.460061,1.268614 0.892344,2.545534 1.311288,3.826062 0.263861,0.640991 0.987738,1.582887 0.309385,2.178559 -0.870596,0.446114 -4.566017,-1.371608 -5.211884,-1.847576 -0.668126,-0.526591 -9.786452,-5.268193 -10.744043,-5.239574 -1.108509,0.174422 -3.440946,1.893944 -0.550018,1.918912 -0.906857,0.211782 12.461189,6.546264 13.13708,7.09421 0.759206,0.576946 1.640739,1.001124 2.55608,1.328937 2.178832,0.882345 4.415102,1.6493 6.525949,2.668172 0.934428,0.432772 1.834047,0.926576 2.743376,1.401928 0.818549,0.502985 1.486272,1.155885 2.131322,1.831253 0.652261,0.723197 1.403135,1.370371 1.960913,2.161507 0.704383,0.998669 1.224247,2.098229 1.78773,3.167371 0.607262,1.221636 0.95379,2.532076 1.447392,3.792875 0.310652,0.922803 0.707174,1.844145 0.704585,2.824837 0.05769,1.257316 0.272624,2.523525 0.04645,3.776921 -0.0928,1.564329 -0.304372,3.118084 -0.576266,4.66392 -0.138889,1.287269 -0.837081,2.440698 -1.520681,3.545142 -0.706819,0.882395 -1.380206,1.80835 -2.334631,2.486137 -1.230125,0.969634 -2.535159,1.858369 -3.853082,2.72346 -4.221637,2.731354 3.431033,0.48656 6.29335,0.800653 1.392011,0.201783 4.739301,6.888101 0.875896,5.272217 -5.626515,-2.506372 6.312763,-4.419494 7.368137,-4.463888 1.604834,-0.131364 4.094181,9.189795 5.703157,9.123423 1.429534,-1.515184 6.551609,-3.934526 8.380758,-0.84562 2.208721,-0.215794 -0.534784,-4.522868 1.611177,-5.041744 0.818576,-0.235134 -2.174318,-2.364536 -1.356487,-2.603336 1.167625,-0.240523 -1.484913,-3.742639 -2.401579,-4.047974 -1.087022,-0.630849 0.06645,0.820419 -0.722646,-0.129971 -0.868975,-1.158712 -1.471671,-2.461563 -2.180868,-3.704315 -0.419695,-0.793531 -0.995554,-1.610819 -0.77948,-2.536934 0.11626,-1.209199 0.662226,-2.322723 1.09953,-3.453759 0.548703,-1.456774 1.155156,-2.905738 1.508239,-4.415219 0.377249,-2.031624 0.451591,-4.102432 0.890234,-6.125798 0.118967,-0.92428 0.618965,-1.833046 0.283376,-2.770654 -0.261711,-1.005227 -1.508902,-1.209654 -2.359907,-1.652065 -0.865873,-0.444906 -0.838835,-1.617981 -0.09195,-2.158067 0.592241,-0.621283 1.507775,-0.835444 2.176849,-1.367892 1.063715,-0.61513 2.113912,-1.260257 3.223727,-1.801185 0.959897,-0.435536 2.014654,-0.617516 3.029141,-0.906175 1.250121,-0.385775 2.572315,-0.520986 3.853727,-0.797278 2.640663,-0.465149 5.3352464,-0.851674 7.8107121,-1.861253 0.8621785,-0.314506 2.0023906,1.158704 2.6711727,0.567508 0.5680253,-0.589715 1.5609052,-0.845094 2.4343412,-0.68105 0.94101536,0.110561 1.34348384,-1.676487 2.29787819,-1.742703 1.50248211,-0.08699 2.94549341,-0.540418 4.43887701,-0.698205 1.4808102,-0.218673 2.9763451,-0.370488 4.4450114,-0.648381 2.7311424,-0.69671 5.4737124,-1.394829 8.0953084,-2.394241 0.9845,-0.372265 1.876743,-0.911365 2.793774,-1.400567 1.736292,-1.186442 3.412572,-2.449736 5.049961,-3.74959 1.329602,-1.058986 2.531299,-2.245313 3.861339,-3.304469 0.734545,-0.485926 1.171148,-1.422268 0.550018,-2.146986 -0.493721,-0.570173 -1.424297,-0.399395 -2.06257,-0.157866 -0.991783,0.350272 -1.909046,2.473463 -2.874703,2.880513 -5.335871,2.419524 -10.141183,5.331905 -15.4985285,7.709868 -1.3201166,0.487933 -3.2294566,0.174563 -4.5821179,0.578288 -1.4561085,0.40668 -2.9076445,-0.624467 -4.33933315,-0.149582 -1.1574092,0.581738 -2.14662265,1.41668 -3.32730005,1.958089 -0.9536751,0.43525 -1.9803503,0.703447 -3.0516235,0.662623 -1.126432,0.07079 -2.273749,0.103494 -3.3846906,-0.105563 -1.0449149,-0.19874 -2.3025163,1.353603 -3.3075383,1.055348 -0.808558,-0.300219 -4.346628,1.112778 -5.138849,1.395317 -3.033008,1.110486 -2.863025,-0.714617 -5.476693,1.073095 -1.138803,0.865814 -2.358506,1.649171 -3.633162,2.332788 -0.993756,0.428956 -2.103006,0.701195 -3.206188,0.563551 -1.20805,-0.129051 -2.485704,-0.152355 -3.560577,-0.740851 -0.944669,-0.415175 -1.363607,-1.412028 -1.423968,-2.32176 -0.0019,-1.349873 0.397891,-2.663819 0.687523,-3.978238 0.296181,-0.988938 0.657488,-1.959548 0.996909,-2.936318 0.449703,-0.874508 1.140131,-1.715032 2.1657,-2.052266 0.866995,-0.410729 1.79805,-0.682937 2.715718,-0.978773 0.904583,-0.475631 1.401196,-1.386691 2.183345,-1.975828 0.817663,-0.507307 1.864848,-0.10474 2.726481,-0.484698 0.800112,-0.353183 1.586873,-0.743736 2.343546,-1.170405 1.197466,-0.5485 2.445843,-1.001065 3.747003,-1.294506 1.57721,-0.44012 3.219248,-0.825192 4.881417,-0.66304 1.114917,0.0249 2.210358,0.279794 3.2566099,0.62043 0.7865807,0.317961 -0.3225289,-2.746057 0.5573178,-2.824843 1.0294407,-0.08664 3.1071532,0.217177 4.1061506,-0.02431 2.3601407,-0.657588 3.34348346,0.259662 5.5650371,-0.709118 C 0.93728768,11.448055 2.8392421,11.605163 3.5674975,10.929625 4.1107233,10.368076 2.8276024,9.0481471 3.2273793,8.0341545 1.4379718,7.5157228 0.82697368,9.0316296 -0.05784021,8.9400505 -1.3544179,8.9052097 1.0318456,9.0603669 -0.21281612,9.3997927 -3.0931951,10.084266 -5.9968209,10.680462 -8.9082973,11.24144 c -2.1350557,0.410728 -4.2135997,1.021585 -6.2863897,1.638307 -1.427606,0.408034 -2.87639,0.782549 -4.224614,1.384819 -0.812072,0.357124 -1.666094,1.522463 -2.270951,0.882916 -0.695881,-0.679216 -1.423494,0.915612 -2.516648,0.750488 -1.095266,-0.243016 -1.293376,-0.750586 -3.317565,0.783436 -0.902604,1.055921 -0.961424,-1.187677 -1.727176,-0.04682 -0.842854,1.221326 -1.659483,2.49307 -2.861688,3.451143 -0.787755,0.617081 -1.781208,0.951138 -2.671212,1.422953 -2.209068,0.886947 -4.415179,1.780973 -6.607102,2.703673 -0.928176,0.280301 -2.213403,-0.309607 -2.131323,-1.300764 0.02863,-1.014718 0.601036,-1.923028 0.896482,-2.883205 0.336819,-0.827464 0.624726,-1.676419 1.028583,-2.478 0.499174,-0.93676 1.535813,-1.445781 2.403577,-2.054968 0.805434,-0.487165 -0.753638,-1.888403 -0.109393,-2.544075 0.621132,-0.66424 2.2237,-0.863384 2.392284,-1.71915 0.144165,-0.837487 1.217391,-0.559752 0.955065,-1.3645131 -0.316807,-0.9574614 1.417884,-3.7663762 0.833458,-4.6051324 -0.37726,-0.6258696 -1.551708,-1.4570168 -2.406854,-0.766067 -0.23156,1.0414927 -1.520739,2.5539448 -1.259743,3.5146806 0.374656,0.7801614 0.246173,2.0116989 -0.848956,2.1826379 -1.167935,0.251972 -0.437326,1.292395 -1.625722,1.426264 -1.130824,0.128506 -0.01165,3.025758 -1.100868,3.362894 -0.897505,0.199959 -2.372149,1.343098 -2.611876,2.22209 -0.360808,1.020058 -1.769295,2.10815 -1.731274,3.159495 0.183685,1.504003 -0.506628,2.520344 -0.626244,4.042857 1.070564,3.189922 -1.101805,-1.944134 -2.23873,-1.963153 -1.215362,-0.229418 -0.978736,-1.52292 -1.091791,-2.363077 -0.27777,-2.243661 -0.489134,-4.494168 -0.744059,-6.739544 -0.09195,-0.879319 -0.442397,-1.708735 -0.986301,-2.435865 -0.756605,-1.0264601 -1.503818,-2.0644324 -2.150343,-3.1525417 -0.528001,-0.8739383 -0.888746,-1.8154253 -1.337637,-2.7231726 -0.432379,-0.8191559 -0.759184,-1.7177293 -1.355758,-2.4454152 -0.80832,-0.5337081 -2.010363,0.052834 -1.869076,0.9918224 -0.188608,0.9775984 -0.218264,1.9718419 -0.159117,2.9611004 -1.16e-4,0.9097074 0.177264,1.8487898 0.704339,2.632118 0.637389,1.0080897 1.616373,1.8316917 2.045754,2.9501007 0.780599,1.555984 1.236274,3.224421 1.874571,4.829694 0.498098,1.484287 0.996196,2.968574 1.494295,4.45286 0.212584,1.150769 0.154775,2.327666 -0.06876,3.473065 0.04056,0.882212 -0.787261,1.879456 -1.821937,1.673386 -1.051811,-0.236641 -1.390633,-1.326585 -1.619153,-2.176134 -0.401791,-1.240523 -0.447562,-2.547805 -0.649676,-3.822796 -0.134216,-1.392936 -0.259909,-2.78798 -0.515642,-4.167678 -0.289904,-0.905445 -1.210702,-1.466387 -2.131323,-1.768105 -1.084636,-0.388852 0.97229,-0.934944 -1.588096,-1.520863 -0.942225,-0.474081 -0.335439,-1.183618 -0.757231,-2.105498 -0.466867,-0.900983 -1.155397,-1.8522069 -1.532868,-2.7858896 -0.550891,-1.6570408 -0.745037,-2.0256899 -1.350385,-3.6664967 -0.392326,-0.705629 -2.465455,-1.5276929 -2.803689,-3.96804964 -0.304652,-0.0794203 -3.776898,-0.78150443 -4.091204,-0.70873516 z" inkscape:path-effect="#path-effect4609" id="path4607" d="m -72.078255,-0.1414671 c -1.531261,0.26170525 -2.950133,1.12008502 -3.903578,2.3465399 -0.800674,1.0299398 -1.27375,2.3107103 -1.334835,3.6138311 -0.06108,1.3031207 0.290106,2.6225294 0.990923,3.7228525 l 1.329529,-3.1032583 1.191463,-2.0224126 3.46837,-2.1156139 c 0.478431,0.6361357 0.919743,1.3001849 1.320945,1.9876453 1.34867,2.3109492 2.238351,4.8885556 2.602282,7.5393951 l 1.40508,3.607459 c -0.226283,0.399869 -0.329872,0.86809 -0.293384,1.326095 0.03649,0.458004 0.212902,0.903918 0.499641,1.262917 0.288784,0.361558 0.679008,0.62852 1.082571,0.854921 0.403563,0.226401 0.826603,0.417984 1.220632,0.660598 0.839705,0.517027 1.535119,1.265754 1.988826,2.141294 l 1.311288,3.826062 0.309385,2.178559 c -1.758567,-0.553503 -3.497341,-1.169886 -5.211884,-1.847576 -3.709255,-1.46612 -7.304883,-3.219609 -10.744043,-5.239574 l -0.550018,1.918912 c 4.385947,2.351891 8.764999,4.716642 13.13708,7.09421 0.843748,0.458836 1.68779,0.918432 2.55608,1.328937 2.125063,1.004675 4.380251,1.708358 6.525949,2.668172 0.937849,0.419519 1.853944,0.887664 2.743376,1.401928 0.739636,0.5753 1.451202,1.186685 2.131322,1.831253 0.70701,0.670053 1.381909,1.378188 1.960913,2.161507 0.722008,0.976786 1.28755,2.060471 1.78773,3.167371 0.557553,1.233867 1.037563,2.502397 1.447392,3.792875 0.294022,0.925823 0.552514,1.865425 0.704585,2.824837 0.197798,1.247907 0.213499,2.524527 0.04645,3.776921 l -0.576266,4.66392 -1.520681,3.545142 c -0.348159,1.12409 -1.234621,2.06808 -2.334631,2.486137 -0.825991,0.313917 -1.742512,0.341133 -2.557444,0.682733 -0.407466,0.1708 -0.789789,0.425749 -1.046772,0.785138 -0.128492,0.179695 -0.22401,0.384046 -0.270091,0.600094 -0.04608,0.216048 -0.04191,0.443801 0.02122,0.655495 0.08239,0.276259 0.263824,0.518427 0.49335,0.692856 0.229527,0.174428 0.505266,0.283099 0.788991,0.334167 0.567449,0.102136 1.150749,-0.02121 1.70368,-0.184606 0.552932,-0.163393 1.098733,-0.368415 1.671474,-0.434735 0.28637,-0.03316 0.578574,-0.03081 0.860537,0.02922 0.281963,0.06003 0.553756,0.179306 0.775318,0.363746 0.354268,0.294912 0.559643,0.73958 0.642085,1.193102 0.08244,0.453523 0.05232,0.919638 0.0033,1.377983 -0.04898,0.458344 -0.116648,0.916667 -0.108475,1.37755 0.0082,0.460882 0.09707,0.931187 0.338947,1.323582 0.22465,0.364445 0.574946,0.64564 0.971145,0.807856 0.396198,0.162217 0.83613,0.207929 1.26084,0.153992 0.84942,-0.107873 1.611535,-0.602933 2.200898,-1.224062 1.178727,-1.242259 1.747155,-2.968375 2.935254,-4.201674 1.164653,-1.208961 2.900224,-1.842529 4.56984,-1.668215 1.669615,0.174314 3.236891,1.152712 4.126709,2.576168 0.889819,1.423455 1.082789,3.260948 0.508099,4.838203 -0.574689,1.577255 -1.904514,2.859901 -3.501491,3.377267 l 8.380758,-0.84562 c 0.676105,-0.627126 1.186924,-1.430892 1.467636,-2.309303 0.280711,-0.878411 0.330672,-1.829453 0.143541,-2.732441 -0.201107,-0.970431 -0.676351,-1.882507 -1.356487,-2.603336 l -2.401579,-4.047974 c -0.246013,-5.13e-4 -0.491872,-0.04473 -0.722646,-0.129971 -0.351008,-0.129648 -0.663706,-0.352967 -0.920078,-0.625526 -0.256372,-0.272559 -0.457908,-0.593537 -0.616693,-0.932362 -0.317571,-0.677649 -0.464787,-1.419855 -0.644097,-2.146427 -0.212077,-0.859343 -0.47245,-1.706765 -0.77948,-2.536934 0.333019,-1.16156 0.699734,-2.313458 1.09953,-3.453759 0.514673,-1.467956 1.08471,-2.918421 1.508239,-4.415219 0.563411,-1.991159 0.863577,-4.056635 0.890234,-6.125798 l 0.283376,-2.770654 c -0.501611,-0.041 -0.991482,-0.21768 -1.403777,-0.506309 -0.412296,-0.28863 -0.745952,-0.68846 -0.95613,-1.145756 -0.308373,-0.670946 -0.342134,-1.463322 -0.09195,-2.158067 l 2.176849,-1.367892 c 0.992564,-0.733603 2.078701,-1.340457 3.223727,-1.801185 0.978889,-0.393878 1.998386,-0.68055 3.029141,-0.906175 1.281637,-0.280541 2.58377,-0.467877 3.853727,-0.797278 1.301843,-0.337672 2.560499,-0.822191 3.847062,-1.214076 1.2865627,-0.391885 2.6195047,-0.69291 3.9636501,-0.647177 0.9144158,0.03111 1.8230923,0.224166 2.6711727,0.567508 l 2.4343412,-0.68105 C -0.71774578,29.619279 0.08180764,29.0129 0.97964019,28.64077 2.3698985,28.064541 3.9182553,28.06119 5.4185172,27.942565 6.9120541,27.824472 8.3936692,27.584204 9.8635286,27.294184 12.62963,26.7484 15.372092,26.021527 17.958837,24.899943 c 0.956246,-0.414617 1.889422,-0.882435 2.793774,-1.400567 1.73031,-1.184862 3.415272,-2.435945 5.049961,-3.74959 1.320746,-1.061359 2.608679,-2.16355 3.861339,-3.304469 0.216921,-0.05764 0.417934,-0.174007 0.575934,-0.333421 0.158,-0.159414 0.272575,-0.361456 0.328275,-0.578883 0.0557,-0.217426 0.05238,-0.44967 -0.0095,-0.665416 -0.06189,-0.215746 -0.182192,-0.414432 -0.344682,-0.569266 -0.264991,-0.252505 -0.633772,-0.380492 -0.999603,-0.392612 -0.365831,-0.01212 -0.729075,0.08476 -1.062967,0.234746 -0.625877,0.281144 -1.15489,0.743885 -1.610589,1.25682 -0.4557,0.512935 -0.846064,1.079636 -1.264114,1.623693 -3.639436,4.736419 -9.525497,7.664488 -15.4985285,7.709868 -1.5080101,0.318294 -3.042312,0.511931 -4.5821179,0.578288 -1.4474109,0.06237 -2.8996532,0.01232 -4.33933315,-0.149582 -0.98275242,0.841141 -2.11480265,1.507344 -3.32730005,1.958089 -0.978966,0.36393 -2.0098854,0.587782 -3.0516235,0.662623 -1.1117036,-0.224264 -2.2611723,-0.260114 -3.3846906,-0.105563 -1.1521613,0.158491 -2.2765023,0.517239 -3.3075383,1.055348 -1.661873,0.631512 -3.3858,1.099599 -5.138849,1.395317 -1.837661,0.309991 -3.725478,0.435649 -5.476693,1.073095 -1.363537,0.496331 -2.614403,1.299489 -3.633162,2.332788 -1.023682,0.377088 -2.115275,0.568957 -3.206188,0.563551 -1.220398,-0.006 -2.439052,-0.259613 -3.560577,-0.740851 l -1.423968,-2.32176 0.687523,-3.978238 0.996909,-2.936318 2.1657,-2.052266 2.715718,-0.978773 2.183345,-1.975828 c 0.926068,-0.02621 1.84812,-0.190129 2.726481,-0.484698 0.830565,-0.27854 1.621911,-0.673751 2.343546,-1.170405 1.207757,-0.540413 2.463223,-0.974148 3.747003,-1.294506 1.596414,-0.398373 3.236581,-0.621156 4.881417,-0.66304 l 3.2566099,0.62043 c -0.2861075,-0.446241 -0.3921154,-1.004458 -0.2895122,-1.524517 0.1026032,-0.520058 0.4126788,-0.996186 0.84683,-1.300326 0.2889158,-0.202397 0.6271323,-0.32879 0.9741953,-0.39191 0.3470629,-0.06312 0.7033126,-0.06443 1.0544581,-0.03076 0.702291,0.06734 1.3833205,0.2724 2.0774972,0.39836 1.8690439,0.339141 3.84076658,0.0879 5.5650371,-0.709118 0.488212,-0.04682 0.9632952,-0.224196 1.3627305,-0.508791 C 3.0410101,11.76689 3.3638108,11.37578 3.5674975,10.929625 3.7796475,10.464932 3.861767,9.9416896 3.8021718,9.4343475 3.7425765,8.9270054 3.5414396,8.4370363 3.2273793,8.0341545 l -3.28521951,0.905896 C -0.09611978,9.0973824 -0.148036,9.251394 -0.21281612,9.3997927 -0.52988759,10.126142 -1.151273,10.694589 -1.8636542,11.041908 c -0.7123813,0.34732 -1.5116134,0.487123 -2.3038018,0.510692 -1.5843769,0.04714 -3.15634,-0.353913 -4.7408413,-0.31116 -2.1740807,0.05866 -4.2260137,0.941946 -6.2863897,1.638307 -1.404056,0.474539 -2.835871,0.867177 -4.224614,1.384819 -0.761058,0.283678 -1.507966,0.604461 -2.270951,0.882916 -0.822831,0.300296 -1.663736,0.551062 -2.516648,0.750488 l -3.317565,0.783436 c -0.538421,-0.245134 -1.176265,-0.262425 -1.727176,-0.04682 -0.353748,0.138443 -0.667799,0.366805 -0.935508,0.636317 -0.267708,0.269511 -0.491041,0.579952 -0.69367,0.901271 -0.405259,0.642637 -0.735715,1.33874 -1.23251,1.913555 -0.674866,0.780852 -1.646666,1.29853 -2.671212,1.422953 l -6.607102,2.703673 c -0.440813,0.01785 -0.886158,-0.09764 -1.262738,-0.327468 -0.376581,-0.22983 -0.682915,-0.573095 -0.868585,-0.973296 -0.232178,-0.500447 -0.27126,-1.087583 -0.107459,-1.614388 0.163801,-0.526804 0.528924,-0.98826 1.003941,-1.268817 0.159653,-0.88703 0.513149,-1.73865 1.028583,-2.478 0.60939,-0.874122 1.445361,-1.588847 2.403577,-2.054968 -0.303046,-0.344482 -0.483896,-0.79435 -0.503606,-1.252735 -0.01971,-0.458384 0.121855,-0.922116 0.394213,-1.29134 0.293254,-0.397552 0.719818,-0.673682 1.148852,-0.918578 0.429035,-0.244897 0.875355,-0.471081 1.243432,-0.800572 0.41637,-0.372721 0.712905,-0.860883 0.955065,-1.3645131 0.684231,-1.4230233 0.975533,-3.0325605 0.833458,-4.6051324 l -2.406854,-0.766067 -1.259743,3.5146806 c -0.01217,0.7972567 -0.319229,1.5866887 -0.848956,2.1826379 -0.479453,0.53939 -1.119861,0.911559 -1.625722,1.426264 -0.856717,0.871694 -1.276269,2.153328 -1.100868,3.362894 l -2.611876,2.22209 -1.731274,3.159495 -0.626244,4.042857 -2.23873,-1.963153 c -0.492405,-0.719386 -0.863149,-1.521827 -1.091791,-2.363077 -0.593966,-2.185399 -0.218634,-4.536661 -0.744059,-6.739544 -0.203976,-0.855187 -0.542479,-1.676937 -0.986301,-2.435865 -0.642416,-1.0985212 -1.49902,-2.0592781 -2.150343,-3.1525417 -0.517849,-0.8692239 -0.89947,-1.8111813 -1.337637,-2.7231726 -0.403855,-0.8405764 -0.8568,-1.6575644 -1.355758,-2.4454152 l -1.869076,0.9918224 c -0.215289,0.9693295 -0.269291,1.9742818 -0.159117,2.9611004 0.101153,0.9060162 0.340396,1.7962694 0.704339,2.632118 0.480791,1.1042087 1.180157,2.1127367 2.045754,2.9501007 0.735943,1.563491 1.324804,3.191441 1.874571,4.829694 l 1.494295,4.45286 -0.06876,3.473065 c 0.08129,0.482274 -0.09646,1.000492 -0.456665,1.331326 -0.360204,0.330834 -0.891634,0.46398 -1.365272,0.34206 -0.460036,-0.118419 -0.840683,-0.456681 -1.097037,-0.856605 -0.256354,-0.399924 -0.401766,-0.859994 -0.522116,-1.319529 -0.327719,-1.251335 -0.489661,-2.539194 -0.649676,-3.822796 -0.173162,-1.389067 -0.345043,-2.778294 -0.515642,-4.167678 -0.733477,-0.56084 -1.444665,-1.150828 -2.131323,-1.768105 -0.545177,-0.490092 -1.074894,-0.997383 -1.588096,-1.520863 -0.182222,-0.724493 -0.436277,-1.430899 -0.757231,-2.105498 -0.455468,-0.957327 -1.042715,-1.8458489 -1.532868,-2.7858896 C -64.43679,7.0438055 -64.891821,5.808329 -65.183371,4.5353167 L -67.98706,0.56726706 c -1.230007,-0.69179261 -2.700162,-0.94647342 -4.091195,-0.70873416" style="fill:#784421;stroke:#5d2e0f;stroke-width:0.31627154;stroke-linecap:butt;stroke-linejoin:miter;stroke-miterlimit:4;stroke-opacity:1;stroke-dasharray:none"/>
      <path inkscape:connector-curvature="0" id="path4615" d="m -0.42624072,-16.153891 c -1.61828618,0.927615 -3.31888678,1.919929 -4.26560748,3.505785 -0.5254032,0.842103 -0.9774611,1.759434 -1.035701,2.7442149 0.069046,1.343949 0.8070948,2.59401 1.8450118,3.512517 1.1586217,1.051731 2.4035661,2.027203 3.52382926,3.112483 0.73739878,0.675639 0.72279331,1.789064 0.13570271,2.53933003 C -1.11503,0.46557894 -2.4026982,1.3533059 -3.5268513,2.3623429 c -0.685807,0.641211 -1.5999501,1.191756 -1.8727493,2.104482 -0.5140042,1.295101 -0.071634,2.673994 0.2852037,3.949624 0.4140776,1.5552408 0.8886862,3.2174151 0.3998363,4.8046601 -0.4275626,1.145208 -1.3429368,2.069039 -2.3994066,2.757728 -1.7186666,1.328297 -3.7201488,2.307304 -5.4006088,3.679772 -0.951421,0.895704 -1.777123,2.022426 -1.857146,3.3125 -0.0064,1.091863 0.852142,2.096172 1.973086,2.40327 2.11859,0.843214 4.39969,1.238185 6.5555891,1.985767 2.0840888,0.697111 4.0369479,1.698285 5.81211504,2.923854 1.09641286,0.711785 2.13080696,1.511217 3.25144836,2.187109 0.9591498,0.258337 2.0311741,-0.657298 1.6207823,-1.5625 -0.2985124,-0.944439 -0.7937263,-1.869768 -0.675326,-2.881194 -0.00248,-1.213696 0.5603801,-2.353361 1.3090152,-3.32663 0.8620747,-1.211264 2.0433927,-2.183681 3.0806037,-3.260926 0.9955212,-0.811288 2.2343303,-1.46117 3.5984963,-1.433282 2.217744,-0.212801 4.372112,0.423023 6.531393,0.777032 1.318397,0.267163 2.636686,0.550974 3.984424,0.65625 1.26008,-0.07399 2.159808,-0.997411 2.997952,-1.767584 0.984742,-0.847088 2.031594,-1.70272 2.602731,-2.852783 0.47734,-1.15939 0.387336,-2.483313 -0.106486,-3.625349 -0.410994,-1.125297 -1.15146,-2.151832 -2.139977,-2.911319 C 25.329116,9.7900097 24.431021,9.5128567 23.547833,9.5961087 20.526041,9.7667477 17.59659,10.550204 14.587336,10.807609 12.820354,10.920718 10.915026,11.171763 9.2836115,10.366212 8.3457684,9.8900317 7.605984,9.0569687 7.4195681,8.0670009 c -0.2916479,-1.387728 0.1598123,-2.904249 1.2156397,-3.93865 0.821875,-0.885843 1.8676392,-1.57202 2.9279832,-2.190984 1.917694,-1.02451096 3.892636,-1.95773496 5.783598,-3.023746 1.014423,-0.595653 2.087414,-1.350291 2.419217,-2.473762 0.03632,-1.320969 -0.963731,-2.403848 -2.065098,-3.128717 -1.019419,-0.706377 -2.251276,-1.202168 -3.540107,-1.215033 -1.142591,-0.201475 -2.279407,0.165177 -3.410397,0.28125 -1.9974464,0.365103 -3.916631,1.03881 -5.9151885,1.38849 -1.1227624,0.167675 -2.2381027,-0.166425 -3.2284332,-0.635401 -1.70420623,-0.75355 -3.4274112,-1.587577 -4.7343237,-2.878089 -0.7240898,-0.6946789 -0.9654352,-1.7048769 -0.700286,-2.6263439 0.4009708,-1.193132 1.3623108,-2.1654 2.4223672,-2.904906 0.42004202,-0.238187 0.85341765,-0.511439 1.11428791,-0.90625 l -0.13506515,0.03125 z" inkscape:transform-center-y="-0.53681916" inkscape:transform-center-x="-0.19287931" style="fill:#e9afaf;fill-opacity:0.85714285;fill-rule:nonzero;stroke:#df94a3;stroke-width:0.31184441;stroke-miterlimit:4;stroke-opacity:1"/>
      <path inkscape:connector-curvature="0" id="path4615-2" d="m 52.216877,5.0050292 c -1.551302,-1.02094 -3.198958,-2.087019 -5.145525,-2.279857 -1.042439,-0.121752 -2.131371,-0.151769 -3.134808,0.180329 -1.311829,0.579928 -2.270781,1.694186 -2.783248,2.935722 -0.598365,1.396158 -1.087306,2.836394 -1.733956,4.2128348 -0.387073,0.891008 -1.501725,1.310204 -2.476607,1.100223 -1.546163,-0.293774 -2.929561,-1.048127 -4.370395,-1.6159558 -0.904532,-0.336475 -1.807282,-0.902894 -2.822131,-0.78177 -1.489215,0.06359 -2.691117,0.975547 -3.823326,1.7745088 -1.388515,0.956189 -2.860072,2.005474 -4.630512,2.203784 -1.306406,0.07922 -2.581433,-0.343528 -3.676954,-0.977809 C 15.630111,10.805803 13.879064,9.4778822 11.860577,8.5763652 10.599591,8.1119572 9.1572458,7.8443622 7.8412861,8.2762332 6.7512581,8.6939992 6.0838243,9.8158462 6.2125198,10.89118 c -0.018509,2.134268 0.4724311,4.233397 0.5636325,6.36242 0.1136309,2.048193 -0.1264653,4.102315 -0.6589507,6.091842 -0.2838898,1.211297 -0.6791208,2.403664 -0.9178674,3.621715 0.1145385,0.918403 1.4421311,1.477971 2.1846266,0.776935 0.8249491,-0.620804 1.5546058,-1.402005 2.6079058,-1.69311 1.2078974,-0.47265 2.5612374,-0.434298 3.8208624,-0.172957 1.540651,0.265849 2.967172,0.896642 4.442235,1.363857 1.194004,0.534757 2.321562,1.339637 2.822648,2.514218 1.071736,1.809458 1.273656,3.893846 1.758174,5.873173 0.24502,1.228298 0.473419,2.462959 0.891056,3.653528 0.562208,1.046289 1.830759,1.455852 2.922799,1.87229 1.225482,0.511682 2.483552,1.073037 3.850453,1.114414 1.339831,-0.04226 2.623587,-0.632302 3.569629,-1.496328 0.961479,-0.786878 1.696859,-1.81654 2.07009,-2.954283 0.221408,-0.783968 0.149281,-1.65758 -0.276037,-2.378753 -1.341456,-2.511736 -3.257489,-4.707117 -4.680506,-7.174521 -0.797687,-1.463561 -1.786396,-2.99167 -1.616524,-4.695728 0.110698,-0.98468 0.65364,-1.938755 1.567395,-2.48158 1.269135,-0.786803 2.954638,-0.989591 4.394245,-0.489885 1.200943,0.357715 2.289812,0.983838 3.317387,1.648455 1.763887,1.238799 3.459046,2.561827 5.253905,3.761732 0.986555,0.63448 2.154168,1.257288 3.401799,1.104799 1.32979,-0.481126 2.020651,-1.75409 2.315651,-2.974685 0.308352,-1.143517 0.324598,-2.386624 -0.162246,-3.491113 C 49.412591,19.594763 48.606676,18.76709 48.0526,17.847243 46.914576,16.284765 45.499517,14.908694 44.376423,13.33929 43.77414,12.446466 43.674511,11.365444 43.757685,10.33878 c 0.08986,-1.7459998 0.252504,-3.5394038 1.031208,-5.1546398 0.411195,-0.887036 1.323804,-1.484564 2.344395,-1.615602 1.343829,-0.120489 2.684919,0.322698 3.832446,0.940338 0.400081,0.265997 0.840257,0.529775 1.33463,0.599262 l -0.0835,-0.103109 z" inkscape:transform-center-y="1.5556252" inkscape:transform-center-x="1.5191414" style="fill:#e9afaf;fill-opacity:0.85714285;fill-rule:nonzero;stroke:#df94a3;stroke-width:0.31184441;stroke-miterlimit:4;stroke-opacity:1"/>
      <path inkscape:connector-curvature="0" id="path4615-8" d="M 31.301247,0.07609345 C 30.183667,-1.461293 28.789742,-2.7971224 27.518479,-4.2218606 c -0.757261,-0.5701953 -1.678106,-1.1571448 -1.851591,-2.1160362 0.935475,-0.3764079 0.519334,-1.9788867 -0.519691,-1.8488078 -1.017404,-0.1056038 -1.961811,-0.599315 -2.998859,-0.5731655 -0.971552,0.191537 -1.727938,1.2659551 -1.24767,2.1359284 0.680496,1.3843353 1.870543,2.468715 2.788922,3.7131456 0.54052,0.6388588 1.296981,1.3238942 1.107241,2.21662298 -0.336438,0.90464457 -1.579989,1.00056897 -2.437555,0.76986847 -1.576325,-0.3037552 -3.194585,-0.40925158 -4.761384,-0.75338606 -0.943696,-0.24642447 -2.023856,-0.42774909 -2.60297,-1.24411969 -0.549994,-0.8409534 -0.729704,-1.8484042 -1.071413,-2.7745658 -0.782737,-2.5648984 -2.095001,-4.9638272 -2.834929,-7.5425818 -0.574019,-1.803776 -0.739568,-3.765083 -1.8457758,-5.387267 -0.6851943,-0.81354 -2.0687461,-0.838752 -2.9308413,-0.249192 -1.2918598,0.81495 -2.1267031,2.118608 -2.6304228,3.464429 -0.3634486,1.109431 -0.5380696,2.313602 -0.1506929,3.440789 0.4164698,1.6717186 1.458406,3.1272911 2.1844128,4.6900947 0.6450065,1.3357726 1.372297,2.6656071 1.6458375,4.1197715 C 7.4771337,-1.2143724 7.0847228,-0.29114045 6.3489621,0.36100395 5.1055109,1.4152407 3.3570356,1.5686217 1.7832074,1.9066012 0.89824179,1.9911962 -0.07805482,2.1484193 -0.87445979,1.6763967 -1.5843538,1.3072368 -2.1534782,0.65955135 -2.2200091,-0.11186725 -2.4846396,-1.5733673 -2.4376812,-3.0694496 -2.6519378,-4.5389394 c -0.2402216,-2.7794431 -0.4193624,-5.5632286 -0.4705077,-8.3516816 -0.038996,-1.037556 -0.066149,-2.075414 -0.090127,-3.113345 -0.1741239,-0.875227 -1.6201223,-1.200008 -2.1944737,-0.471618 -0.6265635,0.744967 -1.1487187,1.56298 -1.6373531,2.390913 -0.5912396,0.962369 -1.1265534,1.961234 -1.3595694,3.055946 -0.2824532,1.0476748 -0.6161742,2.1065246 -0.5625796,3.1960771 -0.059656,1.0309138 0.2021051,2.04642 0.2905504,3.0702325 0.2773844,1.3643468 0.6531543,2.7116773 1.0603927,4.04645872 0.2850717,0.82181243 0.8445671,1.56145023 1.022384,2.41075598 -0.1022546,0.9872187 -1.3863092,0.6106496 -1.8643326,0.098044 -0.8283844,-0.4356207 -1.5955792,-1.01807985 -2.5403492,-1.21986185 -1.757395,-0.5588912 -3.517777,-1.20593324 -5.397478,-1.28036257 -0.776982,-0.0795863 -1.847651,0.10285752 -2.163805,0.84984457 -0.226923,0.91430685 0.778039,1.57269545 1.413383,2.13113765 0.794994,0.7211451 1.641441,1.4014374 2.389911,2.1618073 0.615979,0.7527075 1.377138,1.5168796 1.405282,2.5156137 0.144071,1.0102713 -0.253611,2.0119954 -0.790862,2.8729414 -0.727176,1.3100465 -1.852942,2.3742725 -2.766239,3.5705955 -0.597213,0.807943 -1.26022,1.595047 -1.679009,2.498937 -0.373568,0.722313 -0.607635,1.694212 0.01427,2.361915 0.754201,0.803153 2.024567,0.455935 2.750252,-0.188995 1.493404,-0.988012 3.028212,-1.958512 4.771922,-2.529163 1.3782811,-0.631114 2.7679544,-1.277465 4.2721442,-1.617727 0.9136705,-0.255496 1.9149159,-0.444087 2.8311246,-0.09053 1.1671265,0.324817 2.0515808,1.193857 2.5808102,2.183827 0.66207772,1.036147 1.06503555,2.207357 1.78739126,3.208473 0.63422194,0.687576 1.73640034,0.659296 2.53804684,0.256568 1.2030117,-0.55083 2.3700982,-1.399124 3.7775359,-1.366171 1.2748005,0.09004 2.5474863,0.553213 3.44297,1.418079 0.666839,0.545156 1.022417,1.329522 1.642138,1.902886 0.567364,0.677633 1.927978,0.372472 1.825942,-0.570086 -0.0527,-0.945118 -0.922856,-1.510666 -1.589452,-2.111643 C 11.097691,17.852946 10.149114,16.935038 9.0241985,16.210619 7.961176,15.429165 6.8329602,14.709087 5.8731858,13.817132 5.1689331,13.088528 5.0715717,12.022854 5.1787313,11.092062 5.3905687,10.181571 5.6389136,9.2579845 6.0773665,8.417712 6.4772805,7.5285168 7.5677796,7.0008647 8.5766897,7.2931931 c 0.9274051,0.1962177 1.7347903,0.7083831 2.5930253,1.072898 3.013983,1.4838524 5.953568,3.0942849 8.983635,4.5493879 0.708654,0.325456 1.484318,0.759281 2.305018,0.550066 0.916943,-0.225983 1.638354,-0.942904 1.875242,-1.787405 0.599442,-1.8261545 0.737071,-3.7390356 0.975485,-5.6241396 0.22468,-0.8493297 1.070801,-1.4673105 2.003788,-1.5305774 0.95043,-0.1028124 1.914796,-0.1003053 2.845785,-0.3152396 1.032953,-0.3403276 1.721393,-1.3355562 1.704145,-2.3414378 0.106484,-0.6249272 -0.134955,-1.30332865 -0.561564,-1.79065875 z" inkscape:transform-center-y="-1.5446042" inkscape:transform-center-x="-4.2887488" style="fill:#efafaf;fill-opacity:0.85714285;fill-rule:nonzero;stroke:#df94a3;stroke-width:0.31184441;stroke-miterlimit:4;stroke-opacity:1"/>
      <path inkscape:connector-curvature="0" id="path4615-3" d="m -26.330872,-25.008038 c -3.991336,3.519601 -7.943677,7.077086 -11.801403,10.722444 -2.068656,1.917167 -4.12058,3.850044 -6.19757,5.7591273 -0.718568,0.726679 -1.619561,1.300678 -2.661638,1.54018 -1.45704,0.386192 -2.951671,0.632444 -4.42775,0.946999 -1.055486,0.087977 -1.805735,-0.920831 -2.870135,-0.8125 -1.05795,0.505752 -0.205494,1.835441 0.644692,2.108494 0.786998,0.539903 1.631361,1.02633 2.596872,1.235256 1.510634,0.455613 3.103593,0.612004 4.625983,1.03125 0.836378,0.140077 1.770241,0.413974 2.261705,1.10183 0.666455,0.99320495 0.622002,2.22134795 0.785733,3.345698 0.153662,1.268655 0.317101,2.54096 0.700622,3.771222 0.859996,1.593414 2.282956,2.813189 3.545461,4.125 0.871849,0.9426487 1.755273,1.8993627 2.329875,3.0312497 0.470772,2.061044 -0.02409,4.160234 -0.06007,6.236725 -0.06613,1.541362 -0.260895,3.115132 0.08629,4.634689 0.304983,0.823916 1.029486,1.707492 2.067292,1.659836 1.007002,2.25e-4 1.817881,-0.774945 2.001017,-1.657594 0.648382,-2.033098 0.760304,-4.222825 1.848341,-6.123656 0.551067,-0.984106 1.520346,-1.740917 2.654481,-2.092451 1.625174,-0.595168 3.450516,-0.579304 5.118753,-0.143296 2.086821,0.415405 3.958659,1.548724 6.104715,1.735747 1.798018,0.07139 3.385411,-0.818874 5.002311,-1.40976 0.882343,-0.382683 1.810839,-0.763315 2.8104852,-0.602412 2.0876681,0.141211 4.0591235,0.900788 6.1498714,1.031938 1.3728302,0.119443 2.80311768,0.04535 4.0594974,-0.524486 0.7957403,-0.335359 1.4992042,-0.862536 2.1128335,-1.433176 0.7396689,-0.764063 1.2922401,-1.665498 1.6187737,-2.646046 0.4315474,-1.074627 0.7560907,-2.1834987 1.072247,-3.2910577 0.1603277,-0.877933 0.2305314,-1.766649 0.1350652,-2.65625 -0.062436,-1.036551 -1.621971,-1.132532 -1.8451192,-0.127142 -0.2683627,0.951625 -0.5156617,1.919746 -0.708069,2.892032 -0.2676928,1.480098 -0.6233681,3.0210267 -1.6338329,4.2351097 -0.6730408,0.692254 -1.68874188,1.00301 -2.67392792,1.040789 -1.42321808,0.07042 -2.77131898,-0.509056 -4.03221988,-1.053664 -1.8547166,-0.886462 -3.7049283,-1.821694 -5.7198515,-2.362125 -1.164033,-0.237683 -2.387236,-0.02275 -3.410395,0.53125 -1.668416,0.812362 -3.264633,1.841857 -5.132478,2.21875 -1.007426,0.172521 -2.173402,-0.28361 -2.543436,-1.207795 -0.42443,-0.925922 -0.01615,-1.9378077 0.247328,-2.8547047 0.544452,-1.557966 1.682365,-2.836114 2.578812,-4.223644 0.42093,-0.705508 1.375183,-1.205574 1.236779,-2.120106 -0.267986,-0.578452 -1.568766,-0.53545 -1.18182,-1.40625 0.466175,-0.75011305 1.373883,-1.20753405 2.133527,-1.69773205 0.861607,-0.48534195 1.771786,-0.99536895 2.796352,-1.08351795 0.914406,0.121528 1.971134,0.197773 2.701304,-0.4375 0.831297,-0.714478 0.666103,-2.091661 -0.275484,-2.659967 -1.138629,-0.766797 -2.66547,-0.813819 -3.980989,-0.458658 -1.902351,0.428363 -3.743303,1.118765 -5.425288,2.045121 -0.6443,0.476127 -1.953155,0.862279 -2.350005,-0.071791 -0.274183,-0.759535 0.357137,-1.438724 0.888888,-1.948455 1.010667,-0.791634 1.865078,-1.74417 2.78017,-2.628916 1.247271,-1.349706 2.643241,-2.6245513 3.534128,-4.2148343 0.569313,-1.046351 0.915367,-2.23722 0.71146,-3.409824 -0.18202,-0.947272 -0.741809,-2.041629 -1.859514,-2.246426 -0.832197,-0.162956 -1.690595,0.125731 -2.255596,0.704589 -1.686935,1.465342 -3.116901,3.157578 -4.684564,4.728285 -1.793826,1.853528 -3.533813,3.7507943 -5.215709,5.6921263 -0.616032,0.331765 -1.554856,0.113319 -1.854801,-0.494576 -0.316048,-0.723083 0.02577,-1.554227 0.195395,-2.286562 1.172828,-3.2559633 2.319616,-6.5211063 3.50475,-9.7730653 0.529645,-1.369264 1.133694,-2.716162 1.611194,-4.101137 0.236616,-0.559157 0.707378,-1.974254 -0.451336,-1.84466 z" inkscape:transform-center-y="3.2562614" inkscape:transform-center-x="1.2153696" style="fill:#e9afaf;fill-opacity:0.85714285;fill-rule:nonzero;stroke:#df94a3;stroke-width:0.31184441;stroke-miterlimit:4;stroke-opacity:1"/>
      <path inkscape:connector-curvature="0" id="path4615-1" d="m -50.543602,9.3356605 c 1.122013,1.4231225 2.319966,2.9173075 4.100309,3.6708365 0.947089,0.421066 1.969683,0.768749 3.035113,0.7479 1.442763,-0.165516 2.733696,-0.941292 3.644692,-1.968677 1.045391,-1.148866 2.002082,-2.3716145 3.086524,-3.4876223 0.672088,-0.731664 1.872818,-0.802524 2.725639,-0.317575 1.366007,0.731892 2.419996,1.8529358 3.592301,2.8138943 0.7428,0.584308 1.40521,1.386195 2.409261,1.568804 1.434298,0.376233 2.886433,-0.136438 4.233789,-0.562364 1.644279,-0.499924 3.399184,-1.063806 5.146337,-0.732915 1.266254,0.307817 2.330943,1.082566 3.152973,2.005331 1.561314,1.485406 2.767719,3.258257 4.37373,4.705059 1.037114,0.81014 2.3136078,1.486769 3.7096175,1.462897 1.1768833,-0.07672 2.1939047,-0.945153 2.4398701,-2.002841 0.748017,-2.018948 1.0007791,-4.153911 1.6429341,-6.200046 0.5932161,-1.9760425 1.523975,-3.8540163 2.7099609,-5.5850093 C 0.143288,4.3876247 0.9262577,3.3725107 1.5695905,2.2871637 1.7752743,1.3824727 0.70755041,0.46254365 -0.23664392,0.90982765 -1.2315872,1.2568387 -2.1910413,1.7839237 -3.2897373,1.7512737 c -1.3074698,0.09423 -2.5780003,-0.33887 -3.6833244,-0.95600405 -1.3703367,-0.70379 -2.507517,-1.72027598 -3.7467243,-2.59583695 -0.949503,-0.857235 -1.743534,-1.951207 -1.816818,-3.212199 -0.397262,-2.030459 0.124598,-4.066715 0.342455,-6.0861587 0.187981,-1.23688 0.393907,-2.474922 0.405246,-3.726616 -0.175164,-1.157223 -1.238226,-1.917563 -2.131511,-2.632682 -0.987259,-0.844575 -1.988427,-1.745819 -3.270787,-2.185762 -1.285304,-0.352679 -2.704905,-0.169337 -3.897948,0.372876 -1.181283,0.464512 -2.231202,1.225587 -2.974609,2.195338 -0.478321,0.678697 -0.708902,1.528471 -0.552306,2.33719 0.41274,2.775644 1.478747,5.4196557 1.984021,8.1771597 0.255709,1.622038 0.670513,3.361297 -0.07383,4.927817 -0.442006,0.90152997 -1.283525,1.64731995 -2.336014,1.89433595 -1.473071,0.374254 -3.141193,0.07251 -4.33565,-0.82347698 -1.016679,-0.69134197 -1.83519,-1.60441897 -2.582391,-2.53604097 -1.249085,-1.692083 -2.404152,-3.443911 -3.695926,-5.108181 -0.718606,-0.891012 -1.612942,-1.8240267 -2.848523,-2.0451227 -1.425986,0.06654 -2.516947,1.0714347 -3.214508,2.1427047 -0.683845,0.994247 -1.12471,2.168584 -1.040946,3.358918 -0.130525,1.069667 0.350623,2.090971 0.561351,3.125878 0.544669,1.81562895 1.415905,3.53566 1.944041,5.353482 0.265702,1.023407 -0.0098,2.077973 -0.440048,3.027393 -0.682799,1.629758 -1.450867,3.2831403 -2.742291,4.5869383 -0.693613,0.720825 -1.763729,1.020063 -2.776621,0.845176 -1.31587,-0.279648 -2.43623,-1.093146 -3.31328,-2.015372 -0.288444,-0.3695805 -0.615681,-0.7488105 -1.060812,-0.9596415 l 0.04387,0.122274 z" inkscape:transform-center-y="-0.97493337" inkscape:transform-center-x="0.1730193" style="fill:#e99faf;fill-opacity:0.85714285;fill-rule:nonzero;stroke:#df94a3;stroke-width:0.31184441;stroke-miterlimit:4;stroke-opacity:1"/>
      <path inkscape:connector-curvature="0" id="path4615-1-4" d="m -77.121351,-24.099416 c -1.965739,1.494147 -3.884658,3.052487 -5.608166,4.786967 -0.913192,0.881132 -1.908979,1.753699 -2.480002,2.870826 -0.407952,0.852049 -0.739272,1.785122 -0.572839,2.728754 -0.08396,0.799112 0.735274,1.950044 1.695587,1.501587 0.940951,-0.248848 1.874349,-0.673345 2.461774,-1.419718 0.634493,-0.758674 1.376444,-1.428733 1.953746,-2.229759 0.871364,-1.019022 1.729569,-2.05077 2.659487,-3.025012 0.83211,-0.736539 1.685527,-1.548465 2.854198,-1.783248 0.969443,-0.261072 2.029176,-0.09968 2.89852,0.361161 1.517786,0.736964 2.740282,1.881633 3.949474,2.983152 1.036674,1.233098 1.663843,2.73804 1.987712,4.263959 0.200228,1.065616 -0.0086,2.155717 -0.391633,3.1659544 -0.293984,0.766753 -0.552406,1.540753 -0.780101,2.328482 -0.323622,0.746725 -1.033734,1.391194 -1.920026,1.519758 -1.298527,0.331992 -2.789314,0.3494 -3.856458,1.200325 -0.829723,0.659646 -0.441469,1.726471 0.259724,2.316896 0.914889,1.212707 1.609459,2.57332405 2.693546,3.674463 0.539614,0.613903 0.67364,1.823223 -0.324056,2.10744 -1.122373,0.27253 -2.219136,-0.669641 -3.311229,-0.17846 -0.80139,0.432776 -1.269245,1.249758 -1.487619,2.058796 -0.24731,0.713151 -0.354044,1.503117 -0.17874,2.245164 0.257164,1.381915 0.978986,2.6679596 2.002261,3.6951516 0.898269,0.834128 1.816162,1.646775 2.808276,2.385797 1.475062,1.157354 2.985144,2.359591 4.820605,2.993915 1.964302,0.600334 4.053602,0.313019 6.074058,0.214387 1.640837,-0.08924 3.280728,-0.203405 4.924891,-0.224523 0.993538,0.07578 1.655757,1.358008 0.785185,1.979207 -0.793859,0.780314 -1.920553,1.13586 -2.88392,1.694946 -3.205092,1.518689 -6.479092,2.904875 -9.764079,4.267674 -0.608546,0.438877 -1.626387,0.192314 -2.045644,0.882438 1.00997,0.325332 1.92986,-0.36798 2.90874,-0.473247 2.731837,-0.641486 5.226617,-1.8928 7.831425,-2.855466 2.052942,-0.910625 4.124261,-1.827014 5.991242,-3.040365 0.632464,-0.672548 1.071215,-1.66135 0.748914,-2.538969 -0.283875,-1.001229 -1.858108,-0.626369 -2.14443,-1.631817 -0.118408,-1.021907 1.324634,-1.096929 2.118036,-1.153482 1.090813,-0.161589 1.524399,-1.208378 1.914268,-2.033148 1.112816,-2.1192396 1.857565,-4.4113806 3.253903,-6.3963496 0.618577,-0.829297 1.534721,-1.559385 2.646804,-1.690709 1.133485,-0.128725 2.205165,0.442801 2.907318,1.233248 0.829495,0.871062 1.482062,1.874189 2.159792,2.847045 1.020654,1.565388 1.710257,3.3409846 3.05496,4.7077846 0.61511,0.665194 1.499822,1.111735 2.459627,1.090591 1.030138,0.0124 1.862767,-0.752379 2.167404,-1.615492 0.39003,-1.113801 0.04081,-2.2931086 -0.131196,-3.4146566 -0.415663,-2.029972 -0.923605,-4.043237 -1.260429,-6.087028 -0.645563,-3.400138 -1.0361,-6.844851 -1.882172,-10.210936 -0.300283,-0.98142 -0.642684,-1.964209 -1.167653,-2.8649794 -0.428609,-0.715177 -1.356455,-1.057302 -2.194331,-0.785781 -0.908329,0.356828 -1.625145,1.009815 -2.345649,1.616934 -0.49604,0.6385874 -1.230878,1.3588464 -2.162405,1.2202864 -0.971414,-0.326222 -0.950218,-1.4737534 -0.529249,-2.1956844 0.635412,-1.626907 1.014322,-3.323089 1.531608,-4.982598 0.315703,-1.134227 0.631406,-2.268455 0.947109,-3.402682 -0.13361,-0.946276 -1.601401,-1.397789 -2.321121,-0.71719 -1.668739,1.230719 -3.257232,2.551284 -4.94432,3.760265 -0.808516,0.442359 -1.649685,0.82712 -2.55759,1.059894 -1.133636,0.371586 -2.404923,0.455974 -3.556445,0.09592 -0.958753,-0.302778 -1.757839,-0.885401 -2.523267,-1.483382 -2.374152,-1.86836 -4.749863,-3.736818 -7.138325,-5.5886 -1.498075,-1.013553 -2.990304,-2.074509 -4.689618,-2.784242 -1.374861,-0.461924 -2.81551,-0.802848 -4.276761,-0.902926 -1.608583,-0.0217 -3.257134,0.236785 -4.639683,1.036741 -0.490136,0.236527 -0.960812,0.504695 -1.401038,0.814542 z" inkscape:transform-center-y="2.3675473" inkscape:transform-center-x="0.7277571" style="fill:#e9baaf;fill-opacity:0.85714285;fill-rule:nonzero;stroke:#df94a3;stroke-width:0.31184441;stroke-miterlimit:4;stroke-opacity:1"/>
      <path inkscape:connector-curvature="0" id="path4615-1-4-1" d="m -60.744543,-23.488514 c -3.964253,1.649121 -7.759014,3.619277 -11.615607,5.46875 -2.968679,1.510551 -5.939854,3.031986 -8.748961,4.787231 -0.750834,0.478543 -1.368643,1.302837 -1.178331,2.181519 0.206931,0.95683 1.187504,1.494612 2.079928,1.853089 0.766025,0.343966 1.748922,0.713629 1.972028,1.553161 0.246715,0.876508 -0.757176,1.4676 -1.587016,1.5 -2.862367,-0.060568 -5.713809,0.285723 -8.57664,0.21875 -0.787841,0.058029 -1.593899,0.730148 -1.451951,1.5 0.24839,0.744127 1.027543,1.194423 1.690855,1.609341 1.117345,0.731855 2.213772,1.493866 3.341491,2.211845 0.815242,0.545312 1.546409,1.175955 2.205506,1.877295 0.543718,0.499712 0.927499,1.143264 1.203723,1.801519 0.352368,0.855407 0.53273,1.802526 0.168832,2.6875 -0.356811,1.475915 -1.12277,2.821258 -1.621917,4.254572 -0.783897,2.017004 -1.630054,4.014875 -2.24284,6.084582 -0.426891,1.555626 -1.058024,3.085643 -1.166422,4.69829 -0.0082,0.965862 0.164347,2.118349 1.128064,2.673651 0.773708,0.487159 1.719412,0.760736 2.653761,0.695155 1.370102,-0.09192 2.632529,-0.626246 3.950657,-0.9375 0.973659,-0.03987 2.108974,-0.205708 2.870136,0.5 0.673363,0.710484 0.497215,1.743405 0.540261,2.618527 -0.05975,1.294477 -0.08806,2.593708 -0.009,3.886035 0.043,0.918059 0.492154,1.801141 1.278035,2.373893 0.584594,0.488607 1.242929,0.966412 2.043867,1.088104 1.105699,0.164562 2.41693,0.251837 3.294284,-0.518924 0.755324,-0.62782 0.624166,-1.739226 -0.124113,-2.322635 -0.773801,-0.632028 -1.562402,-1.280473 -1.722081,-2.28125 -0.319012,-1.071012 -0.279358,-2.193242 -0.288648,-3.293332 0.01024,-1.394671 0.140516,-2.81725 -0.26188,-4.179728 -0.291591,-1.244018 -1.217627,-2.351839 -2.420907,-2.96444 -0.805795,-0.343672 -1.642519,-0.661596 -2.24044,-1.292231 -0.673229,-0.707504 -0.07388,-1.746022 0.776683,-2.044235 0.752307,-0.239069 1.545192,-0.467306 2.348374,-0.382284 1.366871,0.04395 2.772563,0.06556 4.079029,0.46875 0.987485,0.277122 1.82598,0.907343 2.363641,1.71875 0.587362,0.685976 1.008953,1.505336 1.789614,2.03125 0.755712,0.352318 1.678688,0.07665 2.217624,-0.489865 0.767284,-0.779466 1.02744,-1.885115 0.990174,-2.916385 -0.0053,-1.020228 -0.479907,-1.955328 -0.96925,-2.846244 -0.828936,-1.516929 -2.162613,-2.724014 -3.352836,-3.997506 -0.786322,-0.741623 -1.48759,-1.56797 -2.397407,-2.1875 -0.566152,-0.250939 -0.969063,-1.357694 0.03377,-1.1875 0.87891,0.38332 1.218546,1.334715 2.096476,1.73539 2.28507,1.634759 4.60376,3.264801 6.535846,5.267111 0.73475,0.696202 1.394779,1.471855 2.206661,2.091249 0.799635,0.366811 1.787912,0.216798 2.498706,-0.25 1.060913,-0.853728 1.969786,-2.014312 2.09351,-3.34375 0.0316,-1.216679 -0.544531,-2.364531 -1.138018,-3.42001 -1.057191,-1.683424 -2.444202,-3.159831 -3.645804,-4.750535 -0.529873,-0.605613 -0.749474,-1.68024 0.132804,-2.110111 0.720351,-0.550049 1.663164,-0.719569 2.456209,-1.156844 1.466726,-0.60389 2.964673,-1.261129 4.079831,-2.359984 0.885019,-0.726453 1.697771,-1.639272 2.876026,-1.952516 0.965072,-0.087852 1.83994,0.415647 2.489956,1.029378 2.846457,2.321627 5.500593,4.835341 8.31526,7.189372 0.485593,0.547336 0.732929,1.336453 1.519483,1.59375 -0.08737,-1.000062 -0.980053,-1.667656 -1.562062,-2.439004 -1.712353,-2.014662 -3.541068,-3.949004 -5.586655,-5.680936 -1.253112,-1.085223 -2.428387,-2.25882 -3.771576,-3.247405 -0.814457,-0.574322 -1.946747,-0.562505 -2.814155,-0.09793 -0.893833,0.390502 -1.714117,1.204879 -2.783094,1.042861 -0.889524,-0.099757 -1.44572,-0.78448 -2.009204,-1.348701 -0.822983,-0.707447 -1.997706,-0.704959 -3.053979,-0.762469 -1.887495,-0.145833 -3.784023,-0.162393 -5.668678,-0.341416 -1.098131,-0.210651 -2.152953,-0.957979 -2.329875,-2.03125 -0.184046,-0.84298 0.169378,-1.70306 0.559813,-2.453541 0.741799,-1.136747 1.660445,-2.167882 2.558626,-3.200776 1.235606,-1.378475 2.509917,-2.750369 3.46599,-4.314433 0.388833,-0.790751 0.260229,-1.784766 -0.37143,-2.4375 -0.496368,-0.473745 -1.218724,-0.865013 -1.958445,-0.8125 l -0.168771,0.04463 -0.0676,0.01787 z" inkscape:transform-center-y="0.39087206" inkscape:transform-center-x="-4.2030221" style="fill:#e9afaf;fill-opacity:0.85714285;fill-rule:nonzero;stroke:#df94a3;stroke-width:0.31184441;stroke-miterlimit:4;stroke-opacity:1"/>
      <path inkscape:connector-curvature="0" id="path4615-1-4-1-4" d="m -62.067796,-11.122461 c -3.368188,1.057538 -6.471204,2.6874004 -9.690928,4.0625001 -1.706348,0.726039 -3.384143,1.510573 -5.098712,2.21875 -0.945614,0.2472264 -1.939545,0.1283539 -2.903901,0.0625 -1.361908,-0.4166667 -2.723812,-0.8333333 -4.085722,-1.25 -1.103969,-0.5745584 -2.195869,-1.1681045 -3.275331,-1.78125 -1.077108,-0.2565223 -1.989889,1.0735006 -1.418184,1.90625 1.360397,2.2355065 2.708813,4.561728 4.847435,6.254326 0.759801,0.654847 1.576232,1.25239 2.311019,1.933174 0.825292,0.377603 1.327744,1.537415 0.561097,2.185837 -0.756891,0.70055 -1.894146,0.648956 -2.873088,0.834419 -2.047664,0.353634 -4.104654,0.655786 -6.163349,0.948494 -0.932545,0.241069 -1.481266,1.323105 -1.01299,2.125 0.678806,1.044718 1.65174,1.9905149 1.823381,3.2499999 -0.09434,0.9737 -1.13955,1.620918 -2.145538,1.571721 -1.883955,0.133017 -3.786634,0.379166 -5.553179,1.022029 -1.564519,0.760688 -3.0733,1.625719 -4.494084,2.600116 -0.6748,0.613778 -1.85688,0.87757 -2.05658,1.837384 -0.14899,1.059706 1.38756,1.09176 2.03976,0.570155 1.784188,-1.006683 3.498996,-2.18202 5.485503,-2.829144 0.836139,-0.195082 1.767473,-0.181564 2.528052,0.232459 0.757856,0.367803 1.345368,1.017207 1.730391,1.717998 0.760428,1.413212 0.932295,3.013181 1.317318,4.533657 0.774983,3.568083 1.430545,7.156703 2.093813,10.743625 0.386978,1.116087 1.41893,2.133189 2.73507,2.21875 0.884947,-0.101977 1.182382,-1.216543 2.093511,-1.21875 0.888427,0.207557 1.390342,1.051989 2.098865,1.534967 1.136607,0.685347 2.176519,1.5133 3.168677,2.371283 0.730077,0.624167 1.27081,1.425156 1.397349,2.350728 0.155613,1.022225 0.158069,2.109315 0.774659,3.013317 0.538029,0.975114 1.691629,1.502291 2.78951,1.775989 0.832946,0.276774 1.893643,0.289552 2.534601,-0.358784 0.696894,-0.73144 0.391122,-1.806973 -0.09132,-2.564994 -0.379686,-0.78683 -0.862335,-1.537372 -1.123187,-2.366606 -0.356324,-0.869975 -0.751316,-1.808425 -1.621855,-2.34965 -1.363304,-1.156715 -3.190785,-1.614239 -4.748629,-2.48667 -1.32159,-0.656472 -2.637313,-1.38528 -3.625413,-2.45083 -0.623644,-0.774371 -0.845228,-1.769573 -0.709092,-2.71875 0.31763,-1.174342 0.867052,-2.29185 1.046754,-3.5 0.245501,-0.880197 0.932297,-1.563788 1.800595,-1.965108 0.683315,-0.492653 1.772822,-0.352914 2.014998,0.496358 0.361296,0.727762 0.536105,1.531272 1.052093,2.188332 0.498145,0.842743 1.055404,1.673566 1.750286,2.384412 1.121712,0.887419 2.555149,1.309384 3.948743,1.679051 1.484081,0.406428 3.062188,0.320449 4.560588,0.02945 0.80726,-0.02948 1.5994,-0.460635 1.857146,-1.1875 0.269305,-1.03766 -1.025606,-1.456436 -1.886135,-1.630093 -2.237102,-0.557318 -4.674331,-0.538105 -6.744452,-1.597996 -0.799964,-0.428864 -1.431651,-1.122748 -1.84901,-1.879397 -0.546401,-1.314907 -0.541462,-2.750242 -0.817382,-4.123216 -0.141267,-0.936786 -0.550654,-1.88123 -1.331617,-2.519298 -0.637938,-0.62259 -1.6953,-0.166756 -2.228576,-0.90625 -0.714397,-0.805594 0.61228,-1.480092 1.348338,-1.011131 0.817016,0.418131 1.628985,0.88123 2.321238,1.469746 0.632451,0.572873 0.848742,1.387704 1.109083,2.137823 0.221361,1.068946 0.314404,2.175758 0.695237,3.208255 0.316993,0.779453 0.937778,1.404979 1.752093,1.757807 1.095472,0.44819 2.315973,0.453165 3.491315,0.5 1.81285,-0.02347 3.618601,-0.25062 5.429561,-0.306488 0.998199,0.02857 2.001768,-0.0076 2.973872,0.249632 0.960442,0.210401 1.950531,0.582744 2.927947,0.197678 0.823296,-0.171174 1.529445,-0.658725 1.996938,-1.302027 0.474712,-0.600141 0.769013,-1.343146 0.806376,-2.088795 0.08467,-0.828505 -0.27378,-1.60388 -0.746166,-2.286757 -1.14522,-1.857835 -2.496734,-3.60523 -3.564084,-5.503832 -0.536957,-0.656963 -0.421791,-1.623512 0.169919,-2.215863 0.595296,-0.594956 1.46031,-0.862749 2.153407,-1.348935 1.601802,-0.890584 3.247324,-1.7311589 4.721994,-2.8008629 0.97722,-0.579737 2.046993,-1.289546 3.27533,-1.09375 1.34265,0.393677 2.306922,1.383757 3.361783,2.191102 2.057484,1.6565759 4.055703,3.3748619 5.991483,5.1526479 0.01494,0.766103 1.458702,-0.03977 0.607793,-0.3125 -2.840411,-2.72759 -5.603386,-5.5302619 -8.577802,-8.1336859 -0.713968,-0.627451 -1.627235,-1.073388 -2.63261,-1.053814 -1.363075,0.071086 -2.585667,1.028189 -3.986937,0.683511 -1.155785,-0.399957 -2.229051,-1.019208 -3.442414,-1.287867 -1.940913,-0.432492 -3.948049,-0.522447 -5.908336,-0.864394 -0.868807,-0.096674 -1.845461,-0.193671 -2.431175,-0.875 -0.707039,-0.682985 -0.858004,-1.727951 -0.477251,-2.589117 0.356047,-0.828318 0.952266,-1.546893 1.45519,-2.3020421 1.577362,-2.0770581 3.111226,-4.1908108 4.42467,-6.4213409 0.340532,-0.8436851 0.0029,-1.8303041 -0.742636,-2.3852441 -0.36396,-0.291708 -0.838715,-0.449109 -1.317108,-0.333506 z" inkscape:transform-center-y="0.39087206" inkscape:transform-center-x="-4.2030333" style="fill:#e99aaf;fill-opacity:0.85714285;fill-rule:nonzero;stroke:#df8fa3;stroke-width:0.31184441;stroke-miterlimit:4;stroke-opacity:1"/>
    </g>
  </g>
</svg>