<?xml version="1.0" encoding="UTF-8" standalone="no"?>
<!-- Created with Inkscape (http://www.inkscape.org/) -->
<svg xmlns:dc="http://purl.org/dc/elements/1.1/" xmlns:cc="http://creativecommons.org/ns#" xmlns:rdf="http://www.w3.org/1999/02/22-rdf-syntax-ns#" xmlns:svg="http://www.w3.org/2000/svg" xmlns="http://www.w3.org/2000/svg" xmlns:sodipodi="http://sodipodi.sourceforge.net/DTD/sodipodi-0.dtd" xmlns:inkscape="http://www.inkscape.org/namespaces/inkscape" width="744.09448819" height="1052.3622047" id="svg4516" version="1.1" inkscape:version="0.48.0 r9654" sodipodi:docname="New document 23">
<g>
  <defs id="defs4518">
    <inkscape:path-effect effect="spiro" id="path-effect4377" is_visible="true"/>
  </defs>
  <sodipodi:namedview id="base" pagecolor="#ffffff" bordercolor="#666666" borderopacity="1.0" inkscape:pageopacity="0.0" inkscape:pageshadow="2" inkscape:zoom="0.35" inkscape:cx="375" inkscape:cy="862.85714" inkscape:document-units="px" inkscape:current-layer="layer1" showgrid="false" inkscape:window-width="469" inkscape:window-height="403" inkscape:window-x="50" inkscape:window-y="50" inkscape:window-maximized="0"/>
  <metadata id="metadata4521">
    <rdf:RDF>
      <cc:Work rdf:about="">
        <dc:format>image/svg+xml</dc:format>
        <dc:type rdf:resource="http://purl.org/dc/dcmitype/StillImage"/>
        <dc:title/>
      </cc:Work>
    </rdf:RDF>
  </metadata>
  <g inkscape:label="Layer 1" inkscape:groupmode="layer" id="layer1">
    <g transform="translate(190.27291,46.430604)" id="g4488">
      <path inkscape:connector-curvature="0" id="path4418" d="m -111.03125,-3.84375 c -3.83361,0.1471028 -7.62048,0.7965725 -11.40625,1.375 -3.97592,0.6912493 -7.90099,1.68946144 -11.68933,3.08547334 -2.36754,0.80131416 -4.70919,1.78003826 -6.69384,3.32992766 -1.56212,1.2689713 -3.16438,2.5023497 -4.61683,3.897099 -2.08669,2.300427 -3.92211,4.80982 -5.65589,7.382309 -0.82539,1.188909 -1.64386,2.420949 -2.81286,3.305191 -2.0409,2.05072 -3.30015,4.775286 -3.84774,7.596076 -0.42721,1.98609 -0.59965,4.056914 -1.47171,5.919561 -0.82252,1.69375 -2.03968,3.152946 -3.15088,4.662336 -1.05928,1.345716 -1.89208,2.911917 -2.09217,4.634527 -0.22905,2.060276 -0.52643,4.111734 -0.82599,6.161883 -0.26032,2.616768 -0.3481,5.268902 0.0594,7.874894 0.25671,2.675346 0.48291,5.394548 -0.0147,8.056973 -0.20075,1.727719 -0.52992,3.528106 0.0625,5.21875 0.69194,1.262737 2.14511,2.087719 3.59375,2 2.38833,0.12077 4.64631,-0.808364 6.94288,-1.313844 2.32071,-0.547723 4.69576,-1.049664 7.09428,-0.832867 1.80274,0.211737 3.57661,0.653081 5.34638,1.055012 5.28235,1.330642 10.49412,2.925192 15.72884,4.429374 6.67257,1.954763 13.37809,3.793867 20.07512,5.662325 2.65052,0.303064 5.21374,-0.631241 7.75,-1.25 3.347457,-0.985719 6.766381,-1.791239 9.982486,-3.167397 2.243328,-0.931657 4.269652,-2.298254 6.153994,-3.816964 2.753288,-2.112004 5.494873,-4.294842 8.64477,-5.796889 2.187457,-1.185935 4.462262,-2.224411 6.807011,-3.057519 4.961026,-1.59309 10.129751,-2.457738 15.055057,-4.174654 1.326422,-0.426487 2.643823,-1.053139 3.518913,-2.177303 1.26652,-1.456898 1.502917,-3.542969 1.087161,-5.374814 -0.310833,-1.866947 -1.16871,-3.609282 -2.330144,-5.092212 -0.848886,-1.124851 -1.766669,-2.204358 -2.552723,-3.372281 -0.535981,-0.783759 -0.700577,-1.71823 -0.69407,-2.649343 -0.10653,-2.175065 0.363478,-4.346599 0.08618,-6.519725 -0.127683,-2.873998 -0.72465,-5.716393 -1.736869,-8.408345 -0.720336,-1.956328 -1.696749,-3.81624 -2.803019,-5.580054 -1.908338,-2.959777 -4.244192,-5.632853 -6.892357,-7.952253 -3.441034,-3.1541588 -7.386904,-5.7245211 -11.580555,-7.7617692 -3.67629,-1.841159 -7.523723,-3.34089211 -11.49465,-4.41363996 C -91.562927,-2.0766045 -95.814803,-2.9148411 -100.09934,-3.4514521 -103.67981,-3.7938656 -107.2799,-3.8770239 -110.875,-3.875 l -0.15625,0.03125 z" style="fill:#916f5d;fill-opacity:0.978836;fill-rule:nonzero;stroke:#003531;stroke-width:0.30000001;stroke-miterlimit:4;stroke-opacity:0.91005297;stroke-dasharray:none"/>
      <path inkscape:connector-curvature="0" id="path4361" d="m -92.651758,-5.8342889 c -9.722472,-1.3172519 -44.627152,0.9176856 -47.284342,12.0927855 -1.77078,7.4472004 9.26517,10.1903364 9.26517,17.1314464 0,7.989251 -27.94716,10.57266 -30.99041,13.772338 -0.49925,0.524904 -3.31653,12.812361 -3.83387,14.44416 -1.17441,3.704326 -3.37881,12.377843 -1.59744,16.123714 2.21743,4.662815 19.6722,3.601705 24.28115,4.366838 2.36401,0.392451 13.05047,1.91333 14.37699,4.70275 0.33887,0.712558 -1.29384,0.659293 -1.27795,0.671821 3.34967,2.641384 18.47919,3.698861 23.00319,3.359108 11.820249,-0.887702 26.488767,-15.960957 38.338662,-21.498285 7.340243,-3.430016 15.853544,0.735378 16.613419,0.335911 2.525773,-1.3278 2.058902,-8.323509 1.916933,-10.413232 -0.545996,-8.036848 -4.08625,-15.529107 -6.070288,-23.177838 -3.322202,-12.807539 -0.770892,-15.017374 -13.738019,-21.834196 -3.755998,-1.9745289 -10.504076,-4.30401022 -14.696485,-5.03866033 -1.874583,-0.32848957 -4.745234,0.19271519 -6.389777,-0.67182147 -1.320458,-0.6941649 -1.453655,-3.1491134 -1.916933,-4.3668391 z" style="fill:#241c1c;fill-opacity:0.52910055;stroke:#000000;stroke-width:0.005;stroke-linecap:butt;stroke-linejoin:miter;stroke-miterlimit:4;stroke-opacity:1;stroke-dasharray:none"/>
      <path sodipodi:nodetypes="csssccsssssccccccccccccccccccccccccccccccccc" inkscape:connector-curvature="0" id="path4361-3" d="m -66.46875,6.21875 c -1.777047,0.455176 -2.808685,2.1515686 -3.48283,3.7311141 -0.695818,1.6335729 -1.001393,3.4013989 -1.425523,5.1185369 -0.806519,3.889744 -1.285025,7.864047 -2.573131,11.639296 -0.911396,2.70588 -1.852489,5.421292 -2.271385,8.257114 -0.311808,1.757874 -0.568651,3.638286 -1.684631,5.097689 -1.220214,1.404048 -3.36788,1.979833 -5.09375,1.21875 -2.786148,-1.007887 -5.169328,-2.832824 -7.616335,-4.457451 -1.237705,-0.748519 -2.463831,-1.557788 -3.815032,-2.088178 -1.395767,-0.569826 -2.908407,-0.147114 -4.332547,0.0702 -1.898046,0.416717 -3.782486,0.894266 -5.697906,1.230297 -2.84078,0.572564 -5.72613,0.919407 -8.6189,1.076366 -3.21511,0.154388 -6.43732,0.193099 -9.64998,-0.03558 -5.08359,-0.245703 -10.16429,-0.565591 -15.24978,-0.76267 -3.20024,-0.122427 -6.41957,-0.156112 -9.59613,0.31412 -2.85273,0.382024 -5.65039,1.205107 -8.26714,2.402905 -1.50632,0.78707 -3.07717,1.543429 -4.32802,2.713949 -1.57181,1.593705 -1.97225,3.88953 -2.63623,5.942189 -1.22109,4.385082 -2.57679,8.734299 -3.66075,13.156362 -0.42034,1.827405 -0.65645,3.762492 -0.125,5.59375 0.1692,1.150817 0.99207,2.159342 2.11292,2.498701 2.03669,0.827861 4.25317,1.041007 6.41249,1.3462 3.54282,0.450416 7.1147,0.598277 10.66778,0.949086 4.78592,0.371556 9.61497,0.65702 14.27825,1.87856 1.34464,0.335891 2.69622,0.707525 3.96606,1.264953 0.91944,0.436915 1.18619,1.508765 1.96875,2.09375 0.86222,0.5228 1.92674,0.473341 2.88721,0.703525 2.32438,0.356542 4.65837,0.657651 6.99329,0.936521 3.9212,0.381911 7.8751,0.64484 11.81194,0.371055 2.70944,-0.268353 5.38001,-0.915065 7.878619,-2.004893 3.218822,-1.293709 6.293897,-2.913746 9.368113,-4.51317 4.611711,-2.515284 9.131296,-5.196737 13.73606,-7.724503 2.447967,-1.262715 4.843076,-2.662239 7.468572,-3.533399 2.432284,-0.83297 5.043657,-1.258207 7.611528,-0.968421 2.625509,0.286546 5.242924,0.648949 7.869668,0.920785 1.258324,0.0059 2.015203,-1.271845 2.193074,-2.380177 0.444433,-2.292975 0.422152,-4.6672 0.104932,-6.976035 -0.487224,-3.28755 -1.493592,-6.462329 -2.542591,-9.605808 -0.896114,-2.657509 -1.585322,-5.376368 -2.370206,-8.066778 -0.821864,-2.456111 -1.716642,-4.88691 -2.719618,-7.274806 -1.268541,-3.125241 -0.179352,-7.379505 -1.62285,-10.434496 -0.867433,-1.628836 -1.515139,-2.568209 -2.306319,-4.237639 -0.721711,-1.6905378 -2.932003,-3.3693042 -4.080172,-4.868011 -0.408872,-0.3955366 -0.977661,-0.7061041 -1.5625,-0.59375 z" style="fill:#241c1c;fill-opacity:0.52910055;stroke:none"/>
      <path inkscape:connector-curvature="0" inkscape:original-d="m -83.843985,38.474477 c -15.054333,-1.463181 -33.146235,0.50922 -47.164845,3.677331 -8.72285,1.971303 -23.63142,5.056093 -26.72674,10.419106 -4.1718,7.228107 10.88005,16.184282 25.54761,14.913621 3.30118,-0.285984 3.64062,-1.44349 6.68169,-1.838666 6.62213,-0.86052 13.09028,-1.632645 19.65203,-2.655849 5.958999,-0.92922 25.885259,-1.605575 29.084981,-3.26874 3.623679,-1.883531 2.706333,-7.056909 3.930403,-9.601921 1.483533,-3.084469 8.275138,-3.075509 10.219049,-4.085923 0.892398,-0.463855 -3.138553,-3.002216 -3.537364,-3.268739 -5.826086,-3.893539 -9.868398,-3.477441 -17.686814,-4.29022 z" inkscape:path-effect="#path-effect4377" id="path4375" d="m -83.843985,38.474477 c -15.728024,-1.501809 -31.365835,3.545034 -47.164845,3.677331 -5.18848,0.04345 -10.46035,-0.436404 -15.50464,0.779055 -2.52214,0.607729 -4.96748,1.650898 -6.99269,3.272339 -2.02521,1.62144 -3.61128,3.848095 -4.22941,6.367712 -0.70733,2.883226 -0.0969,6.018028 1.43548,8.560715 1.53234,2.542688 3.9365,4.505094 6.63922,5.733347 2.70272,1.228254 5.69374,1.748007 8.66241,1.76497 2.96867,0.01696 5.92273,-0.45685 8.8105,-1.145411 2.24725,-0.535836 4.46102,-1.201587 6.68169,-1.838666 6.3981,-1.835524 13.04326,-3.448963 19.65203,-2.655849 5.29503,0.635454 10.336258,2.795586 15.651736,3.227854 2.657739,0.216134 5.395862,-0.01915 7.84997,-1.062057 2.454107,-1.042903 4.60226,-2.955041 5.583275,-5.434537 0.655213,-1.656038 0.770652,-3.469086 1.175989,-5.203291 0.202668,-0.867103 0.481681,-1.723595 0.924107,-2.496382 0.442426,-0.772788 1.056598,-1.461435 1.830307,-1.902248 0.880221,-0.501498 1.916021,-0.658486 2.928614,-0.6892 1.012594,-0.03072 2.027084,0.05542 3.038535,-0.0016 1.01145,-0.05706 2.04394,-0.270052 2.882348,-0.8387 0.419204,-0.284325 0.783041,-0.656021 1.031384,-1.097494 0.248342,-0.441473 0.377833,-0.953913 0.338168,-1.458887 -0.03326,-0.423493 -0.183967,-0.833911 -0.409947,-1.193614 -0.22598,-0.359703 -0.525721,-0.669934 -0.861079,-0.930679 -0.670717,-0.521491 -1.472264,-0.842354 -2.266338,-1.144446 -5.687201,-2.163602 -11.629513,-3.711831 -17.686814,-4.29022" style="fill:#552200;fill-opacity:0.3386243;stroke:none"/>
      <path inkscape:connector-curvature="0" id="path4363" d="m -111.79933,6.5881589 c -1.85964,0.308396 -3.48627,1.535425 -4.88347,2.90625 -0.88654,1.0411101 -1.51344,2.3266841 -1.88344,3.7104531 -0.42367,1.347372 -0.89245,2.895775 -2.12211,3.539547 -1.46229,0.73907 -3.06983,0.976527 -4.61877,1.383115 -1.02773,0.260599 -2.07718,0.539366 -3.00823,1.116885 -0.73399,0.657764 -0.71752,1.970606 -0.18247,2.77859 0.87132,1.738596 2.36339,2.961121 3.17102,4.747236 0.30008,0.791324 0.3072,1.660855 0.35856,2.505424 0.21655,1.002198 1.09767,1.386011 1.81946,1.807427 4.23269,2.581104 8.64624,4.795151 13.21123,6.496584 1.07394,0.399472 2.21851,0.733944 3.35092,0.508489 0.61212,-0.313417 1.66801,0.331549 1.29136,1.182076 -0.48005,0.758864 -1.61793,0.798652 -1.78519,1.849174 -0.30108,1.901474 0.71937,3.687629 1.90267,4.917231 1.69035,1.765886 3.97895,2.436033 6.10801,3.217698 3.949128,1.351239 8.000396,2.317674 11.879868,3.927571 0.883468,0.450495 1.901986,0.982212 2.24969,2.09375 0.161951,1.270424 -0.543815,2.378965 -1.124846,3.375 -0.70631,0.752637 -0.186531,1.917148 0.77304,1.579043 1.5967,-0.169802 3.149949,-0.625868 4.695296,-1.098417 2.971479,-0.857625 5.728816,-2.456164 8.413897,-4.105626 2.933046,-1.847519 5.89878,-3.684882 9.108381,-4.838021 3.440377,-1.35219 6.818677,-2.918309 10.068853,-4.786979 0.617448,-0.588581 0.192992,-2.006286 -0.663883,-1.8125 -0.809129,0.05135 -1.586696,0.386824 -2.38213,0.554754 -3.931675,1.165203 -7.708858,2.886312 -11.528078,4.442518 -2.810723,1.208414 -5.668664,2.364271 -8.641384,2.91709 -1.416373,0.133462 -3.022615,0.05941 -4.123653,-1.097061 -0.921996,-1.110493 -1.312262,-2.634523 -1.577617,-4.098551 -0.09993,-1.066872 -0.01399,-2.295668 0.771984,-3.017448 1.334475,-1.597341 3.119708,-2.547183 4.726836,-3.730302 2.560884,-1.732942 5.124738,-3.46495 7.623691,-5.311883 1.710122,-1.226448 3.203067,-2.875926 4.216562,-4.877867 0.418153,-1.088883 -0.09419,-2.572924 -1.15228,-2.84375 -1.701299,-0.399776 -3.478153,0.09785 -4.993214,1 -2.146847,1.328495 -3.773323,3.452013 -5.641411,5.19979 -2.109342,2.160233 -4.306458,4.257962 -6.022148,6.851531 -0.459702,0.631953 -0.884719,1.312072 -1.021612,2.136649 -0.07509,0.779624 -0.338739,1.974849 -1.224497,1.24953 -1.246584,-1.118806 -2.68288,-1.905679 -4.03298,-2.84375 -0.612173,-0.509539 -1.266098,-0.936689 -1.896331,-1.411544 -1.338882,-1.0317 -2.120425,-2.693466 -3.157819,-4.059706 -0.907655,-1.342298 -2.091838,-2.494792 -3.525797,-3.017826 -2.125458,-0.922983 -4.361528,-1.453454 -6.507528,-2.307887 -2.20806,-0.768755 -4.46419,-1.43684 -6.54149,-2.603785 -1.17059,-0.86087 -2.24795,-2.193692 -2.3362,-3.85464 -0.0178,-1.728691 0.81654,-3.338034 1.87855,-4.51735 1.26781,-1.311348 2.85702,-2.124421 4.34275,-3.063349 1.52309,-0.895227 3.07868,-1.741181 4.49264,-2.851413 0.71344,-1.015658 0.27499,-2.6314311 -0.71331,-3.1875001 -0.88035,-0.716732 -1.83095,-1.321567 -2.86961,-1.686042 -1.39857,-0.588053 -2.88352,-0.820177 -4.36547,-0.901498 -0.6412,-0.070005 -1.28446,-0.130949 -1.9283,-0.06871 z" style="fill:#803300;fill-opacity:0.39682539;stroke:none"/>
      <path inkscape:connector-curvature="0" id="path4397" d="m -107.16326,-2.108127 c -5.33512,0.2348471 -10.65839,0.9536076 -15.85132,2.2606058 -3.08008,0.7928179 -6.12355,1.8325683 -8.89646,3.4653661 -1.0949,0.6451327 -2.13887,1.4101168 -3.05827,2.3052781 -0.97043,1.026935 -1.80654,2.35196 -1.70791,3.856139 0.1441,1.818206 1.37424,3.304511 2.66674,4.425111 2.29093,1.789751 4.97119,2.924546 7.66901,3.857872 4.24971,1.395407 8.65809,2.121225 13.03571,2.923378 1.85777,0.671807 3.22919,2.266673 4.34598,3.889373 1.8013,2.521895 3.39525,5.259347 5.66021,7.372594 1.51019,1.414483 3.64246,2.31617 5.672477,1.762637 1.460255,-0.346991 2.597663,-1.425775 3.568548,-2.557124 0.709961,-0.878407 1.583514,-1.745742 2.717596,-1.925162 2.151634,-0.638859 4.416899,-0.497382 6.625948,-0.708395 2.230244,-0.117123 4.567696,-0.546408 6.369831,-2.01964 1.866113,-1.443615 3.15574,-3.633465 3.60362,-6.007159 0.389177,-1.553876 0.413039,-3.231361 1.104136,-4.68754 0.509351,-1.101547 1.295971,-2.023344 2.21044,-2.776619 1.231948,-1.227026 2.112275,-3.127481 1.533001,-4.906269 -0.670124,-2.2279795 -2.588977,-3.6925028 -4.461467,-4.7829377 -2.660059,-1.5321703 -5.573638,-2.4954222 -8.478809,-3.3806568 -5.05739,-1.3536423 -10.266454,-2.0413318 -15.477423,-2.2883232 -2.949358,-0.099913 -5.901468,-0.219106 -8.851588,-0.078528 z" style="fill:#b3b3b3;fill-opacity:0.52910055;fill-rule:nonzero;stroke:none"/>
      <path inkscape:connector-curvature="0" id="path4397-1" d="m -109.39613,-0.5376629 c -5.33512,0.1666009 -10.65839,0.6765058 -15.85132,1.6037216 -3.08008,0.5624447 -6.12355,1.3000673 -8.89646,2.4584132 -1.0949,0.45767 -2.13887,1.0003715 -3.05827,1.6354186 -0.97043,0.7285277 -1.80654,1.6685345 -1.70791,2.7356344 0.1441,1.2898728 1.37424,2.3442951 2.66674,3.1392751 2.29093,1.269689 4.97119,2.074735 7.66901,2.736861 4.24971,0.989936 8.65809,1.504842 13.03571,2.073913 1.85777,0.476591 3.22919,1.608028 4.34598,2.759209 1.8013,1.789086 3.39525,3.731104 5.66021,5.230285 1.51019,1.003471 3.64246,1.643144 5.672479,1.250457 1.46025,-0.246163 2.59766,-1.011474 3.56855,-1.81408 0.70996,-0.623164 1.58351,-1.238475 2.71759,-1.36576 2.15164,-0.453215 4.4169,-0.352852 6.62595,-0.502548 2.23024,-0.08309 4.5677,-0.387636 6.36983,-1.432779 1.86611,-1.024137 3.15574,-2.577667 3.60362,-4.261617 0.38918,-1.102358 0.41304,-2.292401 1.10414,-3.325449 0.50935,-0.781465 1.29597,-1.435404 2.21044,-1.969798 1.23195,-0.8704762 2.11227,-2.2187061 1.533,-3.4806207 -0.67013,-1.5805802 -2.58898,-2.6195444 -4.46147,-3.3931205 -2.66006,-1.0869637 -5.57364,-1.7703154 -8.47881,-2.3983179 -5.05739,-0.9603033 -10.26645,-1.4481664 -15.477419,-1.6233868 -2.94936,-0.070871 -5.90147,-0.1554417 -8.85159,-0.05569 z" style="fill:#999999;fill-opacity:0.52910055;fill-rule:nonzero;stroke:none"/>
    </g>
  </g>
</g>
</svg>
