<?xml version="1.0" encoding="UTF-8" standalone="no"?>
<svg
   xmlns:dc="http://purl.org/dc/elements/1.1/"
   xmlns:cc="http://creativecommons.org/ns#"
   xmlns:rdf="http://www.w3.org/1999/02/22-rdf-syntax-ns#"
   xmlns:svg="http://www.w3.org/2000/svg"
   xmlns="http://www.w3.org/2000/svg"
   xmlns:sodipodi="http://sodipodi.sourceforge.net/DTD/sodipodi-0.dtd"
   xmlns:inkscape="http://www.inkscape.org/namespaces/inkscape"
   width="4100"
   height="2050"
   id="svg3075"
   version="1.1"
   inkscape:version="0.48.4 r9939"
   sodipodi:docname="field2.svg">
  <metadata
     id="metadata3163">
    <rdf:RDF>
      <cc:Work
         rdf:about="">
        <dc:format>image/svg+xml</dc:format>
        <dc:type
           rdf:resource="http://purl.org/dc/dcmitype/StillImage" />
        <dc:title />
      </cc:Work>
    </rdf:RDF>
  </metadata>
  <defs
     id="defs3161" />
  <sodipodi:namedview
     pagecolor="#ffffff"
     bordercolor="#666666"
     borderopacity="1"
     objecttolerance="10"
     gridtolerance="10"
     guidetolerance="10"
     inkscape:pageopacity="0"
     inkscape:pageshadow="2"
     inkscape:window-width="1920"
     inkscape:window-height="1138"
     id="namedview3159"
     showgrid="false"
     inkscape:zoom="0.349"
     inkscape:cx="1979.3282"
     inkscape:cy="923.19583"
     inkscape:window-x="-8"
     inkscape:window-y="-8"
     inkscape:window-maximized="1"
     inkscape:current-layer="svg3075" />
  <path
     style="fill:#1fa920;fill-opacity:1;stroke:#000000;stroke-width:1px;stroke-linecap:butt;stroke-linejoin:miter;stroke-opacity:1"
     d="M 0,-0.40702808 C -1.5742033,205.37143 0.68932046,1945.8297 0.71112179,2049.1984 136.66115,2052.8144 3991.0933,2056.1185 4105.5611,2055.8147 4105.0873,1953.1466 4101.4294,131.53913 4101.8445,1.4923221 3822.4638,1.0904771 231.44696,0.23368266 0,-0.40702808 z"
     id="path3031"
     inkscape:connector-curvature="0"
     sodipodi:nodetypes="ccccc" />
  <path
     style="fill:#0000d2;fill-opacity:1;stroke:#000000;stroke-width:1px;stroke-linecap:butt;stroke-linejoin:miter;stroke-opacity:1"
     d="m 2100.3713,25.101934 c -18.7216,-9.25957 -35.3028,-17.6350295 -50.1832,-24.80883984 -14.4956,7.03627034 -34.651,17.35011984 -49.6294,25.07567984 15.6857,7.91129 36.3143,18.18543 49.7609,25.121425 16.5714,-8.936375 36.6216,-18.267315 50.0517,-25.388265 z"
     id="path3761-0"
     inkscape:connector-curvature="0"
     sodipodi:nodetypes="ccccc" />
  <path
     style="fill:#0000d2;fill-opacity:1;stroke:#000000;stroke-width:1px;stroke-linecap:butt;stroke-linejoin:miter;stroke-opacity:1"
     d="m 2101.2544,2025.1513 c -18.7216,-9.2596 -35.3028,-17.635 -50.1832,-24.8088 -14.4956,7.0362 -34.651,17.3501 -49.6294,25.0757 15.6857,7.9112 36.3143,18.1854 49.7609,25.1214 16.5714,-8.9364 36.6216,-18.2673 50.0517,-25.3883 z"
     id="path3761-0-3"
     inkscape:connector-curvature="0"
     sodipodi:nodetypes="ccccc" />
  <path
     style="fill:#0000d2;fill-opacity:1;stroke:#000000;stroke-width:1px;stroke-linecap:butt;stroke-linejoin:miter;stroke-opacity:1"
     d="m 2098.1434,1024.2609 c -18.7216,-9.2595 -35.3028,-17.635 -50.1832,-24.80879 -14.4956,7.03629 -34.651,17.35009 -49.6294,25.07569 15.6857,7.9113 36.3143,18.1854 49.7609,25.1214 16.5714,-8.9364 36.6216,-18.2673 50.0517,-25.3883 z"
     id="path3761-0-9"
     inkscape:connector-curvature="0"
     sodipodi:nodetypes="ccccc" />
  <path
     style="fill:#0000d2;fill-opacity:1;stroke:#000000;stroke-width:1px;stroke-linecap:butt;stroke-linejoin:miter;stroke-opacity:1"
     d="m 4097.2938,1023.9151 c -18.7216,-9.2596 -35.3028,-17.635 -50.1832,-24.80876 -14.4956,7.03616 -34.651,17.35006 -49.6294,25.07556 15.6857,7.9113 36.3143,18.1855 49.7609,25.1215 16.5714,-8.9364 36.6216,-18.2673 50.0517,-25.3883 z"
     id="path3761-0-1"
     inkscape:connector-curvature="0"
     sodipodi:nodetypes="ccccc" />
  <path
     style="fill:#0000d2;fill-opacity:1;stroke:#000000;stroke-width:1px;stroke-linecap:butt;stroke-linejoin:miter;stroke-opacity:1"
     d="m 99.71938,1025.1002 c -18.721567,-9.2596 -35.302767,-17.6351 -50.183167,-24.8089 -14.4956,7.0363 -34.651,17.3502 -49.62939942,25.0757 15.68569942,7.9113 36.31429942,18.1854 49.76089942,25.1214 16.5714,-8.9363 36.6216,-18.2673 50.051667,-25.3882 z"
     id="path3761-0-8"
     inkscape:connector-curvature="0"
     sodipodi:nodetypes="ccccc" />
</svg>
