<?xml version="1.0" encoding="UTF-8" standalone="no"?>
<!-- Created with Inkscape (http://www.inkscape.org/) -->

<svg
   xmlns:dc="http://purl.org/dc/elements/1.1/"
   xmlns:cc="http://creativecommons.org/ns#"
   xmlns:rdf="http://www.w3.org/1999/02/22-rdf-syntax-ns#"
   xmlns:svg="http://www.w3.org/2000/svg"
   xmlns="http://www.w3.org/2000/svg"
   xmlns:sodipodi="http://sodipodi.sourceforge.net/DTD/sodipodi-0.dtd"
   xmlns:inkscape="http://www.inkscape.org/namespaces/inkscape"
   width="150"
   height="150"
   id="svg2"
   version="1.1"
   inkscape:version="0.48.4 r9939"
   sodipodi:docname="gk_sign.svg">
  <defs
     id="defs4">
    <filter
       inkscape:collect="always"
       id="filter3810"
       color-interpolation-filters="sRGB">
      <feGaussianBlur
         inkscape:collect="always"
         stdDeviation="2.8477795"
         id="feGaussianBlur3812" />
    </filter>
    <filter
       inkscape:collect="always"
       id="filter3814"
       color-interpolation-filters="sRGB">
      <feGaussianBlur
         inkscape:collect="always"
         stdDeviation="1.351497"
         id="feGaussianBlur3816" />
    </filter>
  </defs>
  <sodipodi:namedview
     id="base"
     pagecolor="#ffffff"
     bordercolor="#666666"
     borderopacity="1.0"
     inkscape:pageopacity="0.0"
     inkscape:pageshadow="2"
     inkscape:zoom="2.8"
     inkscape:cx="50.201493"
     inkscape:cy="174.64283"
     inkscape:document-units="px"
     inkscape:current-layer="layer1"
     showgrid="false"
     inkscape:window-width="1920"
     inkscape:window-height="1138"
     inkscape:window-x="-8"
     inkscape:window-y="-8"
     inkscape:window-maximized="1" />
  <metadata
     id="metadata7">
    <rdf:RDF>
      <cc:Work
         rdf:about="">
        <dc:format>image/svg+xml</dc:format>
        <dc:type
           rdf:resource="http://purl.org/dc/dcmitype/StillImage" />
        <dc:title />
      </cc:Work>
    </rdf:RDF>
  </metadata>
  <g
     id="g3944"
     transform="translate(-1.0714286,0.71428571)">
    <path
       sodipodi:nodetypes="cccccccccccccccccccccccccccccccccccccccccccccccc"
       inkscape:connector-curvature="0"
       id="path3106"
       d="m 29.716887,83.734759 c -0.0326,-1.3161 -0.0406,-2.616887 0.26945,-3.799977 -0.14374,-1.944515 0.96775,-3.52662 0.7407,-5.543934 0.52703,-1.029946 0.56437,-2.262725 0.50508,-3.535534 0.37665,-1.171001 1.65482,-0.964531 1.99491,-2.429678 0.44869,0.111378 0.59465,0.724051 1.24213,0.116134 -0.30723,-0.270253 -2.94743,-2.230243 -3.48958,-2.232143 0.0503,-1.690343 -0.0212,-3.327114 -0.50507,-4.798224 -0.15783,-1.793311 0.27541,-2.947847 0.50507,-4.545687 0.5305,-1.889629 0.39611,-2.531147 3.283,-2.272843 1.4393,-0.418733 2.39186,-0.921545 4.04061,-0.757614 -1.59234,-0.494047 -3.02481,-0.860401 -4.27901,-1.908153 -1.24431,-0.494295 -1.53035,-0.755415 -2.37043,-1.909617 -1.2733,-0.598198 -0.48542,-2.653451 -0.42163,-3.690602 0.0436,-1.717023 0.37449,-3.519458 0.75761,-4.865997 0,-1.936126 0,-3.872251 0,-5.808377 -0.23753,-1.019391 3.41575,-3.28819 5.23445,-3.464632 0.98905,-1.657903 3.46006,-2.80007 5.05216,-4.73877 1.45146,-1.221136 3.12163,-2.628646 4.61314,-3.918428 0.59139,-1.260526 3.12235,-1.940642 4.29315,-2.525382 2.02891,-0.932567 3.89127,-1.622206 5.94876,-2.629719 2.26527,-1.276799 4.14175,-0.874652 5.668,-2.421043 1.98299,-1.284367 3.2406,-0.07523 3.98762,-1.825893 2.22694,0.335686 3.85552,-1.862325 5.84365,-1.765958 2.03706,-0.694718 3.85764,-1.469583 6.33117,-1.206374 1.10397,-0.118647 2.44673,-2.6069959 2.52538,0 -0.53121,1.253049 -0.12695,2.874005 -0.25254,4.293148 -0.17834,1.430653 -0.33669,2.880834 -0.25254,4.422269 0.0586,2.139098 -0.63132,3.961696 -1.01015,5.679257 -0.1015,1.435165 0.246,3.037465 -0.26828,4.311684 0.0315,2.939679 0.008,5.881808 0.0157,8.820299 0.44872,1.917404 0.91115,2.127825 0.77007,4.317769 -0.79321,1.615311 -2.31832,1.574914 -3.54799,2.753298 -0.97763,0.06317 -3.03027,1.487804 -0.91536,0.999368 0.58037,0.113505 3.25357,0.958449 3.66171,1.115639 0.36836,1.892939 0.7759,4.48749 0.28411,6.840823 -0.0265,1.56433 0.0434,3.61778 -0.50508,4.68123 -0.91342,2.187264 -3.44676,2.651066 -5.05076,4.293148 -1.81572,0.749378 -3.424,1.607107 -5.3033,2.525381 -2.04246,0.784028 -3.17132,2.292443 -5.04519,3.545131 -1.4675,0.599946 -2.11597,1.638882 -3.92175,1.992134 -2.4339,1.059879 -4.80351,2.02306 -6.94296,3.049032 -1.75467,1.121485 -4.07821,1.679445 -4.92448,2.765971 -1.25643,0.555131 -4.12293,1.227213 -4.92451,2.284792 -1.9707,1.024621 -4.13014,2.329255 -6.06092,2.777919 -1.23123,0.838941 -2.82177,0.384211 -4.29314,1.262691 -1.49893,-0.37201 -1.51561,2.220153 -3.283,-0.252538 z"
       style="fill:#cc5808;fill-opacity:1;stroke:#000000;stroke-width:1px;stroke-linecap:butt;stroke-linejoin:miter;stroke-opacity:1" />
    <path
       sodipodi:nodetypes="cccccccccc"
       inkscape:connector-curvature="0"
       id="path3109"
       d="m 29.464347,84.492373 c -2.72961,-0.979937 -1.83372,-4.580095 -2.06953,-6.757043 0.78529,-2.589217 0.38477,-6.328076 0.8918,-8.968095 1.82597,-0.830673 1.31246,0.189769 1.68038,-1.203199 -1.02695,-1.354889 -2.80963,-1.971713 -2.20678,-4.168958 1.55712,-2.346199 -0.13423,-10.088236 2.85548,-11.191673 2.30688,0.605575 -1.86565,-2.19079 -1.67995,-3.60363 -0.0739,-3.044384 0.0635,-6.001838 0.68454,-8.974268 0.35306,-2.349561 -0.22047,-8.019466 0.2807,-8.327192 1.39333,0.829643 0.87319,2.379413 2.34128,3.191507"
       style="fill:none;stroke:#000000;stroke-width:1px;stroke-linecap:butt;stroke-linejoin:miter;stroke-opacity:1" />
    <path
       inkscape:connector-curvature="0"
       id="path3113"
       d="m 29.821427,30.625001 c 3.25566,-1.139382 5.78593,-3.410506 8.66254,-5.226067 2.70887,-2.467745 5.67337,-4.620362 9.16696,-5.822836 3.45359,-0.989866 6.11493,-3.504435 9.397,-4.835467 3.51223,-2.091483 7.19528,-4.150687 11.33971,-4.587323 2.7536,-0.5076579 5.41398,-2.0672439 8.18794,-1.7678329 1.63121,0.43217 2.89727,1.7086729 4.58551,1.7929979"
       style="fill:none;stroke:#000000;stroke-width:1px;stroke-linecap:butt;stroke-linejoin:miter;stroke-opacity:1" />
    <path
       inkscape:connector-curvature="0"
       id="path3115"
       d="m 60.178567,72.5 c 0.0349,0.549281 -0.0383,1.081009 -0.0893,1.616346 0,0.770745 0,1.541489 0,2.312234 -0.18203,0.655006 -0.0478,1.384682 -0.0893,2.072867 0.0634,0.674095 -0.11426,1.312816 -0.0893,1.980884 0.0229,0.511572 -0.0677,1.045345 0.0959,1.525955 -0.0152,2.157639 -0.002,4.315964 -0.007,6.473864 0.324,0.86993 0.32989,1.80144 0.35716,2.72367 0.0284,0.58858 -0.14751,1.14727 -0.0893,1.74152 -2e-5,2.11279 3e-5,4.22561 0,6.33838 -0.27101,0.18505 -0.42881,0.4003 -0.71436,0.80359 -0.25707,0.46532 -0.56646,0.33008 -1.07148,0.80361 -0.29993,0.29492 -0.47967,0.50531 -0.80069,0.9396 -0.31497,0.54651 -0.56389,0.16916 -0.44943,-0.39554 0.0301,-0.81585 -0.19501,-1.59269 -0.2679,-2.39232 0.0495,-0.68602 -0.14022,-1.33282 -0.0893,-2.01859 -0.024,-0.74657 0.0514,-1.53325 -0.0458,-2.24886 -0.0914,-1.0768 -0.0214,-2.21919 -0.0435,-3.32456 0.002,-0.84832 0.0234,-1.69901 -0.0893,-2.5332 0.0472,-0.53098 -0.13965,-0.96805 -0.0893,-1.50037 0,-1.52062 0,-3.041246 0,-4.561869 0.21923,-0.763089 -0.0375,-1.596583 0.18333,-2.365736 0.0131,-0.632095 -0.0507,-1.352289 0.0354,-1.922671 0.22043,-0.345046 0.11443,-0.93776 0.13849,-1.399183 0,-0.693425 0,-1.386851 0,-2.080276 -0.19368,-0.35797 -0.0394,-0.860076 -0.0893,-1.277608 0.0456,-0.249417 0.1861,-0.383389 0.2679,-0.597414 0.23974,-0.237533 0.90696,-0.398057 1.25003,-0.580359 0.15924,-0.281092 0.95412,-0.01585 1.11287,-0.409695 0.28899,-0.05661 0.46779,0.104123 0.6731,0.275731 z"
       style="fill:none;stroke:#000000;stroke-width:1px;stroke-linecap:butt;stroke-linejoin:miter;stroke-opacity:1" />
    <path
       inkscape:connector-curvature="0"
       id="path3117"
       d="m 54.107147,74.553572 c 0.28245,0.615661 0.24253,1.273956 0.31252,1.919648 0.2753,0.791065 0.0357,1.678099 0.17717,2.500207 0.031,0.545476 0.29731,1.051037 0.22468,1.653633 0,1.219553 0,2.439106 0,3.658659 -0.1282,0.754181 -0.30756,1.492891 -0.2679,2.267381 -0.0221,1.01196 0.0646,2.0413 -0.0893,3.03161 6.6e-4,0.54349 0.0241,1.09002 -0.0893,1.60715 -0.15102,0.72039 -0.0738,1.49508 -0.0844,2.24614 -0.11833,0.50928 0.0169,1.12192 -0.27504,1.55948 -0.10883,0.7036 -0.0329,1.44967 -0.17635,2.14541 -0.0111,0.50361 -0.19956,0.79623 -0.1786,1.46179 -0.20551,1.05988 1.03857,1.47272 1.33933,2.28827 0.30179,0.64798 0.89765,1.21215 1.29469,1.60723 0.0561,0.11794 0.48074,0.43281 0.58334,0.66755 0.35726,0.41458 0.25208,-0.71054 0.26495,-1.00181 l 0,-0.0229"
       style="fill:none;stroke:#000000;stroke-width:1px;stroke-linecap:butt;stroke-linejoin:miter;stroke-opacity:1" />
    <path
       inkscape:connector-curvature="0"
       id="path3891"
       d="m 31.428567,52.053572 c 0.34522,0.159331 0.6906,0.412204 1.09135,0.355076 0.34124,0.07027 0.6871,0.167344 0.98767,0.345097 0.27613,0.24119 0.66026,0.240427 0.99789,0.318617 0.20776,0.138287 0.33119,0.399593 0.6056,0.38484 0.30365,0.05461 0.60832,0.09738 0.85939,0.294888 0.18362,0.121553 0.3998,0.09592 0.60595,0.08721 0.0698,0 0.13957,0 0.20935,0"
       style="fill:none;stroke:#000000;stroke-width:1px;stroke-linecap:butt;stroke-linejoin:miter;stroke-opacity:1" />
    <path
       sodipodi:nodetypes="ccccc"
       inkscape:connector-curvature="0"
       id="path3893"
       d="m 29.999997,67.410715 c 0.43049,0.131375 0.31609,-0.09442 0.75138,0.02904 0.39705,0.272918 0.87331,0.236306 1.32329,0.31839 0.617,0.250482 1.30646,0.214319 1.93499,0.432263 0.30146,0.09854 0.62149,-0.07645 0.90111,0.11319"
       style="fill:none;stroke:#000000;stroke-width:1px;stroke-linecap:butt;stroke-linejoin:miter;stroke-opacity:1" />
    <path
       sodipodi:nodetypes="csccssssssssccsssscsssssssssscssscsscc"
       inkscape:connector-curvature="0"
       id="path3902"
       d="m 31.933437,33.466957 c -0.0764,-0.109022 -0.26374,-0.500763 -0.4164,-0.870535 -0.28343,-0.686504 -0.59921,-1.188726 -0.90274,-1.43569 -0.15982,-0.130044 -0.0876,-0.179515 1.20037,-0.821702 0.75374,-0.375829 1.93138,-1.059858 2.61699,-1.520062 3.17962,-2.134267 4.47808,-3.049881 5.07024,-3.575294 2.60262,-2.309254 5.38928,-4.052058 8.02198,-5.017025 2.45278,-0.89902 2.95183,-1.143697 5.7663,-2.827139 1.14193,-0.683032 2.508,-1.449506 3.03572,-1.703275 0.52771,-0.253768 1.58224,-0.819526 2.3434,-1.25724 3.45006,-1.983997 6.09497,-3.089583 8.38832,-3.506371 2.07997,-0.378009 2.71671,-0.530481 4.26551,-1.0214009 2.68361,-0.850626 3.03622,-0.926617 4.31661,-0.930309 l 1.12224,-0.0032 1.13223,0.569121 c 0.62273,0.313016 2.11437,0.6867289 2.11437,0.7213449 0,0.18865 -1.89804,0.367665 -2.82954,0.451887 -1.10286,0.09971 -2.1313,0.342856 -3.75638,0.888071 -0.59123,0.198356 -1.18943,0.361082 -1.32934,0.361614 -0.43644,0.0017 -1.10129,0.24914 -2.39682,0.892186 -1.35853,0.674315 -2.09162,0.89276 -2.77551,0.827047 -0.43718,-0.04201 -0.44207,-0.03957 -0.64446,0.320532 -0.3143,0.559216 -0.5367,0.685556 -1.41792,0.805492 -0.43314,0.05895 -0.98612,0.171684 -1.22885,0.250517 -0.49847,0.161892 -1.38821,0.660313 -1.57021,0.879612 -0.22832,0.275106 -1.11638,0.645418 -2.45275,1.022774 -0.94522,0.266902 -1.81217,0.596442 -2.94643,1.11997 -0.88393,0.407985 -3.11384,1.390471 -4.95536,2.1833 -1.84152,0.792829 -3.61802,1.600538 -3.94778,1.794909 -0.32976,0.19437 -0.77173,0.555618 -0.98214,0.802773 -0.21042,0.247154 -1.26651,1.198403 -2.34686,2.113885 -1.08036,0.915483 -2.34942,2.039216 -2.82012,2.497186 -0.47071,0.457971 -1.55553,1.412917 -2.41072,2.122105 l -1.64417,2.003717 -2.5664,1.029728 c -1.56984,0.62987 -2.76304,1.8333 -2.8744,1.029729 -0.003,-0.02189 -0.0133,0.625086 -0.0897,0.516064 z"
       style="fill:#550000;fill-opacity:1;fill-rule:evenodd;stroke:#000000;stroke-width:0.01785714;stroke-miterlimit:4;stroke-opacity:1;stroke-dasharray:none" />
    <path
       inkscape:connector-curvature="0"
       id="path3906"
       d="m 29.344707,66.086617 c -0.43651,-0.436067 -0.86582,-0.928255 -0.95401,-1.09375 -0.22973,-0.431106 -0.20937,-1.075922 0.0548,-1.736304 0.42241,-1.05588 0.47534,-1.45687 0.76511,-5.796742 0.15095,-2.260765 0.37131,-3.315948 0.85124,-4.076215 0.11767,-0.186401 0.30449,-0.393834 0.41515,-0.460963 0.3928,-0.238286 1.9621,-0.05336 2.77397,0.326888 0.25462,0.119252 0.58348,0.243449 0.7308,0.275992 0.30959,0.06839 0.72513,0.381786 0.63101,0.475905 -0.0352,0.03516 -0.59331,0.0859 -1.24033,0.112762 -1.8302,0.07598 -2.23113,0.355738 -2.68338,1.872417 -0.35662,1.195977 -0.68905,3.157542 -0.74144,4.375 -0.0405,0.942303 -0.0194,1.227284 0.13566,1.830357 0.22757,0.884998 0.37169,2.257238 0.37169,3.539123 0,0.928242 0.01,0.979476 0.20089,1.056309 0.17078,0.06864 0.14704,0.0816 -0.15831,0.08641 -0.33556,0.0053 -0.41148,-0.04655 -1.15288,-0.787187 z"
       style="fill:#550000;fill-opacity:1;fill-rule:evenodd;stroke:#000000;stroke-width:0.01785714;stroke-miterlimit:4;stroke-opacity:1;stroke-dasharray:none" />
    <path
       inkscape:connector-curvature="0"
       id="path3908"
       d="m 28.770457,83.348973 c -0.35228,-0.296426 -0.61304,-1.010421 -0.7246,-1.984025 -0.11415,-0.996244 -0.11344,-3.527916 10e-4,-3.994412 0.20258,-0.824932 0.35221,-2.273133 0.4428,-4.285715 0.0531,-1.178571 0.13524,-2.512925 0.18264,-2.965231 0.0474,-0.452305 0.0862,-0.857776 0.0862,-0.901045 0,-0.09631 0.60677,-0.285509 0.91565,-0.285509 0.30802,0 0.57739,-0.250357 0.67246,-0.625 0.0841,-0.331579 0.10255,-0.336566 0.68868,-0.186598 0.19643,0.05026 0.57812,0.133958 0.84821,0.185999 0.70143,0.135151 0.78062,0.198566 0.59731,0.478336 -0.0811,0.123816 -0.41007,0.412479 -0.73098,0.641474 -0.81992,0.585087 -1.02704,0.967358 -1.02704,1.895565 0,0.968838 -0.15427,2.032611 -0.36401,2.509966 -0.12202,0.27772 -0.17171,0.595225 -0.17171,1.097186 0,0.507106 -0.10074,1.142162 -0.35714,2.251194 -0.19643,0.849652 -0.35788,1.762168 -0.35879,2.027814 -9e-4,0.265646 -0.0611,0.819379 -0.13384,1.230518 -0.0727,0.411139 -0.13755,1.285023 -0.14409,1.941964 -0.007,0.656941 -0.0437,1.194439 -0.0825,1.194439 -0.0388,0 -0.19198,-0.102115 -0.34031,-0.22692 z"
       style="fill:#550000;fill-opacity:1;fill-rule:evenodd;stroke:#000000;stroke-width:0.01785714;stroke-miterlimit:4;stroke-opacity:1;stroke-dasharray:none" />
    <path
       inkscape:connector-curvature="0"
       id="path3928"
       d="m 57.741157,100.57444 c -0.23627,-1.16932 -0.29619,-2.26877 -0.43705,-8.01975 -0.13245,-5.40727 -0.12024,-10.358664 0.0307,-12.45536 0.0636,-0.883928 0.12241,-2.651785 0.13062,-3.928571 0.008,-1.276786 0.0213,-2.372666 0.029,-2.43529 0.0199,-0.160365 1.22614,-0.692638 1.72449,-0.760945 l 0.41538,-0.05693 -0.0384,1.046227 c -0.23576,6.419665 -0.22087,14.170229 0.0292,15.198009 0.1208,0.49648 0.1386,1.25018 0.12315,5.21512 l -0.0181,4.63476 -0.41246,0.48279 c -0.22685,0.26553 -0.52529,0.54113 -0.66319,0.61244 -0.1379,0.0713 -0.39041,0.2523 -0.56114,0.4022 l -0.31041,0.27254 -0.0419,-0.20724 0,0 z"
       style="fill:#aa0000;fill-opacity:1;fill-rule:evenodd;stroke:#000000;stroke-width:0.01785714;stroke-miterlimit:4;stroke-opacity:1;stroke-dasharray:none" />
    <path
       inkscape:connector-curvature="0"
       id="path3930"
       d="m 56.208207,101.61132 c -0.24868,-0.29142 -0.58498,-0.75083 -0.74733,-1.02092 -0.16235,-0.27009 -0.51133,-0.71911 -0.77552,-0.99783 -0.44587,-0.4704 -0.48019,-0.53768 -0.47817,-0.9375 0.001,-0.23691 0.0388,-0.59145 0.0835,-0.78788 0.0447,-0.19643 0.123,-0.88405 0.17398,-1.52804 0.051,-0.644 0.13495,-1.28205 0.18661,-1.41791 0.0517,-0.13585 0.13511,-1.05537 0.18547,-2.04338 0.0504,-0.98801 0.12645,-2.29862 0.16908,-2.91246 0.0426,-0.61384 0.0808,-1.77902 0.0849,-2.58928 0.004,-0.87659 0.0615,-1.78057 0.14109,-2.23215 0.18619,-1.056996 0.18618,-4.771422 -2e-5,-5.744458 -0.0736,-0.384901 -0.13391,-1.057146 -0.13391,-1.493879 0,-0.436733 -0.0398,-1.066011 -0.0885,-1.398396 -0.0487,-0.332384 -0.12164,-0.852481 -0.16218,-1.15577 l -0.0737,-0.551435 0.77871,-0.3547 0.77871,-0.354701 0.0608,1.084707 c 0.0627,1.118613 0.0405,1.868369 -0.13911,4.700778 -0.14202,2.239106 -0.15035,7.602194 -0.0201,12.946424 0.12569,5.15757 0.16703,6.03545 0.34779,7.38662 0.0738,0.55147 0.12196,1.21178 0.10709,1.46734 l -0.0271,0.46466 -0.45216,-0.52984 z"
       style="fill:#550000;fill-opacity:1;fill-rule:evenodd;stroke:#000000;stroke-width:0.01785714;stroke-miterlimit:4;stroke-opacity:1;stroke-dasharray:none" />
    <path
       inkscape:connector-curvature="0"
       id="path3932"
       d="m 31.910627,51.680409 c -0.3658,-0.195438 -2.00467,-2.072738 -2.26562,-2.595241 -0.19557,-0.391589 -0.19806,-0.439907 -0.14315,-2.772544 0.0583,-2.477307 0.19577,-3.991353 0.51948,-5.722222 0.16952,-0.906444 0.19684,-1.434903 0.2331,-4.508929 l 0.0411,-3.482143 0.35164,0.758929 c 0.19984,0.43129 0.50537,0.915875 0.70772,1.122472 0.34927,0.356595 0.35347,0.368541 0.21973,0.625 -0.11444,0.219449 -0.13643,0.74946 -0.1369,3.2988 -5.2e-4,2.919387 -0.009,3.075421 -0.22409,4.017857 -0.12295,0.539283 -0.28441,1.522925 -0.3588,2.185871 -0.0744,0.662946 -0.21958,1.871887 -0.32265,2.686535 -0.1526,1.206221 -0.16903,1.566794 -0.0885,1.94239 0.095,0.442845 0.47816,1.174595 0.61513,1.174695 0.0362,2.5e-5 0.3598,0.321454 0.71908,0.714285 0.64828,0.708812 0.68147,0.847416 0.13274,0.554245 l 0,0 z"
       style="fill:#550000;fill-opacity:1;fill-rule:evenodd;stroke:#000000;stroke-width:0.01785714;stroke-miterlimit:4;stroke-opacity:1;stroke-dasharray:none" />
  </g>
  <g
     inkscape:label="Layer 1"
     inkscape:groupmode="layer"
     id="layer1"
     transform="translate(0,-902.36218)">
    <g
       id="g3934"
       transform="matrix(0.2578765,-0.08267937,0,0.22716067,79.546227,751.34396)">
      <g
         id="text2985"
         style="font-size:90px;font-style:normal;font-variant:normal;font-weight:normal;font-stretch:normal;line-height:125%;letter-spacing:0px;word-spacing:0px;fill:#000000;fill-opacity:1;stroke:none;filter:url(#filter3814);font-family:Segoe Script;-inkscape-font-specification:Segoe Script"
         transform="translate(-311.48805,580.85672)">
        <path
           style="fill:#000000;fill-opacity:1;stroke:none"
           sodipodi:nodetypes="cccccccccccccccc"
           inkscape:connector-curvature="0"
           id="path2990"
           d="m 288.68063,320.42395 c -0.75198,2.97795 -4.24872,5.46905 -7.36087,4.89441 -7.26001,-1.47837 -14.05684,-4.62995 -20.8026,-7.61077 -4.6729,-2.27936 -9.35933,-4.68594 -14.53662,-5.59478 -2.98346,-0.84385 -7.28111,-1.90371 -7.63926,2.51036 -0.20147,-3.31442 -0.21998,-6.11371 -0.4916,-13.25499 1.41183,3.08828 5.24148,-0.97543 7.32206,-1.84936 9.07972,-5.51971 15.68085,-14.00146 22.29157,-22.12142 3.00922,-3.3411 6.00552,-6.89169 9.85197,-9.2848 2.4817,0.22843 5.01369,3.82163 3.16232,6.1394 -1.06862,2.14754 -1.64047,4.88258 -4.49716,5.26989 -3.47465,1.18532 -4.24586,5.3796 -6.63569,7.85519 -5.7348,7.22081 -13.22023,12.74287 -20.69825,18.01757 9.46962,4.44833 19.28918,8.12336 29.05194,11.84053 3.32933,0.98727 6.76536,0.1004 10.10334,-0.32683 0.6549,1.04411 0.88046,2.29887 0.87885,3.5156 z" />
      </g>
      <g
         transform="translate(-471.09215,529.50469)"
         id="text3761"
         style="font-size:144px;font-style:normal;font-variant:normal;font-weight:normal;font-stretch:normal;line-height:125%;letter-spacing:0px;word-spacing:0px;fill:#000000;fill-opacity:1;stroke:none;filter:url(#filter3810);font-family:Segoe Script;-inkscape-font-specification:Segoe Script">
        <path
           id="path3766"
           style="fill:#000000;fill-opacity:1"
           d="m 425.00452,270.47623 c -1.2e-4,2.10947 -0.57434,3.90243 -1.72266,5.3789 -1.14855,1.47666 -2.77745,2.21494 -4.88672,2.21485 -0.79698,9e-5 -1.67588,-0.36319 -2.63672,-1.08985 -0.96104,-0.72647 -1.83994,-1.44131 -2.63672,-2.14453 -0.7501,-0.74991 -1.61728,-1.40615 -2.60156,-1.96875 -0.98447,-0.5624 -2.0626,-0.84365 -3.23437,-0.84375 -5.76572,10e-5 -13.1954,1.92197 -22.28907,5.76563 -4.54694,1.96883 -8.78912,4.20711 -12.72656,6.71484 -3.93756,2.50789 -7.80474,5.33211 -11.60156,8.47266 -3.79692,3.14069 -7.39457,6.62116 -10.79297,10.4414 -3.39847,3.82038 -6.38675,7.62897 -8.96484,11.42578 -2.39066,3.42193 -4.26565,7.57036 -5.625,12.44532 -1.26565,4.78128 -1.89846,9.44534 -1.89844,13.99218 -2e-5,2.15628 1.10154,4.40628 3.30469,6.75 2.20309,2.25002 4.47653,3.70314 6.82031,4.35938 2.85934,0.75001 6.25777,1.12501 10.19531,1.125 2.95308,0.0469 6.11714,-0.31639 9.49219,-1.08984 3.37494,-0.77343 6.74994,-1.82811 10.125,-3.16407 3.37493,-1.33592 6.65618,-2.85935 9.84375,-4.57031 3.18742,-1.71091 6.09367,-3.50388 8.71875,-5.37891 0.93742,-0.74997 1.93351,-1.62887 2.98828,-2.63671 1.0546,-1.00779 2.12101,-2.19138 3.19922,-3.55079 1.12491,-1.35934 2.07413,-2.62496 2.84766,-3.79687 0.77334,-1.17184 1.39444,-2.2734 1.86328,-3.30469 0.32803,-0.46871 0.49209,-1.07808 0.49218,-1.82812 -9e-5,-0.70308 -0.15243,-1.58199 -0.45703,-2.63672 -0.30478,-1.05464 -0.45712,-1.91011 -0.45703,-2.56641 -9e-5,-1.73432 2.10928,-2.60151 6.32813,-2.60156 1.3124,5e-5 3.28115,0.98442 5.90625,2.95312 2.62489,1.9688 3.93739,3.49224 3.9375,4.57032 -1.1e-4,0.14066 -1.45323,3.11722 -4.35938,8.92968 -1.45322,2.90629 -2.5665,5.15628 -3.33984,6.75 -0.77354,1.59378 -1.23057,2.55472 -1.3711,2.88282 -0.79697,1.82814 -1.59384,3.87892 -2.39062,6.15234 -0.79697,2.27345 -1.59385,4.79298 -2.39063,7.55859 -1.64071,5.57813 -2.46102,9.53907 -2.46093,11.88282 -0.0938,0.51562 -0.0353,1.01953 0.17578,1.51172 0.21084,0.49218 0.44522,0.93749 0.70312,1.33593 0.25772,0.39844 0.51554,0.75 0.77344,1.05469 0.25772,0.30468 0.38663,0.5039 0.38672,0.59766 -9e-5,1.12499 -0.19931,2.16796 -0.59766,3.1289 -0.39853,0.96093 -0.93759,1.80468 -1.61718,2.53125 -0.67978,0.72655 -1.50009,1.30077 -2.46094,1.72266 -0.96103,0.42186 -2.00399,0.6328 -3.12891,0.63281 -2.43758,-10e-6 -4.0782,-0.83204 -4.92187,-2.49609 -0.84383,-1.66407 -1.26571,-3.90235 -1.26563,-6.71485 -8e-5,-0.75 0.0351,-1.47656 0.10547,-2.17968 0.0702,-0.70313 0.15226,-1.40625 0.24609,-2.10938 0.28117,-1.45312 0.63274,-3.07031 1.05469,-4.85156 0.2343,-0.89062 0.44523,-1.67578 0.63281,-2.35547 0.18742,-0.67968 0.32805,-1.2539 0.42188,-1.72266 0.65617,-2.62498 0.98429,-4.40623 0.98437,-5.34375 -8e-5,-0.46873 -0.0938,-0.70311 -0.28125,-0.70312 -0.98445,1e-5 -4.05476,1.28908 -9.21093,3.86719 -2.62507,1.26563 -4.72273,2.27344 -6.29297,3.02343 -1.57038,0.75001 -2.63678,1.2422 -3.19922,1.47657 -8.15631,3.32813 -15.8438,4.99219 -23.0625,4.99218 -4.64066,10e-6 -9.53909,-0.93749 -14.69531,-2.8125 -5.25002,-1.92186 -9.65627,-4.66405 -13.21875,-8.22656 -3.56251,-3.60936 -5.34376,-7.78123 -5.34375,-12.51562 -1e-5,-13.87496 6.39842,-28.24214 19.19531,-43.10157 5.62497,-6.51555 11.10934,-12.02335 16.45312,-16.52343 5.24996,-4.35929 11.67182,-8.48428 19.26563,-12.375 1.21869,-0.65616 2.6015,-1.32412 4.14844,-2.00391 1.5468,-0.67959 3.25774,-1.37099 5.13281,-2.07422 3.7968,-1.45302 7.57023,-2.71864 11.32031,-3.79687 3.74992,-1.07802 7.2421,-1.82802 10.47656,-2.25 2.01553,-0.28115 5.03897,-0.42177 9.07032,-0.42188 1.45302,-0.0468 2.8827,0.22277 4.28906,0.8086 1.40614,0.58604 2.64833,1.40635 3.72656,2.46093 1.07802,1.05479 1.9452,2.26182 2.60156,3.6211 0.65614,1.35947 0.96083,2.76572 0.91407,4.21875 z"
           inkscape:connector-curvature="0" />
      </g>
      <g
         id="text2985-1"
         style="font-size:90px;font-style:normal;font-variant:normal;font-weight:normal;font-stretch:normal;line-height:125%;letter-spacing:0px;word-spacing:0px;fill:#e9e918;fill-opacity:1;stroke:#000000;stroke-width:0.2;stroke-miterlimit:4;stroke-opacity:1;stroke-dasharray:none;font-family:Segoe Script;-inkscape-font-specification:Segoe Script"
         transform="translate(-314.38639,576.99294)">
        <path
           style="fill:#e9e918;fill-opacity:1;stroke:#000000;stroke-width:0.2;stroke-miterlimit:4;stroke-opacity:1;stroke-dasharray:none"
           sodipodi:nodetypes="cccccccccccccccc"
           inkscape:connector-curvature="0"
           id="path2990-7"
           d="m 288.68063,320.42395 c -0.75198,2.97795 -4.24872,5.46905 -7.36087,4.89441 -7.26001,-1.47837 -14.05684,-4.62995 -20.8026,-7.61077 -4.6729,-2.27936 -9.35933,-4.68594 -14.53662,-5.59478 -2.98346,-0.84385 -7.28111,-1.90371 -7.63926,2.51036 -0.20147,-3.31442 -0.21998,-6.11371 -0.4916,-13.25499 1.41183,3.08828 5.24148,-0.97543 7.32206,-1.84936 9.07972,-5.51971 15.68085,-14.00146 22.29157,-22.12142 3.00922,-3.3411 6.00552,-6.89169 9.85197,-9.2848 2.4817,0.22843 5.01369,3.82163 3.16232,6.1394 -1.06862,2.14754 -1.64047,4.88258 -4.49716,5.26989 -3.47465,1.18532 -4.24586,5.3796 -6.63569,7.85519 -5.7348,7.22081 -13.22023,12.74287 -20.69825,18.01757 9.46962,4.44833 19.28918,8.12336 29.05194,11.84053 3.32933,0.98727 6.76536,0.1004 10.10334,-0.32683 0.6549,1.04411 0.88046,2.29887 0.87885,3.5156 z" />
      </g>
      <g
         id="text3761-4"
         style="font-size:144px;font-style:normal;font-variant:normal;font-weight:normal;font-stretch:normal;line-height:125%;letter-spacing:0px;word-spacing:0px;fill:#21e321;fill-opacity:1;stroke:#000000;stroke-width:0.2;stroke-miterlimit:4;stroke-opacity:1;stroke-dasharray:none;font-family:Segoe Script;-inkscape-font-specification:Segoe Script"
         transform="translate(-475.61168,524.73442)">
        <path
           id="path3766-0"
           style="fill:#21e321;fill-opacity:1;stroke:#000000;stroke-width:0.2;stroke-miterlimit:4;stroke-opacity:1;stroke-dasharray:none"
           d="m 425.00452,270.47623 c -1.2e-4,2.10947 -0.57434,3.90243 -1.72266,5.3789 -1.14855,1.47666 -2.77745,2.21494 -4.88672,2.21485 -0.79698,9e-5 -1.67588,-0.36319 -2.63672,-1.08985 -0.96104,-0.72647 -1.83994,-1.44131 -2.63672,-2.14453 -0.7501,-0.74991 -1.61728,-1.40615 -2.60156,-1.96875 -0.98447,-0.5624 -2.0626,-0.84365 -3.23437,-0.84375 -5.76572,10e-5 -13.1954,1.92197 -22.28907,5.76563 -4.54694,1.96883 -8.78912,4.20711 -12.72656,6.71484 -3.93756,2.50789 -7.80474,5.33211 -11.60156,8.47266 -3.79692,3.14069 -7.39457,6.62116 -10.79297,10.4414 -3.39847,3.82038 -6.38675,7.62897 -8.96484,11.42578 -2.39066,3.42193 -4.26565,7.57036 -5.625,12.44532 -1.26565,4.78128 -1.89846,9.44534 -1.89844,13.99218 -2e-5,2.15628 1.10154,4.40628 3.30469,6.75 2.20309,2.25002 4.47653,3.70314 6.82031,4.35938 2.85934,0.75001 6.25777,1.12501 10.19531,1.125 2.95308,0.0469 6.11714,-0.31639 9.49219,-1.08984 3.37494,-0.77343 6.74994,-1.82811 10.125,-3.16407 3.37493,-1.33592 6.65618,-2.85935 9.84375,-4.57031 3.18742,-1.71091 6.09367,-3.50388 8.71875,-5.37891 0.93742,-0.74997 1.93351,-1.62887 2.98828,-2.63671 1.0546,-1.00779 2.12101,-2.19138 3.19922,-3.55079 1.12491,-1.35934 2.07413,-2.62496 2.84766,-3.79687 0.77334,-1.17184 1.39444,-2.2734 1.86328,-3.30469 0.32803,-0.46871 0.49209,-1.07808 0.49218,-1.82812 -9e-5,-0.70308 -0.15243,-1.58199 -0.45703,-2.63672 -0.30478,-1.05464 -0.45712,-1.91011 -0.45703,-2.56641 -9e-5,-1.73432 2.10928,-2.60151 6.32813,-2.60156 1.3124,5e-5 3.28115,0.98442 5.90625,2.95312 2.62489,1.9688 3.93739,3.49224 3.9375,4.57032 -1.1e-4,0.14066 -1.45323,3.11722 -4.35938,8.92968 -1.45322,2.90629 -2.5665,5.15628 -3.33984,6.75 -0.77354,1.59378 -1.23057,2.55472 -1.3711,2.88282 -0.79697,1.82814 -1.59384,3.87892 -2.39062,6.15234 -0.79697,2.27345 -1.59385,4.79298 -2.39063,7.55859 -1.64071,5.57813 -2.46102,9.53907 -2.46093,11.88282 -0.0938,0.51562 -0.0353,1.01953 0.17578,1.51172 0.21084,0.49218 0.44522,0.93749 0.70312,1.33593 0.25772,0.39844 0.51554,0.75 0.77344,1.05469 0.25772,0.30468 0.38663,0.5039 0.38672,0.59766 -9e-5,1.12499 -0.19931,2.16796 -0.59766,3.1289 -0.39853,0.96093 -0.93759,1.80468 -1.61718,2.53125 -0.67978,0.72655 -1.50009,1.30077 -2.46094,1.72266 -0.96103,0.42186 -2.00399,0.6328 -3.12891,0.63281 -2.43758,-10e-6 -4.0782,-0.83204 -4.92187,-2.49609 -0.84383,-1.66407 -1.26571,-3.90235 -1.26563,-6.71485 -8e-5,-0.75 0.0351,-1.47656 0.10547,-2.17968 0.0702,-0.70313 0.15226,-1.40625 0.24609,-2.10938 0.28117,-1.45312 0.63274,-3.07031 1.05469,-4.85156 0.2343,-0.89062 0.44523,-1.67578 0.63281,-2.35547 0.18742,-0.67968 0.32805,-1.2539 0.42188,-1.72266 0.65617,-2.62498 0.98429,-4.40623 0.98437,-5.34375 -8e-5,-0.46873 -0.0938,-0.70311 -0.28125,-0.70312 -0.98445,1e-5 -4.05476,1.28908 -9.21093,3.86719 -2.62507,1.26563 -4.72273,2.27344 -6.29297,3.02343 -1.57038,0.75001 -2.63678,1.2422 -3.19922,1.47657 -8.15631,3.32813 -15.8438,4.99219 -23.0625,4.99218 -4.64066,10e-6 -9.53909,-0.93749 -14.69531,-2.8125 -5.25002,-1.92186 -9.65627,-4.66405 -13.21875,-8.22656 -3.56251,-3.60936 -5.34376,-7.78123 -5.34375,-12.51562 -1e-5,-13.87496 6.39842,-28.24214 19.19531,-43.10157 5.62497,-6.51555 11.10934,-12.02335 16.45312,-16.52343 5.24996,-4.35929 11.67182,-8.48428 19.26563,-12.375 1.21869,-0.65616 2.6015,-1.32412 4.14844,-2.00391 1.5468,-0.67959 3.25774,-1.37099 5.13281,-2.07422 3.7968,-1.45302 7.57023,-2.71864 11.32031,-3.79687 3.74992,-1.07802 7.2421,-1.82802 10.47656,-2.25 2.01553,-0.28115 5.03897,-0.42177 9.07032,-0.42188 1.45302,-0.0468 2.8827,0.22277 4.28906,0.8086 1.40614,0.58604 2.64833,1.40635 3.72656,2.46093 1.07802,1.05479 1.9452,2.26182 2.60156,3.6211 0.65614,1.35947 0.96083,2.76572 0.91407,4.21875 z"
           inkscape:connector-curvature="0" />
      </g>
    </g>
  </g>
</svg>
