<svg width="14" height="12" xmlns="http://www.w3.org/2000/svg">
<!-- Created with SVG-edit - http://svg-edit.googlecode.com/ -->
<g>
<g id="svg_1">
<path id="svg_2" fill="#ccff99" stroke="#000000" stroke-width="0" d="m7.62463,10.50874c0.28751,-0.0871 0.07181,-2.8311 -2.44379,-5.31372c-2.51569,-2.48259 -5.24701,-2.22127 -5.10321,-2.13419c0.14371,0.0871 3.0188,2.43909 4.02502,3.3102c1.00629,0.871 3.2345,4.22482 3.52197,4.13771l0,0l0,0l0.00001,0z"/>
<path id="svg_3" fill="#99ff99" stroke="#000000" stroke-width="0" d="m7.77899,10.46906c-0.19598,-0.07599 -0.04901,-2.46948 1.66608,-4.63501c1.71503,-2.16553 3.57712,-1.93758 3.4791,-1.86159c-0.09799,0.07599 -2.05807,2.12755 -2.74408,2.88737c-0.68604,0.75983 -2.20508,3.68521 -2.40106,3.60922l-0.00003,0l-0.00001,0.00001z"/>
<path id="svg_4" fill="#70c41d" stroke="#000000" stroke-width="0" d="m7.43359,10.29556c0.18481,-0.03754 0.0462,-1.22029 -1.57135,-2.29041c-1.61752,-1.07011 -3.37369,-0.95747 -3.28125,-0.91992c0.09241,0.03755 1.94101,1.05133 2.58801,1.4268c0.64703,0.37549 2.07971,1.82106 2.26459,1.78352l0,0.00002l0,-0.00003l0,0.00002z"/>
<path id="svg_5" fill="#7fff00" stroke="#000000" stroke-width="0" d="m7.34503,10.42575c-0.08258,-0.0643 -0.02069,-2.0914 0.70172,-3.92551c0.72229,-1.834 1.50659,-1.6409 1.4653,-1.5766c-0.04129,0.06439 -0.86679,1.80191 -1.15579,2.44539c-0.28891,0.64349 -0.92871,3.12109 -1.01123,3.0567l0,0l0,0l0,0l0,0.00002z"/>
<path id="svg_6" fill="#ccff99" stroke="#000000" stroke-width="0" d="m7.64145,10.62074c0.10379,-0.119 0.02591,-3.86659 -0.8826,-7.25729c-0.90851,-3.3907 -1.8949,-3.03377 -1.84302,-2.91481c0.05191,0.119 1.09021,3.33121 1.45361,4.5209c0.36349,1.1898 1.16821,5.7702 1.272,5.6512l0,0l0.00001,0z"/>
</g>
</g>
</svg>
