<svg width="12" height="15" xmlns="http://www.w3.org/2000/svg">
<!-- Created with SVG-edit - http://svg-edit.googlecode.com/ -->
<g>
<g id="svg_32">
<path id="svg_2" d="m5.19391,12.61887c-0.20209,-0.12257 -0.05054,-3.98358 1.71759,-7.47687c1.76813,-3.49329 3.68781,-3.12556 3.58679,-3.00302c-0.10104,0.12259 -2.12177,3.43201 -2.82901,4.65771c-0.70724,1.22572 -2.27332,5.94473 -2.47537,5.82216l0,0.00002z" stroke-width="0" stroke="#000000" fill="#59ff00"/>
<path id="svg_3" d="m5.46472,12.478c-0.12692,-0.1405 -0.0318,-4.56689 1.07849,-8.5717c1.11017,-4.00479 2.31558,-3.58319 2.25208,-3.4427c-0.06339,0.1405 -1.33218,3.93451 -1.77631,5.33971c-0.44409,1.4052 -1.42749,6.8152 -1.55426,6.6747l0,0l0,-0.00001z" stroke-width="0" stroke="#000000" fill="#85dd85"/>
<path id="svg_4" d="m5.3241,11.9864c0.06812,-0.1308 0.017,-4.24881 -0.5784,-7.9745c-0.5954,-3.7258 -1.24191,-3.3336 -1.20789,-3.2029c0.034,0.13069 0.71451,3.6604 0.9527,4.9677c0.23819,1.3073 0.76559,6.34039 0.83359,6.2097l0,0z" stroke-width="0" stroke="#000000" fill="#83ff00"/>
<path id="svg_5" d="m5.37073,12.40808c0.1488,-0.12257 0.03717,-3.98357 -1.26495,-7.47687c-1.30209,-3.49329 -2.71582,-3.12556 -2.64142,-3.00302c0.0744,0.12257 1.56253,3.43202 2.08337,4.65773c0.52087,1.22571 1.67413,5.94472 1.82297,5.82214l0.00003,0.00002z" stroke-width="0" stroke="#000000" fill="#99ff99"/>
<path id="svg_6" d="m5.28522,12.12772c0.18222,-0.08588 0.04553,-2.79044 -1.54895,-5.23741c-1.59454,-2.44699 -3.32574,-2.18942 -3.23462,-2.10358c0.09113,0.08586 1.91342,2.40407 2.55121,3.26266c0.63782,0.85858 2.05011,4.16417 2.23236,4.07832l0,0l0,0.00001z" stroke-width="0" stroke="#000000" fill="#558e55"/>
</g>
</g>
</svg>

