<?xml version="1.0" encoding="UTF-8" standalone="no"?>
<!-- Created with Inkscape (http://www.inkscape.org/) -->

<svg
   xmlns:dc="http://purl.org/dc/elements/1.1/"
   xmlns:cc="http://creativecommons.org/ns#"
   xmlns:rdf="http://www.w3.org/1999/02/22-rdf-syntax-ns#"
   xmlns:svg="http://www.w3.org/2000/svg"
   xmlns="http://www.w3.org/2000/svg"
   xmlns:sodipodi="http://sodipodi.sourceforge.net/DTD/sodipodi-0.dtd"
   xmlns:inkscape="http://www.inkscape.org/namespaces/inkscape"
   width="520"
   height="585"
   id="svg7255"
   version="1.1"
   inkscape:version="0.48.4 r9939"
   sodipodi:docname="iso noniso hill.svg">
  <defs
     id="defs7257" />
<g transform="scale(0.5)">
  <sodipodi:namedview
     id="base"
     pagecolor="#ffffff"
     bordercolor="#666666"
     borderopacity="1.0"
     inkscape:pageopacity="0.0"
     inkscape:pageshadow="2"
     inkscape:zoom="1"
     inkscape:cx="259.60318"
     inkscape:cy="348.82134"
     inkscape:document-units="px"
     inkscape:current-layer="layer1"
     showgrid="true"
     inkscape:window-width="1920"
     inkscape:window-height="1138"
     inkscape:window-x="-8"
     inkscape:window-y="-8"
     inkscape:window-maximized="1">
    <inkscape:grid
       type="axonomgrid"
       id="grid2989"
       empspacing="5"
       visible="true"
       enabled="true"
       snapvisiblegridlinesonly="true"
       gridanglez="26.56"
       gridanglex="26.56" />
  </sodipodi:namedview>
  <metadata
     id="metadata7260">
    <rdf:RDF>
      <cc:Work
         rdf:about="">
        <dc:format>image/svg+xml</dc:format>
        <dc:type
           rdf:resource="http://purl.org/dc/dcmitype/StillImage" />
        <dc:title />
      </cc:Work>
    </rdf:RDF>
  </metadata>
  <g
     inkscape:label="Layer 1"
     inkscape:groupmode="layer"
     id="layer1"
     transform="translate(0,-467.36218)">
    <g
       id="g7230"
       transform="matrix(0.99858576,0,0,0.99991262,164.35071,-1377.1364)">
      <path
         inkscape:connector-curvature="0"
         id="path7183"
         d="m -155.55556,2086.6666 c -3.98153,17.3091 3.31054,34.1185 3.39911,51.0904 -1.2265,19.7416 0.29287,39.3857 0.91431,59.0452 4.65681,18.5895 4.81519,37.3599 9.19165,55.8513 7.4274,17.3131 -6.94837,33.6838 -3.89704,50.8141 13.02516,15.3304 17.38486,36.49 30.86568,51.7965 12.25435,11.993 18.874948,30.0944 37.445178,33.5191 18.93423,4.7016 33.77405,16.3343 50.19445,25.2431 17.43865,3.0502 28.6793203,17.7339 47.32896,12.8408 19.58563,-0.8688 39.12651,-2.1375 58.74903,-1.7577 7.73741,-1.0482 21.614052,0.3686 20.35303,-2.2141 8.928742,-8.9359 -5.91488,-23.8705 4.763862,-33.9503 3.8606,-23.9192 -4.630822,-47.5346 -5.176442,-71.44 -1.31254,-27.0344 -11.57992,-55.9198 2.076122,-81.5149 12.14025,-14.2499 5.49603,-42.141 -16.605812,-30.5276 -16.4087,4.4986 -33.1815,6.2818 -50.24657,4.3456 -27.0996797,4.4169 -52.20721,-9.8327 -74.73199,-22.95 -14.67234,-9.9118 -37.05934,-6.5281 -47.53566,-22.4319 -5.9825,-15.1413 -25.176968,-21.0853 -27.495678,-38.4663 -8.58943,-14.3396 -24.0473,-23.1271 -31.89209,-38.0728 -2.12361,-1.7473 -5.14608,-1.9165 -7.7001,-1.2205 z"
         style="fill:#696a00;fill-opacity:1;stroke:none" />
      <path
         inkscape:connector-curvature="0"
         id="path7185"
         d="m 349.42708,2138.3958 c -23.14525,6.2173 -38.47697,30.2569 -64.24348,29.4045 -24.75205,4.2625 -49.93537,1.2664 -74.7051,0.1489 -20.02609,4.5848 -39.117,12.6727 -58.60031,18.9856 -20.28148,5.3405 -36.69532,18.8082 -57.604522,21.7321 -17.87808,9.9725 -38.43163,17.1996 -59.20707,17.037 -13.37435,1.0552 -41.8201097,-14.538 -43.8612097,-3.8637 15.83896,11.3252 37.2250397,8.3176 53.3778897,18.8681 -23.65883,2.1151 -46.9370797,-5.4374 -69.83216,-10.2191 -17.23859,-5.0591 -44.18052,-11.2565 -38.1342,-30.9798 -16.90371,-6.5091 -32.10169,-21.7978 -46.949148,-27.3137 5.49618,8.1723 37.689918,21.1532 23.071458,29.5052 -11.99221,2.4865 -31.213018,-19.4099 -36.187878,-10.5387 22.2543,12.0813 43.885048,26.8718 65.353668,38.705 17.1739,20.1003 -21.60402,9.9638 -29.93089,2.7271 -7.52881,-5.0605 -33.319218,-17.4754 -32.417018,-8.3015 20.02069,16.059 44.192098,25.9497 67.200348,36.825 16.56429,5.9903 21.27221,-17.9071 39.56851,-9.4739 11.1736903,4.2455 44.44048,4.6128 40.05292,18.6627 -11.95225,7.0395 -36.65472,-10.2798 -40.47522,1.4204 6.6424303,3.9571 36.61554,4.6215 26.98606,15.167 -23.22076,-2.9649 -47.74876,-2.1699 -69.87251,-10.2654 -12.9034,-14.4703 -27.7248,-24.3942 -47.244678,-26.3921 -7.61701,-6.2626 -35.1456,-10.0279 -13.33452,-0.3783 9.72419,1.7391 40.111278,18.6758 14.5241,14.0466 -8.55554,-2.9209 -34.8308,-6.0785 -21.03124,9.6951 24.835848,4.4036 48.222188,14.5923 68.774768,29.0659 19.45984,9.9909 44.22333,10.3662 59.5963803,27.5737 13.9010197,0.053 44.1041297,17.5171 16.7980797,25.3569 -23.3933997,2.7536 -44.98712,-11.1002 -67.79321,-14.4522 -22.21959,-7.1917 -34.06654,-31.1759 -56.792958,-36.6313 -13.90659,0.1922 15.830198,11.4694 18.149218,17.1027 15.84353,17.8309 36.22208,30.5447 59.00765,37.4361 15.61089,1.947 16.6603303,25.426 -2.04268,17.7484 -22.46982,-6.9577 -42.70797,-20.185 -63.11833,-31.6331 -17.058768,-12.0471 -31.777018,-27.7467 -41.432888,-46.3521 -11.66198,-4.7054 6.24788,23.1995 13.9436,24.4661 8.49327,26.6073 -19.71176,-16.5599 -22.43918,-8.0639 14.44065,24.5158 28.54342,50.9039 50.916918,69.2771 22.64593,15.9116 50.03887,22.769 74.90467,34.2783 21.3959503,8.6776 45.02914,14.5695 67.84284,8.3658 30.08442,-2.1338 62.767662,0.8247 88.638252,-17.8212 36.31613,-20.3147 76.35906,-44.5977 119.81007,-37.743 20.88802,-0.4137 45.55763,12.4903 63.45397,-3.7007 23.20864,-9.4044 28.27674,-33.0895 16.7638,-53.6886 -7.11383,-27.1808 -5.31253,-55.906 2.04461,-82.7383 2.48557,-22.2922 5.37718,-44.8559 7.27576,-66.9063 2.06106,-7.7988 14.12885,-23.9882 -0.80514,-26.1444 z m -492.4375,172.2813 c -1.55485,-3.2373 -8.6289,-1.031 0,0 z"
         style="fill:#4e4f00;fill-opacity:1;stroke:none" />
      <path
         inkscape:connector-curvature="0"
         id="path7203"
         d="m 73.777778,2423.5555 c 19.22383,3.9246 39.700452,2.0475 58.364282,-3.6724 16.65352,-5.8274 30.43009,-17.2962 45.41209,-26.0721 20.68524,-7.5565 41.82208,-16.0375 63.97567,-17.2392 17.94983,5.0127 36.16262,3.7341 53.01979,-1.2566 18.10263,2.6836 36.34649,-3.135 47.36045,-17.9132 9.10998,-14.4276 -0.82895,-30.987 -0.35939,-46.5038 -1.24487,-24.696 -3.35607,-49.7113 2.34149,-74.0604 2.87741,-14.6139 5.58219,-29.2943 4.92161,-44.2036 0.82206,-11.7205 7.48531,-31.5802 2.29942,-38.2664 -12.30656,12.5973 -28.69905,25.3029 -47.44637,22.2026 -19.61772,3.0781 -32.81529,24.6832 -53.96258,21.6084 -14.55677,-1.4304 -16.99341,21.1865 -0.0684,16.8279 7.03267,-1.4853 33.34142,0.2212 20.92966,9.8893 -17.05438,4.395 -41.09752,2.3058 -50.91521,19.475 8.93732,5.42 24.16588,-0.9478 33.16381,9.4227 9.75865,7.0068 14.63371,18.5254 17.36176,29.7015 8.52725,17.3561 -6.08856,35.5984 -20.52487,44.186 -17.73185,11.0746 -38.21911,18.0195 -58.84262,20.7446 -17.10002,-3.901 -21.06469,-29.055 -13.17773,-42.5789 7.29494,-7.1439 10.47464,-29.5751 -5.71482,-20.5354 -8.64085,6.3244 -18.43555,30.8153 -30.10989,16.7703 -0.96561,-10.6378 23.16678,-26.638 7.03031,-32.1614 -18.2138,4.002 -24.80196,24.3294 -29.50481,40.0975 -1.39218,20.1595 -26.419012,10.1508 -32.999162,1.883 -16.36966,7.1573 -4.39881,26.4626 2.12507,36.784 10.73244,13.0755 -28.37233,19.1433 -10.16808,32.4432 11.22331,-8.4103 26.421642,-15.0014 32.711112,-27.0361 5.15249,-16.4455 28.77304,-17.56 34.25504,-0.9863 6.52879,15.6584 -5.70501,34.9167 -22.5966,36.0026 -17.22542,1.7355 -30.766552,13.9428 -47.215512,16.6188 -10.5825,0.8609 -33.43081,-5.065 -35.0424,7.2353 6.94355,11.9932 39.37168,-6.4307 34.66429,10.0398 l -0.76396,0.3283 -0.52345,0.225 0,0 z"
         style="fill:#3b3c00;fill-opacity:1;stroke:none" />
      <path
         inkscape:connector-curvature="0"
         id="path7215"
         d="m -50.666672,1845.7777 c -33.83744,7.0127 -61.976548,31.7634 -76.820818,62.4956 -14.47389,21.4592 -30.71554,43.3696 -32.63039,70.1536 -9.40874,51.6795 0.39533,104.0318 9.26071,155.0293 9.4261,14.5097 5.56112,57.1872 15.87467,55.3414 -4.54234,-11.3801 5.44597,-19.6412 11.15522,-6.6215 28.376318,5.1399 -15.82503,-31.6103 6.44835,-38.9151 18.039048,15.3563 32.133428,37.3207 56.015288,46.1516 17.44861,6.3698 29.78149,26.4479 47.7368,16.3321 26.10394,16.5853 57.7892,5.315 86.15323,5.3739 23.72188,5.6888 45.838092,-3.5925 67.827652,-10.4488 21.87246,-14.051 45.91715,1.4181 65.9988,-16.5432 14.49802,-6.6719 24.92912,6.5585 36.26701,-6.4499 26.88332,0.5196 52.3262,-5.1316 77.89257,-13.5938 31.30439,-6.364 41.57184,-41.2994 32.91224,-68.7765 3.83341,-28.6817 5.30087,-59.0516 -20.24924,-79.6632 -18.5942,-20.2612 -40.64404,-44.2586 -33.27914,-74.5008 -5.96117,-30.6884 -36.96879,-46.2086 -63.8442,-55.2113 -24.11874,-14.4803 -54.21416,-22.4962 -81.16802,-11.1689 -25.96498,4.9986 -51.72456,-15.3128 -77.143232,-3.6095 -26.6917,2.6946 -57.40848,6.4368 -81.7334797,-5.8507 -9.1173103,-13.6364 -42.2288503,-15.6138 -44.2346103,-20.6422 l 1.09822,0.194 0.90682,0.9239"
         style="fill:#7d8000;fill-opacity:1;stroke:none" />
      <path
         inkscape:connector-curvature="0"
         id="path7221"
         d="m -50.666672,1851.1111 c -23.82551,5.5462 -41.26408,26.7459 -58.236058,42.6747 -11.72294,25.1634 -22.47983,50.9073 -32.66291,76.7336 -5.45552,25.06 -15.39063,50.5444 -10.80145,76.4789 9.77643,22.8383 0.24541,50.6995 21.28395,68.6163 30.14878,30.865 59.759348,69.7322 105.659058,75.6129 20.5594303,-0.6093 40.61247,3.5684 61.21812,4.0465 30.17152,0.1268 60.49088,2.8756 90.262842,-3.6564 25.54077,1.7171 43.86491,-18.1456 68.94911,-20.5128 26.56188,-4.9295 54.0716,-0.072 80.54957,-6.216 25.28011,1.6337 47.90565,-15.8245 65.0268,-32.4824 16.75573,-23.821 10.87568,-55.4103 5.36597,-81.7202 -11.63967,-22.8971 -33.0351,-38.7374 -46.6712,-60.3929 -10.24829,-22.4253 8.2432,-53.0835 -17.16217,-70.9949 -14.72233,-10.3354 -32.16798,-16.4345 -46.83691,-27.1796 -18.25951,-13.7746 -39.80969,-17.6548 -61.95902,-15.8637 -26.83436,-5.3863 -52.33138,5.0583 -79.098942,6.8766 -23.61245,7.1529 -44.38899,-7.6026 -68.04946,-5.9273 -22.8126397,-3.7913 -44.76489,-11.3197 -64.97117,-22.9212 -5.53654,-3.6359 -12.13097,-3.4957 -11.86613,-3.1721 z"
         style="fill:#949800;fill-opacity:1;stroke:none" />
      <path
         inkscape:connector-curvature="0"
         id="path7226"
         d="m -11.555552,1875.1111 c -18.6002,-5.8046 -40.45935,-9.6242 -57.68399,1.5681 -10.05939,-0.8159 -29.84479,13.0463 -10.20629,13.824 24.44707,0.6241 48.85452,-2.8982 73.3235603,-0.3297 12.38966,-0.2517 40.8440997,7.1707 38.2952497,19.2471 -22.3623397,6.2403 -46.4712,2.226 -69.38735,0.8523 -11.11609,-5.4205 -36.25033,-5.1605 -39.39224,7.8164 6.0159,3.7313 38.35327,1.0519 17.05105,8.5773 -8.99822,-3.2524 -31.98566,10.5998 -10.07252,8.716 18.7217,-3.9248 50.93646,-3.7672 58.1597,16.0427 -16.57753,13.3687 -40.41792,5.1644 -59.52359,12.2204 -20.57892,7.1157 -43.337018,10.4376 -61.433508,23.1498 -13.36559,15.0075 19.73144,4.1367 26.74062,5.3649 11.034748,-4.4209 37.154208,9.3173 14.225448,10.9758 -11.822838,4.7757 -24.000138,20.0997 -11.832618,29.0522 -16.91094,2.1897 -35.59976,13.4315 -22.43594,32.6753 12.2324,18.1272 35.576168,15.4492 53.125518,23.8415 19.71622,5.718 42.41592,1.1447 60.15801,13.0725 3.7716703,13.4117 -38.27039,20.5001 -9.77778,24 13.8650603,1.0647 20.9015403,21.7853 37.20329,11.4663 31.4379,1.9582 59.98652,21.1318 92.050622,18.5826 14.64085,-0.9383 29.00374,-4.3787 43.66578,-5.0966 25.86369,-11.9278 -30.1985,-24.8422 -1.36413,-30.2856 28.54566,2.1373 57.33477,-1.5779 85.67263,-1.6191 23.83414,4.3219 44.36331,-13.8424 64.73078,-22.8922 17.48886,-11.5199 10.63173,-33.0672 -9.46738,-34.0996 -19.25528,-8.6131 -39.22714,-17.1453 -60.66511,-17.0945 -24.79827,-8.3527 19.79959,-14.816 28.40668,-15.3255 27.08358,-6.0089 2.06654,-34.1271 -15.34427,-22.7469 -21.50524,-0.7764 -10.10977,-22.4879 6.3421,-17.3687 29.00427,-9.2468 -12.27402,-25.2147 -25.34746,-18.6047 -15.43915,-0.1405 -38.47676,-9.6401 -49.32634,4.188 11.08486,3.0802 34.85319,-3.1354 37.90228,3.5992 -16.11487,10.8163 -37.18288,1.5567 -54.37423,10.12 -9.48825,6.2185 -43.51497,-3.2631 -19.63843,-9.2939 16.54556,-15.7567 -12.88063,-14.9627 -22.34268,-10.6613 -15.59007,4.0912 -59.222932,-0.5959 -47.973412,25.2863 14.24121,11.0934 35.130612,5.5543 49.329222,16.9166 5.28138,25.6205 36.43884,4.5687 53.21803,9.4295 17.65478,2.8997 34.27226,24.7438 21.21694,40.9536 -19.68217,10.9223 -44.19946,-1.2498 -65.83224,1.8438 -21.05506,-8.7239 -41.421512,-2.7539 -62.537132,-0.8343 -22.67054,4.3383 -48.01635,13.5944 -68.8854897,-1.6144 -19.4306903,-8.4428 -0.68912,-13.6823 10.08686,-13.8624 24.7599297,-7.9365 51.4752197,-2.7949 76.4234997,-9.4306 12.88427,-16.3494 -14.66084,-23.4305 -27.24046,-20.6758 -19.86635,-1.8932 -41.61542,-0.3891 -59.0210597,-11.7687 -30.0108303,-3.4754 12.90543,-25.6104 24.8497497,-19.0072 15.60259,-3.0162 47.11946,1.2821 37.67346,-21.7244 15.32294,-7.4576 33.75933,-6.9102 50.392772,-6.7443 23.35899,0.4016 49.23786,-0.8918 70.89689,-7.8774 -3.34965,-21.9927 -35.47198,-10.5199 -45.23509,-19.8134 22.32762,-6.9121 46.21582,-1.2569 69.00719,0.5911 9.32611,3.3174 42.11276,2.5559 20.26249,13.29 -6.71623,11.7657 23.73669,11.3905 32.22511,8.814 17.17586,-2.3472 8.91584,-12.3809 -0.55192,-15.0076 17.92199,-14.7891 -6.27394,-24.9806 -19.79367,-26.9982 -16.55176,-3.6933 -33.61902,-3.177 -50.39364,-5.0781 -9.67365,3.3855 -38.4665,11.4316 -38.22223,-2.6667 6.0077,-6.4108 32.47086,-3.2411 28.75454,-9.8181 -19.75471,-4.6994 -39.24463,5.3269 -58.36365,9.3375 -17.381922,4.9875 -36.642892,5.9759 -53.670992,-0.6058 -4.86648,-7.0714 19.79252,-8.2758 3.16394,-10.2437 -23.50812,-0.173 -45.99433,-3.859 -65.34508968,-17.3647 -3.95072002,-0.7834 -8.15626002,-0.4726 -11.87208032,1.1393 z"
         style="fill:#a9ae00;fill-opacity:1;stroke:none" />
    </g>
  </g>
  </g>
</svg>
