<?xml version="1.0" encoding="UTF-8" standalone="no"?>
<!-- Created with Inkscape (http://www.inkscape.org/) -->

<svg
   xmlns:dc="http://purl.org/dc/elements/1.1/"
   xmlns:cc="http://creativecommons.org/ns#"
   xmlns:rdf="http://www.w3.org/1999/02/22-rdf-syntax-ns#"
   xmlns:svg="http://www.w3.org/2000/svg"
   xmlns="http://www.w3.org/2000/svg"
   xmlns:sodipodi="http://sodipodi.sourceforge.net/DTD/sodipodi-0.dtd"
   xmlns:inkscape="http://www.inkscape.org/namespaces/inkscape"
   width="150"
   height="150"
   id="svg2"
   version="1.1"
   inkscape:version="0.48.4 r9939"
   sodipodi:docname="logo10.svg">
  <defs
     id="defs4">
    <filter
       inkscape:collect="always"
       id="filter3810"
       color-interpolation-filters="sRGB">
      <feGaussianBlur
         inkscape:collect="always"
         stdDeviation="2.8477795"
         id="feGaussianBlur3812" />
    </filter>
    <filter
       inkscape:collect="always"
       id="filter3814"
       color-interpolation-filters="sRGB">
      <feGaussianBlur
         inkscape:collect="always"
         stdDeviation="1.351497"
         id="feGaussianBlur3816" />
    </filter>
  </defs>
  <sodipodi:namedview
     id="base"
     pagecolor="#ffffff"
     bordercolor="#666666"
     borderopacity="1.0"
     inkscape:pageopacity="0.0"
     inkscape:pageshadow="2"
     inkscape:zoom="1.979899"
     inkscape:cx="256.81215"
     inkscape:cy="110.72872"
     inkscape:document-units="px"
     inkscape:current-layer="layer1"
     showgrid="false"
     inkscape:window-width="1920"
     inkscape:window-height="1138"
     inkscape:window-x="-8"
     inkscape:window-y="-8"
     inkscape:window-maximized="1" />
  <metadata
     id="metadata7">
    <rdf:RDF>
      <cc:Work
         rdf:about="">
        <dc:format>image/svg+xml</dc:format>
        <dc:type
           rdf:resource="http://purl.org/dc/dcmitype/StillImage" />
        <dc:title></dc:title>
      </cc:Work>
    </rdf:RDF>
  </metadata>
  <g
     inkscape:label="Layer 1"
     inkscape:groupmode="layer"
     id="layer1"
     transform="translate(0,-902.36218)">
    <g
       transform="translate(-146.32811,708.64102)"
       style="font-size:90px;font-style:normal;font-variant:normal;font-weight:normal;font-stretch:normal;line-height:125%;letter-spacing:0px;word-spacing:0px;fill:#000000;fill-opacity:1;stroke:none;filter:url(#filter3814);font-family:Segoe Script;-inkscape-font-specification:Segoe Script"
       id="text2985">
      <path
         d="m 288.68063,320.42395 c -0.75198,2.97795 -4.24872,5.46905 -7.36087,4.89441 -7.26001,-1.47837 -14.05684,-4.62995 -20.8026,-7.61077 -4.6729,-2.27936 -9.35933,-4.68594 -14.53662,-5.59478 -2.98346,-0.84385 -7.28111,-1.90371 -7.63926,2.51036 -0.20147,-3.31442 -0.21998,-6.11371 -0.4916,-13.25499 1.41183,3.08828 5.24148,-0.97543 7.32206,-1.84936 9.07972,-5.51971 15.68085,-14.00146 22.29157,-22.12142 3.00922,-3.3411 6.00552,-6.89169 9.85197,-9.2848 2.4817,0.22843 5.01369,3.82163 3.16232,6.1394 -1.06862,2.14754 -1.64047,4.88258 -4.49716,5.26989 -3.47465,1.18532 -4.24586,5.3796 -6.63569,7.85519 -5.7348,7.22081 -13.22023,12.74287 -20.69825,18.01757 9.46962,4.44833 19.28918,8.12336 29.05194,11.84053 3.32933,0.98727 6.76536,0.1004 10.10334,-0.32683 0.6549,1.04411 0.88046,2.29887 0.87885,3.5156 z"
         id="path2990"
         inkscape:connector-curvature="0"
         sodipodi:nodetypes="cccccccccccccccc"
         style="fill:#000000;fill-opacity:1;stroke:none" />
    </g>
    <g
       style="font-size:144px;font-style:normal;font-variant:normal;font-weight:normal;font-stretch:normal;line-height:125%;letter-spacing:0px;word-spacing:0px;fill:#000000;fill-opacity:1;stroke:none;filter:url(#filter3810);font-family:Segoe Script;-inkscape-font-specification:Segoe Script"
       id="text3761"
       transform="translate(-305.93221,657.28899)">
      <path
         inkscape:connector-curvature="0"
         d="m 425.00452,270.47623 c -1.2e-4,2.10947 -0.57434,3.90243 -1.72266,5.3789 -1.14855,1.47666 -2.77745,2.21494 -4.88672,2.21485 -0.79698,9e-5 -1.67588,-0.36319 -2.63672,-1.08985 -0.96104,-0.72647 -1.83994,-1.44131 -2.63672,-2.14453 -0.7501,-0.74991 -1.61728,-1.40615 -2.60156,-1.96875 -0.98447,-0.5624 -2.0626,-0.84365 -3.23437,-0.84375 -5.76572,10e-5 -13.1954,1.92197 -22.28907,5.76563 -4.54694,1.96883 -8.78912,4.20711 -12.72656,6.71484 -3.93756,2.50789 -7.80474,5.33211 -11.60156,8.47266 -3.79692,3.14069 -7.39457,6.62116 -10.79297,10.4414 -3.39847,3.82038 -6.38675,7.62897 -8.96484,11.42578 -2.39066,3.42193 -4.26565,7.57036 -5.625,12.44532 -1.26565,4.78128 -1.89846,9.44534 -1.89844,13.99218 -2e-5,2.15628 1.10154,4.40628 3.30469,6.75 2.20309,2.25002 4.47653,3.70314 6.82031,4.35938 2.85934,0.75001 6.25777,1.12501 10.19531,1.125 2.95308,0.0469 6.11714,-0.31639 9.49219,-1.08984 3.37494,-0.77343 6.74994,-1.82811 10.125,-3.16407 3.37493,-1.33592 6.65618,-2.85935 9.84375,-4.57031 3.18742,-1.71091 6.09367,-3.50388 8.71875,-5.37891 0.93742,-0.74997 1.93351,-1.62887 2.98828,-2.63671 1.0546,-1.00779 2.12101,-2.19138 3.19922,-3.55079 1.12491,-1.35934 2.07413,-2.62496 2.84766,-3.79687 0.77334,-1.17184 1.39444,-2.2734 1.86328,-3.30469 0.32803,-0.46871 0.49209,-1.07808 0.49218,-1.82812 -9e-5,-0.70308 -0.15243,-1.58199 -0.45703,-2.63672 -0.30478,-1.05464 -0.45712,-1.91011 -0.45703,-2.56641 -9e-5,-1.73432 2.10928,-2.60151 6.32813,-2.60156 1.3124,5e-5 3.28115,0.98442 5.90625,2.95312 2.62489,1.9688 3.93739,3.49224 3.9375,4.57032 -1.1e-4,0.14066 -1.45323,3.11722 -4.35938,8.92968 -1.45322,2.90629 -2.5665,5.15628 -3.33984,6.75 -0.77354,1.59378 -1.23057,2.55472 -1.3711,2.88282 -0.79697,1.82814 -1.59384,3.87892 -2.39062,6.15234 -0.79697,2.27345 -1.59385,4.79298 -2.39063,7.55859 -1.64071,5.57813 -2.46102,9.53907 -2.46093,11.88282 -0.0938,0.51562 -0.0353,1.01953 0.17578,1.51172 0.21084,0.49218 0.44522,0.93749 0.70312,1.33593 0.25772,0.39844 0.51554,0.75 0.77344,1.05469 0.25772,0.30468 0.38663,0.5039 0.38672,0.59766 -9e-5,1.12499 -0.19931,2.16796 -0.59766,3.1289 -0.39853,0.96093 -0.93759,1.80468 -1.61718,2.53125 -0.67978,0.72655 -1.50009,1.30077 -2.46094,1.72266 -0.96103,0.42186 -2.00399,0.6328 -3.12891,0.63281 -2.43758,-10e-6 -4.0782,-0.83204 -4.92187,-2.49609 -0.84383,-1.66407 -1.26571,-3.90235 -1.26563,-6.71485 -8e-5,-0.75 0.0351,-1.47656 0.10547,-2.17968 0.0702,-0.70313 0.15226,-1.40625 0.24609,-2.10938 0.28117,-1.45312 0.63274,-3.07031 1.05469,-4.85156 0.2343,-0.89062 0.44523,-1.67578 0.63281,-2.35547 0.18742,-0.67968 0.32805,-1.2539 0.42188,-1.72266 0.65617,-2.62498 0.98429,-4.40623 0.98437,-5.34375 -8e-5,-0.46873 -0.0938,-0.70311 -0.28125,-0.70312 -0.98445,1e-5 -4.05476,1.28908 -9.21093,3.86719 -2.62507,1.26563 -4.72273,2.27344 -6.29297,3.02343 -1.57038,0.75001 -2.63678,1.2422 -3.19922,1.47657 -8.15631,3.32813 -15.8438,4.99219 -23.0625,4.99218 -4.64066,10e-6 -9.53909,-0.93749 -14.69531,-2.8125 -5.25002,-1.92186 -9.65627,-4.66405 -13.21875,-8.22656 -3.56251,-3.60936 -5.34376,-7.78123 -5.34375,-12.51562 -1e-5,-13.87496 6.39842,-28.24214 19.19531,-43.10157 5.62497,-6.51555 11.10934,-12.02335 16.45312,-16.52343 5.24996,-4.35929 11.67182,-8.48428 19.26563,-12.375 1.21869,-0.65616 2.6015,-1.32412 4.14844,-2.00391 1.5468,-0.67959 3.25774,-1.37099 5.13281,-2.07422 3.7968,-1.45302 7.57023,-2.71864 11.32031,-3.79687 3.74992,-1.07802 7.2421,-1.82802 10.47656,-2.25 2.01553,-0.28115 5.03897,-0.42177 9.07032,-0.42188 1.45302,-0.0468 2.8827,0.22277 4.28906,0.8086 1.40614,0.58604 2.64833,1.40635 3.72656,2.46093 1.07802,1.05479 1.9452,2.26182 2.60156,3.6211 0.65614,1.35947 0.96083,2.76572 0.91407,4.21875 z"
         style="fill:#000000;fill-opacity:1"
         id="path3766" />
    </g>
    <g
       transform="translate(-149.22645,704.77724)"
       style="font-size:90px;font-style:normal;font-variant:normal;font-weight:normal;font-stretch:normal;line-height:125%;letter-spacing:0px;word-spacing:0px;fill:#e9e918;fill-opacity:1;stroke:#000000;stroke-width:0.2;stroke-miterlimit:4;stroke-opacity:1;stroke-dasharray:none;font-family:Segoe Script;-inkscape-font-specification:Segoe Script"
       id="text2985-1">
      <path
         d="m 288.68063,320.42395 c -0.75198,2.97795 -4.24872,5.46905 -7.36087,4.89441 -7.26001,-1.47837 -14.05684,-4.62995 -20.8026,-7.61077 -4.6729,-2.27936 -9.35933,-4.68594 -14.53662,-5.59478 -2.98346,-0.84385 -7.28111,-1.90371 -7.63926,2.51036 -0.20147,-3.31442 -0.21998,-6.11371 -0.4916,-13.25499 1.41183,3.08828 5.24148,-0.97543 7.32206,-1.84936 9.07972,-5.51971 15.68085,-14.00146 22.29157,-22.12142 3.00922,-3.3411 6.00552,-6.89169 9.85197,-9.2848 2.4817,0.22843 5.01369,3.82163 3.16232,6.1394 -1.06862,2.14754 -1.64047,4.88258 -4.49716,5.26989 -3.47465,1.18532 -4.24586,5.3796 -6.63569,7.85519 -5.7348,7.22081 -13.22023,12.74287 -20.69825,18.01757 9.46962,4.44833 19.28918,8.12336 29.05194,11.84053 3.32933,0.98727 6.76536,0.1004 10.10334,-0.32683 0.6549,1.04411 0.88046,2.29887 0.87885,3.5156 z"
         id="path2990-7"
         inkscape:connector-curvature="0"
         sodipodi:nodetypes="cccccccccccccccc"
         style="fill:#e9e918;fill-opacity:1;stroke:#000000;stroke-width:0.2;stroke-miterlimit:4;stroke-opacity:1;stroke-dasharray:none" />
    </g>
    <g
       transform="translate(-310.45174,652.51872)"
       style="font-size:144px;font-style:normal;font-variant:normal;font-weight:normal;font-stretch:normal;line-height:125%;letter-spacing:0px;word-spacing:0px;fill:#21e321;fill-opacity:1;stroke:#000000;stroke-width:0.2;stroke-miterlimit:4;stroke-opacity:1;stroke-dasharray:none;font-family:Segoe Script;-inkscape-font-specification:Segoe Script"
       id="text3761-4">
      <path
         inkscape:connector-curvature="0"
         d="m 425.00452,270.47623 c -1.2e-4,2.10947 -0.57434,3.90243 -1.72266,5.3789 -1.14855,1.47666 -2.77745,2.21494 -4.88672,2.21485 -0.79698,9e-5 -1.67588,-0.36319 -2.63672,-1.08985 -0.96104,-0.72647 -1.83994,-1.44131 -2.63672,-2.14453 -0.7501,-0.74991 -1.61728,-1.40615 -2.60156,-1.96875 -0.98447,-0.5624 -2.0626,-0.84365 -3.23437,-0.84375 -5.76572,10e-5 -13.1954,1.92197 -22.28907,5.76563 -4.54694,1.96883 -8.78912,4.20711 -12.72656,6.71484 -3.93756,2.50789 -7.80474,5.33211 -11.60156,8.47266 -3.79692,3.14069 -7.39457,6.62116 -10.79297,10.4414 -3.39847,3.82038 -6.38675,7.62897 -8.96484,11.42578 -2.39066,3.42193 -4.26565,7.57036 -5.625,12.44532 -1.26565,4.78128 -1.89846,9.44534 -1.89844,13.99218 -2e-5,2.15628 1.10154,4.40628 3.30469,6.75 2.20309,2.25002 4.47653,3.70314 6.82031,4.35938 2.85934,0.75001 6.25777,1.12501 10.19531,1.125 2.95308,0.0469 6.11714,-0.31639 9.49219,-1.08984 3.37494,-0.77343 6.74994,-1.82811 10.125,-3.16407 3.37493,-1.33592 6.65618,-2.85935 9.84375,-4.57031 3.18742,-1.71091 6.09367,-3.50388 8.71875,-5.37891 0.93742,-0.74997 1.93351,-1.62887 2.98828,-2.63671 1.0546,-1.00779 2.12101,-2.19138 3.19922,-3.55079 1.12491,-1.35934 2.07413,-2.62496 2.84766,-3.79687 0.77334,-1.17184 1.39444,-2.2734 1.86328,-3.30469 0.32803,-0.46871 0.49209,-1.07808 0.49218,-1.82812 -9e-5,-0.70308 -0.15243,-1.58199 -0.45703,-2.63672 -0.30478,-1.05464 -0.45712,-1.91011 -0.45703,-2.56641 -9e-5,-1.73432 2.10928,-2.60151 6.32813,-2.60156 1.3124,5e-5 3.28115,0.98442 5.90625,2.95312 2.62489,1.9688 3.93739,3.49224 3.9375,4.57032 -1.1e-4,0.14066 -1.45323,3.11722 -4.35938,8.92968 -1.45322,2.90629 -2.5665,5.15628 -3.33984,6.75 -0.77354,1.59378 -1.23057,2.55472 -1.3711,2.88282 -0.79697,1.82814 -1.59384,3.87892 -2.39062,6.15234 -0.79697,2.27345 -1.59385,4.79298 -2.39063,7.55859 -1.64071,5.57813 -2.46102,9.53907 -2.46093,11.88282 -0.0938,0.51562 -0.0353,1.01953 0.17578,1.51172 0.21084,0.49218 0.44522,0.93749 0.70312,1.33593 0.25772,0.39844 0.51554,0.75 0.77344,1.05469 0.25772,0.30468 0.38663,0.5039 0.38672,0.59766 -9e-5,1.12499 -0.19931,2.16796 -0.59766,3.1289 -0.39853,0.96093 -0.93759,1.80468 -1.61718,2.53125 -0.67978,0.72655 -1.50009,1.30077 -2.46094,1.72266 -0.96103,0.42186 -2.00399,0.6328 -3.12891,0.63281 -2.43758,-10e-6 -4.0782,-0.83204 -4.92187,-2.49609 -0.84383,-1.66407 -1.26571,-3.90235 -1.26563,-6.71485 -8e-5,-0.75 0.0351,-1.47656 0.10547,-2.17968 0.0702,-0.70313 0.15226,-1.40625 0.24609,-2.10938 0.28117,-1.45312 0.63274,-3.07031 1.05469,-4.85156 0.2343,-0.89062 0.44523,-1.67578 0.63281,-2.35547 0.18742,-0.67968 0.32805,-1.2539 0.42188,-1.72266 0.65617,-2.62498 0.98429,-4.40623 0.98437,-5.34375 -8e-5,-0.46873 -0.0938,-0.70311 -0.28125,-0.70312 -0.98445,1e-5 -4.05476,1.28908 -9.21093,3.86719 -2.62507,1.26563 -4.72273,2.27344 -6.29297,3.02343 -1.57038,0.75001 -2.63678,1.2422 -3.19922,1.47657 -8.15631,3.32813 -15.8438,4.99219 -23.0625,4.99218 -4.64066,10e-6 -9.53909,-0.93749 -14.69531,-2.8125 -5.25002,-1.92186 -9.65627,-4.66405 -13.21875,-8.22656 -3.56251,-3.60936 -5.34376,-7.78123 -5.34375,-12.51562 -1e-5,-13.87496 6.39842,-28.24214 19.19531,-43.10157 5.62497,-6.51555 11.10934,-12.02335 16.45312,-16.52343 5.24996,-4.35929 11.67182,-8.48428 19.26563,-12.375 1.21869,-0.65616 2.6015,-1.32412 4.14844,-2.00391 1.5468,-0.67959 3.25774,-1.37099 5.13281,-2.07422 3.7968,-1.45302 7.57023,-2.71864 11.32031,-3.79687 3.74992,-1.07802 7.2421,-1.82802 10.47656,-2.25 2.01553,-0.28115 5.03897,-0.42177 9.07032,-0.42188 1.45302,-0.0468 2.8827,0.22277 4.28906,0.8086 1.40614,0.58604 2.64833,1.40635 3.72656,2.46093 1.07802,1.05479 1.9452,2.26182 2.60156,3.6211 0.65614,1.35947 0.96083,2.76572 0.91407,4.21875 z"
         style="fill:#21e321;fill-opacity:1;stroke:#000000;stroke-width:0.2;stroke-miterlimit:4;stroke-opacity:1;stroke-dasharray:none"
         id="path3766-0" />
    </g>
  </g>
</svg>
