<svg xmlns:dc="http://purl.org/dc/elements/1.1/" xmlns:cc="http://creativecommons.org/ns#" xmlns:rdf="http://www.w3.org/1999/02/22-rdf-syntax-ns#" xmlns:svg="http://www.w3.org/2000/svg" xmlns="http://www.w3.org/2000/svg" xmlns:sodipodi="http://sodipodi.sourceforge.net/DTD/sodipodi-0.dtd" xmlns:inkscape="http://www.inkscape.org/namespaces/inkscape" width="500" height="250" id="pond2_svg3053" version="1.1" inkscape:version="0.48.4 r9939" sodipodi:docname="pond.svg"><g><metadata id="pond2_metadata3065"><rdf:RDF><cc:Work rdf:about=""><dc:format></dc:format><dc:type rdf:resource="http://purl.org/dc/dcmitype/StillImage"></dc:type><dc:title></dc:title></cc:Work></rdf:RDF></metadata><defs id="pond2_defs3063"></defs><sodipodi:namedview pagecolor="#ffffff" bordercolor="#666666" borderopacity="1" objecttolerance="10" gridtolerance="10" guidetolerance="10" inkscape:pageopacity="0" inkscape:pageshadow="2" inkscape:window-width="1367" inkscape:window-height="873" id="pond2_namedview3061" showgrid="false" inkscape:zoom="1.58" inkscape:cx="189.96711" inkscape:cy="134.76176" inkscape:window-x="2067" inkscape:window-y="160" inkscape:window-maximized="0" inkscape:current-layer="svg3053"></sodipodi:namedview><path sodipodi:type="arc" style="fill:#a05a2c;fill-opacity:1;stroke:#008000;stroke-opacity:1" id="pond2_path3017" sodipodi:cx="250.31645" sodipodi:cy="124.68355" sodipodi:rx="191.4557" sodipodi:ry="88.607597" d="m 441.77216,124.68355 a 191.4557,88.607597 0 1 1 -1.4e-4,-0.10561 l -191.45557,0.10561 z" sodipodi:start="0" sodipodi:end="6.2819934"></path><path sodipodi:type="arc" style="fill:#0000ff;fill-opacity:1;stroke:#008000;stroke-opacity:1" id="pond2_path3019" sodipodi:cx="253.79747" sodipodi:cy="136.39241" sodipodi:rx="193.03796" sodipodi:ry="80.063293" d="m 446.83543,136.39241 a 193.03796,80.063293 0 1 1 -1.3e-4,-0.0954 l -193.03783,0.0954 z" sodipodi:start="0" sodipodi:end="6.2819934" transform="translate(-1.8987342,-1.8987341)"></path><g id="pond2_g3217" transform="matrix(0.09142055,0,0,0.08475935,185.99941,159.80568)"><path sodipodi:nodetypes="aaaaaaaaaazaaaaaaaa" inkscape:connector-curvature="0" id="pond2_path3187" d="m -650.63291,-67.721519 c 31.30631,15.922099 66.35552,25.257844 101.26582,29.113924 42.01445,4.640781 86.48188,5.773263 126.58228,-7.594937 25.42356,-8.475407 55.81136,-19.993027 67.08861,-44.303797 7.51001,-16.189591 4.01504,-38.621471 -6.32912,-53.164561 -10.06279,-14.14751 -29.58844,-24.77297 -46.83544,-22.78481 -8.64131,0.99613 -12.39492,12.72574 -20.25316,16.4557 -11.28835,5.35808 -24.35149,9.44732 -36.70886,7.59494 -14.75303,-2.21149 -24.33647,-20.87688 -39.24051,-21.51899 -15.66556,-0.67491 -27.8894,14.93942 -43.03798,18.98734 -11.4792,3.06741 -19.76157,3.64067 -35.44303,3.79747 -15.68146,0.1568 -40.26572,2.48195 -58.22785,-5.06329 -10.75957,-4.51971 -15.26042,-19.95434 -26.58228,-22.78481 -3.77395,-0.94349 -9.40266,-0.81109 -11.3924,2.53164 -4.71352,7.91865 7.14151,17.37811 7.59493,26.58228 0.23211,4.71173 -3.40357,9.28789 -2.53164,13.92405 1.19044,6.32968 9.48787,10.0468 10.12658,16.4557 0.84726,8.50154 -11.20855,15.835897 -8.86076,24.050632 2.64405,9.251311 14.20854,13.359709 22.78481,17.721519 z" style="fill:#ffff00;stroke:#000000;stroke-width:1px;stroke-linecap:butt;stroke-linejoin:miter;stroke-opacity:1"></path><path sodipodi:nodetypes="caaaaaaac" inkscape:connector-curvature="0" id="pond2_path3189" d="m -406.96202,-165.18988 c 7.01353,-11.07002 20.90433,-34.30405 16.45569,-51.89873 -4.3156,-17.06848 -21.39918,-30.77503 -37.97467,-36.70886 -14.7466,-5.27911 -33.4758,-4.37876 -46.83545,3.79747 -14.38212,8.80199 -22.20891,26.75319 -26.58228,43.03797 -3.83186,14.26838 -6.04165,31.4636 1.26582,44.3038 7.41104,13.0222 23.16405,21.78216 37.97469,24.05063 12.94955,1.98341 26.50617,-3.79427 37.97468,-10.12658 7.05692,-3.89646 10.70799,-5.38568 17.72152,-16.4557 z" style="fill:#ffff00;stroke:#000000;stroke-width:1px;stroke-linecap:butt;stroke-linejoin:miter;stroke-opacity:1"></path><path sodipodi:nodetypes="aaaaa" inkscape:connector-curvature="0" id="pond2_path3191" d="m -422.1519,-200.63293 c 5.98946,0.29873 13.46797,-5.41286 13.92405,-11.3924 0.43172,-5.66019 -5.74259,-12.1071 -11.39241,-12.65822 -6.29922,-0.61448 -14.74121,5.07921 -15.18987,11.39241 -0.42301,5.95213 6.69849,12.36097 12.65823,12.65821 z" style="fill:#f4e3d7;stroke:#000000;stroke-width:1px;stroke-linecap:butt;stroke-linejoin:miter;stroke-opacity:1"></path><path sodipodi:nodetypes="aaaaa" inkscape:connector-curvature="0" id="pond2_path3191-1" d="m -422.1536,-206.94487 c 2.77728,0.54611 7.14155,-1.00354 7.59494,-3.79746 0.47791,-2.94505 -3.34683,-6.24147 -6.32912,-6.32911 -2.53933,-0.0746 -5.53712,2.52786 -5.6962,5.0633 -0.14043,2.23824 2.22988,4.63057 4.43038,5.06327 z" style="fill:#280b0b;stroke:#000000;stroke-width:1px;stroke-linecap:butt;stroke-linejoin:miter;stroke-opacity:1"></path><path inkscape:connector-curvature="0" id="pond2_path3215" d="m -403.16456,-194.93671 16.4557,5.06329 20.25316,1.89874 -8.22784,15.82278 -18.35443,3.16456 -19.62026,3.16456 -10.12658,-4.43038 13.29114,-12.02532 z" style="fill:#ff0000;stroke:#000000;stroke-width:1px;stroke-linecap:butt;stroke-linejoin:miter;stroke-opacity:1"></path></g></g></svg>