<?xml version="1.0" encoding="UTF-8" standalone="no"?>
<!-- Created with Inkscape (http://www.inkscape.org/) -->

<svg
   xmlns:dc="http://purl.org/dc/elements/1.1/"
   xmlns:cc="http://creativecommons.org/ns#"
   xmlns:rdf="http://www.w3.org/1999/02/22-rdf-syntax-ns#"
   xmlns:svg="http://www.w3.org/2000/svg"
   xmlns="http://www.w3.org/2000/svg"
   xmlns:xlink="http://www.w3.org/1999/xlink"
   xmlns:sodipodi="http://sodipodi.sourceforge.net/DTD/sodipodi-0.dtd"
   xmlns:inkscape="http://www.inkscape.org/namespaces/inkscape"
   width="80"
   height="80"
   id="svg2"
   version="1.1"
   inkscape:version="0.48.4 r9939"
   sodipodi:docname="tree_stage_2.svg">
  <defs
     id="defs4" />
  <sodipodi:namedview
     id="base"
     pagecolor="#ffffff"
     bordercolor="#666666"
     borderopacity="1.0"
     inkscape:pageopacity="0.0"
     inkscape:pageshadow="2"
     inkscape:zoom="15.839192"
     inkscape:cx="34.514078"
     inkscape:cy="24.113263"
     inkscape:document-units="px"
     inkscape:current-layer="layer1"
     showgrid="false"
     showguides="true"
     inkscape:guide-bbox="true"
     inkscape:window-width="1661"
     inkscape:window-height="1399"
     inkscape:window-x="2199"
     inkscape:window-y="43"
     inkscape:window-maximized="0" />
  <metadata
     id="metadata7">
    <rdf:RDF>
      <cc:Work
         rdf:about="">
        <dc:format>image/svg+xml</dc:format>
        <dc:type
           rdf:resource="http://purl.org/dc/dcmitype/StillImage" />
        <dc:title></dc:title>
      </cc:Work>
    </rdf:RDF>
  </metadata>
  <g
     inkscape:label="Layer 1"
     inkscape:groupmode="layer"
     id="layer1"
     transform="translate(0,-972.3622)">
    <path
       style="fill:none;stroke:#ae9000;stroke-width:1.50000000000000000;stroke-linecap:round;stroke-linejoin:miter;stroke-opacity:1;fill-opacity:1;stroke-miterlimit:4;stroke-dasharray:none"
       d="m 23.482011,1050.9273 c 0.0221,-3.5032 0.354484,-37.5349 0.25209,-41.18"
       id="path2985"
       inkscape:connector-curvature="0"
       sodipodi:nodetypes="cc" />
    <path
       style="fill:#00d400;fill-opacity:1;stroke:#00d500;stroke-width:0.58358502px;stroke-linecap:butt;stroke-linejoin:miter;stroke-opacity:1"
       d="m 48.838801,1030.0911 c -1.18282,-2.0428 -1.841425,-3.0637 -3.785827,-3.9551 -1.423766,-0.763 -4.3711,0.1479 -5.837138,0.7527 1.111311,1.6667 2.271358,3.1989 4.228165,3.8348 1.616443,0.5243 2.963864,0.5826 5.3948,-0.6324 z"
       id="path3762"
       inkscape:connector-curvature="0"
       sodipodi:nodetypes="ccccc" />
    <path
       style="fill:none;stroke:#00ab00;stroke-width:1px;stroke-linecap:butt;stroke-linejoin:miter;stroke-opacity:1"
       d="m 23.707347,1038.882 c 1.539957,-5.3782 21.332144,-13.4214 21.545416,-20.16"
       id="path2985-1"
       inkscape:connector-curvature="0"
       sodipodi:nodetypes="cc" />
    <path
       style="fill:none;stroke:#00ab00;stroke-width:1px;stroke-linecap:butt;stroke-linejoin:miter;stroke-opacity:1"
       d="m 23.618062,1032.7213 c -2.924328,-1.7174 -7.591941,-22.3563 -12.783627,-26.8049"
       id="path2985-7"
       inkscape:connector-curvature="0"
       sodipodi:nodetypes="cc" />
    <use
       x="0"
       y="0"
       xlink:href="#path3762"
       id="use3794"
       transform="matrix(0,1,-1,0,1048.0909,971.47165)"
       width="50"
       height="50" />
    <use
       x="0"
       y="0"
       xlink:href="#path3762"
       id="use3796"
       transform="matrix(-1,0,0,1,53.113888,-15.850888)"
       width="50"
       height="50" />
    <use
       x="0"
       y="0"
       xlink:href="#path3762"
       id="use3798"
       transform="matrix(-1,0,0,1,58.012042,-1.5997225)"
       width="50"
       height="50" />
    <path
       style="fill:none;stroke:#00ab00;stroke-width:1px;stroke-linecap:butt;stroke-linejoin:miter;stroke-opacity:1"
       d="m 39.181,1026.3983 c 8.547891,-3.6533 19.627512,-2.8147 21.608551,-4.4395"
       id="path2985-1-4"
       inkscape:connector-curvature="0"
       sodipodi:nodetypes="cc" />
    <path
       style="fill:none;stroke:#00ab00;stroke-width:1px;stroke-linecap:butt;stroke-linejoin:miter;stroke-opacity:1"
       d="m 40.176658,1009.5671 c -3.826479,2.8924 -14.465137,2.8673 -16.335304,6.4195"
       id="path2985-1-0"
       inkscape:connector-curvature="0"
       sodipodi:nodetypes="cc" />
    <use
       x="0"
       y="0"
       xlink:href="#path3762"
       id="use3825"
       transform="matrix(0,1,-1,0,1090.419,972.88045)"
       width="50"
       height="50" />
    <use
       x="0"
       y="0"
       xlink:href="#path3762"
       id="use3827"
       transform="matrix(-1,0,0,1,93.863045,-9.9752998)"
       width="50"
       height="50" />
    <use
       x="0"
       y="0"
       xlink:href="#path3762"
       id="use3829"
       transform="matrix(0,-1,1,0,-1012.8446,1042.3105)"
       width="50"
       height="50" />
    <use
       x="0"
       y="0"
       xlink:href="#path3762"
       id="use3831"
       transform="matrix(-1,0,0,1,88.433446,-20.455624)"
       width="50"
       height="50" />
    <use
       x="0"
       y="0"
       xlink:href="#path3762"
       id="use3833"
       transform="translate(-37.628182,-23.801719)"
       width="50"
       height="50" />
    <path
       style="fill:none;stroke:#00ab00;stroke-width:1px;stroke-linecap:butt;stroke-linejoin:miter;stroke-opacity:1"
       d="m 13.786625,1002.3066 c 0.403535,2.6399 10.220466,6.4028 9.928663,9.3237"
       id="path2985-1-0-9"
       inkscape:connector-curvature="0"
       sodipodi:nodetypes="cc" />
  </g>
</svg>
