<?xml version="1.0" encoding="UTF-8" standalone="no"?>
<!-- Created with Inkscape (http://www.inkscape.org/) -->

<svg
   xmlns:dc="http://purl.org/dc/elements/1.1/"
   xmlns:cc="http://creativecommons.org/ns#"
   xmlns:rdf="http://www.w3.org/1999/02/22-rdf-syntax-ns#"
   xmlns:svg="http://www.w3.org/2000/svg"
   xmlns="http://www.w3.org/2000/svg"
   xmlns:xlink="http://www.w3.org/1999/xlink"
   xmlns:sodipodi="http://sodipodi.sourceforge.net/DTD/sodipodi-0.dtd"
   xmlns:inkscape="http://www.inkscape.org/namespaces/inkscape"
   width="50"
   height="60"
   id="svg8941"
   version="1.1"
   inkscape:version="0.48.2 r9819"
   sodipodi:docname="terrain_object_lilley.svg">
  <defs
     id="defs8943">
    <radialGradient
       inkscape:collect="always"
       xlink:href="#linearGradient8051"
       id="radialGradient8715"
       gradientUnits="userSpaceOnUse"
       gradientTransform="matrix(-0.12950852,-0.25550994,0.89186167,-0.45205163,177.07277,1085.9753)"
       cx="388.38528"
       cy="572.37244"
       fx="388.38528"
       fy="572.37244"
       r="41.406582" />
    <linearGradient
       id="linearGradient8051">
      <stop
         style="stop-color:#ff17ce;stop-opacity:1;"
         offset="0"
         id="stop8053" />
      <stop
         id="stop8240"
         offset="0.36961356"
         style="stop-color:#f156d1;stop-opacity:1;" />
      <stop
         id="stop8061"
         offset="0.56944728"
         style="stop-color:#d210ab;stop-opacity:1;" />
      <stop
         id="stop8059"
         offset="0.68323207"
         style="stop-color:#f224c7;stop-opacity:1;" />
      <stop
         style="stop-color:#900073;stop-opacity:1;"
         offset="1"
         id="stop8055" />
    </linearGradient>
    <radialGradient
       inkscape:collect="always"
       xlink:href="#linearGradient8209"
       id="radialGradient8725"
       gradientUnits="userSpaceOnUse"
       gradientTransform="matrix(0.49179723,0.80404986,-1.8503007,1.1317369,1297.5269,-375.95167)"
       cx="368.47763"
       cy="599.61639"
       fx="368.47763"
       fy="599.61639"
       r="23.249893" />
    <linearGradient
       id="linearGradient8209">
      <stop
         id="stop8211"
         offset="0"
         style="stop-color:#ff7ce3;stop-opacity:1;" />
      <stop
         style="stop-color:#fb95e6;stop-opacity:1;"
         offset="0.30593756"
         id="stop8223" />
      <stop
         style="stop-color:#ca0ea6;stop-opacity:1;"
         offset="0.51598001"
         id="stop8213" />
      <stop
         id="stop8221"
         offset="0.69101429"
         style="stop-color:#e797d7;stop-opacity:1;" />
      <stop
         style="stop-color:#e67fc2;stop-opacity:0.68862277;"
         offset="1"
         id="stop8215" />
    </linearGradient>
    <radialGradient
       inkscape:collect="always"
       xlink:href="#linearGradient8209"
       id="radialGradient8717"
       gradientUnits="userSpaceOnUse"
       gradientTransform="matrix(0.49179723,0.80404986,-1.8503007,1.1317369,1297.5269,-375.95167)"
       cx="368.47763"
       cy="599.61639"
       fx="368.47763"
       fy="599.61639"
       r="23.249893" />
    <inkscape:path-effect
       effect="skeletal"
       id="path-effect8065"
       is_visible="true"
       pattern="M 0,0 0,10 10,5 z"
       copytype="single_stretched"
       prop_scale="1"
       scale_y_rel="false"
       spacing="0"
       normal_offset="0"
       tang_offset="0"
       prop_units="false"
       vertical_pattern="false"
       fuse_tolerance="0" />
    <radialGradient
       inkscape:collect="always"
       xlink:href="#linearGradient8209"
       id="radialGradient8719"
       gradientUnits="userSpaceOnUse"
       gradientTransform="matrix(0.49179723,0.80404986,-1.8503007,1.1317369,1297.5269,-375.95167)"
       cx="368.47763"
       cy="599.61639"
       fx="368.47763"
       fy="599.61639"
       r="23.249893" />
    <inkscape:path-effect
       effect="skeletal"
       id="path-effect8065-0"
       is_visible="true"
       pattern="m 11.041525,-2.5471259 0,10 10,-5 z"
       copytype="single_stretched"
       prop_scale="1"
       scale_y_rel="false"
       spacing="0"
       normal_offset="0"
       tang_offset="0"
       prop_units="false"
       vertical_pattern="false"
       fuse_tolerance="0" />
    <radialGradient
       inkscape:collect="always"
       xlink:href="#linearGradient8209"
       id="radialGradient8721"
       gradientUnits="userSpaceOnUse"
       gradientTransform="matrix(0.49179723,0.80404986,-1.8503007,1.1317369,1297.5269,-375.95167)"
       cx="368.47763"
       cy="599.61639"
       fx="368.47763"
       fy="599.61639"
       r="23.249893" />
    <inkscape:path-effect
       effect="skeletal"
       id="path-effect8065-0-2"
       is_visible="true"
       pattern="m 21.852301,-8.5972735 0,10 10,-5 z"
       copytype="single_stretched"
       prop_scale="1"
       scale_y_rel="false"
       spacing="0"
       normal_offset="0"
       tang_offset="0"
       prop_units="false"
       vertical_pattern="false"
       fuse_tolerance="0" />
    <radialGradient
       inkscape:collect="always"
       xlink:href="#linearGradient8209"
       id="radialGradient8723"
       gradientUnits="userSpaceOnUse"
       gradientTransform="matrix(0.49179723,0.80404986,-1.8503007,1.1317369,1297.5269,-375.95167)"
       cx="368.47763"
       cy="599.61639"
       fx="368.47763"
       fy="599.61639"
       r="23.249893" />
    <inkscape:path-effect
       effect="skeletal"
       id="path-effect8065-0-2-4"
       is_visible="true"
       pattern="m 29.557994,-18.553546 0,10.000001 10,-5 z"
       copytype="single_stretched"
       prop_scale="1"
       scale_y_rel="false"
       spacing="0"
       normal_offset="0"
       tang_offset="0"
       prop_units="false"
       vertical_pattern="false"
       fuse_tolerance="0" />
    <radialGradient
       inkscape:collect="always"
       xlink:href="#linearGradient8209"
       id="radialGradient8735"
       gradientUnits="userSpaceOnUse"
       gradientTransform="matrix(1.7366126,-0.88898853,0.32105251,0.62716645,-456.54916,533.8541)"
       cx="358.30609"
       cy="610.98773"
       fx="358.30609"
       fy="610.98773"
       r="23.284985" />
    <radialGradient
       inkscape:collect="always"
       xlink:href="#linearGradient8209"
       id="radialGradient8727"
       gradientUnits="userSpaceOnUse"
       gradientTransform="matrix(1.7366126,-0.88898853,0.32105251,0.62716645,-456.54916,533.8541)"
       cx="358.30609"
       cy="610.98773"
       fx="358.30609"
       fy="610.98773"
       r="23.284985" />
    <inkscape:path-effect
       effect="skeletal"
       id="path-effect8065-1"
       is_visible="true"
       pattern="m -25.2187,-13.208608 0,10.0000005 10,-5.0000002 z"
       copytype="single_stretched"
       prop_scale="0.5"
       scale_y_rel="false"
       spacing="0"
       normal_offset="0"
       tang_offset="0"
       prop_units="false"
       vertical_pattern="false"
       fuse_tolerance="0" />
    <radialGradient
       inkscape:collect="always"
       xlink:href="#linearGradient8209"
       id="radialGradient8729"
       gradientUnits="userSpaceOnUse"
       gradientTransform="matrix(1.7366126,-0.88898853,0.32105251,0.62716645,-456.54916,533.8541)"
       cx="358.30609"
       cy="610.98773"
       fx="358.30609"
       fy="610.98773"
       r="23.284985" />
    <inkscape:path-effect
       effect="skeletal"
       id="path-effect8065-0-0"
       is_visible="true"
       pattern="m -21.243755,-19.289025 0,10.0000003 10,-5.0000003 z"
       copytype="single_stretched"
       prop_scale="0.5"
       scale_y_rel="false"
       spacing="0"
       normal_offset="0"
       tang_offset="0"
       prop_units="false"
       vertical_pattern="false"
       fuse_tolerance="0" />
    <radialGradient
       inkscape:collect="always"
       xlink:href="#linearGradient8209"
       id="radialGradient8731"
       gradientUnits="userSpaceOnUse"
       gradientTransform="matrix(1.7366126,-0.88898853,0.32105251,0.62716645,-456.54916,533.8541)"
       cx="358.30609"
       cy="610.98773"
       fx="358.30609"
       fy="610.98773"
       r="23.284985" />
    <inkscape:path-effect
       effect="skeletal"
       id="path-effect8065-0-2-6"
       is_visible="true"
       pattern="m -18.382872,-31.522418 0,10 10.0000003,-5 z"
       copytype="single_stretched"
       prop_scale="0.5"
       scale_y_rel="false"
       spacing="0"
       normal_offset="0"
       tang_offset="0"
       prop_units="false"
       vertical_pattern="false"
       fuse_tolerance="0" />
    <radialGradient
       inkscape:collect="always"
       xlink:href="#linearGradient8209"
       id="radialGradient8733"
       gradientUnits="userSpaceOnUse"
       gradientTransform="matrix(1.7366126,-0.88898853,0.32105251,0.62716645,-456.54916,533.8541)"
       cx="358.30609"
       cy="610.98773"
       fx="358.30609"
       fy="610.98773"
       r="23.284985" />
    <inkscape:path-effect
       effect="skeletal"
       id="path-effect8065-0-2-4-7"
       is_visible="true"
       pattern="m -9.7938599,-40.595376 0,10.00001 10,-5 z"
       copytype="single_stretched"
       prop_scale="0.5"
       scale_y_rel="false"
       spacing="0"
       normal_offset="0"
       tang_offset="0"
       prop_units="false"
       vertical_pattern="false"
       fuse_tolerance="0" />
    <radialGradient
       inkscape:collect="always"
       xlink:href="#linearGradient6981-7"
       id="radialGradient8737"
       gradientUnits="userSpaceOnUse"
       gradientTransform="matrix(-0.82451524,0.92655715,-1.1847781,-1.0542981,1636.414,969.44399)"
       cx="384.2886"
       cy="574.31891"
       fx="384.2886"
       fy="574.31891"
       r="6.8339663" />
    <linearGradient
       id="linearGradient6981-7">
      <stop
         style="stop-color:#5fe200;stop-opacity:1;"
         offset="0"
         id="stop6983-9" />
      <stop
         style="stop-color:#006a2b;stop-opacity:1;"
         offset="1"
         id="stop6985-3" />
    </linearGradient>
    <radialGradient
       inkscape:collect="always"
       xlink:href="#linearGradient8324-2"
       id="radialGradient8739"
       gradientUnits="userSpaceOnUse"
       gradientTransform="matrix(-0.91440399,0.35913548,0.32303866,0.92524546,855.93344,-44.605534)"
       cx="464.37192"
       cy="630.65021"
       fx="464.37192"
       fy="630.65021"
       r="18.836035" />
    <linearGradient
       id="linearGradient8324-2">
      <stop
         style="stop-color:#ffffff;stop-opacity:1;"
         offset="0"
         id="stop8326-8" />
      <stop
         style="stop-color:#cbcbcb;stop-opacity:1;"
         offset="1"
         id="stop8328-1" />
    </linearGradient>
    <radialGradient
       inkscape:collect="always"
       xlink:href="#linearGradient8324"
       id="radialGradient8741"
       gradientUnits="userSpaceOnUse"
       gradientTransform="matrix(1.0176252,0.43894684,-0.41481084,0.9616699,408.32913,-105.74379)"
       cx="464.37192"
       cy="630.65021"
       fx="464.37192"
       fy="630.65021"
       r="18.836035" />
    <linearGradient
       id="linearGradient8324">
      <stop
         style="stop-color:#ffffff;stop-opacity:1;"
         offset="0"
         id="stop8326" />
      <stop
         style="stop-color:#cbcbcb;stop-opacity:1;"
         offset="1"
         id="stop8328" />
    </linearGradient>
    <radialGradient
       inkscape:collect="always"
       xlink:href="#linearGradient8324-2-6"
       id="radialGradient8743"
       gradientUnits="userSpaceOnUse"
       gradientTransform="matrix(-0.74993531,0.63459432,0.60391531,0.77182863,596.16697,-74.230708)"
       cx="464.37192"
       cy="630.65021"
       fx="464.37192"
       fy="630.65021"
       r="18.836035" />
    <linearGradient
       id="linearGradient8324-2-6">
      <stop
         style="stop-color:#ffffff;stop-opacity:1;"
         offset="0"
         id="stop8326-8-7" />
      <stop
         style="stop-color:#cbcbcb;stop-opacity:1;"
         offset="1"
         id="stop8328-1-7" />
    </linearGradient>
    <radialGradient
       inkscape:collect="always"
       xlink:href="#linearGradient6981-7"
       id="radialGradient8745"
       gradientUnits="userSpaceOnUse"
       gradientTransform="matrix(1.0631089,-2.4336184,3.9308711,1.7171731,-2049.263,625.49163)"
       cx="368.22021"
       cy="580.65363"
       fx="368.22021"
       fy="580.65363"
       r="2.022768" />
  </defs>
  <sodipodi:namedview
     id="base"
     pagecolor="#ffffff"
     bordercolor="#666666"
     borderopacity="1.0"
     inkscape:pageopacity="0.0"
     inkscape:pageshadow="2"
     inkscape:zoom="4.3083333"
     inkscape:cx="-2.7369439"
     inkscape:cy="30"
     inkscape:document-units="px"
     inkscape:current-layer="layer1"
     showgrid="false"
     inkscape:window-width="1366"
     inkscape:window-height="706"
     inkscape:window-x="-8"
     inkscape:window-y="-8"
     inkscape:window-maximized="1" />
  <metadata
     id="metadata8946">
    <rdf:RDF>
      <cc:Work
         rdf:about="">
        <dc:format>image/svg+xml</dc:format>
        <dc:type
           rdf:resource="http://purl.org/dc/dcmitype/StillImage" />
        <dc:title></dc:title>
      </cc:Work>
    </rdf:RDF>
  </metadata>
  <g
     inkscape:label="Layer 1"
     inkscape:groupmode="layer"
     id="layer1"
     transform="translate(0,-992.36218)">
    <g
       id="g8411"
       transform="matrix(1.025099,0,0,1.0406955,-612.9987,328.55625)">
      <g
         id="g8547"
         transform="translate(-5.7415917,-56.974256)">
        <path
           style="fill:url(#radialGradient8715);fill-opacity:1;stroke:#ffffff;stroke-width:1.20605028;stroke-linecap:butt;stroke-linejoin:miter;stroke-miterlimit:4;stroke-opacity:0.35638296;stroke-dasharray:none"
           d="m 632.91406,723.16607 c -2.56778,0.0331 -12.37354,-2.08451 -14.2044,-0.25365 -0.91793,0.91793 1.97605,2.16932 -0.5073,2.79015 -2.49804,0.62451 -5.4193,-0.0805 -7.60951,1.01461 -0.29092,0.14546 -1.07085,1.94456 -1.5219,2.28284 -0.77484,0.58114 -1.83862,1.07768 -2.5365,1.77556 -0.76745,0.76745 0.76095,2.10619 0.76095,2.5365 0,1.11427 -1.94686,3.72242 -2.79015,4.5657 -0.37399,0.37399 0,3.56852 0,4.31205 0,0.47443 -0.30824,2.48192 0,2.79015 0.80039,0.80039 2.03023,1.77862 2.5365,3.29745 0.32309,0.96926 0.0906,1.77556 0.5073,1.77556 2.26171,0 8.77506,-0.305 9.89236,0.25365 1.41928,0.70964 5.10942,1.819 6.5949,1.5219 2.56785,-0.51357 4.85799,-1.65839 7.35586,-2.28285 1.98866,-0.49717 4.47715,-0.0826 6.34125,-1.01461 0.17873,-0.0894 3.53529,-2.26704 3.5511,-2.28284 0.22226,-0.22227 0.96838,-1.07209 1.26825,-1.52191 0.0445,-0.0668 -0.0341,-1.01459 0,-1.01459 0.34313,0 3.43888,-0.39509 4.31205,-1.26826 0.49688,-0.49687 0.91378,-1.82676 1.5219,-2.28285 0.71892,-0.53919 1.61124,-0.43232 2.0292,-1.26825 0.52625,-1.05248 -0.0385,-2.85917 0.25365,-3.29745 3.80276,-5.70413 -2.11145,-7.14333 -5.5803,-8.87775 -1.64274,-0.82137 -4.28833,2.05292 -5.83395,0.5073 0,0 -2.79457,-0.4546 -2.0292,-0.5073 -0.76564,0 0.43115,-1.94045 -0.25365,-2.28285 -1.72437,-0.86219 -2.33439,-0.57865 -4.05841,-1.26826 z"
           id="path8033"
           inkscape:connector-curvature="0"
           sodipodi:nodetypes="csssssssssssssssscssssssccsc" />
        <g
           transform="matrix(0.57430966,0,0,0.57430966,415.78956,389.82403)"
           id="g8195"
           style="fill:url(#radialGradient8725);fill-opacity:1">
          <path
             sodipodi:nodetypes="csc"
             inkscape:connector-curvature="0"
             inkscape:original-d="m 366.57855,623.70491 c -1.11051,-1.70494 1.17817,-5.71794 -1.76665,-10.59986 -2.4277,-4.02464 3.60828,-5.44989 1.76665,-9.71654"
             inkscape:path-effect="#path-effect8065"
             id="path8063"
             d="m 362.38892,626.43382 8.37926,-5.45782 c 0.32137,1.27294 0.39365,1.53012 0.0733,1.12211 -0.18538,-0.51833 -0.28069,-1.33483 -0.43017,-2.35786 -0.40025,-2.94951 -1.6191,-5.74395 -3.49769,-7.90299 -0.35073,-0.2635 -0.76223,-0.58498 -0.82937,-0.89841 0,0 0,0 0,0 -0.13625,-0.42733 0.1181,-1.09463 0.41309,-1.88567 0.32977,-0.78879 0.72459,-1.71544 0.86271,-2.70239 0.14207,-1.14283 -0.20747,-2.18455 -0.78152,-2.96228 0.17221,0.95118 -0.002,1.9009 -0.46251,2.5422 -0.40428,0.61927 -1.01978,1.09129 -1.6625,1.69118 -0.64369,0.54934 -1.35115,1.25899 -1.89234,2.41715 0,0 0,0 -10e-6,0 -0.51886,1.45526 -0.44318,3.03419 0.14897,4.3338 0.45673,1.71246 0.20636,3.5107 -0.35531,5.0796 -0.20716,0.59164 -0.48581,1.3842 -0.70009,2.48131 -0.34116,0.75605 -0.22263,2.25158 0.73416,4.50007 z"
             style="fill:url(#radialGradient8717);fill-opacity:1;fill-rule:evenodd;stroke:none" />
          <path
             sodipodi:nodetypes="csc"
             inkscape:connector-curvature="0"
             inkscape:original-d="m 381.81502,620.43582 c -0.36154,-4.53798 -8.34741,-8.24928 -7.21426,-11.99691 0.60526,-2.00176 -1.36708,-4.244 -2.07133,-8.20596"
             inkscape:path-effect="#path-effect8065-0"
             id="path8063-8"
             d="m 376.83081,620.83291 9.96842,-0.79418 c -0.64228,-2.63617 -1.80706,-4.35032 -3.04852,-5.39057 -1.3082,-1.2252 -2.573,-2.08292 -3.71134,-2.8218 -1.07671,-0.74958 -2.02889,-1.2773 -2.71964,-1.90401 -0.39119,-0.43726 -0.92067,-0.7392 -0.93939,-0.94536 0.16799,-2.03464 -0.57978,-3.34223 -1.29455,-4.30447 -0.9506,-1.45041 -1.89749,-2.83577 -2.55636,-4.43957 -0.0658,1.73261 0.22461,3.52666 0.4971,5.23654 0.12175,1.19917 0.29744,2.24753 -0.20535,2.43134 0,0 0,0 0,0 -0.59272,1.69221 -0.40752,3.44795 0.25729,4.68943 0.65463,1.5121 1.49654,2.7991 2.17692,3.86535 0,0 0,0 0,0 0.75426,1.21699 1.42318,2.29015 1.74574,3.24394 0.20176,0.88815 0.28067,1.36848 -0.17032,1.13336 z"
             style="fill:url(#radialGradient8719);fill-opacity:1;fill-rule:evenodd;stroke:none" />
          <path
             sodipodi:nodetypes="csc"
             inkscape:connector-curvature="0"
             inkscape:original-d="m 396.06723,611.67134 c -1.82903,-3.11328 -7.09298,-6.27742 -11.0367,-5.55607 -2.05713,0.37627 -4.90773,-4.40629 -7.81204,-7.19161"
             inkscape:path-effect="#path-effect8065-0-2"
             id="path8063-8-7"
             d="m 391.75616,614.20406 8.62214,-5.06544 c -2.20649,-2.67482 -4.80604,-4.15603 -7.31175,-4.9072 0,0 0,0 0,0 -2.51677,-0.95715 -5.61503,-1.25335 -8.44592,-0.35713 0.5085,0.25312 0.34278,0.18456 -0.15324,0.13622 0,0 0,0 0,0 -0.63244,-0.21528 -1.30389,-0.67608 -2.02528,-1.19584 -1.69306,-1.23272 -3.37925,-2.74057 -5.22362,-3.89101 1.22655,1.79466 2.08726,3.72687 3.2238,5.67179 0.45501,0.80134 0.99445,1.65098 1.79125,2.47805 0.48644,0.66817 1.50225,1.24841 3.20689,1.28275 1.47704,0.10825 2.83199,1.21432 4.1768,2.32297 0,0 0,0 0,0 1.25976,1.26321 2.18226,2.51764 2.13893,3.52484 z"
             style="fill:url(#radialGradient8721);fill-opacity:1;fill-rule:evenodd;stroke:none" />
          <path
             sodipodi:nodetypes="csc"
             inkscape:connector-curvature="0"
             inkscape:original-d="m 404.70428,598.07144 c -3.51607,-3.04993 -9.48356,1.68698 -12.51505,-0.72637 -4.10543,-3.2683 -6.53246,-0.90999 -10.49763,-1.5959"
             inkscape:path-effect="#path-effect8065-0-2-4"
             id="path8063-8-7-0"
             d="m 401.42799,601.84847 6.55258,-7.55406 c -2.15556,-1.40552 -4.30446,-1.84968 -6.2005,-1.60219 -1.8109,0.24682 -3.18463,0.75283 -4.27767,1.26273 0,0 0,0 0,0 -1.13319,0.47068 -1.98278,0.95224 -2.73139,1.20789 -0.53868,0.1384 -0.983,0.4172 -1.15841,0.39428 -2.14508,-1.19814 -4.59971,-1.57135 -6.78889,-1.06513 -1.82436,0.46071 -3.35631,1.1961 -5.13211,1.25718 1.6521,0.65405 3.61192,0.66044 5.26032,0.91629 1.62838,0.28103 2.96713,1.28388 3.81394,2.46756 0,0 0,0 0,0 1.33455,1.17915 2.93302,1.76699 4.32147,1.79975 1.50754,0.13196 2.86538,0.0598 3.94034,0.0513 0,0 0,0 0,0 1.16463,0.02 2.07697,0.0509 2.57579,0.34492 0.2787,0.29197 0.33694,0.49963 -0.17547,0.51943 z"
             style="fill:url(#radialGradient8723);fill-opacity:1;fill-rule:evenodd;stroke:none" />
        </g>
        <g
           transform="matrix(0.57430966,0,0,0.57430966,415.78956,389.82403)"
           id="g8225"
           style="fill:url(#radialGradient8735);fill-opacity:1">
          <path
             inkscape:path-effect="#path-effect8065-1"
             inkscape:original-d="m 367.75829,581.57225 c -0.0167,2.19834 0.14679,0.73607 4.94684,3.59804 3.95715,2.3594 1.82361,3.9773 5.36212,6.77972"
             sodipodi:nodetypes="csc"
             inkscape:connector-curvature="0"
             id="path8063-2"
             d="m 370.25822,581.59124 -4.99986,-0.038 c -0.0223,0.17893 0.0598,0.89523 0.43887,1.97954 0.77457,1.14281 1.44412,1.63156 1.88017,1.61872 1.54648,0.3706 3.01515,0.71436 4.3955,1.24686 0,0 0,0 0,0 0.73949,0.29379 1.42632,0.59005 1.94953,1.05128 0.35276,0.27981 0.65608,0.71514 0.95083,1.20192 0.79241,1.3922 1.88707,2.56856 3.19399,3.29843 -1.00985,-1.10496 -1.58602,-2.44726 -1.85415,-3.81355 -0.13022,-0.61859 -0.32985,-1.27077 -0.70597,-1.92431 -0.55259,-0.91639 -1.30795,-1.66861 -2.06977,-2.26995 0,0 0,0 0,0 -1.34074,-1.08991 -2.78735,-1.99788 -4.1639,-2.8489 0,0 0,0 0,0 -0.0322,-0.20853 0.14395,0.0201 0.72767,0.69271 0.10411,0.40682 0.27385,0.35744 0.25709,-0.19477 z"
             style="fill:url(#radialGradient8727);fill-opacity:1;fill-rule:evenodd;stroke:none" />
          <path
             inkscape:path-effect="#path-effect8065-0-0"
             inkscape:original-d="m 350.23815,586.93157 c 0.12268,3.63769 5.83485,1.80568 9.12568,4.57704 1.55037,1.30565 7.51948,-1.54082 10.34478,3.11875"
             sodipodi:nodetypes="csc"
             inkscape:connector-curvature="0"
             id="path8063-8-9"
             d="m 352.73673,586.84731 -4.99716,0.16852 c 0.13498,1.50534 0.96789,2.82785 2.30794,3.67703 1.27059,0.61952 2.36308,0.77083 3.20679,0.79062 2.1259,0.24104 4.00514,0.10694 5.28475,1.00451 1.1298,0.66426 2.0835,0.62984 2.7114,0.46497 0,0 0,0 0,0 0.9944,-0.11857 1.90581,-0.3089 2.79525,-0.39817 0.9911,-0.0935 1.98228,-0.1032 2.92131,0.16631 1.04514,0.2896 2.02381,0.97542 2.7416,1.90626 -0.49349,-1.06684 -1.32758,-2.02372 -2.43895,-2.63265 -0.98571,-0.53244 -2.10538,-0.80073 -3.19911,-0.92897 -0.99213,-0.12068 -1.95981,-0.14108 -2.84708,-0.23573 0,0 0,0 0,0 -0.67145,-0.14836 -1.17073,-0.12799 -1.03486,-0.30078 -1.85872,-1.74536 -4.30846,-2.41744 -6.21705,-2.92279 0,0 0,0 0,0 -0.78972,-0.28239 -1.38072,-0.44595 -1.51303,-0.71598 0.0923,0.058 0.19302,-0.0719 0.2782,-0.0431 z"
             style="fill:url(#radialGradient8729);fill-opacity:1;fill-rule:evenodd;stroke:none" />
          <path
             inkscape:path-effect="#path-effect8065-0-2-6"
             inkscape:original-d="m 336.91421,596.62696 c 0,0 13.82232,-0.50201 17.21417,1.01011 4.32864,1.92974 7.23361,-1.55148 10.18689,0.55707"
             sodipodi:nodetypes="csc"
             inkscape:connector-curvature="0"
             id="path8063-8-7-3"
             d="m 336.89326,594.12732 0.042,4.99928 c 2.43748,-0.24086 4.87771,-0.48172 7.32068,-0.72258 1.89027,-0.14039 3.76491,-0.24943 5.63512,-0.2466 0,0 0,0 0,0 1.43028,0.0321 2.73569,-0.0435 3.85327,0.34108 2.11957,0.70531 4.2203,0.37214 6.08653,-0.23226 0.76408,-0.2406 1.49528,-0.49479 2.2554,-0.56345 0.74897,-0.0713 1.54234,0.0887 2.22899,0.49135 -0.6038,-0.51869 -1.39218,-0.84713 -2.22882,-0.91908 -0.82733,-0.0693 -1.65696,0.0504 -2.44216,0.1558 -1.86147,0.22821 -3.76286,0.19471 -5.13188,-0.65522 0,0 0,0 0,0 -1.44273,-0.75688 -3.01446,-1.02026 -4.3752,-1.24923 0,0 0,0 0,0 -1.95227,-0.35477 -3.91801,-0.59636 -5.86639,-0.80003 -2.45644,-0.19969 -4.91563,-0.39937 -7.37756,-0.59906 z"
             style="fill:url(#radialGradient8731);fill-opacity:1;fill-rule:evenodd;stroke:none" />
          <path
             inkscape:path-effect="#path-effect8065-0-2-4-7"
             inkscape:original-d="m 332.08981,606.37981 c 4.5023,1.09839 13.50154,-2.84365 17.28772,-2.07707 5.12748,1.03815 7.58645,-1.10626 11.44618,-2.16512"
             sodipodi:nodetypes="csc"
             inkscape:connector-curvature="0"
             id="path8063-8-7-0-8"
             d="m 332.68234,603.95104 -1.18506,4.85754 c 1.8857,0.29267 3.53755,0.0717 4.94285,-0.26433 1.74072,-0.37483 3.37191,-0.88364 4.94864,-1.39036 0,0 0,0 0,0 1.55114,-0.49425 3.04566,-1.00154 4.54382,-1.39204 1.18703,-0.2816 2.25924,-0.58816 3.24486,-0.47089 2.24909,0.27228 4.51331,-0.0193 6.53895,-0.83148 1.77482,-0.71663 3.35768,-1.67798 5.10731,-2.32186 -1.83326,0.33903 -3.61414,1.03282 -5.38805,1.41602 -1.97168,0.42667 -4.00548,0.31906 -5.85805,-0.23912 0,0 0,0 0,0 -1.4237,-0.37054 -2.8491,-0.28796 -4.08587,-0.15968 -1.66832,0.14496 -3.29679,0.40013 -4.87608,0.62268 -1.6318,0.22796 -3.21736,0.44322 -4.7398,0.49993 -1.29809,0.0215 -2.42999,0.0272 -3.19352,-0.32641 z"
             style="fill:url(#radialGradient8733);fill-opacity:1;fill-rule:evenodd;stroke:none" />
        </g>
        <path
           style="fill:url(#radialGradient8737);fill-opacity:1;stroke:#666666;stroke-width:0.5;stroke-miterlimit:4;stroke-dasharray:none"
           d="m 637.73342,727.22448 c 1.4671,-2.52659 0.44325,-6.02356 2.0292,-7.60951 0.8513,-0.8513 3.11782,-0.68693 3.29745,1.0146 0.98402,7.35375 -13.82668,9.43365 -16.84891,14.34228 -1.24869,2.0281 12.84618,-6.37774 11.52226,-7.74737 z"
           id="path8274"
           inkscape:connector-curvature="0"
           sodipodi:nodetypes="cscsc" />
        <path
           style="opacity:0.9;fill:url(#radialGradient8739);fill-opacity:1;stroke:#ffffff;stroke-width:0.51162887"
           d="m 638.60922,704.26725 c -0.75587,-2.83303 4.28184,-0.0573 2.93276,1.23897 -0.57923,0.55655 -1.57908,0.50301 -2.24586,1.1437 -3.03355,2.91477 0.30225,7.85829 -6.69444,11.09776 -0.554,0.2565 -2.74984,-0.12608 -2.97214,-0.38975 -0.25193,-0.29885 -0.92116,-0.19675 -1.1731,-0.49559 -0.69474,-0.82408 -0.93642,-2.00671 -1.47225,-2.64229 -0.53316,-0.63244 0.4699,-6.38612 -0.26165,-7.25387 -0.61691,-0.73177 -2.54533,-4.68278 -1.48398,-6.68793 0.85747,-1.61997 1.3038,-2.67267 2.36402,-3.69136 1.67668,-1.61104 1.99016,4.60055 2.16898,4.81267 1.80119,2.13657 5.6458,3.35467 8.83766,2.86769 z"
           id="path8322-6"
           inkscape:connector-curvature="0" />
        <path
           style="opacity:0.9;fill:url(#radialGradient8741);fill-opacity:1;stroke:#ffffff;stroke-width:0.51162887"
           d="m 615.30673,702.85012 c 1.00572,-2.95929 -4.85058,-0.33125 -3.3895,1.12983 0.62732,0.62732 1.76349,0.63366 2.48563,1.3558 3.28539,3.28539 -0.7557,8.32186 7.00497,12.20219 0.61449,0.30725 3.12366,0.0399 3.3895,-0.22597 0.30128,-0.30129 1.0545,-0.15064 1.35579,-0.45193 0.83082,-0.83082 1.16695,-2.07082 1.80773,-2.7116 0.63761,-0.6376 -0.19694,-6.80801 0.6779,-7.68286 0.73775,-0.73775 3.13137,-4.80962 2.0337,-7.00496 -0.88681,-1.77362 -1.33741,-2.91918 -2.48563,-4.06739 -1.81589,-1.81589 -2.49775,4.75741 -2.7116,4.97126 -2.15403,2.15403 -6.57601,3.20413 -10.16849,2.48563 z"
           id="path8322"
           inkscape:connector-curvature="0" />
        <path
           style="opacity:0.9;fill:url(#radialGradient8743);fill-opacity:1;stroke:#ffffff;stroke-width:0.51162887"
           d="m 631.70869,704.72824 c -1.62833,-2.43844 4.03506,-1.43381 3.17555,0.22799 -0.36903,0.7135 -1.3328,0.98496 -1.75761,1.80631 -1.93269,3.73671 2.81798,7.34187 -2.7619,12.66284 -0.44181,0.42132 -2.64384,0.76661 -2.93923,0.58862 -0.33479,-0.20174 -0.93543,0.11056 -1.27022,-0.0912 -0.9232,-0.5563 -1.53302,-1.598 -2.24506,-2.02706 -0.70849,-0.42693 -1.61268,-6.19697 -2.5848,-6.78276 -0.81978,-0.49398 -3.91834,-3.61299 -3.55961,-5.85318 0.28981,-1.80985 0.37318,-2.95022 1.04865,-4.25617 1.06821,-2.06534 3.36627,3.71402 3.60389,3.85721 2.39353,1.44231 6.42559,1.35678 9.29034,-0.1326 z"
           id="path8322-6-9"
           inkscape:connector-curvature="0" />
        <path
           inkscape:connector-curvature="0"
           id="path8460"
           d="m 625.8335,719.98699 c -3.24931,4.95254 -2.40751,17.10355 0.88332,15.45813 1.55409,-0.77704 -0.28539,-7.79363 -0.88332,-8.39155 -1.05961,-1.05962 1.81185,-3.88453 1.32498,-4.85827 -0.3839,-0.76781 -0.88332,-1.47221 -1.32498,-2.20831 z"
           style="fill:url(#radialGradient8745);fill-opacity:1;stroke:#4d4d4d;stroke-width:0.5;stroke-linecap:butt;stroke-linejoin:miter;stroke-miterlimit:4;stroke-opacity:1;stroke-dasharray:none" />
      </g>
      <path
         sodipodi:type="arc"
         style="opacity:0.9;fill:#800080;stroke:none"
         id="path8597"
         sodipodi:cx="507.0267"
         sodipodi:cy="583.73462"
         sodipodi:rx="1.3249828"
         sodipodi:ry="3.7541177"
         d="m 508.35169,583.73462 c 0,2.07334 -0.59322,3.75412 -1.32499,3.75412 -0.73176,0 -1.32498,-1.68078 -1.32498,-3.75412 0,-2.07334 0.59322,-3.75412 1.32498,-3.75412 0.73177,0 1.32499,1.68078 1.32499,3.75412 z"
         transform="matrix(1,0,0,0.54285826,112.18187,340.99801)" />
      <path
         transform="matrix(1,0,0,0.54285826,116.15683,340.87812)"
         sodipodi:type="arc"
         style="opacity:0.9;fill:#800080;stroke:none"
         id="path8597-9"
         sodipodi:cx="507.0267"
         sodipodi:cy="583.73462"
         sodipodi:rx="1.3249828"
         sodipodi:ry="3.7541177"
         d="m 508.35169,583.73462 c 0,2.07334 -0.59322,3.75412 -1.32499,3.75412 -0.73176,0 -1.32498,-1.68078 -1.32498,-3.75412 0,-2.07334 0.59322,-3.75412 1.32498,-3.75412 0.73177,0 1.32499,1.68078 1.32499,3.75412 z" />
      <path
         sodipodi:type="arc"
         style="opacity:0.9;fill:#ff0000;fill-opacity:1;stroke:none"
         id="path8617"
         sodipodi:cx="507.91003"
         sodipodi:cy="585.50122"
         sodipodi:rx="0.88332182"
         sodipodi:ry="1.1041522"
         d="m 508.79336,585.50122 c 0,0.60981 -0.39548,1.10415 -0.88333,1.10415 -0.48784,0 -0.88332,-0.49434 -0.88332,-1.10415 0,-0.60981 0.39548,-1.10415 0.88332,-1.10415 0.48785,0 0.88333,0.49434 0.88333,1.10415 z"
         transform="translate(111.29855,71.769897)" />
      <path
         transform="translate(115.2735,71.769921)"
         sodipodi:type="arc"
         style="opacity:0.9;fill:#ff0000;fill-opacity:1;stroke:none"
         id="path8617-7"
         sodipodi:cx="507.91003"
         sodipodi:cy="585.50122"
         sodipodi:rx="0.88332182"
         sodipodi:ry="1.1041522"
         d="m 508.79336,585.50122 c 0,0.60981 -0.39548,1.10415 -0.88333,1.10415 -0.48784,0 -0.88332,-0.49434 -0.88332,-1.10415 0,-0.60981 0.39548,-1.10415 0.88332,-1.10415 0.48785,0 0.88333,0.49434 0.88333,1.10415 z" />
    </g>
  </g>
</svg>
