<?xml version="1.0" encoding="UTF-8" standalone="no"?>
<!-- Generator: Adobe Illustrator 13.0.1, SVG Export Plug-In . SVG Version: 6.00 Build 14948)  -->

<svg
   xmlns="http://www.w3.org/2000/svg"
   xmlns:sodipodi="http://sodipodi.sourceforge.net/DTD/sodipodi-0.dtd"
   xmlns:inkscape="http://www.inkscape.org/namespaces/inkscape"
   version="1.1"
   id="svg2"
   inkscape:version="0.48.2 r9819"
   sodipodi:docname="baby whatnot slice setup.svg"
   x="0px"
   y="0px"
   width="75"
   height="125">
<g id="avatar">
<g transform="translate(7691.5,7891.5)">
<g
   id="switch3"
   transform="translate(-8153.6142,-8208.9998)">
	<g
   id="g7">
		<defs
   id="defs9">
			
			<inkscape:path-effect
   effect="spiro"
   id="path-effect3886"
   is_visible="true" />
			<inkscape:path-effect
   effect="spiro"
   id="path-effect3882"
   is_visible="true" />
			<inkscape:path-effect
   effect="spiro"
   id="path-effect3087"
   is_visible="true" />
			<inkscape:path-effect
   effect="spiro"
   id="path-effect3083"
   is_visible="true" />
			<inkscape:path-effect
   effect="spiro"
   id="path-effect3038"
   is_visible="true" />
			<inkscape:path-effect
   effect="spiro"
   id="path-effect3026"
   is_visible="true" />
			<inkscape:path-effect
   effect="spiro"
   id="path-effect3038-1"
   is_visible="true" />
			<inkscape:path-effect
   effect="spiro"
   id="path-effect3087-0"
   is_visible="true" />
		</defs>
		
		<g
   id="g21">
			<path
   d="m 477.423,405.155 c 5.509,1.811 8.003,9.275 5.573,16.674 -2.434,7.397 -8.871,11.926 -14.378,10.116 -5.509,-1.811 -8.004,-9.276 -5.573,-16.675 2.432,-7.396 8.869,-11.925 14.378,-10.115 z"
   id="path28"
   style="fill:url(#SVGID_1_)"
   inkscape:connector-curvature="0" />
			<g
   id="g30">
				
				<path
   d="m 515.737,394.771 c 4.009,-4.193 11.819,-3.228 17.448,2.152 5.628,5.384 6.94,13.143 2.936,17.334 -4.007,4.192 -11.819,3.227 -17.449,-2.153 -5.626,-5.381 -6.941,-13.141 -2.935,-17.333 z"
   id="path37"
   style="fill:url(#SVGID_2_)"
   inkscape:connector-curvature="0" />
				
				<path
   d="m 528.666,423.238 c -4.872,3.145 -12.245,0.39 -16.468,-6.152 -4.224,-6.544 -3.697,-14.396 1.175,-17.541 4.873,-3.145 12.247,-0.39 16.47,6.152 4.221,6.543 3.695,14.397 -1.177,17.541 z"
   id="path50"
   style="fill:url(#SVGID_3_)"
   inkscape:connector-curvature="0" />
				
				<path
   d="m 510.336,400.761 c 5.702,-1.046 11.466,4.315 12.869,11.975 1.403,7.661 -2.083,14.718 -7.786,15.763 -5.705,1.044 -11.466,-4.316 -12.87,-11.977 -1.404,-7.662 2.082,-14.717 7.787,-15.761 z"
   id="path57"
   style="fill:url(#SVGID_4_)"
   inkscape:connector-curvature="0" />
				
				<path
   d="m 506.605,403.845 c 5.701,1.059 9.17,8.123 7.75,15.779 -1.424,7.656 -7.198,13.005 -12.897,11.948 -5.702,-1.061 -9.172,-8.127 -7.75,-15.782 1.421,-7.654 7.197,-13.004 12.897,-11.945 z"
   id="path70"
   style="fill:url(#SVGID_5_)"
   inkscape:connector-curvature="0" />
				
				<path
   d="m 498.977,401.957 c 4.951,3.018 5.681,10.855 1.63,17.504 -4.052,6.65 -11.351,9.594 -16.303,6.578 -4.952,-3.019 -5.681,-10.856 -1.631,-17.505 4.054,-6.65 11.352,-9.594 16.304,-6.577 z"
   id="path77"
   style="fill:url(#SVGID_6_)"
   inkscape:connector-curvature="0" />
				
				<path
   d="m 494,397.179 c 4.033,4.167 2.768,11.935 -2.828,17.353 -5.596,5.417 -13.402,6.428 -17.435,2.261 -4.032,-4.165 -2.766,-11.934 2.828,-17.352 5.596,-5.417 13.403,-6.43 17.435,-2.262 z"
   id="path90"
   style="fill:url(#SVGID_7_)"
   inkscape:connector-curvature="0" />
				
				<path
   d="m 494.871,394.807 c 1.707,5.541 -2.941,11.894 -10.383,14.187 -7.443,2.292 -14.859,-0.343 -16.566,-5.885 -1.708,-5.54 2.941,-11.893 10.383,-14.185 7.442,-2.293 14.859,0.342 16.566,5.883 z"
   id="path97"
   style="fill:url(#SVGID_8_)"
   inkscape:connector-curvature="0" />
				
				<path
   d="m 495.327,393.731 c -1.556,5.584 -8.9,8.418 -16.4,6.326 -7.5,-2.092 -12.319,-8.314 -10.761,-13.9 1.557,-5.585 8.901,-8.419 16.4,-6.327 7.501,2.092 12.32,8.316 10.761,13.901 z"
   id="path110"
   style="fill:url(#SVGID_9_)"
   inkscape:connector-curvature="0" />
			</g>
			<g
   id="g112">
				
				<path
   d="m 516.598,377.88 c 4.082,-2.585 10.207,-0.237 13.68,5.243 3.472,5.482 2.977,12.023 -1.104,14.609 -4.082,2.585 -10.207,0.237 -13.68,-5.244 -3.473,-5.481 -2.977,-12.022 1.104,-14.608 z"
   id="path119"
   style="fill:url(#SVGID_10_)"
   inkscape:connector-curvature="0" />
				
				<path
   d="m 521.324,404.507 c -4.408,1.979 -10.137,-1.215 -12.795,-7.135 -2.658,-5.921 -1.238,-12.324 3.169,-14.304 4.408,-1.979 10.137,1.215 12.795,7.136 2.658,5.92 1.239,12.323 -3.169,14.303 z"
   id="path134"
   style="fill:url(#SVGID_11_)"
   inkscape:connector-curvature="0" />
				
				<path
   d="m 508.96,384.631 c 4.83,-0.146 8.904,4.994 9.1,11.48 0.195,6.487 -3.563,11.863 -8.393,12.009 -4.829,0.146 -8.903,-4.995 -9.099,-11.481 -0.196,-6.487 3.562,-11.864 8.392,-12.008 z"
   id="path141"
   style="fill:url(#SVGID_12_)"
   inkscape:connector-curvature="0" />
				
				<path
   d="m 505.682,385.887 c 4.564,1.587 6.536,7.843 4.405,13.973 -2.133,6.128 -7.562,9.811 -12.125,8.224 -4.564,-1.588 -6.537,-7.844 -4.404,-13.973 2.131,-6.13 7.56,-9.811 12.124,-8.224 z"
   id="path156"
   style="fill:url(#SVGID_13_)"
   inkscape:connector-curvature="0" />
				
				<path
   d="m 500.804,384.425 c 3.7,3.107 3.317,9.656 -0.854,14.626 -4.173,4.97 -10.556,6.479 -14.256,3.373 -3.701,-3.107 -3.319,-9.656 0.854,-14.626 4.172,-4.97 10.555,-6.479 14.256,-3.373 z"
   id="path163"
   style="fill:url(#SVGID_14_)"
   inkscape:connector-curvature="0" />
				
				<path
   d="m 497.301,381.637 c 2.584,4.083 0.237,10.207 -5.245,13.68 -5.482,3.472 -12.023,2.977 -14.609,-1.106 -2.584,-4.082 -0.237,-10.206 5.246,-13.68 5.481,-3.472 12.022,-2.977 14.608,1.106 z"
   id="path178"
   style="fill:url(#SVGID_15_)"
   inkscape:connector-curvature="0" />
				
				<path
   d="m 496.645,377.782 c 1.323,4.647 -2.664,9.856 -8.905,11.633 -6.241,1.777 -12.374,-0.551 -13.696,-5.197 -1.323,-4.647 2.664,-9.856 8.905,-11.633 6.24,-1.778 12.373,0.551 13.696,5.197 z"
   id="path185"
   style="fill:url(#SVGID_16_)"
   inkscape:connector-curvature="0" />
				
				<path
   d="m 496.251,373.776 c -0.21,4.826 -5.636,8.513 -12.119,8.231 -6.483,-0.283 -11.568,-4.425 -11.359,-9.253 0.21,-4.826 5.636,-8.513 12.119,-8.231 6.483,0.283 11.57,4.425 11.359,9.253 z"
   id="path200"
   style="fill:url(#SVGID_17_)"
   inkscape:connector-curvature="0" />
			</g>
			<g
   id="g202">
				
				<path
   d="m 486.534,416.465 c 4.095,4.106 2.946,11.891 -2.566,17.392 -5.514,5.498 -13.305,6.629 -17.399,2.525 -4.095,-4.106 -2.945,-11.895 2.567,-17.393 5.513,-5.5 13.304,-6.629 17.398,-2.524 z"
   id="path217"
   style="fill:url(#SVGID_18_)"
   inkscape:connector-curvature="0" />
				
				<path
   d="m 505.615,431.591 c 0.166,5.797 -6.009,10.675 -13.792,10.901 -7.785,0.221 -14.228,-4.299 -14.396,-10.093 -0.167,-5.797 6.01,-10.677 13.794,-10.9 7.783,-0.224 14.228,4.295 14.394,10.092 z"
   id="path224"
   style="fill:url(#SVGID_19_)"
   inkscape:connector-curvature="0" />
			</g>
			
			<path
   id="path5851-9"
   inkscape:connector-curvature="0"
   d="m 526.83806,370.063 c 0,0 9.139,4.352 10.099,9.521 0.961,5.17 -2.132,9.997 -5.798,11.029 -3.666,1.032 -9.939,-0.17 -11.371,-1.745 -1.434,-1.575 -4.428,-5.184 -4.413,-8.649 0.013,-3.466 1.53,-6.86 3.692,-7.963 2.163,-1.105 4.783,-2.336 7.791,-2.193 l 0,0 z"
   style="fill:url(#path5851-9_1_)" />
			<g
   id="g246">
				
				<path
   d="m 504.239,328.8682 c -1.215,4.534 -6.741,6.993 -12.343,5.493 -5.602,-1.501 -9.157,-6.394 -7.942,-10.929 1.214,-4.533 6.74,-6.993 12.342,-5.492 5.602,1.5 9.157,6.393 7.943,10.928 z"
   id="path267"
   style="fill:url(#SVGID_20_)"
   inkscape:connector-curvature="0" />
				
				<path
   id="path3047-27-8"
   sodipodi:nodetypes="ssssssss"
   inkscape:connector-curvature="0"
   d="m 494.587,326.674 c 16.787,-2.827 27.06,7.31 29.935,15.789 2.085,6.15 0.676,5.898 2.58,11.596 1.903,5.695 4.245,7.95 4.308,11.452 0.127,7.006 -5.51,18.828 -14.838,22.33 -9.329,3.503 -25.795,-2.88 -31.521,-8.425 -5.325,-5.158 -13.928,-11.771 -13.34,-27.552 2.617,-13.497 12.224,-23.394 22.876,-25.19 z"
   style="fill:url(#path3047-27-8_1_)" />
				<g
   id="g289">
					
					<path
   id="path5900"
   sodipodi:nodetypes="csccsc"
   inkscape:connector-curvature="0"
   d="m 499.344,366.274 c -3.713,-4.179 2.951,-15.052 6.492,-14.513 3.365,0.512 6.74,11.659 4.886,14.101 -1.369,1.803 -8.983,3.108 -11.378,0.412 z"
   style="fill:url(#path5900_2_)" />
					<path
   id="path6123"
   inkscape:connector-curvature="0"
   d="m 505.427,353.791 c 0,0 -6.271,4.923 -5.711,7.725 0.562,2.801 3.232,5.266 9.448,3.665 2.053,-1.867 -1.774,-8.87 -1.774,-8.87 l -1.963,-2.52 z"
   style="fill:#f9f9f9" />
					
					<path
   d="m 508.909,360.65 c 0.21,1.504 -0.84,2.894 -2.344,3.104 l 0,0 c -1.505,0.209 -2.895,-0.841 -3.104,-2.345 l 0,0 c -0.21,-1.504 0.84,-2.894 2.344,-3.103 l 0,0 c 1.505,-0.209 2.894,0.84 3.104,2.344 l 0,0 z"
   id="path327"
   style="fill:url(#SVGID_21_)"
   inkscape:connector-curvature="0" />
				</g>
				<g
   id="g329">
					
					<path
   id="path5900_1_"
   sodipodi:nodetypes="csccsc"
   inkscape:connector-curvature="0"
   d="m 518.454,362.268 c -2.191,-1.632 -3.953,-13.086 -1.8,-14.697 2.268,-1.695 10.916,6.113 9.872,11.235 -0.673,3.302 -6.454,4.668 -8.072,3.462 z"
   style="fill:url(#path5900_3_)" />
					<path
   id="path6123-0"
   sodipodi:nodetypes="csscc"
   inkscape:connector-curvature="0"
   d="m 517.547,349.833 c 0,0 -1.324,7.637 0.219,10.04 1.542,2.404 4.552,1.921 5.783,-0.567 0.661,-6.594 -2.269,-7.978 -2.269,-7.978 l -3.733,-1.495 z"
   style="fill:#f9f9f9" />
					
					<path
   d="m 524.02,356.777 c 0.209,1.504 -0.841,2.894 -2.345,3.104 l 0,0 c -1.504,0.209 -2.894,-0.84 -3.103,-2.345 l 0,0 c -0.21,-1.504 0.84,-2.894 2.344,-3.103 l 0,0 c 1.504,-0.209 2.894,0.84 3.104,2.344 l 0,0 z"
   id="path367"
   style="fill:url(#SVGID_22_)"
   inkscape:connector-curvature="0" />
				</g>
				
				<path
   d="m 483.485,343.555 c -0.248,4.688 -5.143,8.239 -10.934,7.934 -5.791,-0.307 -10.284,-4.354 -10.037,-9.043 0.248,-4.687 5.143,-8.239 10.934,-7.934 5.792,0.306 10.285,4.354 10.037,9.043 z"
   id="path388"
   style="fill:url(#SVGID_23_)"
   inkscape:connector-curvature="0" />
			</g>
			<path
   id="path5851"
   inkscape:connector-curvature="0"
   d="m 492.156,379.162 c 0,0 -7.618,6.665 -7.142,11.902 0.476,5.236 4.761,9.045 8.57,9.045 3.809,0 9.521,-2.856 10.473,-4.761 0.952,-1.904 2.856,-6.188 1.904,-9.521 -0.952,-3.332 -3.332,-6.188 -5.713,-6.665 -2.379,-0.475 -5.236,-0.952 -8.092,0 l 0,0 z"
   style="fill:url(#path5851_1_)" />
		</g>
	</g>
</g>
</g>
</g>
</svg>
