<?xml version="1.0" encoding="UTF-8" standalone="no"?>
<!-- Generator: Adobe Illustrator 13.0.1, SVG Export Plug-In . SVG Version: 6.00 Build 14948)  -->

<svg
   xmlns="http://www.w3.org/2000/svg"
   xmlns:sodipodi="http://sodipodi.sourceforge.net/DTD/sodipodi-0.dtd"
   xmlns:inkscape="http://www.inkscape.org/namespaces/inkscape"
   version="1.1"
   id="svg2"
   inkscape:version="0.48.2 r9819"
   sodipodi:docname="baby whatnot slice setup.svg"
   x="0px"
   y="0px"
   width="75"
   height="125">
<g id="avatar">
<g transform="translate(7691.5,7891.5)">
<g
   id="switch3"
   transform="translate(-8153.6142,-8208.9998)">
	<g
   id="g7">
		<defs
   id="defs9">
			
			<inkscape:path-effect
   effect="spiro"
   id="path-effect3886"
   is_visible="true" />
			<inkscape:path-effect
   effect="spiro"
   id="path-effect3882"
   is_visible="true" />
			<inkscape:path-effect
   effect="spiro"
   id="path-effect3087"
   is_visible="true" />
			<inkscape:path-effect
   effect="spiro"
   id="path-effect3083"
   is_visible="true" />
			<inkscape:path-effect
   effect="spiro"
   id="path-effect3038"
   is_visible="true" />
			<inkscape:path-effect
   effect="spiro"
   id="path-effect3026"
   is_visible="true" />
			<inkscape:path-effect
   effect="spiro"
   id="path-effect3038-1"
   is_visible="true" />
			<inkscape:path-effect
   effect="spiro"
   id="path-effect3087-0"
   is_visible="true" />
		</defs>
		
		<g
   id="g21">
			
				<radialGradient
   id="SVGID_1_"
   cx="438.7695"
   cy="445.12109"
   r="12.4312"
   gradientTransform="matrix(0.3123,-0.95,0.95,0.3123,-86.8732,696.3688)"
   gradientUnits="userSpaceOnUse">
				<stop
   offset="0"
   style="stop-color:#5CFFBA"
   id="stop24" />
				<stop
   offset="1"
   style="stop-color:#75BFA1"
   id="stop26" />
			</radialGradient>
			<path
   d="m 477.423,405.155 c 5.509,1.811 8.003,9.275 5.573,16.674 -2.434,7.397 -8.871,11.926 -14.378,10.116 -5.509,-1.811 -8.004,-9.276 -5.573,-16.675 2.432,-7.396 8.869,-11.925 14.378,-10.115 z"
   id="path28"
   style="fill:url(#SVGID_1_)"
   inkscape:connector-curvature="0" />
			<g
   id="g30">
				
					<radialGradient
   id="SVGID_2_"
   cx="400.5498"
   cy="490.9072"
   r="12.4309"
   gradientTransform="matrix(-0.7228,-0.6911,0.6911,-0.7228,476.181,1036.1628)"
   gradientUnits="userSpaceOnUse">
					<stop
   offset="0"
   style="stop-color:#5CFFBA"
   id="stop33" />
					<stop
   offset="1"
   style="stop-color:#75BFA1"
   id="stop35" />
				</radialGradient>
				<path
   d="m 515.737,394.771 c 4.009,-4.193 11.819,-3.228 17.448,2.152 5.628,5.384 6.94,13.143 2.936,17.334 -4.007,4.192 -11.819,3.227 -17.449,-2.153 -5.626,-5.381 -6.941,-13.141 -2.935,-17.333 z"
   id="path37"
   style="fill:url(#SVGID_2_)"
   inkscape:connector-curvature="0" />
				
					<radialGradient
   id="SVGID_3_"
   cx="456.70261"
   cy="350.418"
   r="12.4311"
   gradientTransform="matrix(0.5423,0.8402,-0.8402,0.5423,567.7714,-162.3616)"
   gradientUnits="userSpaceOnUse">
					<stop
   offset="0"
   style="stop-color:#7FD8FF"
   id="stop40" />
					<stop
   offset="0.2263"
   style="stop-color:#7AD5FF"
   id="stop42" />
					<stop
   offset="0.5102"
   style="stop-color:#6ACDFF"
   id="stop44" />
					<stop
   offset="0.8234"
   style="stop-color:#51BFFF"
   id="stop46" />
					<stop
   offset="1"
   style="stop-color:#3FB6FF"
   id="stop48" />
				</radialGradient>
				<path
   d="m 528.666,423.238 c -4.872,3.145 -12.245,0.39 -16.468,-6.152 -4.224,-6.544 -3.697,-14.396 1.175,-17.541 4.873,-3.145 12.247,-0.39 16.47,6.152 4.221,6.543 3.695,14.397 -1.177,17.541 z"
   id="path50"
   style="fill:url(#SVGID_3_)"
   inkscape:connector-curvature="0" />
				
					<radialGradient
   id="SVGID_4_"
   cx="437.0405"
   cy="504.17969"
   r="12.4308"
   gradientTransform="matrix(-0.1803,-0.9836,0.9836,-0.1803,95.7645,935.407)"
   gradientUnits="userSpaceOnUse">
					<stop
   offset="0"
   style="stop-color:#5CFFBA"
   id="stop53" />
					<stop
   offset="1"
   style="stop-color:#75BFA1"
   id="stop55" />
				</radialGradient>
				<path
   d="m 510.336,400.761 c 5.702,-1.046 11.466,4.315 12.869,11.975 1.403,7.661 -2.083,14.718 -7.786,15.763 -5.705,1.044 -11.466,-4.316 -12.87,-11.977 -1.404,-7.662 2.082,-14.717 7.787,-15.761 z"
   id="path57"
   style="fill:url(#SVGID_4_)"
   inkscape:connector-curvature="0" />
				
					<radialGradient
   id="SVGID_5_"
   cx="432.18649"
   cy="465.54489"
   r="12.4313"
   gradientTransform="matrix(0.1826,-0.9832,0.9832,0.1826,-32.6097,757.6253)"
   gradientUnits="userSpaceOnUse">
					<stop
   offset="0"
   style="stop-color:#7FD8FF"
   id="stop60" />
					<stop
   offset="0.2263"
   style="stop-color:#7AD5FF"
   id="stop62" />
					<stop
   offset="0.5102"
   style="stop-color:#6ACDFF"
   id="stop64" />
					<stop
   offset="0.8234"
   style="stop-color:#51BFFF"
   id="stop66" />
					<stop
   offset="1"
   style="stop-color:#3FB6FF"
   id="stop68" />
				</radialGradient>
				<path
   d="m 506.605,403.845 c 5.701,1.059 9.17,8.123 7.75,15.779 -1.424,7.656 -7.198,13.005 -12.897,11.948 -5.702,-1.061 -9.172,-8.127 -7.75,-15.782 1.421,-7.654 7.197,-13.004 12.897,-11.945 z"
   id="path70"
   style="fill:url(#SVGID_5_)"
   inkscape:connector-curvature="0" />
				
					<radialGradient
   id="SVGID_6_"
   cx="441.75"
   cy="476.08401"
   r="12.4315"
   gradientTransform="matrix(0.5204,-0.8539,0.8539,0.5204,-144.7764,543.4532)"
   gradientUnits="userSpaceOnUse">
					<stop
   offset="0"
   style="stop-color:#5CFFBA"
   id="stop73" />
					<stop
   offset="1"
   style="stop-color:#75BFA1"
   id="stop75" />
				</radialGradient>
				<path
   d="m 498.977,401.957 c 4.951,3.018 5.681,10.855 1.63,17.504 -4.052,6.65 -11.351,9.594 -16.303,6.578 -4.952,-3.019 -5.681,-10.856 -1.631,-17.505 4.054,-6.65 11.352,-9.594 16.304,-6.577 z"
   id="path77"
   style="fill:url(#SVGID_6_)"
   inkscape:connector-curvature="0" />
				
					<radialGradient
   id="SVGID_7_"
   cx="478.35059"
   cy="438.4404"
   r="12.4318"
   gradientTransform="matrix(0.7185,-0.6955,0.6955,0.7185,-164.7613,424.6597)"
   gradientUnits="userSpaceOnUse">
					<stop
   offset="0"
   style="stop-color:#7FD8FF"
   id="stop80" />
					<stop
   offset="0.2263"
   style="stop-color:#7AD5FF"
   id="stop82" />
					<stop
   offset="0.5102"
   style="stop-color:#6ACDFF"
   id="stop84" />
					<stop
   offset="0.8234"
   style="stop-color:#51BFFF"
   id="stop86" />
					<stop
   offset="1"
   style="stop-color:#3FB6FF"
   id="stop88" />
				</radialGradient>
				<path
   d="m 494,397.179 c 4.033,4.167 2.768,11.935 -2.828,17.353 -5.596,5.417 -13.402,6.428 -17.435,2.261 -4.032,-4.165 -2.766,-11.934 2.828,-17.352 5.596,-5.417 13.403,-6.43 17.435,-2.262 z"
   id="path90"
   style="fill:url(#SVGID_7_)"
   inkscape:connector-curvature="0" />
				
					<radialGradient
   id="SVGID_8_"
   cx="484.4863"
   cy="391.82031"
   r="12.4305"
   gradientTransform="matrix(0.9557,-0.2944,0.2944,0.9557,-96.9789,167.1288)"
   gradientUnits="userSpaceOnUse">
					<stop
   offset="0"
   style="stop-color:#5CFFBA"
   id="stop93" />
					<stop
   offset="1"
   style="stop-color:#75BFA1"
   id="stop95" />
				</radialGradient>
				<path
   d="m 494.871,394.807 c 1.707,5.541 -2.941,11.894 -10.383,14.187 -7.443,2.292 -14.859,-0.343 -16.566,-5.885 -1.708,-5.54 2.941,-11.893 10.383,-14.185 7.442,-2.293 14.859,0.342 16.566,5.883 z"
   id="path97"
   style="fill:url(#SVGID_8_)"
   inkscape:connector-curvature="0" />
				
					<radialGradient
   id="SVGID_9_"
   cx="498.63531"
   cy="341.56741"
   r="12.4295"
   gradientTransform="matrix(0.9633,0.2686,-0.2686,0.9633,93.1559,-73.0222)"
   gradientUnits="userSpaceOnUse">
					<stop
   offset="0"
   style="stop-color:#7FD8FF"
   id="stop100" />
					<stop
   offset="0.2263"
   style="stop-color:#7AD5FF"
   id="stop102" />
					<stop
   offset="0.5102"
   style="stop-color:#6ACDFF"
   id="stop104" />
					<stop
   offset="0.8234"
   style="stop-color:#51BFFF"
   id="stop106" />
					<stop
   offset="1"
   style="stop-color:#3FB6FF"
   id="stop108" />
				</radialGradient>
				<path
   d="m 495.327,393.731 c -1.556,5.584 -8.9,8.418 -16.4,6.326 -7.5,-2.092 -12.319,-8.314 -10.761,-13.9 1.557,-5.585 8.901,-8.419 16.4,-6.327 7.501,2.092 12.32,8.316 10.761,13.901 z"
   id="path110"
   style="fill:url(#SVGID_9_)"
   inkscape:connector-curvature="0" />
			</g>
			<g
   id="g112">
				
					<radialGradient
   id="SVGID_10_"
   cx="416.207"
   cy="508.19919"
   r="10.3592"
   gradientTransform="matrix(-0.5351,-0.8448,0.8448,-0.5351,316.2711,1011.3543)"
   gradientUnits="userSpaceOnUse">
					<stop
   offset="0"
   style="stop-color:#5CFFBA"
   id="stop115" />
					<stop
   offset="1"
   style="stop-color:#75BFA1"
   id="stop117" />
				</radialGradient>
				<path
   d="m 516.598,377.88 c 4.082,-2.585 10.207,-0.237 13.68,5.243 3.472,5.482 2.977,12.023 -1.104,14.609 -4.082,2.585 -10.207,0.237 -13.68,-5.244 -3.473,-5.481 -2.977,-12.022 1.104,-14.608 z"
   id="path119"
   style="fill:url(#SVGID_10_)"
   inkscape:connector-curvature="0" />
				
					<radialGradient
   id="SVGID_11_"
   cx="438.4653"
   cy="342.10739"
   r="10.3588"
   gradientTransform="matrix(0.4096,0.9123,-0.9123,0.4096,649.02,-146.3513)"
   gradientUnits="userSpaceOnUse">
					<stop
   offset="0"
   style="stop-color:#B5FF38"
   id="stop122" />
					<stop
   offset="0.2852"
   style="stop-color:#B6FC3B"
   id="stop124" />
					<stop
   offset="0.5176"
   style="stop-color:#B7F243"
   id="stop126" />
					<stop
   offset="0.7314"
   style="stop-color:#BAE152"
   id="stop128" />
					<stop
   offset="0.933"
   style="stop-color:#BDC966"
   id="stop130" />
					<stop
   offset="1"
   style="stop-color:#BFBF6E"
   id="stop132" />
				</radialGradient>
				<path
   d="m 521.324,404.507 c -4.408,1.979 -10.137,-1.215 -12.795,-7.135 -2.658,-5.921 -1.238,-12.324 3.169,-14.304 4.408,-1.979 10.137,1.215 12.795,7.136 2.658,5.92 1.239,12.323 -3.169,14.303 z"
   id="path134"
   style="fill:url(#SVGID_11_)"
   inkscape:connector-curvature="0" />
				
					<radialGradient
   id="SVGID_12_"
   cx="457.36469"
   cy="503.83401"
   r="10.3595"
   gradientTransform="matrix(-0.0301,-0.9995,0.9995,-0.0301,19.4979,868.677)"
   gradientUnits="userSpaceOnUse">
					<stop
   offset="0"
   style="stop-color:#5CFFBA"
   id="stop137" />
					<stop
   offset="1"
   style="stop-color:#75BFA1"
   id="stop139" />
				</radialGradient>
				<path
   d="m 508.96,384.631 c 4.83,-0.146 8.904,4.994 9.1,11.48 0.195,6.487 -3.563,11.863 -8.393,12.009 -4.829,0.146 -8.903,-4.995 -9.099,-11.481 -0.196,-6.487 3.562,-11.864 8.392,-12.008 z"
   id="path141"
   style="fill:url(#SVGID_12_)"
   inkscape:connector-curvature="0" />
				
					<radialGradient
   id="SVGID_13_"
   cx="449.77539"
   cy="460.4805"
   r="10.3599"
   gradientTransform="matrix(0.3285,-0.9445,0.9445,0.3285,-80.853,670.5302)"
   gradientUnits="userSpaceOnUse">
					<stop
   offset="0"
   style="stop-color:#B5FF38"
   id="stop144" />
					<stop
   offset="0.2852"
   style="stop-color:#B6FC3B"
   id="stop146" />
					<stop
   offset="0.5176"
   style="stop-color:#B7F243"
   id="stop148" />
					<stop
   offset="0.7314"
   style="stop-color:#BAE152"
   id="stop150" />
					<stop
   offset="0.933"
   style="stop-color:#BDC966"
   id="stop152" />
					<stop
   offset="1"
   style="stop-color:#BFBF6E"
   id="stop154" />
				</radialGradient>
				<path
   d="m 505.682,385.887 c 4.564,1.587 6.536,7.843 4.405,13.973 -2.133,6.128 -7.562,9.811 -12.125,8.224 -4.564,-1.588 -6.537,-7.844 -4.404,-13.973 2.131,-6.13 7.56,-9.811 12.124,-8.224 z"
   id="path156"
   style="fill:url(#SVGID_13_)"
   inkscape:connector-curvature="0" />
				
					<radialGradient
   id="SVGID_14_"
   cx="454.853"
   cy="466.72171"
   r="10.3592"
   gradientTransform="matrix(0.643,-0.7659,0.7659,0.643,-156.6839,441.694)"
   gradientUnits="userSpaceOnUse">
					<stop
   offset="0"
   style="stop-color:#5CFFBA"
   id="stop159" />
					<stop
   offset="1"
   style="stop-color:#75BFA1"
   id="stop161" />
				</radialGradient>
				<path
   d="m 500.804,384.425 c 3.7,3.107 3.317,9.656 -0.854,14.626 -4.173,4.97 -10.556,6.479 -14.256,3.373 -3.701,-3.107 -3.319,-9.656 0.854,-14.626 4.172,-4.97 10.555,-6.479 14.256,-3.373 z"
   id="path163"
   style="fill:url(#SVGID_14_)"
   inkscape:connector-curvature="0" />
				
					<radialGradient
   id="SVGID_15_"
   cx="487.48141"
   cy="426.6973"
   r="10.3599"
   gradientTransform="matrix(0.8448,-0.535,0.535,0.8448,-152.733,288.2518)"
   gradientUnits="userSpaceOnUse">
					<stop
   offset="0"
   style="stop-color:#B5FF38"
   id="stop166" />
					<stop
   offset="0.2852"
   style="stop-color:#B6FC3B"
   id="stop168" />
					<stop
   offset="0.5176"
   style="stop-color:#B7F243"
   id="stop170" />
					<stop
   offset="0.7314"
   style="stop-color:#BAE152"
   id="stop172" />
					<stop
   offset="0.933"
   style="stop-color:#BDC966"
   id="stop174" />
					<stop
   offset="1"
   style="stop-color:#BFBF6E"
   id="stop176" />
				</radialGradient>
				<path
   d="m 497.301,381.637 c 2.584,4.083 0.237,10.207 -5.245,13.68 -5.482,3.472 -12.023,2.977 -14.609,-1.106 -2.584,-4.082 -0.237,-10.206 5.246,-13.68 5.481,-3.472 12.022,-2.977 14.608,1.106 z"
   id="path178"
   style="fill:url(#SVGID_15_)"
   inkscape:connector-curvature="0" />
				
					<radialGradient
   id="SVGID_16_"
   cx="486.35349"
   cy="378.50391"
   r="10.3585"
   gradientTransform="matrix(0.9618,-0.2738,0.2738,0.9618,-86.0653,150.1188)"
   gradientUnits="userSpaceOnUse">
					<stop
   offset="0"
   style="stop-color:#5CFFBA"
   id="stop181" />
					<stop
   offset="1"
   style="stop-color:#75BFA1"
   id="stop183" />
				</radialGradient>
				<path
   d="m 496.645,377.782 c 1.323,4.647 -2.664,9.856 -8.905,11.633 -6.241,1.777 -12.374,-0.551 -13.696,-5.197 -1.323,-4.647 2.664,-9.856 8.905,-11.633 6.24,-1.778 12.373,0.551 13.696,5.197 z"
   id="path185"
   style="fill:url(#SVGID_16_)"
   inkscape:connector-curvature="0" />
				
					<radialGradient
   id="SVGID_17_"
   cx="490.62009"
   cy="328.29001"
   r="10.3586"
   gradientTransform="matrix(0.9991,0.0434,-0.0434,0.9991,8.5819,23.978)"
   gradientUnits="userSpaceOnUse">
					<stop
   offset="0"
   style="stop-color:#B5FF38"
   id="stop188" />
					<stop
   offset="0.2852"
   style="stop-color:#B6FC3B"
   id="stop190" />
					<stop
   offset="0.5176"
   style="stop-color:#B7F243"
   id="stop192" />
					<stop
   offset="0.7314"
   style="stop-color:#BAE152"
   id="stop194" />
					<stop
   offset="0.933"
   style="stop-color:#BDC966"
   id="stop196" />
					<stop
   offset="1"
   style="stop-color:#BFBF6E"
   id="stop198" />
				</radialGradient>
				<path
   d="m 496.251,373.776 c -0.21,4.826 -5.636,8.513 -12.119,8.231 -6.483,-0.283 -11.568,-4.425 -11.359,-9.253 0.21,-4.826 5.636,-8.513 12.119,-8.231 6.483,0.283 11.57,4.425 11.359,9.253 z"
   id="path200"
   style="fill:url(#SVGID_17_)"
   inkscape:connector-curvature="0" />
			</g>
			<g
   id="g202">
				
					<radialGradient
   id="SVGID_18_"
   cx="415.06931"
   cy="446.36911"
   r="12.4318"
   gradientTransform="matrix(0.708,-0.7062,0.7062,0.708,-132.5441,403.516)"
   gradientUnits="userSpaceOnUse">
					<stop
   offset="0"
   style="stop-color:#B5FF38"
   id="stop205" />
					<stop
   offset="0.2852"
   style="stop-color:#B6FC3B"
   id="stop207" />
					<stop
   offset="0.5176"
   style="stop-color:#B7F243"
   id="stop209" />
					<stop
   offset="0.7314"
   style="stop-color:#BAE152"
   id="stop211" />
					<stop
   offset="0.933"
   style="stop-color:#BDC966"
   id="stop213" />
					<stop
   offset="1"
   style="stop-color:#BFBF6E"
   id="stop215" />
				</radialGradient>
				<path
   d="m 486.534,416.465 c 4.095,4.106 2.946,11.891 -2.566,17.392 -5.514,5.498 -13.305,6.629 -17.399,2.525 -4.095,-4.106 -2.945,-11.895 2.567,-17.393 5.513,-5.5 13.304,-6.629 17.398,-2.524 z"
   id="path217"
   style="fill:url(#SVGID_18_)"
   inkscape:connector-curvature="0" />
				
					<radialGradient
   id="SVGID_19_"
   cx="431.95651"
   cy="473.91699"
   r="12.4312"
   gradientTransform="matrix(0.9996,-0.0286,0.0286,0.9996,46.1832,-29.3777)"
   gradientUnits="userSpaceOnUse">
					<stop
   offset="0"
   style="stop-color:#5CFFBA"
   id="stop220" />
					<stop
   offset="1"
   style="stop-color:#75BFA1"
   id="stop222" />
				</radialGradient>
				<path
   d="m 505.615,431.591 c 0.166,5.797 -6.009,10.675 -13.792,10.901 -7.785,0.221 -14.228,-4.299 -14.396,-10.093 -0.167,-5.797 6.01,-10.677 13.794,-10.9 7.783,-0.224 14.228,4.295 14.394,10.092 z"
   id="path224"
   style="fill:url(#SVGID_19_)"
   inkscape:connector-curvature="0" />
			</g>
			
				<radialGradient
   id="path5851-9_1_"
   cx="524.56049"
   cy="380.9668"
   r="10.6819"
   gradientTransform="matrix(0.9626,-0.271,0.271,0.9626,-81.905943,156.2521)"
   gradientUnits="userSpaceOnUse">
				<stop
   offset="0"
   style="stop-color:#FAFF9F"
   id="stop227" />
				<stop
   offset="0.3132"
   style="stop-color:#F9FE9D"
   id="stop229" />
				<stop
   offset="0.4619"
   style="stop-color:#F6FB95"
   id="stop231" />
				<stop
   offset="0.576"
   style="stop-color:#F0F688"
   id="stop233" />
				<stop
   offset="0.6724"
   style="stop-color:#E9EE76"
   id="stop235" />
				<stop
   offset="0.7576"
   style="stop-color:#DFE55E"
   id="stop237" />
				<stop
   offset="0.835"
   style="stop-color:#D2D941"
   id="stop239" />
				<stop
   offset="0.9048"
   style="stop-color:#C4CB1E"
   id="stop241" />
				<stop
   offset="0.956"
   style="stop-color:#B7BF00"
   id="stop243" />
			</radialGradient>
			<path
   id="path5851-9"
   inkscape:connector-curvature="0"
   d="m 526.83806,370.063 c 0,0 9.139,4.352 10.099,9.521 0.961,5.17 -2.132,9.997 -5.798,11.029 -3.666,1.032 -9.939,-0.17 -11.371,-1.745 -1.434,-1.575 -4.428,-5.184 -4.413,-8.649 0.013,-3.466 1.53,-6.86 3.692,-7.963 2.163,-1.105 4.783,-2.336 7.791,-2.193 l 0,0 z"
   style="fill:url(#path5851-9_1_)" />
			<g
   id="g246">
				
					<radialGradient
   id="SVGID_20_"
   cx="490.02051"
   cy="326.13089"
   r="8.2539997"
   gradientTransform="matrix(1.2678,0.3397,-0.2588,0.9659,-42.7441,-155.3133)"
   gradientUnits="userSpaceOnUse">
					<stop
   offset="0"
   style="stop-color:#96FF5F"
   id="stop249" />
					<stop
   offset="0.4146"
   style="stop-color:#94FE5E"
   id="stop251" />
					<stop
   offset="0.5639"
   style="stop-color:#8DF95B"
   id="stop253" />
					<stop
   offset="0.6703"
   style="stop-color:#82F255"
   id="stop255" />
					<stop
   offset="0.7564"
   style="stop-color:#71E74D"
   id="stop257" />
					<stop
   offset="0.8302"
   style="stop-color:#5BD943"
   id="stop259" />
					<stop
   offset="0.8954"
   style="stop-color:#3FC836"
   id="stop261" />
					<stop
   offset="0.953"
   style="stop-color:#20B327"
   id="stop263" />
					<stop
   offset="1"
   style="stop-color:#009F18"
   id="stop265" />
				</radialGradient>
				<path
   d="m 504.239,328.8682 c -1.215,4.534 -6.741,6.993 -12.343,5.493 -5.602,-1.501 -9.157,-6.394 -7.942,-10.929 1.214,-4.533 6.74,-6.993 12.342,-5.492 5.602,1.5 9.157,6.393 7.943,10.928 z"
   id="path267"
   style="fill:url(#SVGID_20_)"
   inkscape:connector-curvature="0" />
				
					<linearGradient
   id="path3047-27-8_1_"
   gradientUnits="userSpaceOnUse"
   x1="484.16751"
   y1="379.54001"
   x2="521.31842"
   y2="335.26541"
   gradientTransform="matrix(0.9904,-0.138,0.138,0.9904,-44.1486,72.5143)">
					<stop
   offset="0"
   style="stop-color:#B7BF00"
   id="stop270" />
					<stop
   offset="0.0335"
   style="stop-color:#C2CA1B"
   id="stop272" />
					<stop
   offset="0.0859"
   style="stop-color:#D1D83E"
   id="stop274" />
					<stop
   offset="0.1435"
   style="stop-color:#DEE45C"
   id="stop276" />
					<stop
   offset="0.2065"
   style="stop-color:#E8EE75"
   id="stop278" />
					<stop
   offset="0.277"
   style="stop-color:#F0F688"
   id="stop280" />
					<stop
   offset="0.3594"
   style="stop-color:#F6FB95"
   id="stop282" />
					<stop
   offset="0.4646"
   style="stop-color:#F9FE9D"
   id="stop284" />
					<stop
   offset="0.6703"
   style="stop-color:#FAFF9F"
   id="stop286" />
				</linearGradient>
				<path
   id="path3047-27-8"
   sodipodi:nodetypes="ssssssss"
   inkscape:connector-curvature="0"
   d="m 494.587,326.674 c 16.787,-2.827 27.06,7.31 29.935,15.789 2.085,6.15 0.676,5.898 2.58,11.596 1.903,5.695 4.245,7.95 4.308,11.452 0.127,7.006 -5.51,18.828 -14.838,22.33 -9.329,3.503 -25.795,-2.88 -31.521,-8.425 -5.325,-5.158 -13.928,-11.771 -13.34,-27.552 2.617,-13.497 12.224,-23.394 22.876,-25.19 z"
   style="fill:url(#path3047-27-8_1_)" />
				<g
   id="g289">
					
						<linearGradient
   id="path5900_2_"
   gradientUnits="userSpaceOnUse"
   x1="510.14749"
   y1="357.95999"
   x2="497.3884"
   y2="365.32639"
   gradientTransform="matrix(0.9904,-0.138,0.138,0.9904,-44.1486,72.5143)">
						<stop
   offset="0"
   style="stop-color:#7FEAFF"
   id="stop292" />
						<stop
   offset="0.421"
   style="stop-color:#80E8FF"
   id="stop294" />
						<stop
   offset="0.5726"
   style="stop-color:#83E1FF"
   id="stop296" />
						<stop
   offset="0.6807"
   style="stop-color:#88D5FF"
   id="stop298" />
						<stop
   offset="0.7681"
   style="stop-color:#8FC5FF"
   id="stop300" />
						<stop
   offset="0.843"
   style="stop-color:#98AFFF"
   id="stop302" />
						<stop
   offset="0.9092"
   style="stop-color:#A393FF"
   id="stop304" />
						<stop
   offset="0.9677"
   style="stop-color:#B074FF"
   id="stop306" />
						<stop
   offset="1"
   style="stop-color:#B95FFF"
   id="stop308" />
					</linearGradient>
					<path
   id="path5900"
   sodipodi:nodetypes="csccsc"
   inkscape:connector-curvature="0"
   d="m 499.344,366.274 c -3.713,-4.179 2.951,-15.052 6.492,-14.513 3.365,0.512 6.74,11.659 4.886,14.101 -1.369,1.803 -8.983,3.108 -11.378,0.412 z"
   style="fill:url(#path5900_2_)" />
					<path
   id="path6123"
   inkscape:connector-curvature="0"
   d="m 505.427,353.791 c 0,0 -6.271,4.923 -5.711,7.725 0.562,2.801 3.232,5.266 9.448,3.665 2.053,-1.867 -1.774,-8.87 -1.774,-8.87 l -1.963,-2.52 z"
   style="fill:#f9f9f9" />
					
						<radialGradient
   id="SVGID_21_"
   cx="505.26761"
   cy="361.71481"
   r="2.75"
   gradientTransform="matrix(0.9904,-0.138,0.138,0.9904,-44.1486,72.5143)"
   gradientUnits="userSpaceOnUse">
						<stop
   offset="0.2637"
   style="stop-color:#000000"
   id="stop313" />
						<stop
   offset="0.4055"
   style="stop-color:#41003F"
   id="stop315" />
						<stop
   offset="0.566"
   style="stop-color:#840080"
   id="stop317" />
						<stop
   offset="0.7116"
   style="stop-color:#B900B3"
   id="stop319" />
						<stop
   offset="0.8371"
   style="stop-color:#DF00D8"
   id="stop321" />
						<stop
   offset="0.9374"
   style="stop-color:#F600EF"
   id="stop323" />
						<stop
   offset="1"
   style="stop-color:#FF00F7"
   id="stop325" />
					</radialGradient>
					<path
   d="m 508.909,360.65 c 0.21,1.504 -0.84,2.894 -2.344,3.104 l 0,0 c -1.505,0.209 -2.895,-0.841 -3.104,-2.345 l 0,0 c -0.21,-1.504 0.84,-2.894 2.344,-3.103 l 0,0 c 1.505,-0.209 2.894,0.84 3.104,2.344 l 0,0 z"
   id="path327"
   style="fill:url(#SVGID_21_)"
   inkscape:connector-curvature="0" />
				</g>
				<g
   id="g329">
					
						<linearGradient
   id="path5900_3_"
   gradientUnits="userSpaceOnUse"
   x1="524.12701"
   y1="355.11429"
   x2="514.79077"
   y2="360.50449"
   gradientTransform="matrix(0.9904,-0.138,0.138,0.9904,-44.1486,72.5143)">
						<stop
   offset="0"
   style="stop-color:#7FEAFF"
   id="stop332" />
						<stop
   offset="0.421"
   style="stop-color:#80E8FF"
   id="stop334" />
						<stop
   offset="0.5726"
   style="stop-color:#83E1FF"
   id="stop336" />
						<stop
   offset="0.6807"
   style="stop-color:#88D5FF"
   id="stop338" />
						<stop
   offset="0.7681"
   style="stop-color:#8FC5FF"
   id="stop340" />
						<stop
   offset="0.843"
   style="stop-color:#98AFFF"
   id="stop342" />
						<stop
   offset="0.9092"
   style="stop-color:#A393FF"
   id="stop344" />
						<stop
   offset="0.9677"
   style="stop-color:#B074FF"
   id="stop346" />
						<stop
   offset="1"
   style="stop-color:#B95FFF"
   id="stop348" />
					</linearGradient>
					<path
   id="path5900_1_"
   sodipodi:nodetypes="csccsc"
   inkscape:connector-curvature="0"
   d="m 518.454,362.268 c -2.191,-1.632 -3.953,-13.086 -1.8,-14.697 2.268,-1.695 10.916,6.113 9.872,11.235 -0.673,3.302 -6.454,4.668 -8.072,3.462 z"
   style="fill:url(#path5900_3_)" />
					<path
   id="path6123-0"
   sodipodi:nodetypes="csscc"
   inkscape:connector-curvature="0"
   d="m 517.547,349.833 c 0,0 -1.324,7.637 0.219,10.04 1.542,2.404 4.552,1.921 5.783,-0.567 0.661,-6.594 -2.269,-7.978 -2.269,-7.978 l -3.733,-1.495 z"
   style="fill:#f9f9f9" />
					
						<radialGradient
   id="SVGID_22_"
   cx="520.76862"
   cy="359.9639"
   r="2.75"
   gradientTransform="matrix(0.9904,-0.138,0.138,0.9904,-44.1486,72.5143)"
   gradientUnits="userSpaceOnUse">
						<stop
   offset="0.2637"
   style="stop-color:#000000"
   id="stop353" />
						<stop
   offset="0.4055"
   style="stop-color:#41003F"
   id="stop355" />
						<stop
   offset="0.566"
   style="stop-color:#840080"
   id="stop357" />
						<stop
   offset="0.7116"
   style="stop-color:#B900B3"
   id="stop359" />
						<stop
   offset="0.8371"
   style="stop-color:#DF00D8"
   id="stop361" />
						<stop
   offset="0.9374"
   style="stop-color:#F600EF"
   id="stop363" />
						<stop
   offset="1"
   style="stop-color:#FF00F7"
   id="stop365" />
					</radialGradient>
					<path
   d="m 524.02,356.777 c 0.209,1.504 -0.841,2.894 -2.345,3.104 l 0,0 c -1.504,0.209 -2.894,-0.84 -3.103,-2.345 l 0,0 c -0.21,-1.504 0.84,-2.894 2.344,-3.103 l 0,0 c 1.504,-0.209 2.894,0.84 3.104,2.344 l 0,0 z"
   id="path367"
   style="fill:url(#SVGID_22_)"
   inkscape:connector-curvature="0" />
				</g>
				
					<radialGradient
   id="SVGID_23_"
   cx="477.26031"
   cy="336.9473"
   r="8.2538004"
   gradientTransform="matrix(1.3107,0.0692,-0.0528,0.9986,-134.755,-26.5274)"
   gradientUnits="userSpaceOnUse">
					<stop
   offset="0"
   style="stop-color:#96FF5F"
   id="stop370" />
					<stop
   offset="0.4146"
   style="stop-color:#94FE5E"
   id="stop372" />
					<stop
   offset="0.5639"
   style="stop-color:#8DF95B"
   id="stop374" />
					<stop
   offset="0.6703"
   style="stop-color:#82F255"
   id="stop376" />
					<stop
   offset="0.7564"
   style="stop-color:#71E74D"
   id="stop378" />
					<stop
   offset="0.8302"
   style="stop-color:#5BD943"
   id="stop380" />
					<stop
   offset="0.8954"
   style="stop-color:#3FC836"
   id="stop382" />
					<stop
   offset="0.953"
   style="stop-color:#20B327"
   id="stop384" />
					<stop
   offset="1"
   style="stop-color:#009F18"
   id="stop386" />
				</radialGradient>
				<path
   d="m 483.485,343.555 c -0.248,4.688 -5.143,8.239 -10.934,7.934 -5.791,-0.307 -10.284,-4.354 -10.037,-9.043 0.248,-4.687 5.143,-8.239 10.934,-7.934 5.792,0.306 10.285,4.354 10.037,9.043 z"
   id="path388"
   style="fill:url(#SVGID_23_)"
   inkscape:connector-curvature="0" />
			</g>
			<radialGradient
   id="path5851_1_"
   cx="495.60641"
   cy="389.3613"
   r="10.6814"
   gradientUnits="userSpaceOnUse">
				<stop
   offset="0"
   style="stop-color:#FAFF9F"
   id="stop391" />
				<stop
   offset="0.3132"
   style="stop-color:#F9FE9D"
   id="stop393" />
				<stop
   offset="0.4619"
   style="stop-color:#F6FB95"
   id="stop395" />
				<stop
   offset="0.576"
   style="stop-color:#F0F688"
   id="stop397" />
				<stop
   offset="0.6724"
   style="stop-color:#E9EE76"
   id="stop399" />
				<stop
   offset="0.7576"
   style="stop-color:#DFE55E"
   id="stop401" />
				<stop
   offset="0.835"
   style="stop-color:#D2D941"
   id="stop403" />
				<stop
   offset="0.9048"
   style="stop-color:#C4CB1E"
   id="stop405" />
				<stop
   offset="0.956"
   style="stop-color:#B7BF00"
   id="stop407" />
			</radialGradient>
			<path
   id="path5851"
   inkscape:connector-curvature="0"
   d="m 492.156,379.162 c 0,0 -7.618,6.665 -7.142,11.902 0.476,5.236 4.761,9.045 8.57,9.045 3.809,0 9.521,-2.856 10.473,-4.761 0.952,-1.904 2.856,-6.188 1.904,-9.521 -0.952,-3.332 -3.332,-6.188 -5.713,-6.665 -2.379,-0.475 -5.236,-0.952 -8.092,0 l 0,0 z"
   style="fill:url(#path5851_1_)" />
		</g>
	</g>
</g>
</g>
</g>
</svg>
