<?xml version="1.0" encoding="UTF-8" standalone="no"?>
<!-- Created with Inkscape (http://www.inkscape.org/) -->
<svg xmlns:dc="http://purl.org/dc/elements/1.1/" xmlns:cc="http://creativecommons.org/ns#" xmlns:rdf="http://www.w3.org/1999/02/22-rdf-syntax-ns#" xmlns:svg="http://www.w3.org/2000/svg" xmlns="http://www.w3.org/2000/svg" xmlns:sodipodi="http://sodipodi.sourceforge.net/DTD/sodipodi-0.dtd" xmlns:inkscape="http://www.inkscape.org/namespaces/inkscape" width="744.09448819" height="1052.3622047" id="svg4156" version="1.1" inkscape:version="0.48.0 r9654" sodipodi:docname="seagrass1.svg">
  <defs id="defs4158"/>
  <sodipodi:namedview id="base" pagecolor="#ffffff" bordercolor="#666666" borderopacity="1.0" inkscape:pageopacity="0.0" inkscape:pageshadow="2" inkscape:zoom="0.35" inkscape:cx="375" inkscape:cy="977.14286" inkscape:document-units="px" inkscape:current-layer="layer1" showgrid="false" inkscape:window-width="469" inkscape:window-height="403" inkscape:window-x="25" inkscape:window-y="25" inkscape:window-maximized="0"/>
  <metadata id="metadata4161">
    <rdf:RDF>
      <cc:Work rdf:about="">
        <dc:format>image/svg+xml</dc:format>
        <dc:type rdf:resource="http://purl.org/dc/dcmitype/StillImage"/>
        <dc:title/>
      </cc:Work>
    </rdf:RDF>
  </metadata>
  <g inkscape:label="Layer 1" inkscape:groupmode="layer" id="layer1">
    <g transform="matrix(3.0339258,0,0,3.8424906,56.827637,-69.601194)" id="g4191">
      <path sodipodi:nodetypes="ccscsccscscsccccccccccccccccc" inkscape:connector-curvature="0" id="path4051-5" d="m 1.0143455,19.828897 c 0.102119,0.938168 0.390973,1.840136 0.750039,2.709009 0.181296,0.907533 -0.165395,1.876232 0.136198,2.770065 0.109228,0.964161 -0.531436,1.892597 -0.267895,2.858893 0.169835,0.551979 0.540988,1.009652 0.8085109,1.511497 0.05035,0.432816 -0.3776429,0.737037 -0.4758009,1.141024 -0.663039,0.604509 -1.56448698,0.964437 -2.05173908,1.742536 -0.461796,0.696091 -1.15531102,1.257724 -1.42539302,2.077283 -0.220441,0.86091 -0.655174,1.639281 -1.057937,2.424307 -0.398704,0.869318 -0.814291,1.732152 -1.245909,2.585559 -0.275697,0.829613 0.06952,1.731596 0.605943,2.375837 0.49519,0.813785 0.716563,1.792004 0.569084,2.738144 -0.03093,0.904798 0.202013,1.793693 0.196488,2.695748 -0.01203,0.197826 -0.1438583,0.635268 -0.1558883,0.833093 0.442331,-0.07937 0.7070206,0.480716 1.1408076,0.538862 -0.08452,-1.09994 0.1105127,-2.798924 0.025993,-3.898865 0.312106,-0.835403 -0.02321,-1.734426 0.137992,-2.594785 0.194387,-0.803059 0.82233502,-1.511115 0.72995502,-2.370643 -0.127311,-0.849899 -1.06427502,-1.619871 -0.54127902,-2.515197 0.37202802,-0.800428 0.63674002,-1.644195 0.68676402,-2.531492 0.210025,-0.804783 0.9643501,-1.294365 1.2327931,-2.062288 0.23702098,-0.774738 0.87484598,-1.303211 1.35907198,-1.920218 0.5737709,-0.6169 0.5431209,-1.501773 0.3396939,-2.257791 -0.18061,-0.891783 -0.0679,-1.806125 0.03576,-2.700301 0.0936,-0.77538 0.0355,-1.606288 0.5295871,-2.265006 0.310161,-0.57396 0.438986,-1.354609 -0.108766,-1.835117 -0.5032001,-0.785474 -1.24775,-1.369484 -1.886929,-2.038114 -0.03731,-0.0338 -0.07997,-0.142754 -0.06714,-0.01207 z" style="fill:#006442;fill-opacity:0.87301588;stroke:#003531;stroke-width:0.2;stroke-linecap:butt;stroke-linejoin:miter;stroke-miterlimit:4;stroke-opacity:0.91005297;stroke-dasharray:none"/>
      <path sodipodi:nodetypes="ccscsccscscsccccccccccccccccc" inkscape:connector-curvature="0" id="path4051" d="m -12.464392,24.406437 c -0.359292,0.575352 -0.723762,1.166706 -0.905974,1.854048 -0.03935,0.643608 0.287651,1.288026 0.77492,1.573737 0.309111,0.631163 0.453036,1.351964 0.754193,1.989321 0.277721,0.608445 0.456375,1.269556 0.59048,1.93851 0.194666,0.596351 0.542397,1.09214 0.884435,1.581056 0.363668,0.514286 0.6608425,1.092327 0.8781505,1.708567 0.184205,0.682632 0.14038,1.414632 0.137888,2.122311 -0.06155,0.696462 -0.210042,1.374262 -0.338992,2.056492 -0.140097,0.708302 -0.260231,1.423801 -0.3190865,2.14776 -0.0539,0.63818 0.03151,1.276736 0.1373925,1.901734 0.134304,0.648466 0.303743,1.286286 0.448118,1.931248 0.200429,0.618359 0.2957357,1.03161 0.4978807,1.649756 0.152168,0.529209 0.2616459,0.361912 0.7998494,0.457478 0.089286,-0.03131 0.7415524,0.341501 0.6905424,0.180109 0.026666,-0.695732 -0.4130654,-0.981873 -0.5981212,-1.618652 -0.2007704,-0.652602 -0.405935,-1.304091 -0.6393353,-1.941927 -0.120441,-0.606339 0.061587,-1.205713 0.2941674,-1.740525 0.2624,-0.657762 0.5575902,-1.328444 0.5643054,-2.070981 0.040133,-0.668299 -0.1049911,-1.326696 -0.1884912,-1.983563 -0.1716692,-1.284117 -0.3299163,-2.570516 -0.4821762,-3.85793 -0.028478,-0.645587 -0.084712,-1.318503 -0.3682544,-1.88812 -0.292469,-0.530298 -0.812917,-0.789433 -1.2072785,-1.199311 -0.457608,-0.439827 -0.759569,-1.04096 -1.103172,-1.593381 -0.350858,-0.495035 -0.584872,-1.091439 -0.661226,-1.728279 -0.157736,-0.992888 -0.375513,-1.971719 -0.508748,-2.969947 -0.02754,-0.197733 -0.06183,-0.396127 -0.09293,-0.589576 l -0.03855,0.09006 z" style="fill:#006442;fill-opacity:0.87301588;stroke:#003531;stroke-width:0.14067236;stroke-linecap:butt;stroke-linejoin:miter;stroke-miterlimit:4;stroke-opacity:0.91005297;stroke-dasharray:none"/>
      <g style="fill:#006442;fill-opacity:0.87301588;stroke:#003531;stroke-opacity:0.91005297" transform="matrix(0.61247115,0,0,0.61247115,9.6655357,12.100422)" id="g4139">
        <path style="fill:#006442;fill-opacity:0.87301588;stroke:#003531;stroke-width:0.21828686;stroke-linecap:butt;stroke-linejoin:miter;stroke-miterlimit:4;stroke-opacity:0.91005297;stroke-dasharray:none" d="m -21.853534,17.205003 c -0.675144,0.728278 -1.409376,1.382826 -2,2.220443 -0.524763,0.898677 -0.12491,2.047511 0.25,2.909545 0.173604,1.042919 0.330598,2.114285 0.1875,3.177531 -0.207709,1.117849 -0.202665,2.26837 -0.25,3.407231 -0.04455,1.077728 0.162627,2.13942 0.375,3.17753 0.374209,0.874828 -0.09602,1.814918 -0.261492,2.68042 -0.187846,0.915934 -0.182562,1.909265 -0.598648,2.738381 -0.497211,1.028079 -1.200976,1.87595 -1.794831,2.818452 -0.596755,0.911497 -1.222859,1.861863 -1.532135,2.978202 -0.228004,1.01387 0.02699,2.043213 0.06211,3.064288 -0.05539,0.995639 -0.173646,2.017417 0.116734,2.987266 0.203722,1.071137 0.521974,2.097508 0.921466,3.080683 0.347928,0.91359 -0.231482,4.479392 0.182046,5.356812 0.174143,0.350494 1.299691,1.593001 1.430595,1.054643 0.368892,-1.082313 -0.08987,-5.684873 -0.360755,-6.695009 -0.31184,-0.950519 -0.337595,-1.990087 -0.477586,-2.989697 -0.06843,-0.961343 -0.05231,-1.972602 0.34375,-2.832978 0.499499,-0.967513 1.190171,-1.749429 1.782962,-2.626747 0.546554,-0.85747 1.011605,-1.796955 1.342038,-2.80951 0.468547,-1.035476 0.487993,-2.232199 0.628989,-3.371797 0.123249,-0.651406 0.425311,-1.193249 0.746011,-1.719907 0.458767,-1.038415 0.20356,-2.266599 -0.04597,-3.332969 -0.246874,-1.166554 -0.525348,-2.321581 -0.840995,-3.46305 -0.315189,-1.072858 -0.456884,-2.207299 -0.568632,-3.33503 -0.05178,-1.118505 -0.133121,-2.249576 0.01863,-3.362492 0.196955,-1.72144 0.301329,-3.45598 0.405719,-5.188805 z" id="path4051-91" inkscape:connector-curvature="0" sodipodi:nodetypes="ccscsccscscscccccccccccccccc"/>
        <path style="fill:#006442;fill-opacity:0.87301588;stroke:#003531;stroke-width:0.19721813;stroke-linecap:butt;stroke-linejoin:miter;stroke-miterlimit:4;stroke-opacity:0.91005297;stroke-dasharray:none" d="m -26.517572,24.784445 c 0.322917,0.9375 0.645833,1.875 0.96875,2.8125 0.111626,0.878658 0.02576,1.76857 0.155355,2.64685 0.139579,0.860172 -0.0051,1.729394 -0.186605,2.5719 -0.327809,0.874088 -0.896418,1.625141 -1.34375,2.4375 -0.385229,0.833754 0.527892,1.504527 0.53125,2.3125 0.06682,0.815464 -0.628828,1.32452 -1.09375,1.875 -0.51596,0.615083 -0.229808,1.626052 -0.882186,2.156919 -0.849358,0.409386 -1.298198,1.307661 -1.680314,2.124331 -0.311853,0.751176 -0.627929,1.600435 -0.3125,2.40625 0.274371,0.908832 0.892271,1.695935 1,2.65625 0.03872,0.836287 -0.02387,1.840521 0.71875,2.40625 0.543705,0.585711 0.288296,5.179275 0.676681,5.807723 0.12148,-0.417154 0.641068,3.019602 1.263524,0.07061 0.167651,1.316808 0.632699,-2.799059 0.682079,-2.892819 -0.194072,-0.813817 -1.0918,-3.022974 -1.778538,-3.579268 -0.518244,-0.835739 -0.207986,-1.873254 -0.100903,-2.785647 0.08634,-0.989415 0.630493,-1.925465 0.475903,-2.933103 -0.049,-0.826953 -0.738722,-1.562895 -0.479881,-2.404108 0.374925,-0.632925 1.219622,-1.011407 1.229881,-1.845892 0.17965,-0.572912 0.234579,-1.304373 0.875,-1.5625 0.548612,-0.636426 0.77745,-1.466102 1.022984,-2.250941 0.189365,-0.910341 0.562158,-1.844086 0.352016,-2.780309 -0.157931,-1.193355 -0.281996,-2.391339 -0.34375,-3.59375 -0.02823,-0.72804 0.165735,-1.431234 0.525788,-2.058351 0.342116,-0.805541 -0.0063,-1.716443 -0.619538,-2.285399 -0.554803,-0.45502 -1.102712,-0.918243 -1.65625,-1.375 z" id="path4051-9" inkscape:connector-curvature="0" sodipodi:nodetypes="ccscsccscscscccccccccccccccc"/>
        <path style="fill:#006442;fill-opacity:0.87301588;stroke:#003531;stroke-width:0.21752475;stroke-linecap:butt;stroke-linejoin:miter;stroke-miterlimit:4;stroke-opacity:0.91005297;stroke-dasharray:none" d="m -25.911142,19.393732 c 0.186916,0.965127 0.719889,2.063158 0.21722,3.006664 -0.417914,0.858424 -0.781797,1.771097 -0.86234,2.769258 -0.09979,0.587733 -0.518426,1.025964 -0.97988,1.181122 -0.565323,1.411666 -1.11758,2.830854 -1.656251,4.257863 -0.269888,1.009105 0.233298,1.968924 0.517279,2.880539 0.234117,0.903481 0.325605,1.910796 0.826472,2.66989 0.461665,0.507542 1.200339,0.716924 1.369538,1.553635 0.222237,0.754005 0.05634,1.576728 0.298679,2.332551 -0.03268,0.258853 0.255474,0.0013 0.331783,0.143577 0.827725,0.365511 0.794025,1.895088 0.04138,2.344702 -0.592939,0.782538 -0.474066,1.973119 -0.123643,2.864149 0.278506,0.9341 0.07424,1.941692 0.165927,2.91074 -0.0053,1.105963 -0.163131,2.205609 -0.276532,3.302231 -0.07113,0.615328 -1.120331,6.121021 -1.19146,6.736349 0.221468,1.29944 0.64944,0.923994 1.21334,0.309665 0.09375,-1.254549 1.295983,-7.595078 1.389733,-8.849627 0.183681,-1.086716 0.438089,-2.166088 0.884339,-3.140086 0.32878,-1.075219 0.590301,-2.180404 0.917591,-3.257262 0.228811,-0.908274 -0.328735,-1.785686 -0.77068,-2.460528 -0.514835,-0.818549 -1.064385,-1.630693 -1.387484,-2.593536 -0.349206,-0.940798 -0.743487,-1.856593 -1.268623,-2.671524 -0.461439,-0.701877 -0.996913,-1.527036 -0.750143,-2.490334 0.128907,-1.039449 0.521531,-2.101879 0.3125,-3.15538 -0.516822,-0.846056 -0.529358,-2.063914 -0.146102,-2.989988 0.424708,-0.959336 0.806884,-1.965597 1.409323,-2.785198 0.516562,-0.763215 1.381549,-1.314377 1.450985,-2.403238 0.02236,-1.063362 -0.802155,-1.708028 -1.401706,-2.314168 -0.202745,-0.168229 -0.365635,-0.412239 -0.59375,-0.532233 l 0.03186,0.193782 z" id="path4051-0" inkscape:connector-curvature="0" sodipodi:nodetypes="ccscsccscscsccccccccccccccccccc"/>
        <path style="fill:#006442;fill-opacity:0.87301588;stroke:#003531;stroke-width:0.19721813;stroke-linecap:butt;stroke-linejoin:miter;stroke-miterlimit:4;stroke-opacity:0.91005297;stroke-dasharray:none" d="m -31.714664,56.199975 -0.451415,-7.65755 c 0,0 -2.431598,-1.746603 -1.316412,-3.521957 1.115187,-1.775355 -0.306084,-7.138321 -0.306084,-7.138321 0,0 -1.808672,-0.787555 -0.410603,-2.281009 1.398067,-1.493455 0.156782,-7.285969 0.156782,-7.285969 l -1.100625,-2.587956 c 0,0 4.182582,1.57729 2.378815,3.613641 -0.942934,1.064517 0.38121,4.867764 0.38121,4.867764 0,0 0.962972,1.636197 0.242054,2.789606 -0.72092,1.153409 0.667033,6.844007 0.667033,6.844007 0,0 1.865837,1.182803 1.078283,2.991476 -0.787555,1.808671 0.166652,9.772596 0.166652,9.772596 z" id="path4051-3" inkscape:connector-curvature="0" sodipodi:nodetypes="ccscsccscscscc"/>
        <path style="fill:#006442;fill-opacity:0.87301588;stroke:#003531;stroke-width:0.21752475;stroke-linecap:butt;stroke-linejoin:miter;stroke-miterlimit:4;stroke-opacity:0.91005297;stroke-dasharray:none" d="m -16.567125,20.017467 c -0.0237,0.982775 0.26226,2.16935 -0.430462,2.983608 -0.59174,0.749257 -1.142293,1.56306 -1.434327,2.520937 -0.223109,0.55282 -0.72574,0.891442 -1.209695,0.94438 -0.853995,1.258206 -1.696834,2.526554 -2.528073,3.805446 -0.479343,0.928096 -0.192943,1.973287 -0.110379,2.924534 0.03559,0.932642 -0.09034,1.936232 0.236694,2.784841 0.34251,0.594492 1.019359,0.956923 1.005804,1.810463 0.05593,0.784081 -0.281981,1.552331 -0.206796,2.342485 -0.08725,0.245886 0.249291,0.05588 0.293426,0.211176 0.730469,0.533987 0.370607,2.021011 -0.460747,2.299359 -0.746499,0.637715 -0.884854,1.82619 -0.732984,2.771529 0.07241,0.972042 -0.342504,1.912687 -0.460067,2.878937 -0.241572,1.07927 -0.6308,2.119767 -0.975979,3.166807 -0.201009,0.585903 -0.259159,6.315529 -0.08139,6.908896 0.129369,0.431803 0.958767,1.544592 1.223112,1.181093 0.739915,-1.017452 0.263042,-8.344676 0.62278,-9.550193 0.411717,-1.022341 0.890956,-2.022389 1.535081,-2.878493 0.551005,-0.980095 1.042711,-2.003839 1.592611,-2.985853 0.417662,-0.838376 0.06055,-1.814684 -0.226942,-2.568394 -0.327976,-0.909675 -0.691233,-1.820514 -0.801061,-2.830166 -0.140044,-0.993697 -0.329467,-1.972603 -0.668279,-2.880946 -0.30075,-0.784287 -0.647476,-1.704831 -0.200507,-2.593121 0.348104,-0.987873 0.958746,-1.941828 0.979727,-3.015661 -0.324038,-0.936972 -0.07597,-2.129365 0.496371,-2.952117 0.619947,-0.846386 1.208374,-1.747703 1.972076,-2.419594 0.667759,-0.635163 1.630564,-0.9887 1.931135,-2.037555 0.249132,-1.034008 -0.418533,-1.840012 -0.874668,-2.560295 -0.162102,-0.207677 -0.269071,-0.480865 -0.466266,-0.646844 l -0.0103,0.196113 z" id="path4051-0-8" inkscape:connector-curvature="0" sodipodi:nodetypes="ccscsccscscsccssccccccccccccccc"/>
      </g>
    </g>
  </g>
</svg>