<svg width="10" height="15" xmlns="http://www.w3.org/2000/svg">
<!-- Created with SVG-edit - http://svg-edit.googlecode.com/ -->
<g>
<g id="svg_38">
<path fill="#86e086" stroke="#000000" stroke-width="0" d="m4.88675,15.00777c-0.1127,-0.06029 -0.02817,-1.95941 0.95804,-3.67767c0.98621,-1.71826 2.05695,-1.5374 2.00061,-1.4771c-0.0564,0.06029 -1.18347,1.68811 -1.57794,2.291c-0.3945,0.60292 -1.26801,2.92406 -1.38071,2.86377z" id="svg_2"/>
<path fill="#9cbc69" stroke="#000000" stroke-width="0" d="m4.97003,14.08189c0.08939,-0.14952 0.02237,-4.85924 -0.75952,-9.12041c-0.78186,-4.26118 -1.63077,-3.81265 -1.58612,-3.66312c0.04468,0.14951 0.93829,4.1864 1.25104,5.68156c0.31274,1.49515 1.00528,7.25146 1.0946,7.10196l0,0.00001z" id="svg_3"/>
<path fill="#deef8f" stroke="#000000" stroke-width="0" d="m4.93878,14.08163c-0.11655,-0.16367 -0.02914,-5.3186 0.99042,-9.98264c1.01959,-4.664 2.12653,-4.17307 2.0683,-4.00941c-0.05829,0.16365 -1.22351,4.58218 -1.63135,6.21869c-0.40784,1.63649 -1.31085,7.937 -1.42737,7.77336z" id="svg_4"/>
<path fill="#8be89c" stroke="#000000" stroke-width="0" d="m5.04944,13.70303c0.15414,-0.06824 0.03851,-2.2178 -1.31042,-4.16267c-1.34894,-1.94485 -2.81351,-1.74014 -2.73642,-1.67189c0.07706,0.06824 1.61871,1.91074 2.15829,2.59314c0.53961,0.6824 1.73438,3.30968 1.88855,3.24142z" id="svg_5"/>
<path fill="#3ed813" stroke="#000000" stroke-width="0" d="m4.86859,14.23541c0.08939,-0.09032 0.02237,-2.93559 -0.75952,-5.50989c-0.78186,-2.5743 -1.6308,-2.30331 -1.58612,-2.21298c0.04468,0.09033 0.93829,2.52913 1.25104,3.43239c0.31274,0.90326 1.00528,4.38081 1.0946,4.29048z" id="svg_6"/>
</g>
</g>
</svg>

