<svg width="12" height="10" xmlns="http://www.w3.org/2000/svg">
 <!-- Created with SVG-edit - http://svg-edit.googlecode.com/ -->

 <g>
  <title>Layer 1</title>
  <g id="svg_23">
   <path d="m2.32129,8.04185c1.2565,0 3.98589,0.04636 6.74755,0.09072c1.38083,0.02218 0.67582,-1.9099 1.20739,-3.04705c0.53158,-1.13715 -2.43528,-4.72493 -2.72415,-3.65591c-0.28888,1.06903 -3.38778,-1.32543 -4.05612,-0.29437c-0.66834,1.03105 -2.69061,3.50439 -2.43462,4.85957l1.25995,2.04704z" id="svg_1" stroke="#000000" fill="#cccccc"/>
   <path d="m9.70355,7.94204c0,-0.11666 -0.10874,-0.05533 -0.18922,-0.11666c-0.17996,-0.13714 -0.21693,-0.15083 -0.28384,-0.23332c-0.0669,-0.08249 -0.16022,-0.28684 -0.28384,-0.34998c-0.08741,-0.04465 -0.12233,-0.03417 -0.18922,-0.11666c-0.0669,-0.08249 -0.02771,-0.15083 -0.09461,-0.23332c-0.06691,-0.08249 -0.09462,-0.11666 -0.09462,-0.23332c0,-0.11666 0,-0.23332 0,-0.34998l0,-0.11666l-0.39008,-0.43352l-0.45962,-0.02996" id="svg_13" stroke="#000000" fill="none"/>
   <path d="m3.6078,1.06017c0.09461,0 0.18923,0 0.28384,0.11666c0.09461,0.11666 0.23263,0.19756 0.28384,0.34998c0.03621,0.10778 -0.00487,0.15151 0.09461,0.34998c0.11123,0.2219 0.13122,0.34037 0.37845,0.46664c0.17482,0.08929 0.28383,0.11666 0.28383,0.34998c0,0.11666 0.59094,0.40673 0.65273,0.69679l0.38232,0.72464" id="svg_14" stroke="#000000" fill="none"/>
   <path d="m2.39723,8.05975c0.09461,0 0.12233,-0.03417 0.18922,-0.11666c0.0669,-0.08249 0.09461,-0.11666 0.09461,-0.23332c0,-0.11666 0.09461,-0.11666 0.09461,-0.23332c0,-0.11666 -0.02771,-0.15083 -0.09461,-0.23332c-0.0669,-0.08249 0.02771,-0.15083 0.09461,-0.23332c0.0669,-0.08249 0.52016,-0.20863 0.39009,-0.66684l0.64497,-0.46347" id="svg_20" stroke="#000000" fill="none"/>
  </g>
 </g>
</svg>

