<svg width="640" height="480" xmlns="http://www.w3.org/2000/svg">
 <!-- Created with SVG-edit - http://svg-edit.googlecode.com/ -->

 <g>
  <title>Layer 1</title>
  <path fill="#188e18" stroke="#000000" d="m0,24l50,-25l50,25l-50,25l-50,-25z" id="diam"/>
  <path fill="#59ff00" stroke="#000000" stroke-width="0" d="m18.97319,30.11886c-0.20207,-0.12257 -0.05053,-3.98357 1.71761,-7.47686c1.76814,-3.49328 3.68782,-3.12557 3.58679,-3.00302c-0.10105,0.12259 -2.12176,3.43201 -2.82902,4.65772c-0.70725,1.22571 -2.27331,5.94472 -2.47538,5.82215l0,0.00001z" id="svg_15"/>
  <path fill="#85dd85" stroke="#000000" stroke-width="0" d="m19.24397,29.97802c-0.12689,-0.14053 -0.03172,-4.5669 1.07849,-8.57171c1.11023,-4.00481 2.31561,-3.58324 2.25217,-3.44272c-0.06344,0.14051 -1.33227,3.93455 -1.77635,5.33974c-0.44409,1.4052 -1.42743,6.81521 -1.5543,6.67469z" id="svg_16"/>
  <path fill="#83ff00" stroke="#000000" stroke-width="0" d="m19.10343,29.48637c0.06804,-0.13075 0.01701,-4.24873 -0.57844,-7.97452c-0.59544,-3.72579 -1.24192,-3.33359 -1.2079,-3.20286c0.03402,0.13072 0.71453,3.66042 0.95272,4.96772c0.23817,1.3073 0.76556,6.34038 0.83362,6.20967z" id="svg_17"/>
  <path fill="#99ff99" stroke="#000000" stroke-width="0" d="m19.15001,29.90808c0.14881,-0.12257 0.0372,-3.98357 -1.26492,-7.47686c-1.30211,-3.4933 -2.71583,-3.12557 -2.64144,-3.00302c0.07441,0.12257 1.56254,3.43201 2.08338,4.65772c0.52086,1.22571 1.67414,5.94472 1.82297,5.82215l0.00001,0.00001z" id="svg_18"/>
  <path fill="#558e55" stroke="#000000" stroke-width="0" d="m19.06452,29.62772c0.18221,-0.08588 0.04554,-2.79044 -1.54897,-5.23742c-1.59453,-2.44699 -3.32571,-2.18942 -3.2346,-2.10357c0.09112,0.08586 1.91342,2.40406 2.55121,3.26266c0.63782,0.85859 2.05012,4.16418 2.23235,4.07832l0.00001,0.00001z" id="svg_19"/>
  <path id="svg_2" fill="#bcff99" stroke="#000000" stroke-width="0" d="m63.19393,32.61886c-0.20205,-0.12257 -0.05052,-3.98357 1.71739,-7.47686c1.76791,-3.49328 3.68734,-3.12557 3.58633,-3.00302c-0.10104,0.12259 -2.12148,3.43201 -2.82866,4.65772c-0.70715,1.22571 -2.27301,5.94472 -2.47506,5.82215l0,0.00001z"/>
  <path id="svg_3" fill="#85dd85" stroke="#000000" stroke-width="0" d="m63.46468,32.47802c-0.12687,-0.14053 -0.03172,-4.5669 1.07835,-8.57171c1.11008,-4.00482 2.3153,-3.58324 2.25187,-3.44273c-0.06343,0.14052 -1.33209,3.93455 -1.77612,5.33974c-0.44404,1.4052 -1.42725,6.81521 -1.5541,6.6747z"/>
  <path id="svg_4" fill="#cdff99" stroke="#000000" stroke-width="0" d="m63.32416,31.98637c0.06803,-0.13075 0.01701,-4.24873 -0.57837,-7.97452c-0.59536,-3.72579 -1.24176,-3.33359 -1.20774,-3.20287c0.03402,0.13072 0.71444,3.66042 0.95259,4.96772c0.23814,1.3073 0.76546,6.34038 0.83352,6.20967z"/>
  <path id="svg_5" fill="#99ff99" stroke="#000000" stroke-width="0" d="m63.37073,33.40808c0.14878,-0.12257 0.03719,-3.98357 -1.26476,-7.47686c-1.30194,-3.4933 -2.71547,-3.12557 -2.64109,-3.00302c0.0744,0.12257 1.56234,3.43201 2.08311,4.65772c0.52079,1.22571 1.67393,5.94472 1.82273,5.82215l0.00001,0z"/>
  <path id="svg_6" fill="#1d911d" stroke="#000000" stroke-width="0" d="m63.28526,32.12772c0.18219,-0.08588 0.04553,-2.79044 -1.54877,-5.23743c-1.59432,-2.44699 -3.32528,-2.18942 -3.23417,-2.10357c0.09111,0.08586 1.91317,2.40406 2.55088,3.26266c0.63773,0.85859 2.04985,4.16418 2.23205,4.07832l0.00001,0.00001z"/>
  <path id="svg_8" fill="#bcff99" stroke="#000000" stroke-width="0" d="m86.72453,31.61941c-0.18184,-0.09254 -0.04546,-3.00738 1.54564,-5.64463c1.59112,-2.63724 3.31861,-2.35963 3.2277,-2.26711c-0.09093,0.09255 -1.90933,2.59098 -2.54579,3.51633c-0.63644,0.92535 -2.04571,4.48794 -2.22755,4.3954l0,0.00001l0.00001,0z"/>
  <path id="svg_9" fill="#85dd85" stroke="#000000" stroke-width="0" d="m86.96822,31.51308c-0.1142,-0.1061 -0.02856,-3.44776 0.9705,-6.47118c0.99908,-3.02342 2.08378,-2.70515 2.0267,-2.59907c-0.05709,0.10608 -1.19889,2.97037 -1.5985,4.03122c-0.39964,1.06085 -1.28453,5.14511 -1.3987,5.03903l0,0z"/>
  <path id="svg_10" fill="#83ff00" stroke="#000000" stroke-width="0" d="m86.84174,31.14191c0.06123,-0.09871 0.0153,-3.20756 -0.52053,-6.02033c-0.53583,-2.81277 -1.11758,-2.51668 -1.08696,-2.41799c0.03061,0.09869 0.64299,2.76342 0.85733,3.75036c0.21432,0.98694 0.68891,4.78664 0.75016,4.68796z"/>
  <path id="svg_11" fill="#99ff99" stroke="#000000" stroke-width="0" d="m86.88365,31.46029c0.13391,-0.09254 0.03348,-3.00738 -1.13828,-5.64462c-1.17175,-2.63725 -2.44393,-2.35964 -2.37698,-2.26711c0.06696,0.09254 1.40611,2.59098 1.87479,3.51633c0.46872,0.92535 1.50654,4.48794 1.64046,4.3954l0,0.00001z"/>
  <path id="svg_12" fill="#1d911d" stroke="#000000" stroke-width="0" d="m86.80673,31.24862c0.16397,-0.06483 0.04099,-2.10663 -1.39389,-3.95397c-1.43489,-1.84734 -2.99275,-1.65289 -2.91075,-1.58808c0.08199,0.06482 1.72185,1.81494 2.29579,2.46313c0.57396,0.64819 1.84486,3.14373 2.00884,3.07891l0.00001,0z"/>
  <path d="m54.12416,47.02981c0.2875,-0.07011 0.07188,-2.27845 -2.4438,-4.27647c-2.51567,-1.99802 -5.24697,-1.7877 -5.10322,-1.7176c0.14377,0.0701 3.0188,1.96297 4.02509,2.66404c1.00627,0.70106 3.23442,3.40015 3.52194,3.33004l-0.00001,0z" stroke-width="0" stroke="#000000" fill="#ccff99" id="svg_14"/>
  <path d="m54.27854,46.99788c-0.196,-0.06115 -0.049,-1.98744 1.66605,-3.73026c1.71505,-1.74283 3.57713,-1.55937 3.47912,-1.49822c-0.09801,0.06116 -2.05809,1.71225 -2.7441,2.32377c-0.68602,0.61152 -2.20506,2.96587 -2.40107,2.90471l-0.00001,0z" stroke-width="0" stroke="#000000" fill="#99ff99" id="svg_22"/>
  <path d="m53.93311,46.85826c0.18485,-0.03022 0.04623,-0.9821 -1.57132,-1.84333c-1.61752,-0.86123 -3.3737,-0.77057 -3.28128,-0.74035c0.09243,0.03022 1.94103,0.84612 2.58804,1.1483c0.64704,0.30219 2.07971,1.46559 2.26456,1.43538l0,0z" stroke-width="0" stroke="#000000" fill="#9bc174" id="svg_23"/>
  <path d="m53.84457,46.96304c-0.08256,-0.05178 -0.02065,-1.6832 0.7017,-3.15923c0.72235,-1.47604 1.50661,-1.32067 1.46532,-1.26888c-0.04127,0.05178 -0.86683,1.45014 -1.15576,1.96805c-0.28894,0.51791 -0.92873,2.51185 -1.01127,2.46006l0,0l0.00001,0z" stroke-width="0" stroke="#000000" fill="#7fff00" id="svg_24"/>
  <path d="m54.14096,47.11997c0.10383,-0.09575 0.02596,-3.11185 -0.88258,-5.8407c-0.90853,-2.72885 -1.89494,-2.4416 -1.84304,-2.34586c0.05193,0.09575 1.09024,2.68098 1.45367,3.63847c0.36342,0.9575 1.16813,4.64384 1.27195,4.54809z" stroke-width="0" stroke="#000000" fill="#ccff99" id="svg_25"/>
  <path d="m68.12657,20.01067c0.2875,-0.08711 0.07188,-2.83106 -2.44379,-5.31369c-2.51567,-2.48262 -5.24697,-2.22129 -5.10323,-2.13419c0.14377,0.08711 3.0188,2.43907 4.02509,3.31017c1.00627,0.87109 3.23441,4.22481 3.52194,4.1377l-0.00001,0z" stroke-width="0" stroke="#000000" fill="#ccff99" id="svg_27"/>
  <path d="m68.28095,19.971c-0.196,-0.07598 -0.049,-2.46947 1.66606,-4.635c1.71505,-2.16553 3.57713,-1.93758 3.47911,-1.86159c-0.09801,0.07599 -2.05807,2.12754 -2.74409,2.88737c-0.68602,0.75984 -2.20506,3.68521 -2.40106,3.60922l-0.00002,0z" stroke-width="0" stroke="#000000" fill="#99ff99" id="svg_28"/>
  <path d="m67.93553,19.79752c0.18485,-0.03755 0.04623,-1.2203 -1.57133,-2.29041c-1.61752,-1.0701 -3.3737,-0.95747 -3.28127,-0.91991c0.09243,0.03755 1.94102,1.05133 2.58804,1.42681c0.64703,0.37548 2.07971,1.82106 2.26456,1.78352l0,0.00001z" stroke-width="0" stroke="#000000" fill="#70c41d" id="svg_29"/>
  <path d="m67.84698,19.92771c-0.08256,-0.06435 -0.02065,-2.09144 0.70171,-3.92547c0.72235,-1.83404 1.50661,-1.64098 1.46532,-1.57663c-0.04127,0.06435 -0.86683,1.80186 -1.15577,2.44538c-0.28894,0.64352 -0.92873,3.12107 -1.01127,3.05672l0,0l0.00001,-0.00001z" stroke-width="0" stroke="#000000" fill="#7fff00" id="svg_30"/>
  <path d="m68.14339,20.12271c0.10383,-0.11898 0.02595,-3.8666 -0.88258,-7.2573c-0.90853,-3.3907 -1.89495,-3.03378 -1.84304,-2.91481c0.05193,0.11898 1.09024,3.33122 1.45367,4.52094c0.36343,1.18972 1.16813,5.77015 1.27196,5.65118z" stroke-width="0" stroke="#000000" fill="#ccff99" id="svg_31"/>
  <path d="m54.53909,23.98835c0.26513,-0.10411 0.06628,-3.38367 -2.2537,-6.3509c-2.31998,-2.96722 -4.83882,-2.65487 -4.70625,-2.55077c0.13259,0.10411 2.78397,2.91516 3.71199,3.9563c0.92799,1.04113 2.98282,5.04948 3.24797,4.94537l0,0z" stroke-width="0" stroke="#000000" fill="#ccff99" id="svg_33"/>
  <path d="m54.68147,22.94094c-0.18076,-0.09081 -0.04518,-2.9515 1.53645,-5.53973c1.58164,-2.58823 3.29888,-2.31579 3.20848,-2.22497c-0.09039,0.09082 -1.89799,2.54282 -2.53064,3.45098c-0.63266,0.90816 -2.03354,4.40454 -2.21429,4.31373l-0.00001,-0.00001z" stroke-width="0" stroke="#000000" fill="#99ff99" id="svg_34"/>
  <path d="m54.36291,23.73359c0.17047,-0.04488 0.04263,-1.4585 -1.44909,-2.73749c-1.4917,-1.27899 -3.11126,-1.14436 -3.02603,-1.09948c0.08524,0.04488 1.79004,1.25654 2.38672,1.70531c0.5967,0.44877 1.91793,2.17652 2.08841,2.13165l0,0.00001z" stroke-width="0" stroke="#000000" fill="#9bc174" id="svg_35"/>
  <path d="m54.28125,23.88919c-0.07614,-0.07691 -0.01904,-2.49968 0.64712,-4.69171c0.66616,-2.19204 1.38942,-1.9613 1.35134,-1.88438c-0.03806,0.07691 -0.7994,2.15358 -1.06586,2.92271c-0.26647,0.76913 -0.85649,3.7303 -0.93261,3.65338l0,0l0.00001,-0.00001z" stroke-width="0" stroke="#000000" fill="#ccff99" id="svg_36"/>
  <path d="m54.55459,24.12226c0.09576,-0.1422 0.02394,-4.62134 -0.81393,-8.6739c-0.83786,-4.05256 -1.74754,-3.62596 -1.69967,-3.48378c0.04789,0.1422 1.00543,3.98146 1.34059,5.40341c0.33515,1.42195 1.07726,6.89646 1.17301,6.75426z" stroke-width="0" stroke="#000000" fill="#7fff00" id="svg_37"/>
  <path id="svg_51" fill="#28e228" stroke="#000000" stroke-width="0" d="m75.27625,34.91067c-0.08051,-0.05606 -0.02013,-1.82188 0.6843,-3.41953c0.70443,-1.59764 1.46925,-1.42947 1.429,-1.37341c-0.04026,0.05606 -0.84534,1.56962 -1.1271,2.13019c-0.28178,0.56058 -0.90571,2.71881 -0.98621,2.66275z"/>
  <path id="svg_52" fill="#9fbc71" stroke="#000000" stroke-width="0" d="m75.33575,34.97959c0.06383,-0.13902 0.01597,-4.51814 -0.54252,-8.4802c-0.55849,-3.96207 -1.16484,-3.54501 -1.13293,-3.40599c0.03191,0.13902 0.67018,3.89256 0.89357,5.28275c0.22341,1.3902 0.71806,6.74246 0.78188,6.60344z"/>
  <path id="svg_53" fill="#deef8f" stroke="#000000" stroke-width="0" d="m75.3134,34.97934c-0.08323,-0.15217 -0.02081,-4.94527 0.70747,-9.2819c0.72826,-4.33662 1.51894,-3.88014 1.47733,-3.72798c-0.04162,0.15216 -0.87392,4.26055 -1.16522,5.78218c-0.29131,1.52162 -0.93633,7.37986 -1.01958,7.22771z"/>
  <path id="svg_54" fill="#8be89c" stroke="#000000" stroke-width="0" d="m75.39244,34.62733c0.11012,-0.06345 0.02753,-2.06214 -0.93601,-3.87048c-0.96352,-1.80834 -2.00965,-1.61799 -1.95458,-1.55453c0.05505,0.06345 1.15623,1.77661 1.54165,2.41112c0.38542,0.6345 1.23882,3.07735 1.34895,3.0139z"/>
  <path id="svg_55" fill="#3ed813" stroke="#000000" stroke-width="0" d="m75.26328,35.12234c0.06384,-0.08399 0.01597,-2.72953 -0.54252,-5.12312c-0.55849,-2.39359 -1.16484,-2.14164 -1.13293,-2.05765c0.03191,0.08399 0.67019,2.35159 0.89358,3.19145c0.2234,0.83986 0.71806,4.07331 0.78188,3.98932z"/>
  <path id="svg_57" fill="#86e086" stroke="#000000" stroke-width="0" d="m29.38675,35.89449c-0.11272,-0.0603 -0.02818,-1.95942 0.95803,-3.67768c0.9862,-1.71826 2.05695,-1.53739 2.0006,-1.4771c-0.05637,0.06029 -1.18347,1.68811 -1.57794,2.29101c-0.39449,0.60291 -1.268,2.92406 -1.38069,2.86377z"/>
  <path id="svg_58" fill="#9cbc69" stroke="#000000" stroke-width="0" d="m29.47004,34.96861c0.08937,-0.14951 0.02236,-4.85924 -0.75952,-9.12041c-0.78189,-4.26118 -1.63078,-3.81264 -1.58611,-3.66312c0.04467,0.14952 0.93826,4.18642 1.251,5.68157c0.31277,1.49515 1.00529,7.25147 1.09463,7.10196z"/>
  <path id="svg_59" fill="#deef8f" stroke="#000000" stroke-width="0" d="m29.43876,34.96835c-0.11652,-0.16366 -0.02913,-5.31861 0.99045,-9.98263c1.01958,-4.66401 2.12652,-4.17307 2.06827,-4.00942c-0.05827,0.16365 -1.22349,4.58219 -1.63132,6.21869c-0.40783,1.63649 -1.31086,7.937 -1.4274,7.77336z"/>
  <path id="svg_60" fill="#8be89c" stroke="#000000" stroke-width="0" d="m29.54942,34.58976c0.15416,-0.06824 0.03855,-2.21782 -1.31041,-4.16268c-1.34894,-1.94486 -2.81351,-1.74014 -2.73642,-1.67189c0.07707,0.06824 1.61872,1.91074 2.15831,2.59314c0.53959,0.6824 1.73436,3.30967 1.88852,3.24143z"/>
  <path id="svg_61" fill="#3ed813" stroke="#000000" stroke-width="0" d="m29.3686,35.12214c0.08937,-0.09033 0.02236,-2.9356 -0.75953,-5.50989c-0.78188,-2.5743 -1.63078,-2.30332 -1.5861,-2.21299c0.04467,0.09033 0.93826,2.52913 1.251,3.43239c0.31277,0.90326 1.00529,4.38082 1.09463,4.29049z"/>
  <path id="svg_63" fill="#86e086" stroke="#000000" stroke-width="0" d="m37.8315,19.97217c-0.09662,-0.03913 -0.02415,-1.27172 0.82117,-2.38691c0.84532,-1.11519 1.7631,-0.9978 1.71481,-0.95868c-0.04832,0.03913 -1.0144,1.09563 -1.35252,1.48693c-0.33813,0.3913 -1.08685,1.89779 -1.18345,1.85866z"/>
  <path id="svg_64" fill="#7abf0b" stroke="#000000" stroke-width="0" d="m37.90289,20.02028c0.0766,-0.09704 0.01917,-3.15377 -0.65102,-5.91939c-0.67019,-2.76562 -1.39781,-2.4745 -1.35952,-2.37746c0.03829,0.09704 0.80422,2.7171 1.07229,3.68749c0.26809,0.9704 0.86167,4.7064 0.93825,4.60936z"/>
  <path style="vector-effect: non-scaling-stroke;" id="svg_65" fill="#deef8f" stroke="#000000" stroke-width="0" d="m37.87608,20.02011c-0.09988,-0.10622 -0.02496,-3.45192 0.84896,-6.47899c0.87392,-3.02707 1.82273,-2.70844 1.77281,-2.60222c-0.04995,0.10621 -1.04871,2.97397 -1.39828,4.0361c-0.34957,1.06213 -1.1236,5.15132 -1.22349,5.04512z"/>
  <path id="svg_66" fill="#10ea38" stroke="#000000" stroke-width="0" d="m37.97093,19.7744c0.13214,-0.04429 0.03304,-1.43942 -1.12321,-2.70169c-1.15623,-1.26226 -2.41158,-1.12939 -2.3455,-1.0851c0.06606,0.04429 1.38747,1.24012 1.84998,1.68302c0.46251,0.4429 1.4866,2.14806 1.61874,2.10377z"/>
  <path id="svg_67" fill="#94d680" stroke="#000000" stroke-width="0" d="m37.81594,20.11992c0.0766,-0.05863 0.01917,-1.90528 -0.65102,-3.57606c-0.67019,-1.67079 -1.39781,-1.49492 -1.35952,-1.43629c0.03829,0.05862 0.80422,1.64147 1.07228,2.22771c0.26809,0.58624 0.86168,2.84327 0.93825,2.78464z"/>
  <path id="svg_69" fill="#bcff99" stroke="#000000" stroke-width="0" d="m41.72453,35.28607c-0.18184,-0.09254 -0.04546,-3.00739 1.54564,-5.64462c1.59113,-2.63725 3.3186,-2.35963 3.22769,-2.26712c-0.09091,0.09255 -1.90933,2.59099 -2.54578,3.51633c-0.63644,0.92535 -2.04572,4.48794 -2.22757,4.3954l0,0.00001l0.00002,0z"/>
  <path id="svg_70" fill="#85dd85" stroke="#000000" stroke-width="0" d="m41.96822,35.17975c-0.1142,-0.1061 -0.02855,-3.44776 0.9705,-6.47118c0.99908,-3.02341 2.08377,-2.70515 2.0267,-2.59907c-0.0571,0.10608 -1.1989,2.97038 -1.59851,4.03122c-0.39963,1.06084 -1.28453,5.14511 -1.3987,5.03903l0,0z"/>
  <path id="svg_71" fill="#83ff00" stroke="#000000" stroke-width="0" d="m41.84174,34.80858c0.06123,-0.09871 0.01532,-3.20757 -0.52052,-6.02033c-0.53583,-2.81277 -1.11758,-2.51669 -1.08696,-2.41799c0.03061,0.09869 0.64299,2.76342 0.85733,3.75037c0.21432,0.98694 0.6889,4.78664 0.75015,4.68796z"/>
  <path id="svg_72" fill="#99ff99" stroke="#000000" stroke-width="0" d="m41.88365,35.12695c0.13391,-0.09254 0.03348,-3.00739 -1.13828,-5.64463c-1.17174,-2.63725 -2.44392,-2.35963 -2.37698,-2.26711c0.06697,0.09254 1.40611,2.59098 1.8748,3.51633c0.46872,0.92535 1.50653,4.48795 1.64046,4.39541l0,0.00001z"/>
  <path id="svg_73" fill="#1d911d" stroke="#000000" stroke-width="0" d="m41.80673,34.91528c0.16397,-0.06483 0.04099,-2.10663 -1.39389,-3.95396c-1.43489,-1.84735 -2.99275,-1.65289 -2.91075,-1.58808c0.08199,0.06482 1.72185,1.81493 2.29579,2.46313c0.57396,0.64819 1.84486,3.14373 2.00885,3.07891l0,0z"/>
  <path id="svg_75" fill="#86e086" stroke="#000000" stroke-width="0" d="m55.38675,36.56115c-0.11272,-0.0603 -0.02817,-1.95942 0.95804,-3.67768c0.98619,-1.71825 2.05695,-1.53738 2.0006,-1.4771c-0.05637,0.06029 -1.18347,1.68811 -1.57794,2.291c-0.39449,0.60291 -1.26799,2.92406 -1.38069,2.86378z"/>
  <path id="svg_76" fill="#9fbc71" stroke="#000000" stroke-width="0" d="m55.47005,36.63528c0.08936,-0.14951 0.02235,-4.85924 -0.75954,-9.12041c-0.78188,-4.26118 -1.63077,-3.81264 -1.58609,-3.66312c0.04466,0.14952 0.93825,4.18642 1.25099,5.68157c0.31277,1.49516 1.00529,7.25147 1.09464,7.10196z"/>
  <path id="svg_77" fill="#deef8f" stroke="#000000" stroke-width="0" d="m55.43875,36.63501c-0.11652,-0.16365 -0.02911,-5.31861 0.99046,-9.98263c1.01958,-4.66401 2.12651,-4.17307 2.06827,-4.00942c-0.05827,0.16365 -1.2235,4.5822 -1.63132,6.2187c-0.40784,1.63649 -1.31087,7.937 -1.42741,7.77335z"/>
  <path id="svg_78" fill="#8be89c" stroke="#000000" stroke-width="0" d="m55.54941,36.25642c0.15417,-0.06824 0.03856,-2.21782 -1.31041,-4.16267c-1.34892,-1.94485 -2.81351,-1.74014 -2.7364,-1.67189c0.07706,0.06824 1.61871,1.91074 2.15829,2.59314c0.5396,0.6824 1.73436,3.30966 1.88852,3.24142z"/>
  <path id="svg_79" fill="#3ed813" stroke="#000000" stroke-width="0" d="m55.36859,36.7888c0.08937,-0.09033 0.02237,-2.9356 -0.75952,-5.50989c-0.78189,-2.5743 -1.63077,-2.30332 -1.58611,-2.213c0.04468,0.09033 0.93826,2.52913 1.25101,3.43239c0.31276,0.90326 1.00528,4.38081 1.09462,4.2905z"/>
  <path id="svg_81" fill="#bcff99" stroke="#000000" stroke-width="0" d="m47.69392,10.78552c-0.20204,-0.12257 -0.05052,-3.98357 1.71739,-7.47686c1.76791,-3.49329 3.68735,-3.12557 3.58633,-3.00301c-0.10104,0.12259 -2.12149,3.43201 -2.82867,4.65772c-0.70715,1.22572 -2.27301,5.94472 -2.47505,5.82214l0,0.00001z"/>
  <path id="svg_82" fill="#85dd85" stroke="#000000" stroke-width="0" d="m47.96468,10.64468c-0.12688,-0.14053 -0.03172,-4.56689 1.07835,-8.57172c1.11008,-4.00481 2.31531,-3.58324 2.25186,-3.44272c-0.06342,0.14051 -1.33209,3.93455 -1.77611,5.33974c-0.44405,1.4052 -1.42725,6.81522 -1.55411,6.6747z"/>
  <path id="svg_83" fill="#83ff00" stroke="#000000" stroke-width="0" d="m47.82416,10.15303c0.06804,-0.13074 0.01701,-4.24873 -0.57837,-7.97452c-0.59535,-3.72579 -1.24176,-3.3336 -1.20773,-3.20287c0.03401,0.13072 0.71443,3.66042 0.95259,4.96772c0.23814,1.3073 0.76546,6.34038 0.83351,6.20966z"/>
  <path id="svg_84" fill="#99ff99" stroke="#000000" stroke-width="0" d="m47.87073,10.57475c0.14879,-0.12257 0.0372,-3.98357 -1.26476,-7.47687c-1.30194,-3.4933 -2.71547,-3.12556 -2.6411,-3.00301c0.0744,0.12257 1.56235,3.43201 2.08311,4.65772c0.5208,1.22572 1.67392,5.94472 1.82274,5.82215l0,0.00001z"/>
  <path id="svg_85" fill="#558e55" stroke="#000000" stroke-width="0" d="m47.78526,10.29439c0.18219,-0.08588 0.04553,-2.79044 -1.54877,-5.23743c-1.59431,-2.44699 -3.32529,-2.18942 -3.23418,-2.10357c0.09111,0.08585 1.91316,2.40406 2.55087,3.26266c0.63774,0.85859 2.04985,4.16418 2.23206,4.07832l0.00002,0.00002z"/>
 </g>
</svg>
